<svg width="300" height="72" viewBox="0 0 300 72" fill="none" xmlns="http://www.w3.org/2000/svg">
<g clip-path="url(#clip0_143_767)">
<path d="M76.8896 53.6165V5.99146H104.916V11.983H82.7013V26.6162H102.66V32.6077H82.7013V47.5481H106.483V53.5396H76.8896V53.6165Z" fill="#E43225"/>
<path d="M135.924 53.6165L126.289 40.9421L116.654 53.6165H109.848L123 36.6789L109.121 19.2036H116.768L126.25 32.3005L135.886 19.2036H143.38L130.227 36.6789L142.691 53.6165H135.924Z" fill="#E43225"/>
<path d="M152.059 48.5083V71.9752H146.247V36.8325C146.247 27.8836 153.053 18.3586 163.644 18.3586C174.388 18.3586 182.493 25.1951 182.493 36.4101C182.493 47.3561 174.273 54.8839 164.944 54.8839C160.432 54.8839 154.315 52.9252 152.059 48.5083ZM176.414 36.4101C176.414 28.7286 171.444 24.1966 162.688 24.619C158.444 24.7727 151.944 27.8836 152.479 38.8297C152.632 42.4016 156.303 49.0844 164.37 49.0844C171.329 49.0844 176.414 45.0901 176.414 36.4101Z" fill="#E43225"/>
<path d="M187.464 53.6165V19.2036H193.276V22.8907C196.105 19.6261 200.502 18.4739 205.167 18.4739V24.7343C204.44 24.5806 197.52 23.7357 193.276 32.8382V53.7317H187.464V53.6165Z" fill="#E43225"/>
<path d="M206.734 36.4101C206.734 26.4626 213.808 18.3586 223.596 18.3586C235.754 18.3586 240.304 26.4626 240.304 36.8325V39.6747H213.12C213.54 46.2039 219.352 49.6222 224.743 49.5069C228.719 49.3533 231.396 48.2395 234.225 45.3974L238.048 49.3917C234.493 52.81 229.981 55.076 224.475 55.076C214.075 54.8839 206.734 47.2025 206.734 36.4101ZM223.137 24.1966C217.631 24.1966 213.349 29.0359 213.081 34.2977H234.187C234.187 29.1511 230.516 24.1966 223.137 24.1966Z" fill="#E43225"/>
<path d="M243.248 48.777L247.492 44.9363C247.339 44.9363 249.633 47.2023 249.901 47.356C250.895 48.2009 251.889 48.777 253.151 49.0459C256.822 50.0445 263.474 49.7756 264.048 44.629C264.316 41.7869 262.213 40.2122 259.804 39.2136C256.707 38.0614 253.304 37.6389 250.169 36.2179C246.613 34.6432 244.357 31.9546 244.357 27.9603C244.357 17.5903 259.077 15.862 265.73 20.7013C265.998 20.9702 269.286 23.9659 269.133 23.9659L264.889 27.3842C262.748 24.8109 260.798 23.5435 256.248 23.5435C253.992 23.5435 250.857 24.542 250.283 26.9617C249.442 30.3799 253.266 31.6474 255.789 32.3771C259.192 33.2221 262.863 33.7982 265.845 35.6417C269.936 38.215 270.93 43.7457 269.401 48.0089C267.718 52.6946 262.595 54.5381 258.083 54.6917C252.73 55.0374 248.066 53.3475 244.242 49.5068C243.937 49.5068 243.248 48.777 243.248 48.777Z" fill="#E43225"/>
<path d="M273.11 48.777L277.354 44.9363C277.201 44.9363 279.495 47.2023 279.762 47.356C280.757 48.2009 281.751 48.777 283.012 49.0459C286.683 50.0445 293.336 49.7756 293.909 44.629C294.177 41.7869 292.074 40.2122 289.665 39.2136C286.568 38.0614 283.165 37.6389 280.03 36.2179C276.474 34.6432 274.218 31.9546 274.218 27.9603C274.218 17.5903 288.939 15.862 295.592 20.7013C295.859 20.9702 299.147 23.9659 298.994 23.9659L294.75 27.3842C292.609 24.8109 290.659 23.5435 286.109 23.5435C283.854 23.5435 280.718 24.542 280.145 26.9617C279.304 30.3799 283.127 31.6474 285.651 32.3771C289.053 33.2221 292.724 33.7982 295.706 35.6417C299.797 38.215 300.791 43.7457 299.262 48.0089C297.58 52.6946 292.456 54.5381 287.945 54.6917C282.554 54.9606 277.889 53.2707 274.065 49.4299C273.836 49.5068 273.11 48.777 273.11 48.777Z" fill="#E43225"/>
<path d="M37.5081 53.6165L33.2641 42.248H10.3233L6.0793 53.6165H0L18.3908 5.95312H25.0437L43.3198 53.6165H37.5081ZM21.5261 12.7896L12.8851 36.4101H30.8553L21.5261 12.7896Z" fill="#E43225"/>
<path d="M47.1433 53.6165V5.99146H53.1079V53.6549H47.1433V53.6165Z" fill="#E43225"/>
<path d="M62.0166 53.6164V19.8948H67.9812V53.6164H62.0166Z" fill="#E43225"/>
<path d="M73.6399 8.94881C73.6399 8.79518 73.6399 8.79518 73.6399 8.67996C73.6399 8.52633 73.6399 8.52634 73.6399 8.41111C69.1282 8.25748 65.4194 4.57039 65.3047 0.0383301C65.1518 0.0383301 65.0371 0.0383301 64.8841 0.0383301C64.7312 0.0383301 64.6165 0.0383301 64.4636 0.0383301C64.3106 4.57039 60.6401 8.29589 56.1284 8.41111C56.1284 8.56474 56.1284 8.56474 56.1284 8.67996C56.1284 8.83359 56.1284 8.83359 56.1284 8.94881C60.6401 9.10244 64.3488 12.7895 64.4636 17.3216C64.6165 17.3216 64.7312 17.3216 64.8841 17.3216C65.0371 17.3216 65.1518 17.3216 65.3047 17.3216C65.4194 12.7895 69.0899 9.10244 73.6399 8.94881Z" fill="#E43225"/>
</g>
<defs>
<clipPath id="clip0_143_767">
<rect width="300" height="72" fill="white"/>
</clipPath>
</defs>
</svg>
