<svg width="300" height="92" viewBox="0 0 300 92" fill="none" xmlns="http://www.w3.org/2000/svg">
<g clip-path="url(#clip0_143_758)">
<path fill-rule="evenodd" clip-rule="evenodd" d="M186.114 71.4674C168.681 84.3022 143.412 91.15 121.656 91.15C91.1504 91.15 63.6878 79.8804 42.9112 61.137C41.2788 59.663 42.7414 57.6544 44.7003 58.8022C67.1222 71.8326 94.8461 79.6717 123.484 79.6717C142.798 79.6717 164.045 75.6804 183.581 67.3978C186.532 66.1457 189 69.3283 186.114 71.4674Z" fill="#FF9900"/>
<path fill-rule="evenodd" clip-rule="evenodd" d="M193.362 63.1849C191.142 60.3414 178.632 61.8414 173.016 62.5067C171.306 62.7154 171.044 61.2284 172.585 60.1588C182.549 53.1545 198.899 55.1762 200.805 57.524C202.712 59.8849 200.309 76.2545 190.946 84.0675C189.509 85.2675 188.138 84.6284 188.778 83.0371C190.881 77.7936 195.595 66.0414 193.362 63.1849Z" fill="#FF9900"/>
<path fill-rule="evenodd" clip-rule="evenodd" d="M173.408 10.7111V3.9024C173.408 2.87197 174.191 2.18066 175.132 2.18066H205.65C206.63 2.18066 207.413 2.88501 207.413 3.9024V9.73283C207.4 10.7111 206.577 11.9894 205.115 14.0111L189.301 36.5632C195.177 36.4198 201.38 37.2937 206.708 40.2937C207.909 40.9719 208.236 41.9632 208.327 42.9415V50.2067C208.327 51.198 207.23 52.3589 206.081 51.7589C196.692 46.8415 184.221 46.3067 173.839 51.8111C172.781 52.385 171.671 51.2372 171.671 50.2458V43.3459C171.671 42.2372 171.684 40.3459 172.794 38.6632L191.116 12.4198H175.171C174.191 12.4198 173.408 11.7285 173.408 10.7111Z" fill="black"/>
<path fill-rule="evenodd" clip-rule="evenodd" d="M62.0815 53.1936H52.7967C51.9087 53.1283 51.2035 52.4631 51.1382 51.6153V4.01969C51.1382 3.06752 51.9348 2.31099 52.9272 2.31099H61.5852C62.4863 2.35009 63.2045 3.04142 63.2698 3.90229V10.124H63.4396C65.6988 4.11099 69.9429 1.30664 75.6626 1.30664C81.4738 1.30664 85.1041 4.11099 87.7159 10.124C89.962 4.11099 95.068 1.30664 100.54 1.30664C104.431 1.30664 108.688 2.91099 111.287 6.51098C114.225 10.5153 113.625 16.3327 113.625 21.4327L113.612 51.4718C113.612 52.424 112.815 53.1936 111.822 53.1936H102.551C101.624 53.1283 100.879 52.3849 100.879 51.4718V26.2458C100.879 24.2371 101.062 19.2284 100.618 17.324C99.9259 14.1284 97.8495 13.2284 95.1594 13.2284C92.9133 13.2284 90.5627 14.7284 89.6094 17.1284C88.6561 19.5284 88.7476 23.5457 88.7476 26.2458V51.4718C88.7476 52.424 87.951 53.1936 86.9585 53.1936H77.6867C76.7465 53.1283 76.0152 52.3849 76.0152 51.4718L76.0022 26.2458C76.0022 20.9371 76.8771 13.124 70.2824 13.124C63.6094 13.124 63.8705 20.7414 63.8705 26.2458V51.4718C63.8705 52.424 63.0739 53.1936 62.0815 53.1936Z" fill="black"/>
<path fill-rule="evenodd" clip-rule="evenodd" d="M233.687 1.30664C247.464 1.30664 254.921 13.124 254.921 28.1501C254.921 42.6675 246.681 54.1849 233.687 54.1849C220.158 54.1849 212.793 42.3675 212.793 27.6414C212.793 12.824 220.25 1.30664 233.687 1.30664ZM233.766 11.024C226.923 11.024 226.492 20.3371 226.492 26.1414C226.492 31.9588 226.4 44.3762 233.687 44.3762C240.883 44.3762 241.222 34.3588 241.222 28.2544C241.222 24.2371 241.052 19.4371 239.838 15.6284C238.793 12.3153 236.717 11.024 233.766 11.024Z" fill="black"/>
<path fill-rule="evenodd" clip-rule="evenodd" d="M272.785 53.1936H263.54C262.613 53.1283 261.868 52.3849 261.868 51.4718L261.855 3.86316C261.934 2.98925 262.704 2.31099 263.644 2.31099H272.25C273.06 2.35009 273.726 2.89795 273.909 3.64143V10.9197H274.078C276.677 4.41099 280.32 1.30664 286.732 1.30664C290.898 1.30664 294.959 2.80664 297.571 6.91533C300 10.724 300 17.1284 300 21.7327V51.6936C299.896 52.5283 299.125 53.1936 298.211 53.1936H288.9C288.051 53.1283 287.346 52.5023 287.255 51.6936V25.8414C287.255 20.6371 287.855 13.0197 281.443 13.0197C279.184 13.0197 277.108 14.5327 276.076 16.8284C274.77 19.7371 274.601 22.6327 274.601 25.8414V51.4718C274.588 52.424 273.778 53.1936 272.785 53.1936Z" fill="black"/>
<path fill-rule="evenodd" clip-rule="evenodd" d="M149.079 30.4588C149.079 34.0718 149.171 37.0849 147.343 40.2935C145.867 42.9023 143.516 44.5066 140.918 44.5066C137.353 44.5066 135.263 41.7935 135.263 37.7892C135.263 29.8849 142.354 28.4501 149.079 28.4501V30.4588ZM158.443 53.0631C157.829 53.6109 156.941 53.6501 156.249 53.2848C153.167 50.7283 152.605 49.5414 150.921 47.1022C145.828 52.2935 142.21 53.8457 135.616 53.8457C127.794 53.8457 121.721 49.0327 121.721 39.3936C121.721 31.8675 125.796 26.7414 131.62 24.237C136.66 22.0196 143.699 21.6283 149.079 21.0153V19.8153C149.079 17.611 149.249 15.0023 147.943 13.0979C146.82 11.3892 144.652 10.6849 142.733 10.6849C139.194 10.6849 136.047 12.4979 135.276 16.2544C135.12 17.0892 134.506 17.911 133.657 17.9501L124.659 16.9849C123.902 16.8153 123.053 16.2023 123.275 15.0414C125.338 4.13706 135.211 0.850098 144.039 0.850098C148.557 0.850098 154.46 2.0501 158.025 5.46749C162.543 9.68053 162.112 15.3023 162.112 21.4197V35.8718C162.112 40.2153 163.914 42.1196 165.612 44.4675C166.199 45.3022 166.33 46.3066 165.573 46.9327C163.679 48.5109 160.31 51.4457 158.456 53.0892L158.443 53.0631Z" fill="black"/>
<path fill-rule="evenodd" clip-rule="evenodd" d="M27.3582 30.4588C27.3582 34.0718 27.4496 37.0849 25.6214 40.2935C24.1457 42.9023 21.8082 44.5066 19.1964 44.5066C15.6314 44.5066 13.555 41.7935 13.555 37.7892C13.555 29.8849 20.646 28.4501 27.3582 28.4501V30.4588ZM36.7214 53.0631C36.1076 53.6109 35.2196 53.6501 34.5275 53.2848C31.4456 50.7283 30.8971 49.5414 29.1995 47.1022C24.1066 52.2935 20.5023 53.8457 13.8946 53.8457C6.08539 53.8457 0 49.0327 0 39.3936C0 31.8675 4.08741 26.7414 9.89857 24.237C14.9393 22.0196 21.978 21.6283 27.3582 21.0153V19.8153C27.3582 17.611 27.528 15.0023 26.2351 13.0979C25.099 11.3892 22.9313 10.6849 21.0247 10.6849C17.4857 10.6849 14.3255 12.4979 13.555 16.2544C13.3983 17.0892 12.7846 17.911 11.9488 17.9501L2.93823 16.9849C2.18082 16.8153 1.34505 16.2023 1.554 15.0414C3.63035 4.13706 13.4897 0.850098 22.3175 0.850098C26.8358 0.850098 32.7384 2.0501 36.3035 5.46749C40.8218 9.68053 40.3909 15.3023 40.3909 21.4197V35.8718C40.3909 40.2153 42.193 42.1196 43.8907 44.4675C44.4914 45.3022 44.6219 46.3066 43.8645 46.9327C41.971 48.5109 38.6018 51.4457 36.7475 53.0892L36.7214 53.0631Z" fill="black"/>
</g>
<defs>
<clipPath id="clip0_143_758">
<rect width="300" height="90.3" fill="white" transform="translate(0 0.850098)"/>
</clipPath>
</defs>
</svg>
