<svg width="300" height="170" viewBox="0 0 300 170" fill="none" xmlns="http://www.w3.org/2000/svg">
<g clip-path="url(#clip0_143_784)">
<path d="M78.6397 100.967L168.86 44.9444H215.625C217.059 44.9444 218.382 46.0494 218.382 47.7069C218.382 49.0328 217.831 49.5853 217.059 50.0273L172.721 76.5469C169.853 78.2044 168.86 81.7403 168.86 84.2818V100.967H225.221V3.83902C225.221 1.96055 223.787 0.413574 221.581 0.413574H167.868L77.8677 56.2152V100.967H78.6397Z" fill="black"/>
<path d="M13.7868 132.791L0 168.702H9.48529L11.9118 161.962H27.2426L29.6691 168.702H39.4853L25.4779 132.901H13.7868V132.791ZM14.5588 154.338L19.6324 140.304L24.5956 154.338H14.5588Z" fill="black"/>
<path d="M65.4044 154.89C65.4044 159.531 62.5367 161.41 57.6838 161.41C52.9411 161.41 49.8529 159.421 49.8529 154.89V132.68H40.6985V155.885C40.6985 166.272 49.9632 169.476 57.6838 169.476C65.4044 169.476 74.5588 166.272 74.5588 155.885V132.68H65.4044V154.89Z" fill="black"/>
<path d="M78.6396 140.525H90.2205V168.592H99.3749V140.525H110.956V132.791H78.6396V140.525Z" fill="black"/>
<path d="M173.934 132.791H157.169V168.592H173.934C186.838 168.592 190.367 163.841 190.367 150.47C190.367 137.873 186.948 132.791 173.934 132.791ZM173.603 160.857H166.323V140.525H173.603C179.338 140.525 181.103 142.072 181.103 150.47C180.992 158.095 179.117 160.857 173.603 160.857Z" fill="black"/>
<path d="M300 132.791H289.081L276.066 147.376V132.791H266.912V168.592H276.066V155.001L288.419 168.592H300L283.345 150.912L300 132.791Z" fill="black"/>
<path d="M195.551 168.702H224.448V160.968H204.706V154.448H220.588V146.603H204.706V140.525H224.448V132.791H195.551V168.702Z" fill="black"/>
<path d="M132.353 131.796C119.338 131.796 112.5 139.863 112.5 150.581C112.5 161.41 119.228 169.476 132.353 169.476C145.478 169.476 152.206 161.41 152.206 150.581C152.206 139.863 145.368 131.796 132.353 131.796ZM132.353 161.52C125.625 161.52 121.875 157.432 121.875 150.691C121.875 144.061 125.625 139.973 132.353 139.973C139.191 139.973 142.831 144.172 142.831 150.691C142.831 157.321 139.081 161.52 132.353 161.52Z" fill="black"/>
<path d="M252.132 147.597L243.75 146.713C238.897 146.161 237.684 144.945 237.684 143.288C237.684 141.409 240.22 139.752 245.073 139.752C249.816 139.752 252.242 141.52 252.684 144.172H261.617C261.176 136.658 254.779 131.906 245.515 131.906C234.485 131.906 228.86 136.326 228.86 144.061C228.86 150.36 232.5 153.343 240.22 154.117L248.713 155.001C251.912 155.332 253.456 156.658 253.456 158.205C253.456 160.084 251.25 161.741 246.066 161.741C240 161.741 237.684 160.194 237.242 157.211H228.419C228.86 165.387 234.154 169.697 245.735 169.697C256.323 169.697 262.169 165.056 262.169 158.095C262.169 151.907 258.75 148.371 252.132 147.597Z" fill="black"/>
</g>
<defs>
<clipPath id="clip0_143_784">
<rect width="300" height="169.173" fill="white" transform="translate(0 0.413574)"/>
</clipPath>
</defs>
</svg>
