<svg width="370" height="320" viewBox="0 0 370 320" fill="none" xmlns="http://www.w3.org/2000/svg">
<rect width="370" height="320" fill="white"/>
<path fill-rule="evenodd" clip-rule="evenodd" d="M174.371 117.723C174.68 117.529 175.087 117.622 175.281 117.931C176.421 119.746 180.33 122.304 186.15 125.246C190.246 127.317 194.734 129.314 199.082 131.112C199.419 131.251 199.579 131.637 199.44 131.974C199.301 132.311 198.915 132.471 198.578 132.331C194.201 130.522 189.686 128.512 185.554 126.424L185.193 126.241C179.338 123.257 175.458 120.694 174.163 118.633C173.969 118.324 174.062 117.917 174.371 117.723Z" fill="#164E63"/>
<path fill-rule="evenodd" clip-rule="evenodd" d="M177.655 92.5402C179.19 91.684 180.331 91.563 181.349 92.4142C182.521 93.3959 182.407 94.835 181.425 96.4712C181.238 96.7837 180.832 96.885 180.52 96.6975C180.207 96.51 180.106 96.1047 180.293 95.7921C180.982 94.6443 181.043 93.8794 180.502 93.4264C180.004 93.01 179.409 93.0732 178.298 93.6928L178.235 93.7292C177.53 94.1431 174.719 96.0374 173.817 96.5809C171.216 98.1468 168.668 99.2083 165.719 99.7711C162.236 100.442 156.791 105.86 153.64 112.107C149.88 119.557 149.884 126.605 154.607 131.46C154.861 131.721 154.855 132.139 154.594 132.393C154.333 132.647 153.915 132.641 153.661 132.38C148.479 127.053 148.474 119.414 152.461 111.512C155.779 104.937 161.505 99.2389 165.47 98.475C168.253 97.9439 170.66 96.9412 173.136 95.4503L173.231 95.3921C174.201 94.7946 176.941 92.9495 177.621 92.5594L177.655 92.5402Z" fill="#164E63"/>
<path fill-rule="evenodd" clip-rule="evenodd" d="M177.582 95.4497V98.0893C180.639 98.3092 183.081 98.7931 183.719 99.1451C185.104 99.937 185.324 102.928 182.091 102.818C180.859 102.774 179.209 102.621 177.604 102.445V103.368C180.815 104.424 183.565 105.48 184.07 106.052C185.214 107.394 183.301 109.923 180.023 108.889L177.604 108.23V109.087C179.715 109.967 181.585 110.803 182.025 111.155C182.399 111.463 182.509 112.057 182.311 112.629H214.711V95.4497H177.582V95.4497Z" fill="#06D0B6"/>
<path fill-rule="evenodd" clip-rule="evenodd" d="M192.473 107.812C192.838 107.812 193.133 108.107 193.133 108.472C193.133 108.823 192.859 109.11 192.512 109.13L192.473 109.132H183.807C183.442 109.132 183.147 108.836 183.147 108.472C183.147 108.12 183.422 107.833 183.768 107.813L183.807 107.812H192.473Z" fill="#164E63"/>
<path fill-rule="evenodd" clip-rule="evenodd" d="M209.301 104.842C209.665 104.842 209.961 105.138 209.961 105.502C209.961 105.854 209.686 106.141 209.339 106.161L209.301 106.162H183.719C183.355 106.162 183.059 105.867 183.059 105.502C183.059 105.151 183.334 104.863 183.68 104.843L183.719 104.842H209.301Z" fill="#164E63"/>
<path fill-rule="evenodd" clip-rule="evenodd" d="M210.884 102.005C211.249 102.005 211.544 102.3 211.544 102.665C211.544 103.016 211.269 103.303 210.923 103.324L210.884 103.325H183.895C183.53 103.325 183.235 103.029 183.235 102.665C183.235 102.313 183.51 102.026 183.856 102.006L183.895 102.005H210.884Z" fill="#164E63"/>
<path fill-rule="evenodd" clip-rule="evenodd" d="M209.3 99.1453C209.665 99.1453 209.96 99.4407 209.96 99.8052C209.96 100.157 209.686 100.444 209.339 100.464L209.3 100.465H184.467C184.102 100.465 183.807 100.17 183.807 99.8052C183.807 99.4537 184.081 99.1665 184.428 99.1464L184.467 99.1453H209.3Z" fill="#164E63"/>
<path fill-rule="evenodd" clip-rule="evenodd" d="M165.74 98.3863C168.552 97.4624 172.359 97.1526 176.442 97.3534L176.658 97.3644C180.01 97.5435 183.162 98.0669 184.046 98.5722C184.994 99.1139 185.517 100.349 185.283 101.456C185.01 102.749 183.836 103.538 182.069 103.478L181.824 103.469C181.196 103.441 180.449 103.389 179.601 103.314L179.498 103.305L180.006 103.483C182.392 104.331 184.075 105.083 184.548 105.595L184.573 105.624C185.387 106.579 185.154 107.945 184.147 108.852C183.329 109.588 182.151 109.919 180.835 109.745L180.752 109.734L181.022 109.861C181.685 110.175 182.146 110.424 182.391 110.605L182.445 110.646C183.411 111.441 183.24 113.123 182.071 114.025C181.026 114.833 179.415 114.967 177.333 114.336L177.19 114.291L177.358 114.398C177.705 114.621 177.972 114.809 178.155 114.96L178.185 114.986C178.801 115.509 178.797 116.34 178.31 117.061C177.887 117.688 177.129 118.214 176.187 118.517C174.092 119.191 171.445 118.736 168.616 116.962L168.504 116.891L168.453 116.993C168.304 117.285 168.124 117.573 167.911 117.85L167.83 117.954C166.329 119.811 163.889 120.458 160.467 119.233C160.123 119.11 159.945 118.733 160.068 118.39C160.19 118.046 160.568 117.868 160.911 117.991C163.813 119.029 165.66 118.539 166.803 117.124C167.056 116.812 167.252 116.475 167.398 116.138C167.439 116.045 167.473 115.958 167.5 115.879L167.52 115.821C167.537 115.769 167.547 115.736 167.549 115.726C167.661 115.274 168.192 115.077 168.571 115.346C171.381 117.336 173.912 117.862 175.783 117.261C176.458 117.043 176.969 116.688 177.216 116.323C177.303 116.194 177.341 116.087 177.341 116.019L177.341 116.003C177.34 116 177.339 115.998 177.336 115.996L177.279 115.949C176.801 115.566 175.529 114.807 173.728 113.814L173.165 113.506C172.297 113.033 171.375 112.542 170.445 112.054L169.827 111.731L168.703 111.149C168.237 110.91 168.221 110.251 168.674 109.99C168.742 109.95 168.815 109.924 168.892 109.909L168.934 109.901C169.599 109.805 171.413 110.371 175.288 112.094L176.072 112.446C178.64 113.607 180.391 113.656 181.264 112.981C181.803 112.565 181.872 111.884 181.612 111.669C181.268 111.393 179.564 110.614 177.045 109.567L176.321 109.268L176.128 109.189C174.999 108.727 173.798 108.245 172.589 107.768L171.579 107.371L170.394 106.91C169.625 106.613 169.987 105.472 170.768 105.648L170.807 105.658L180.199 108.253L180.222 108.26C181.506 108.665 182.603 108.467 183.264 107.871C183.779 107.407 183.876 106.84 183.568 106.479C183.037 105.854 177.857 104.024 172.322 102.464C171.545 102.245 171.77 101.102 172.55 101.17L173.628 101.313L173.762 101.331C174.664 101.448 175.613 101.565 176.563 101.674L177.15 101.74C177.441 101.772 177.727 101.803 178.007 101.833L178.604 101.894C180.026 102.036 181.22 102.129 182.114 102.159C183.277 102.199 183.86 101.807 183.992 101.184C184.109 100.627 183.831 99.9694 183.392 99.7181C182.75 99.3516 179.731 98.8502 176.587 98.6823C172.572 98.4678 168.83 98.7603 166.152 99.6401C165.806 99.7539 165.433 99.5654 165.319 99.2192C165.205 98.8729 165.394 98.5 165.74 98.3863Z" fill="#164E63"/>
<path fill-rule="evenodd" clip-rule="evenodd" d="M302.785 160.735C301.927 160.449 300.299 160.053 298.21 159.569L302.301 161.351C295.944 170.083 284.264 178.024 272.122 175.318C253.645 171.205 264.225 153.432 264.863 152.31L267.591 153.388L267.481 153.168C265.545 152.376 239.832 141.928 230.769 138.321C231.055 138.409 231.033 168.741 231.033 168.741L247.904 175.318C247.904 175.318 241.041 182.731 238.996 189.044C238.644 190.144 238.534 191.926 238.6 194.125C252.171 202.418 265.457 209.325 265.457 209.325L282.02 189.594L313.299 204.529C303.775 219.729 285.232 231.519 275.224 236.028C271.176 237.854 266.557 238.03 262.378 236.556C255.185 234.027 248.586 230.705 242.625 226.966L238.402 248.588L309.758 248.412L305.974 214.604C337.451 178.904 316.137 165.068 302.785 160.735Z" fill="#164E63"/>
<path fill-rule="evenodd" clip-rule="evenodd" d="M285.87 138.375C286.192 138.235 286.565 138.372 286.722 138.682L286.739 138.717L294.884 157.418L302.565 160.768C302.939 160.931 303.074 161.389 302.857 161.728L302.834 161.761C299.422 166.449 294.769 170.567 289.678 173.23C283.911 176.247 277.845 177.294 271.979 175.984C264.259 174.268 260.723 170.078 260.607 164.244C260.553 161.502 261.259 158.594 262.469 155.684C262.836 154.803 263.227 153.976 263.629 153.206C263.776 152.924 263.916 152.665 264.054 152.419L264.152 152.247L264.29 152.006C264.444 151.734 264.768 151.609 265.063 151.703L265.101 151.717L266.072 152.092L263.611 147.869C263.435 147.566 263.527 147.18 263.815 146.988L263.849 146.967C264.152 146.79 264.538 146.882 264.73 147.171L264.752 147.205L268.161 153.056C268.469 153.585 267.955 154.204 267.386 154.015L267.353 154.003L265.156 153.153L265.139 153.183C265.051 153.342 264.961 153.508 264.869 153.683L264.799 153.816C264.414 154.554 264.039 155.347 263.688 156.191C262.542 158.947 261.877 161.686 261.927 164.218C262.03 169.435 265.132 173.11 272.266 174.696C277.808 175.933 283.561 174.941 289.067 172.061C293.711 169.632 297.99 165.933 301.23 161.704L301.275 161.645L294.118 158.524C293.98 158.464 293.866 158.357 293.797 158.224L293.777 158.183L285.529 139.244C285.383 138.91 285.536 138.521 285.87 138.375Z" fill="#164E63"/>
<path fill-rule="evenodd" clip-rule="evenodd" d="M146.326 216.806C146.422 216.454 146.785 216.247 147.136 216.343C147.475 216.435 147.68 216.775 147.609 217.115L147.6 217.153L140.128 244.607H186.712L179.517 217.257C179.428 216.917 179.62 216.57 179.95 216.462L179.988 216.451C180.327 216.362 180.675 216.554 180.783 216.884L180.794 216.921L188.206 245.099C188.313 245.505 188.02 245.902 187.607 245.925L187.568 245.927H139.264C138.842 245.927 138.533 245.538 138.618 245.131L138.628 245.093L146.326 216.806Z" fill="#164E63"/>
<path fill-rule="evenodd" clip-rule="evenodd" d="M162.756 223.38C159.173 223.38 156.268 226.285 156.268 229.869C156.268 233.453 159.173 236.358 162.756 236.358C166.34 236.358 169.245 233.453 169.245 229.869C169.245 226.285 166.34 223.38 162.756 223.38ZM162.756 224.7C165.611 224.7 167.925 227.014 167.925 229.869C167.925 232.724 165.611 235.038 162.756 235.038C159.901 235.038 157.587 232.724 157.587 229.869C157.587 227.014 159.901 224.7 162.756 224.7Z" fill="#164E63"/>
<path fill-rule="evenodd" clip-rule="evenodd" d="M175.495 216.337C175.837 216.257 176.18 216.458 176.279 216.791L176.289 216.828L182.756 244.324C182.839 244.678 182.619 245.034 182.264 245.117C181.922 245.198 181.58 244.996 181.481 244.663L181.471 244.626L175.004 217.13C174.921 216.776 175.141 216.42 175.495 216.337Z" fill="#164E63"/>
<path fill-rule="evenodd" clip-rule="evenodd" d="M228.481 131.282C230.143 131.282 231.523 132.64 231.56 134.293L231.561 134.361V189.264C231.561 189.628 231.265 189.924 230.901 189.924C230.549 189.924 230.262 189.649 230.242 189.303L230.241 189.264V134.361C230.241 133.424 229.467 132.632 228.535 132.602L228.481 132.602H94.1937C93.2564 132.602 92.4644 133.376 92.4349 134.307L92.434 134.361V139.244C92.434 139.609 92.1386 139.904 91.7741 139.904C91.4227 139.904 91.1354 139.63 91.1154 139.283L91.1143 139.244V134.361C91.1143 132.7 92.4721 131.32 94.1256 131.282L94.1937 131.282H228.481Z" fill="#164E63"/>
<path fill-rule="evenodd" clip-rule="evenodd" d="M91.7741 165.112C92.1256 165.112 92.4128 165.387 92.4329 165.733L92.434 165.772V214.472C92.434 215.409 93.2083 216.201 94.1398 216.23L94.1937 216.231L228.474 216.231C228.474 216.23 228.481 216.23 228.493 216.228L228.507 216.226C228.593 216.215 228.649 216.209 228.723 216.209C229.088 216.209 229.383 216.505 229.383 216.869C229.383 217.221 229.108 217.508 228.762 217.528L228.717 217.53L228.616 217.543C228.57 217.548 228.543 217.55 228.505 217.551L94.1937 217.551C92.5323 217.551 91.152 216.193 91.115 214.54L91.1143 214.472V165.772C91.1143 165.407 91.4097 165.112 91.7741 165.112Z" fill="#164E63"/>
<path fill-rule="evenodd" clip-rule="evenodd" d="M216.559 136.605C218.242 136.605 219.601 137.941 219.638 139.615L219.638 139.684V180.795C219.638 181.16 219.343 181.455 218.979 181.455C218.627 181.455 218.34 181.181 218.32 180.834L218.319 180.795V139.684C218.319 138.725 217.566 137.954 216.614 137.925L216.559 137.925H105.676C105.311 137.925 105.016 137.629 105.016 137.265C105.016 136.913 105.29 136.626 105.637 136.606L105.676 136.605H216.559Z" fill="#164E63"/>
<path fill-rule="evenodd" clip-rule="evenodd" d="M98.4172 162.956C98.7686 162.956 99.0559 163.231 99.076 163.577L99.0771 163.616V207.257C99.0771 208.216 99.8302 208.987 100.782 209.016L100.837 209.017H216.559C217.518 209.017 218.29 208.263 218.318 207.312L218.319 207.257C218.319 206.892 218.615 206.597 218.979 206.597C219.343 206.597 219.639 206.892 219.639 207.257C219.639 208.94 218.303 210.299 216.628 210.336L216.559 210.336H100.837C99.1536 210.336 97.7945 209 97.7581 207.326L97.7573 207.257V163.616C97.7573 163.252 98.0528 162.956 98.4172 162.956Z" fill="#164E63"/>
<path fill-rule="evenodd" clip-rule="evenodd" d="M225.072 212.756C225.423 212.756 225.711 213.031 225.731 213.377L225.732 213.416V216.143C225.732 216.508 225.436 216.803 225.072 216.803C224.721 216.803 224.433 216.528 224.413 216.182L224.412 216.143V213.416C224.412 213.051 224.708 212.756 225.072 212.756Z" fill="#164E63"/>
<path fill-rule="evenodd" clip-rule="evenodd" d="M225.072 131.941C225.423 131.941 225.711 132.216 225.731 132.563L225.732 132.601V185.238C225.732 185.603 225.436 185.898 225.072 185.898C224.721 185.898 224.433 185.624 224.413 185.277L224.412 185.238V132.601C224.412 132.237 224.708 131.941 225.072 131.941Z" fill="#164E63"/>
<path fill-rule="evenodd" clip-rule="evenodd" d="M192.385 164.584C186.842 164.65 178.814 167.092 174.062 169.269C171.841 166.96 170.477 163.836 170.477 160.383C170.477 153.3 176.218 147.559 183.301 147.559C187.524 147.559 191.264 149.604 193.595 152.75C191.418 156.137 192.671 161.658 192.385 164.584Z" fill="#06D0B6"/>
<rect x="169.443" y="159.393" width="1.97967" height="1.97967" fill="#164E63"/>
<rect x="182.311" y="146.547" width="1.97967" height="1.97967" fill="#164E63"/>
<path fill-rule="evenodd" clip-rule="evenodd" d="M196.191 147.141C196.423 147.141 196.613 147.32 196.63 147.548L196.631 147.581V150.154C196.631 150.397 196.434 150.594 196.191 150.594C195.959 150.594 195.769 150.415 195.752 150.187L195.751 150.154L195.751 148.021H170.851V170.897C170.851 171.129 170.672 171.319 170.444 171.336L170.411 171.337C170.179 171.337 169.989 171.157 169.972 170.93L169.971 170.897V147.581C169.971 147.349 170.151 147.159 170.378 147.142L170.411 147.141H196.191Z" fill="#164E63"/>
<rect x="169.421" y="146.547" width="1.97967" height="1.97967" fill="#164E63"/>
<rect x="195.135" y="146.547" width="1.97967" height="1.97967" fill="#164E63"/>
<path fill-rule="evenodd" clip-rule="evenodd" d="M201.316 249.226H125.494C124.153 249.226 123.075 248.148 123.075 246.806V246.52C123.075 245.179 124.153 244.101 125.494 244.101H201.316C202.657 244.101 203.735 245.179 203.735 246.52V246.806C203.735 248.126 202.657 249.226 201.316 249.226Z" fill="#164E63"/>
<path fill-rule="evenodd" clip-rule="evenodd" d="M194.873 149.693C195.599 149.133 196.381 149.257 196.933 149.957C197.572 150.768 197.978 152.262 198.535 155.328L199.098 158.51L199.174 158.923C199.579 161.118 199.933 162.652 200.357 163.912C200.473 164.257 200.288 164.631 199.942 164.748C199.597 164.864 199.223 164.678 199.106 164.333L199.041 164.136C198.622 162.845 198.272 161.308 197.877 159.167L197.738 158.4C197.589 157.561 197.334 156.107 197.285 155.832L197.214 155.442C196.725 152.776 196.347 151.374 195.917 150.801L195.836 150.695C195.799 150.649 195.788 150.651 195.737 150.692L195.679 150.738C195.325 151.011 194.846 151.74 194.279 152.944C193.783 153.995 193.435 155.231 193.223 156.614C192.894 158.763 192.911 161.072 193.138 163.251L193.165 163.501C193.188 163.704 193.212 163.894 193.236 164.068L193.273 164.326L193.299 164.494C193.361 164.853 193.12 165.195 192.761 165.256C192.402 165.318 192.06 165.077 191.999 164.718L191.973 164.556C191.964 164.5 191.954 164.433 191.943 164.356C191.903 164.071 191.863 163.747 191.825 163.387C191.588 161.107 191.57 158.691 191.919 156.414C192.148 154.913 192.53 153.557 193.086 152.381L193.193 152.156C193.799 150.906 194.34 150.104 194.873 149.693Z" fill="#164E63"/>
<path fill-rule="evenodd" clip-rule="evenodd" d="M179.849 166.468L183.081 165.348C184.805 164.739 188.039 164.298 192.38 163.97C192.743 163.943 193.06 164.215 193.087 164.579C193.115 164.942 192.842 165.259 192.479 165.286L191.786 165.34C188.027 165.644 185.178 166.043 183.653 166.547L180.204 167.742L179.325 168.053C178.077 168.498 176.922 168.922 175.817 169.345L175.326 169.534C174.195 169.973 173.161 170.396 172.232 170.801L172.035 170.888C170.428 171.597 169.182 172.238 168.357 172.795C167.937 173.078 167.639 173.332 167.476 173.538C167.437 173.587 167.409 173.63 167.39 173.664L167.384 173.676L167.394 173.683C167.415 173.698 167.442 173.714 167.475 173.731L167.509 173.747C167.693 173.833 167.971 173.907 168.331 173.961C169.047 174.07 170.041 174.097 171.256 174.049C173.253 173.969 175.742 173.69 178.119 173.324C178.479 173.269 178.816 173.516 178.872 173.876C178.927 174.236 178.68 174.573 178.32 174.629L177.817 174.705C175.55 175.04 173.221 175.291 171.309 175.367L170.953 175.38C168.115 175.467 166.494 175.181 166.116 174.109C165.622 172.716 167.512 171.441 171.502 169.681C172.634 169.181 173.919 168.659 175.345 168.113C176.631 167.62 177.983 167.126 179.468 166.602L179.849 166.468Z" fill="#164E63"/>
<path fill-rule="evenodd" clip-rule="evenodd" d="M200.216 163.594L200.242 163.595C200.684 163.612 201.527 164.009 202.989 165.087L203.223 165.261C205.493 166.972 208.654 169.887 212.864 174.291L213.011 174.445L213.031 174.467C215.972 177.843 221.36 182.111 228.715 187.047L228.938 187.197C231.734 189.069 234.778 191.014 238.033 193.016C243.881 196.614 250.134 200.232 256.402 203.703L257.098 204.088C259.184 205.239 261.132 206.298 262.903 207.246L264.113 207.892L265.293 208.516L281.515 189.192C281.699 188.972 282.003 188.898 282.266 189.003L282.305 189.02L313.562 203.956C313.917 204.126 314.045 204.567 313.837 204.901C309.425 211.968 302.821 218.738 294.829 224.842C288.35 229.792 281.233 234.056 275.473 236.652C271.282 238.542 266.51 238.735 262.138 237.201C247.823 232.19 234.933 223.739 223.496 212.816C216.772 206.395 210.964 199.517 206.085 192.637C204.377 190.229 202.906 187.991 201.675 185.982L201.406 185.54C201.145 185.109 200.91 184.711 200.699 184.348L200.481 183.97L200.426 183.989C199.721 184.217 198.879 184.28 197.863 184.213L197.735 184.204C196.868 184.139 196.219 184.042 194.624 183.745L193.155 183.47C192.824 183.408 192.554 183.36 192.283 183.313L192.209 183.301C191.502 183.181 190.89 183.094 190.317 183.036C189.954 182.999 189.69 182.675 189.727 182.312C189.764 181.95 190.088 181.686 190.45 181.723C191.005 181.779 191.59 181.86 192.248 181.969L192.581 182.025C192.909 182.082 193.241 182.143 193.683 182.226L194.386 182.358C198.004 183.032 199.349 183.122 200.376 182.588L200.445 182.55C200.755 182.378 201.142 182.482 201.326 182.778L201.353 182.826L201.435 182.974C201.499 183.09 201.575 183.225 201.663 183.377L201.911 183.807C202.17 184.251 202.467 184.748 202.8 185.293C204.016 187.277 205.471 189.49 207.161 191.874C211.994 198.688 217.748 205.503 224.407 211.862C235.717 222.663 248.451 231.012 262.574 235.955C266.628 237.377 271.049 237.199 274.93 235.448C280.598 232.895 287.629 228.682 294.028 223.793C301.563 218.038 307.836 211.692 312.146 205.095L312.321 204.826L282.197 190.432L265.962 209.771C265.773 209.997 265.457 210.068 265.19 209.95L265.152 209.932L264.285 209.476C263.915 209.281 263.506 209.064 263.062 208.827L262.037 208.279C260.327 207.362 258.456 206.345 256.46 205.243C249.943 201.646 243.426 197.883 237.342 194.14C234.209 192.213 231.27 190.338 228.557 188.529L228.204 188.294C220.796 183.334 215.326 179.03 212.223 175.546L212.045 175.344L211.622 174.902C207.507 170.616 204.442 167.81 202.281 166.205L202.205 166.149C201.441 165.586 200.86 165.226 200.443 165.03C200.345 164.984 200.267 164.952 200.206 164.931L200.154 164.914H199.886C199.535 164.914 199.247 164.639 199.227 164.293L199.226 164.254C199.226 163.903 199.501 163.615 199.847 163.595L199.886 163.594H200.216Z" fill="#164E63"/>
<path fill-rule="evenodd" clip-rule="evenodd" d="M185.434 168.61C185.609 168.914 185.515 169.3 185.226 169.49L184.907 169.68L184.85 169.714C184.574 169.882 184.266 170.074 183.933 170.288C182.984 170.901 182.035 171.565 181.151 172.256C179.884 173.247 178.862 174.209 178.182 175.095C177.497 175.986 177.204 176.742 177.307 177.313C177.508 178.426 177.934 179.006 178.509 179.244C178.861 179.39 179.257 179.4 179.624 179.326C179.654 179.32 179.682 179.313 179.708 179.307L179.766 179.291C180.111 179.173 180.486 179.358 180.604 179.702C180.722 180.047 180.537 180.422 180.192 180.54L180.135 180.558C180.071 180.578 179.987 180.599 179.885 180.62C179.284 180.741 178.634 180.724 178.005 180.464C176.992 180.045 176.286 179.082 176.008 177.547C175.825 176.534 176.246 175.449 177.135 174.291C177.895 173.302 178.991 172.27 180.338 171.216C181.256 170.498 182.237 169.812 183.218 169.179L183.471 169.018C183.677 168.886 183.874 168.764 184.058 168.652L184.387 168.454L184.533 168.368C184.849 168.186 185.252 168.294 185.434 168.61Z" fill="#164E63"/>
<path fill-rule="evenodd" clip-rule="evenodd" d="M187.318 172.148C187.526 172.447 187.453 172.858 187.153 173.067L186.968 173.199L186.88 173.263C186.657 173.426 186.408 173.614 186.14 173.823C185.375 174.42 184.609 175.069 183.896 175.744C182.859 176.726 182.027 177.679 181.478 178.557C180.885 179.506 180.661 180.308 180.817 180.919C181.079 181.946 181.507 182.492 182.045 182.713C182.412 182.864 182.827 182.861 183.221 182.758C183.296 182.739 183.352 182.72 183.386 182.708L183.413 182.698C183.747 182.553 184.136 182.706 184.28 183.041C184.425 183.375 184.272 183.764 183.937 183.909C183.854 183.945 183.723 183.991 183.554 184.035C182.906 184.204 182.213 184.21 181.542 183.933C180.595 183.543 179.898 182.656 179.538 181.245C179.276 180.218 179.593 179.083 180.359 177.858C180.977 176.87 181.877 175.839 182.989 174.786C183.735 174.079 184.532 173.404 185.329 172.782L185.534 172.623C185.736 172.468 185.925 172.326 186.1 172.198L186.238 172.098L186.399 171.983C186.699 171.775 187.11 171.849 187.318 172.148Z" fill="#164E63"/>
<path fill-rule="evenodd" clip-rule="evenodd" d="M189.798 176.517C190.002 176.802 189.948 177.194 189.68 177.413L189.476 177.564L189.431 177.598C189.255 177.731 189.058 177.883 188.846 178.053C188.239 178.538 187.633 179.063 187.069 179.607C186.316 180.333 185.7 181.034 185.27 181.682C184.272 183.184 184.375 184.04 185.836 184.574C188.803 185.651 190.78 185.808 191.941 185.465L192.015 185.442L192.09 185.416L192.113 185.367L192.128 185.333C192.283 184.969 192.302 184.611 192.124 184.289C191.792 183.692 190.814 183.182 188.965 182.9C188.604 182.845 188.357 182.508 188.412 182.148C188.467 181.787 188.803 181.54 189.164 181.595C191.377 181.933 192.712 182.628 193.278 183.649C193.683 184.38 193.642 185.145 193.343 185.849C193.258 186.048 193.171 186.201 193.103 186.298C193.056 186.365 192.997 186.423 192.929 186.469C192.807 186.55 192.605 186.646 192.314 186.731C190.859 187.16 188.6 186.982 185.384 185.815C182.979 184.935 182.756 183.08 184.171 180.951C184.661 180.213 185.337 179.444 186.153 178.657C186.749 178.082 187.385 177.531 188.021 177.022C188.18 176.895 188.331 176.777 188.473 176.669L188.685 176.508L188.877 176.366C189.173 176.154 189.586 176.221 189.798 176.517Z" fill="#164E63"/>
<path fill-rule="evenodd" clip-rule="evenodd" d="M335.515 247.95C335.88 247.95 336.175 248.246 336.175 248.61C336.175 248.962 335.901 249.249 335.554 249.269L335.515 249.27H33.6599C33.2954 249.27 33 248.975 33 248.61C33 248.259 33.2747 247.971 33.6211 247.951L33.6599 247.95H335.515Z" fill="#164E63"/>
<path fill-rule="evenodd" clip-rule="evenodd" d="M267.146 90.6345C260.232 92.2079 254.646 99.2148 250.35 113.2L250.22 113.626C249.043 117.524 248.238 124.039 248.77 129.71C249.555 138.081 252.994 144.175 259.747 146.725C266.853 149.404 274.125 148.397 280.584 144.26C286.495 140.474 291.35 134.256 294.031 127.182C299.292 113.303 296.026 99.5644 286.447 95.6958L286.192 95.5911C285.703 95.3875 285.17 95.1496 284.513 94.8448L283.796 94.508C283.191 94.2214 282.026 93.6699 281.599 93.4712L281.223 93.2975C278.684 92.1312 276.738 91.3843 274.732 90.8815C272.037 90.2063 269.538 90.09 267.146 90.6345ZM251.444 114.137L251.483 114.008C255.673 100.146 261.009 93.3845 267.438 91.9213C269.611 91.4269 271.905 91.5336 274.411 92.1616C276.37 92.6526 278.295 93.3979 280.858 94.5826L281.706 94.9794C282.446 95.3284 283.44 95.7999 283.593 95.8717L284.098 96.1071C284.823 96.4419 285.403 96.6973 285.952 96.9193C294.751 100.473 297.832 113.432 292.797 126.715C290.214 133.531 285.536 139.52 279.872 143.149C273.751 147.069 266.912 148.016 260.213 145.49C254.011 143.148 250.827 137.506 250.084 129.587C249.575 124.16 250.335 117.896 251.444 114.137Z" fill="#164E63"/>
<rect x="308.177" y="84.0349" width="5.58697" height="9.85418" transform="rotate(37.2584 308.177 84.0349)" fill="#06D0B6"/>
<path fill-rule="evenodd" clip-rule="evenodd" d="M315.631 89.7087C321.073 89.7087 325.485 85.2968 325.485 79.8544C325.485 74.4119 321.073 70 315.631 70C310.188 70 305.776 74.4119 305.776 79.8544C305.776 85.2968 310.188 89.7087 315.631 89.7087Z" fill="#164E63"/>
<path fill-rule="evenodd" clip-rule="evenodd" d="M304.149 89.3128C297 83.5498 288.685 78.9525 279.777 79.0185C252.303 80.5143 245.418 98.1113 252.127 109.945V109.945C256.593 97.3195 262.004 92.4583 267.393 91.2705C269.174 100.553 281.8 112.915 295.614 118.458C295.592 118.59 295.57 118.722 295.548 118.854C299.529 119.866 305.38 122.527 303.181 129.412C300.145 138.936 290.885 134.735 289.719 134.163C288.663 135.769 287.475 137.287 286.178 138.673L289.675 146.239L320.272 150.924C322.142 151.606 324.143 150.265 324.253 148.263C324.825 135.791 327.003 108.186 304.149 89.3128Z" fill="#164E63"/>
<path fill-rule="evenodd" clip-rule="evenodd" d="M294.944 119.038C295.012 118.68 295.358 118.445 295.716 118.514C298.524 119.049 300.602 119.806 302.172 121.178C304.349 123.082 305.008 125.879 303.809 129.636C302.552 133.558 300.203 135.623 297.117 136.097C295.265 136.382 293.31 136.077 291.399 135.397C290.907 135.223 290.454 135.035 290.052 134.847L289.881 134.766C289.723 134.689 289.605 134.628 289.531 134.587C289.212 134.41 289.097 134.008 289.274 133.689C289.444 133.383 289.823 133.264 290.135 133.414L290.277 133.488L290.399 133.55C290.464 133.582 290.534 133.615 290.61 133.651C290.976 133.822 291.39 133.994 291.841 134.154C293.564 134.766 295.313 135.04 296.916 134.793C299.501 134.395 301.446 132.686 302.552 129.234C303.596 125.96 303.068 123.715 301.303 122.172C299.956 120.994 298.063 120.305 295.468 119.81C295.11 119.742 294.875 119.396 294.944 119.038Z" fill="#164E63"/>
<path fill-rule="evenodd" clip-rule="evenodd" d="M267.108 133.053C267.369 132.798 267.787 132.804 268.041 133.065C268.296 133.326 268.29 133.744 268.029 133.998C265.9 136.072 263.757 136.165 261.948 135.038C261.706 134.887 261.49 134.725 261.304 134.561C261.188 134.46 261.104 134.377 261.054 134.321C260.808 134.052 260.828 133.634 261.098 133.389C261.357 133.153 261.753 133.163 262.001 133.403L262.063 133.467C262.088 133.492 262.125 133.527 262.174 133.569C262.309 133.687 262.467 133.807 262.646 133.918C263.967 134.741 265.441 134.676 267.108 133.053Z" fill="#164E63"/>
<path fill-rule="evenodd" clip-rule="evenodd" d="M265.735 107.058C265.884 106.725 266.275 106.577 266.607 106.726C266.928 106.87 267.077 107.238 266.954 107.562L266.939 107.598L259.626 123.888L263.379 124.858C263.719 124.946 263.928 125.284 263.861 125.624L263.852 125.662C263.764 126.002 263.426 126.212 263.086 126.144L263.048 126.136L258.539 124.97C258.156 124.871 257.948 124.461 258.087 124.097L258.102 124.061L265.735 107.058Z" fill="#164E63"/>
<path fill-rule="evenodd" clip-rule="evenodd" d="M274.078 108.769C276.099 107.88 277.931 108.516 279.444 110.061C279.792 110.416 280.097 110.794 280.357 111.173L280.432 111.284C280.551 111.462 280.636 111.605 280.687 111.698C280.861 112.019 280.742 112.419 280.421 112.593C280.113 112.76 279.73 112.656 279.547 112.362L279.482 112.251L279.467 112.226C279.412 112.135 279.346 112.033 279.27 111.921C279.05 111.602 278.792 111.281 278.501 110.985C277.334 109.793 276.046 109.345 274.61 109.977C274.276 110.124 273.887 109.973 273.74 109.639C273.593 109.306 273.744 108.916 274.078 108.769Z" fill="#164E63"/>
<path fill-rule="evenodd" clip-rule="evenodd" d="M254.575 103.774C256.526 102.575 258.486 103.025 260.23 104.448C260.58 104.734 260.894 105.039 261.169 105.345L261.256 105.443C261.378 105.583 261.468 105.696 261.523 105.771C261.739 106.064 261.676 106.478 261.383 106.693C261.1 106.901 260.708 106.851 260.486 106.586L260.397 106.473C260.338 106.399 260.268 106.317 260.188 106.227C259.956 105.969 259.69 105.711 259.395 105.471C258.041 104.365 256.653 104.046 255.266 104.898C254.956 105.089 254.549 104.992 254.359 104.682C254.168 104.371 254.265 103.965 254.575 103.774Z" fill="#164E63"/>
<path fill-rule="evenodd" clip-rule="evenodd" d="M273.303 117.989C273.586 116.695 273.143 115.499 272.312 115.317C271.482 115.135 270.578 116.035 270.295 117.329C270.011 118.622 270.455 119.819 271.285 120.001C272.116 120.183 273.019 119.282 273.303 117.989Z" fill="#164E63"/>
<path fill-rule="evenodd" clip-rule="evenodd" d="M257.307 114.547C257.591 113.254 257.147 112.058 256.317 111.875C255.486 111.693 254.583 112.594 254.299 113.888C254.016 115.181 254.459 116.377 255.29 116.559C256.12 116.741 257.024 115.841 257.307 114.547Z" fill="#164E63"/>
<path fill-rule="evenodd" clip-rule="evenodd" d="M268.282 113.581C266.651 120.875 269.845 127.86 275.533 129.132C281.221 130.404 287.087 125.444 288.717 118.15C290.348 110.856 287.154 103.871 281.466 102.6C275.778 101.328 269.912 106.287 268.282 113.581ZM269.569 113.869C271.056 107.221 276.291 102.795 281.178 103.887C286.065 104.98 288.916 111.214 287.429 117.862C285.943 124.51 280.708 128.936 275.821 127.844C270.934 126.751 268.083 120.517 269.569 113.869Z" fill="#06D0B6"/>
<path fill-rule="evenodd" clip-rule="evenodd" d="M240.969 108.063C239.338 115.357 242.533 122.342 248.221 123.614C253.909 124.886 259.774 119.926 261.405 112.632C263.036 105.338 259.841 98.3535 254.153 97.0817C248.465 95.8099 242.6 100.769 240.969 108.063ZM242.257 108.351C243.743 101.703 248.978 97.2771 253.865 98.3698C258.752 99.4625 261.603 105.697 260.117 112.345C258.63 118.993 253.396 123.419 248.509 122.326C243.622 121.233 240.77 114.999 242.257 108.351Z" fill="#06D0B6"/>
<path fill-rule="evenodd" clip-rule="evenodd" d="M260.897 110.574C260.973 110.231 261.303 110.009 261.645 110.064L261.683 110.071L269.294 111.743C269.65 111.821 269.875 112.173 269.797 112.529C269.722 112.872 269.392 113.094 269.049 113.039L269.011 113.032L261.4 111.36C261.044 111.282 260.819 110.93 260.897 110.574Z" fill="#06D0B6"/>
<path fill-rule="evenodd" clip-rule="evenodd" d="M288.329 115.342C288.478 115.024 288.847 114.879 289.169 115.006L289.206 115.022L297.565 118.916C297.895 119.07 298.038 119.462 297.884 119.792C297.736 120.111 297.367 120.255 297.045 120.128L297.008 120.112L288.649 116.219C288.319 116.065 288.176 115.672 288.329 115.342Z" fill="#06D0B6"/>
<rect x="159.316" y="187.878" width="34.8432" height="34.8432" transform="rotate(153.737 159.316 187.878)" fill="#06D0B6"/>
<path fill-rule="evenodd" clip-rule="evenodd" d="M118.354 194.829C118.706 194.834 118.989 195.112 119.005 195.459L119.005 195.498L118.992 196.488L119.982 196.501C120.333 196.506 120.617 196.784 120.632 197.131L120.633 197.17C120.628 197.521 120.35 197.804 120.003 197.82L119.964 197.821L118.315 197.799C117.963 197.794 117.68 197.515 117.664 197.169L117.664 197.13L117.686 195.48C117.69 195.116 117.99 194.824 118.354 194.829Z" fill="#164E63"/>
<path fill-rule="evenodd" clip-rule="evenodd" d="M123.484 197.864L126.989 197.911C127.354 197.916 127.653 197.625 127.658 197.26C127.663 196.896 127.371 196.597 127.007 196.592L123.502 196.545C123.137 196.54 122.838 196.831 122.833 197.196C122.828 197.56 123.12 197.86 123.484 197.864ZM130.494 197.958L134 198.005C134.364 198.01 134.663 197.719 134.668 197.354C134.673 196.99 134.382 196.691 134.017 196.686L130.512 196.639C130.148 196.634 129.848 196.925 129.843 197.29C129.839 197.654 130.13 197.954 130.494 197.958ZM137.505 198.052L141.01 198.099C141.375 198.104 141.674 197.813 141.679 197.448C141.684 197.084 141.392 196.784 141.028 196.78L137.523 196.733C137.158 196.728 136.859 197.019 136.854 197.384C136.849 197.748 137.141 198.047 137.505 198.052ZM144.515 198.146L148.02 198.193C148.385 198.198 148.684 197.907 148.689 197.542C148.694 197.178 148.402 196.878 148.038 196.874L144.533 196.827C144.168 196.822 143.869 197.113 143.864 197.478C143.859 197.842 144.151 198.141 144.515 198.146Z" fill="#164E63"/>
<path fill-rule="evenodd" clip-rule="evenodd" d="M153.219 195.291C153.57 195.296 153.854 195.574 153.869 195.921L153.87 195.96L153.848 197.61C153.843 197.961 153.565 198.245 153.218 198.26L153.179 198.261L151.53 198.239C151.165 198.234 150.874 197.934 150.878 197.57C150.883 197.219 151.162 196.935 151.508 196.92L151.547 196.919L152.537 196.932L152.55 195.942C152.555 195.591 152.833 195.307 153.18 195.292L153.219 195.291Z" fill="#164E63"/>
<path fill-rule="evenodd" clip-rule="evenodd" d="M153.914 192.462L153.958 188.957C153.963 188.592 153.671 188.293 153.306 188.289C152.942 188.284 152.643 188.576 152.638 188.94L152.594 192.445C152.59 192.81 152.881 193.109 153.246 193.113C153.61 193.118 153.909 192.826 153.914 192.462ZM154.002 185.451L154.046 181.946C154.051 181.582 153.759 181.283 153.394 181.278C153.03 181.273 152.731 181.565 152.726 181.93L152.682 185.435C152.678 185.799 152.969 186.098 153.334 186.103C153.698 186.107 153.997 185.816 154.002 185.451ZM154.09 178.441L154.134 174.936C154.139 174.571 153.847 174.272 153.482 174.267C153.118 174.263 152.819 174.555 152.814 174.919L152.77 178.424C152.766 178.789 153.057 179.088 153.422 179.092C153.786 179.097 154.085 178.805 154.09 178.441ZM154.178 171.43L154.222 167.925C154.227 167.561 153.935 167.261 153.57 167.257C153.206 167.252 152.907 167.544 152.902 167.908L152.858 171.414C152.854 171.778 153.145 172.077 153.51 172.082C153.874 172.086 154.173 171.795 154.178 171.43Z" fill="#164E63"/>
<path fill-rule="evenodd" clip-rule="evenodd" d="M151.987 162.077L153.637 162.099C153.988 162.103 154.272 162.382 154.287 162.729L154.288 162.767L154.266 164.417C154.261 164.781 153.962 165.073 153.597 165.068C153.246 165.063 152.962 164.785 152.947 164.438L152.946 164.399L152.959 163.409L151.969 163.396C151.618 163.392 151.334 163.113 151.319 162.766L151.318 162.728C151.323 162.376 151.602 162.093 151.948 162.077L151.987 162.077Z" fill="#164E63"/>
<path fill-rule="evenodd" clip-rule="evenodd" d="M148.49 162.033L144.984 161.986C144.62 161.981 144.321 162.272 144.316 162.637C144.311 163.001 144.602 163.301 144.967 163.305L148.472 163.352C148.836 163.357 149.136 163.066 149.141 162.701C149.145 162.337 148.854 162.038 148.49 162.033ZM141.479 161.939L137.974 161.892C137.609 161.887 137.31 162.178 137.305 162.543C137.3 162.907 137.592 163.207 137.956 163.211L141.461 163.258C141.826 163.263 142.125 162.972 142.13 162.607C142.135 162.243 141.843 161.944 141.479 161.939ZM134.468 161.845L130.963 161.798C130.599 161.793 130.299 162.085 130.295 162.449C130.29 162.813 130.581 163.113 130.946 163.118L134.451 163.165C134.815 163.169 135.115 162.878 135.119 162.514C135.124 162.149 134.833 161.85 134.468 161.845ZM127.458 161.751L123.953 161.704C123.588 161.699 123.289 161.991 123.284 162.355C123.279 162.72 123.571 163.019 123.935 163.024L127.44 163.071C127.805 163.076 128.104 162.784 128.109 162.42C128.114 162.055 127.823 161.756 127.458 161.751Z" fill="#164E63"/>
<path fill-rule="evenodd" clip-rule="evenodd" d="M118.795 161.637L120.444 161.659C120.809 161.664 121.1 161.963 121.095 162.327C121.091 162.679 120.812 162.962 120.466 162.978L120.427 162.978L119.437 162.965L119.424 163.955C119.419 164.306 119.14 164.59 118.794 164.606L118.755 164.606C118.404 164.601 118.12 164.323 118.105 163.976L118.104 163.937L118.126 162.288C118.131 161.936 118.409 161.653 118.756 161.637L118.795 161.637Z" fill="#164E63"/>
<path fill-rule="evenodd" clip-rule="evenodd" d="M118.06 167.435L118.013 170.94C118.008 171.304 118.3 171.604 118.664 171.609C119.029 171.614 119.328 171.322 119.333 170.958L119.38 167.452C119.385 167.088 119.093 166.789 118.729 166.784C118.364 166.779 118.065 167.07 118.06 167.435ZM117.966 174.445L117.919 177.95C117.914 178.315 118.206 178.614 118.57 178.619C118.935 178.624 119.234 178.332 119.239 177.968L119.286 174.463C119.291 174.098 118.999 173.799 118.635 173.794C118.27 173.789 117.971 174.081 117.966 174.445ZM117.872 181.456L117.826 184.961C117.821 185.325 118.112 185.625 118.477 185.63C118.841 185.634 119.14 185.343 119.145 184.979L119.192 181.473C119.197 181.109 118.905 180.81 118.541 180.805C118.177 180.8 117.877 181.091 117.872 181.456ZM117.778 188.466L117.732 191.971C117.727 192.336 118.018 192.635 118.383 192.64C118.747 192.645 119.046 192.353 119.051 191.989L119.098 188.484C119.103 188.119 118.811 187.82 118.447 187.815C118.083 187.81 117.783 188.102 117.778 188.466Z" fill="#164E63"/>
<path fill-rule="evenodd" clip-rule="evenodd" d="M126.698 184.821L126.954 184.821C127.318 184.825 127.61 185.124 127.606 185.488C127.602 185.84 127.324 186.124 126.977 186.14L126.925 186.14L126.788 186.14L126.697 186.141C126.553 186.143 126.388 186.146 126.204 186.152L125.924 186.161C125.492 186.177 125.015 186.203 124.495 186.24C122.724 186.365 120.769 186.595 118.676 186.955C112.785 187.97 106.91 189.813 101.432 192.688C95.3126 195.899 90.0554 200.218 85.9159 205.789C81.0952 212.277 77.907 220.31 76.6129 230.044C76.5649 230.405 76.2331 230.659 75.8718 230.611C75.5106 230.563 75.2566 230.232 75.3047 229.87C76.6278 219.917 79.8999 211.673 84.8566 205.002C89.12 199.264 94.531 194.818 100.819 191.519C106.429 188.575 112.433 186.691 118.452 185.654C120.59 185.286 122.588 185.051 124.402 184.923C124.996 184.881 125.537 184.853 126.021 184.837L126.316 184.828C126.461 184.825 126.588 184.822 126.698 184.821Z" fill="#164E63"/>
<path fill-rule="evenodd" clip-rule="evenodd" d="M126.858 187.108C127.782 187.108 128.53 186.36 128.53 185.437C128.53 184.513 127.782 183.765 126.858 183.765C125.935 183.765 125.187 184.513 125.187 185.437C125.187 186.36 125.935 187.108 126.858 187.108Z" fill="#164E63"/>
<path fill-rule="evenodd" clip-rule="evenodd" d="M111.329 248.148H97.0749C96.1951 248.148 95.4912 247.444 95.4912 246.564V245.685C95.4912 244.805 96.1951 244.101 97.0749 244.101H111.329C112.208 244.101 112.912 244.805 112.912 245.685V246.564C112.912 247.444 112.208 248.148 111.329 248.148Z" fill="#164E63"/>
<path fill-rule="evenodd" clip-rule="evenodd" d="M104.604 134.584L81.1228 142.396C80.7769 142.511 80.5899 142.885 80.7049 143.231L88.5172 166.712C88.6322 167.058 89.0058 167.245 89.3517 167.13L112.833 159.318C113.179 159.203 113.366 158.829 113.251 158.483L105.439 135.002C105.324 134.656 104.95 134.469 104.604 134.584ZM104.395 136.044L111.79 158.273L89.5615 165.669L82.1659 143.44L104.395 136.044Z" fill="#164E63"/>
<path fill-rule="evenodd" clip-rule="evenodd" d="M104.229 134.921C104.394 134.596 104.791 134.466 105.116 134.63C105.429 134.789 105.561 135.163 105.424 135.481L105.407 135.517L89.6795 166.598C89.5149 166.923 89.1179 167.053 88.7928 166.889C88.4796 166.73 88.3473 166.356 88.4848 166.038L88.5019 166.002L104.229 134.921Z" fill="#164E63"/>
<path fill-rule="evenodd" clip-rule="evenodd" d="M80.758 142.733C80.9151 142.419 81.2885 142.285 81.607 142.421L81.6435 142.438L112.922 158.099C113.248 158.262 113.38 158.659 113.217 158.985C113.06 159.299 112.686 159.433 112.368 159.296L112.331 159.279L81.0526 143.618C80.7267 143.455 80.5948 143.058 80.758 142.733Z" fill="#164E63"/>
<rect x="109.214" y="120.689" width="28.551" height="28.067" transform="rotate(9.9333 109.214 120.689)" fill="#06D0B6"/>
<path fill-rule="evenodd" clip-rule="evenodd" d="M131.037 139.809L124.472 138.66C124.113 138.597 123.771 138.837 123.708 139.196L122.559 145.761C122.496 146.12 122.736 146.462 123.095 146.525L129.66 147.674C130.019 147.737 130.361 147.497 130.424 147.138L131.573 140.573C131.636 140.214 131.396 139.872 131.037 139.809ZM130.16 140.995L129.238 146.26L123.973 145.338L124.895 140.073L130.16 140.995Z" fill="#164E63"/>
<path fill-rule="evenodd" clip-rule="evenodd" d="M130.549 139.936C130.848 139.727 131.259 139.799 131.468 140.098C131.669 140.385 131.61 140.776 131.339 140.992L131.306 141.017L123.607 146.406C123.309 146.615 122.897 146.542 122.688 146.244C122.487 145.957 122.547 145.565 122.817 145.35L122.85 145.325L130.549 139.936Z" fill="#164E63"/>
<path fill-rule="evenodd" clip-rule="evenodd" d="M132.906 128.797L112.15 125.162C111.791 125.099 111.449 125.339 111.386 125.698L110.289 131.959C110.226 132.318 110.466 132.66 110.825 132.723L131.582 136.358C131.941 136.421 132.283 136.181 132.345 135.822L133.442 129.561C133.505 129.202 133.265 128.86 132.906 128.797ZM132.028 129.983L131.159 134.944L111.703 131.537L112.572 126.575L132.028 129.983Z" fill="#164E63"/>
<path fill-rule="evenodd" clip-rule="evenodd" d="M108.281 143.552C108.342 143.206 108.662 142.97 109.007 143.01L109.045 143.016L119.603 144.863C119.962 144.926 120.203 145.268 120.14 145.627C120.079 145.973 119.759 146.209 119.414 146.169L119.376 146.163L108.818 144.316C108.459 144.253 108.219 143.911 108.281 143.552Z" fill="#164E63"/>
<path fill-rule="evenodd" clip-rule="evenodd" d="M108.721 140.978C108.782 140.632 109.102 140.396 109.447 140.436L109.485 140.442L120.043 142.29C120.402 142.352 120.642 142.694 120.58 143.053C120.519 143.399 120.199 143.635 119.854 143.595L119.816 143.59L109.258 141.742C108.899 141.679 108.659 141.337 108.721 140.978Z" fill="#164E63"/>
<path fill-rule="evenodd" clip-rule="evenodd" d="M109.161 138.405C109.221 138.058 109.542 137.823 109.886 137.863L109.925 137.868L120.483 139.716C120.842 139.779 121.082 140.121 121.019 140.48C120.959 140.826 120.638 141.062 120.294 141.022L120.255 141.016L109.697 139.168C109.338 139.106 109.098 138.764 109.161 138.405Z" fill="#164E63"/>
<path fill-rule="evenodd" clip-rule="evenodd" d="M109.623 135.853C109.683 135.507 110.003 135.271 110.348 135.311L110.387 135.317L120.945 137.165C121.304 137.227 121.544 137.569 121.481 137.928C121.42 138.274 121.1 138.51 120.756 138.47L120.717 138.465L110.159 136.617C109.8 136.554 109.56 136.212 109.623 135.853Z" fill="#164E63"/>
<path fill-rule="evenodd" clip-rule="evenodd" d="M132.719 128.801C133.081 128.757 133.409 129.015 133.452 129.377C133.494 129.726 133.256 130.044 132.914 130.105L132.876 130.111L111.033 132.729C110.672 132.772 110.343 132.514 110.3 132.152C110.258 131.803 110.496 131.485 110.838 131.424L110.876 131.418L132.719 128.801Z" fill="#164E63"/>
<path fill-rule="evenodd" clip-rule="evenodd" d="M193.441 188.142H177.802C175.524 188.142 173.667 190 173.667 192.278V192.674C173.667 194.952 175.524 196.809 177.802 196.809H193.441C195.719 196.809 197.577 194.952 197.577 192.674V192.278C197.577 190 195.719 188.142 193.441 188.142ZM177.802 189.462H193.441C194.99 189.462 196.257 190.728 196.257 192.278V192.673C196.257 194.223 194.99 195.489 193.441 195.489H177.802C176.252 195.489 174.986 194.223 174.986 192.673V192.278C174.986 190.728 176.252 189.462 177.802 189.462Z" fill="#164E63"/>
<path fill-rule="evenodd" clip-rule="evenodd" d="M192.869 198.019C196.016 198.019 198.566 195.468 198.566 192.322C198.566 189.175 196.016 186.625 192.869 186.625C189.723 186.625 187.172 189.175 187.172 192.322C187.172 195.468 189.723 198.019 192.869 198.019Z" fill="#06D0B6"/>
<path fill-rule="evenodd" clip-rule="evenodd" d="M201.888 201.494C202.252 201.494 202.548 201.789 202.548 202.154C202.548 202.505 202.273 202.792 201.927 202.813L201.888 202.814H184.775C184.41 202.814 184.115 202.518 184.115 202.154C184.115 201.802 184.389 201.515 184.736 201.495L184.775 201.494H201.888Z" fill="#164E63"/>
</svg>
