<svg width="370" height="320" viewBox="0 0 370 320" fill="none" xmlns="http://www.w3.org/2000/svg">
<rect width="370" height="320" fill="white"/>
<path fill-rule="evenodd" clip-rule="evenodd" d="M264.425 70C268.458 70 271.728 73.2299 271.793 77.2478L271.794 77.3698V177.352C271.794 177.73 271.488 178.037 271.11 178.037C270.745 178.037 270.447 177.752 270.426 177.392L270.425 177.352V77.3698C270.425 74.0847 267.796 71.4227 264.524 71.3698L264.425 71.369H105.918C102.633 71.369 99.9706 73.9981 99.9177 77.2704L99.9168 77.3698V140.572C99.9168 140.95 99.6104 141.256 99.2323 141.256C98.8678 141.256 98.5698 140.971 98.549 140.612L98.5479 140.572V77.3698C98.5479 73.3362 101.778 70.066 105.796 70.001L105.918 70H264.425Z" fill="#164E63"/>
<path fill-rule="evenodd" clip-rule="evenodd" d="M113.356 70.7986C113.734 70.7986 114.041 71.105 114.041 71.4831C114.041 71.8611 113.734 72.1676 113.356 72.1676C110.462 72.1676 108.11 74.5887 108.064 77.62L108.063 77.712V178.904C108.063 179.282 107.756 179.588 107.378 179.588C107.014 179.588 106.716 179.303 106.695 178.944L106.694 178.904V77.712C106.694 73.8942 109.664 70.7986 113.356 70.7986Z" fill="#164E63"/>
<path fill-rule="evenodd" clip-rule="evenodd" d="M165.309 203.568C165.674 203.568 165.972 203.853 165.993 204.213L165.994 204.253V222.689C165.994 223.067 165.688 223.373 165.309 223.373C164.945 223.373 164.647 223.088 164.626 222.729L164.625 222.689V204.253C164.625 203.875 164.931 203.568 165.309 203.568Z" fill="#164E63"/>
<path fill-rule="evenodd" clip-rule="evenodd" d="M165.309 70.3423C165.674 70.3423 165.972 70.6272 165.993 70.9866L165.994 71.0268V174.979C165.994 175.357 165.688 175.664 165.309 175.664C164.945 175.664 164.647 175.379 164.626 175.019L164.625 174.979V71.0268C164.625 70.6487 164.931 70.3423 165.309 70.3423Z" fill="#164E63"/>
<path fill-rule="evenodd" clip-rule="evenodd" d="M200.675 86.4279H199.443C198.804 86.4279 198.302 85.9259 198.302 85.2871V82.8685C198.302 82.2296 198.804 81.7277 199.443 81.7277H200.675C201.314 81.7277 201.816 82.2296 201.816 82.8685V85.2871C201.816 85.9031 201.291 86.4279 200.675 86.4279Z" fill="#164E63"/>
<path fill-rule="evenodd" clip-rule="evenodd" d="M195.815 86.4279H173.957C173.318 86.4279 172.816 85.9259 172.816 85.2871V82.8685C172.816 82.2296 173.318 81.7277 173.957 81.7277H195.815C196.454 81.7277 196.956 82.2296 196.956 82.8685V85.2871C196.956 85.9031 196.431 86.4279 195.815 86.4279Z" fill="#164E63"/>
<path fill-rule="evenodd" clip-rule="evenodd" d="M198.005 108.263H173.957C173.318 108.263 172.816 107.761 172.816 107.123V104.704C172.816 104.065 173.318 103.563 173.957 103.563H198.005C198.644 103.563 199.146 104.065 199.146 104.704V107.123C199.146 107.761 198.621 108.263 198.005 108.263Z" fill="#164E63"/>
<path fill-rule="evenodd" clip-rule="evenodd" d="M219.156 100.985H180.596C179.958 100.985 179.456 100.483 179.456 99.8441V97.4255C179.456 96.7866 179.958 96.2847 180.596 96.2847H219.156C219.795 96.2847 220.297 96.7866 220.297 97.4255V99.8441C220.297 100.483 219.795 100.985 219.156 100.985Z" fill="#164E63"/>
<path fill-rule="evenodd" clip-rule="evenodd" d="M250.187 134.89H248.955C248.316 134.89 247.814 134.388 247.814 133.75V131.331C247.814 130.692 248.316 130.19 248.955 130.19H250.187C250.826 130.19 251.328 130.692 251.328 131.331V133.75C251.328 134.388 250.803 134.89 250.187 134.89Z" fill="#164E63"/>
<path fill-rule="evenodd" clip-rule="evenodd" d="M213.886 93.7064H173.957C173.318 93.7064 172.816 93.2045 172.816 92.5656V90.1471C172.816 89.5082 173.318 89.0062 173.957 89.0062H213.909C214.547 89.0062 215.049 89.5082 215.049 90.1471V92.5656C215.027 93.2045 214.525 93.7064 213.886 93.7064Z" fill="#164E63"/>
<path fill-rule="evenodd" clip-rule="evenodd" d="M226.367 86.4279H204.509C203.87 86.4279 203.368 85.9259 203.368 85.2871V82.8685C203.368 82.2296 203.87 81.7277 204.509 81.7277H226.367C227.006 81.7277 227.508 82.2296 227.508 82.8685V85.2871C227.508 85.9031 226.983 86.4279 226.367 86.4279Z" fill="#164E63"/>
<path fill-rule="evenodd" clip-rule="evenodd" d="M243.776 93.7293H218.061C217.422 93.7293 216.92 93.2273 216.92 92.5884V90.1471C216.92 89.5082 217.422 89.0062 218.061 89.0062H243.776C244.414 89.0062 244.916 89.5082 244.916 90.1471V92.5884C244.916 93.2045 244.414 93.7293 243.776 93.7293Z" fill="#164E63"/>
<path fill-rule="evenodd" clip-rule="evenodd" d="M195.815 127.452H173.957C173.318 127.452 172.816 126.95 172.816 126.311V123.893C172.816 123.254 173.318 122.752 173.957 122.752H195.815C196.454 122.752 196.956 123.254 196.956 123.893V126.311C196.956 126.95 196.431 127.452 195.815 127.452Z" fill="#164E63"/>
<path fill-rule="evenodd" clip-rule="evenodd" d="M243.502 142.032H223.72C223.081 142.032 222.579 141.53 222.579 140.891V138.473C222.579 137.834 223.081 137.332 223.72 137.332H243.502C244.141 137.332 244.643 137.834 244.643 138.473V140.891C244.643 141.507 244.141 142.032 243.502 142.032Z" fill="#164E63"/>
<path fill-rule="evenodd" clip-rule="evenodd" d="M213.886 134.731H173.957C173.318 134.731 172.816 134.229 172.816 133.59V131.171C172.816 130.532 173.318 130.031 173.957 130.031H213.909C214.547 130.031 215.049 130.532 215.049 131.171V133.59C215.027 134.229 214.525 134.731 213.886 134.731Z" fill="#164E63"/>
<path fill-rule="evenodd" clip-rule="evenodd" d="M226.367 127.452H199.443C198.804 127.452 198.302 126.95 198.302 126.311V123.893C198.302 123.254 198.804 122.752 199.443 122.752H226.367C227.006 122.752 227.507 123.254 227.507 123.893V126.311C227.507 126.95 226.983 127.452 226.367 127.452Z" fill="#164E63"/>
<path fill-rule="evenodd" clip-rule="evenodd" d="M252.378 127.452H230.519C229.88 127.452 229.378 126.95 229.378 126.311V123.893C229.378 123.254 229.88 122.752 230.519 122.752H252.378C253.016 122.752 253.518 123.254 253.518 123.893V126.311C253.518 126.95 252.994 127.452 252.378 127.452Z" fill="#164E63"/>
<path fill-rule="evenodd" clip-rule="evenodd" d="M200.675 120.402H199.443C198.804 120.402 198.302 119.9 198.302 119.261V116.842C198.302 116.204 198.804 115.702 199.443 115.702H200.675C201.314 115.702 201.816 116.204 201.816 116.842V119.261C201.816 119.9 201.291 120.402 200.675 120.402Z" fill="#164E63"/>
<path fill-rule="evenodd" clip-rule="evenodd" d="M195.815 120.402H173.957C173.318 120.402 172.816 119.9 172.816 119.261V116.842C172.816 116.204 173.318 115.702 173.957 115.702H195.815C196.454 115.702 196.956 116.204 196.956 116.842V119.261C196.956 119.9 196.431 120.402 195.815 120.402Z" fill="#164E63"/>
<path fill-rule="evenodd" clip-rule="evenodd" d="M226.367 120.402H204.509C203.87 120.402 203.368 119.9 203.368 119.261V116.842C203.368 116.204 203.87 115.702 204.509 115.702H226.367C227.006 115.702 227.508 116.204 227.508 116.842V119.261C227.508 119.9 226.983 120.402 226.367 120.402Z" fill="#164E63"/>
<path fill-rule="evenodd" clip-rule="evenodd" d="M245.578 134.754H218.084C217.445 134.754 216.943 134.252 216.943 133.613V131.171C216.943 130.532 217.445 130.031 218.084 130.031H245.578C246.217 130.031 246.719 130.532 246.719 131.171V133.613C246.719 134.252 246.194 134.754 245.578 134.754Z" fill="#164E63"/>
<path fill-rule="evenodd" clip-rule="evenodd" d="M125.791 123.231H121.251C120.612 123.231 120.11 122.729 120.11 122.09V119.672C120.11 119.033 120.612 118.531 121.251 118.531H125.791C126.43 118.531 126.932 119.033 126.932 119.672V122.09C126.932 122.729 126.43 123.231 125.791 123.231Z" fill="#164E63"/>
<path fill-rule="evenodd" clip-rule="evenodd" d="M134.69 115.2H121.251C120.612 115.2 120.11 114.698 120.11 114.059V111.64C120.11 111.001 120.612 110.5 121.251 110.5H134.69C135.329 110.5 135.83 111.001 135.83 111.64V114.059C135.83 114.698 135.306 115.2 134.69 115.2Z" fill="#164E63"/>
<path fill-rule="evenodd" clip-rule="evenodd" d="M139.709 108.172H121.251C120.612 108.172 120.11 107.67 120.11 107.031V104.613C120.11 103.974 120.612 103.472 121.251 103.472H139.709C140.348 103.472 140.85 103.974 140.85 104.613V107.031C140.85 107.67 140.348 108.172 139.709 108.172Z" fill="#164E63"/>
<path fill-rule="evenodd" clip-rule="evenodd" d="M134.69 101.031H121.251C120.612 101.031 120.11 100.529 120.11 99.8897V97.4712C120.11 96.8323 120.612 96.3303 121.251 96.3303H134.69C135.329 96.3303 135.83 96.8323 135.83 97.4712V99.8897C135.83 100.529 135.306 101.031 134.69 101.031Z" fill="#164E63"/>
<path fill-rule="evenodd" clip-rule="evenodd" d="M129.282 93.4783H121.251C120.612 93.4783 120.11 92.9763 120.11 92.3375V89.9189C120.11 89.28 120.612 88.7781 121.251 88.7781H129.282C129.921 88.7781 130.423 89.28 130.423 89.9189V92.3375C130.423 92.9763 129.898 93.4783 129.282 93.4783Z" fill="#164E63"/>
<path fill-rule="evenodd" clip-rule="evenodd" d="M135.009 93.4783H133.069C132.659 93.4783 132.316 93.136 132.316 92.7253V89.531C132.316 89.1203 132.659 88.7781 133.069 88.7781H135.009C135.419 88.7781 135.762 89.1203 135.762 89.531V92.7253C135.762 93.136 135.419 93.4783 135.009 93.4783Z" fill="#164E63"/>
<path fill-rule="evenodd" clip-rule="evenodd" d="M140.234 100.939H138.294C137.884 100.939 137.542 100.597 137.542 100.186V96.992C137.542 96.5813 137.884 96.239 138.294 96.239H140.234C140.645 96.239 140.987 96.5813 140.987 96.992V100.186C140.987 100.62 140.645 100.939 140.234 100.939Z" fill="#164E63"/>
<path fill-rule="evenodd" clip-rule="evenodd" d="M145.801 108.195H143.862C143.451 108.195 143.109 107.853 143.109 107.442V104.248C143.109 103.837 143.451 103.495 143.862 103.495H145.801C146.212 103.495 146.554 103.837 146.554 104.248V107.442C146.554 107.853 146.212 108.195 145.801 108.195Z" fill="#164E63"/>
<path fill-rule="evenodd" clip-rule="evenodd" d="M140.416 115.268H138.477C138.066 115.268 137.724 114.926 137.724 114.515V111.321C137.724 110.91 138.066 110.568 138.477 110.568H140.416C140.827 110.568 141.169 110.91 141.169 111.321V114.515C141.169 114.926 140.827 115.268 140.416 115.268Z" fill="#164E63"/>
<path fill-rule="evenodd" clip-rule="evenodd" d="M131.29 123.231H129.351C128.94 123.231 128.598 122.889 128.598 122.478V119.284C128.598 118.873 128.94 118.531 129.351 118.531H131.29C131.701 118.531 132.043 118.873 132.043 119.284V122.478C132.043 122.912 131.701 123.231 131.29 123.231Z" fill="#164E63"/>
<path fill-rule="evenodd" clip-rule="evenodd" d="M151.825 130.076H149.885C149.475 130.076 149.132 129.734 149.132 129.323V126.129C149.132 125.718 149.475 125.376 149.885 125.376H151.825C152.235 125.376 152.578 125.718 152.578 126.129V129.323C152.578 129.734 152.235 130.076 151.825 130.076Z" fill="#164E63"/>
<path fill-rule="evenodd" clip-rule="evenodd" d="M137.678 85.9259H120.954C120.315 85.9259 119.813 85.424 119.813 84.7851V82.3665C119.813 81.7277 120.315 81.2257 120.954 81.2257H137.678C138.317 81.2257 138.819 81.7277 138.819 82.3665V84.7851C138.819 85.4011 138.317 85.9259 137.678 85.9259Z" fill="#164E63"/>
<path fill-rule="evenodd" clip-rule="evenodd" d="M146.759 125.376H135.602C135.351 125.809 134.94 126.403 134.461 127.064C135.077 126.654 137.131 125.239 137.176 126.289C137.199 126.882 135.42 128.684 134.005 130.053H146.759C147.398 130.053 147.9 129.551 147.9 128.913V126.494C147.9 125.901 147.398 125.376 146.759 125.376Z" fill="#164E63"/>
<path fill-rule="evenodd" clip-rule="evenodd" d="M121.251 130.076H121.661C122.848 128.57 126.225 127.293 126.225 127.293C126.772 126.928 127.845 125.992 128.552 125.376H121.228C120.589 125.376 120.087 125.878 120.087 126.517V128.935C120.11 129.574 120.612 130.076 121.251 130.076Z" fill="#164E63"/>
<path fill-rule="evenodd" clip-rule="evenodd" d="M231.843 99.4107C230.405 100.004 227.576 100.597 227.234 99.6845C227.097 99.2966 230.474 97.6082 231.135 97.5169C231.82 97.4028 236.178 96.5586 236.178 96.5586C236.178 96.5586 238.346 96.5358 240.194 96.513C240.353 96.513 240.513 96.513 240.673 96.5358C240.49 96.3989 240.239 96.3076 239.988 96.3076H223.743C223.104 96.3076 222.602 96.8096 222.602 97.4484V99.867C222.602 100.506 223.104 101.008 223.743 101.008H236.954C236.794 100.255 233.28 98.8174 231.843 99.4107Z" fill="#164E63"/>
<path fill-rule="evenodd" clip-rule="evenodd" d="M73.3583 238.295L73.3355 189.582C73.3355 189.582 55.607 189.673 55.5614 189.582C55.5386 189.559 55.5386 189.559 55.5158 189.536H36.3042V248.243H88.5542V238.295H73.3583Z" fill="#164E63"/>
<path fill-rule="evenodd" clip-rule="evenodd" d="M103.34 247.992L103.111 248.084H97.9777C97.4758 248.129 94.829 248.015 97.0879 246.6C97.5442 246.395 101.332 243.977 102.838 243.703C104.344 243.429 110.116 243.429 110.23 243.429C110.299 243.429 110.915 241.741 111.485 240.143C110.458 239.915 109.226 239.071 108.177 238.113C108.268 238.295 76.5073 237.634 76.5073 237.634L76.7811 248.677H81.4813L81.7551 238.843C81.7551 238.843 83.6717 248.449 90.2201 248.882C92.2964 249.019 100.237 248.54 106.534 248.061C105.051 248.061 103.842 248.015 103.34 247.992Z" fill="#06D0B6"/>
<path fill-rule="evenodd" clip-rule="evenodd" d="M136.152 126.856L136.067 126.9C135.96 126.956 135.848 127.019 135.731 127.088L135.581 127.178C135.287 127.359 134.723 127.728 134.694 127.745C134.369 127.937 133.949 127.828 133.757 127.502C133.573 127.189 133.667 126.788 133.965 126.588L134.559 126.204C134.698 126.115 134.836 126.028 134.936 125.968C135.107 125.865 135.271 125.772 135.429 125.689C135.902 125.439 136.302 125.286 136.66 125.252C137.297 125.191 137.813 125.548 137.878 126.207L137.882 126.261C137.945 127.11 137.045 128.11 134.407 130.665C133.682 131.349 132.78 131.969 131.74 132.533C130.792 133.046 129.781 133.485 128.77 133.852C128.461 133.964 128.17 134.062 127.904 134.147L127.6 134.24C127.517 134.265 127.453 134.284 127.409 134.296C127.044 134.395 126.668 134.18 126.568 133.815C126.469 133.451 126.684 133.074 127.049 132.975L127.132 132.951C127.19 132.934 127.256 132.915 127.329 132.892L127.385 132.875C127.661 132.789 127.97 132.685 128.303 132.565C129.255 132.22 130.206 131.807 131.088 131.329C132.031 130.818 132.838 130.263 133.461 129.675L134.016 129.134C134.676 128.488 135.151 128.003 135.562 127.549L135.615 127.49C135.797 127.289 135.954 127.105 136.085 126.941L136.152 126.856Z" fill="#164E63"/>
<path fill-rule="evenodd" clip-rule="evenodd" d="M134.307 123.544C135.432 123.099 136.503 123.545 136.583 124.752C136.605 125.246 135.868 126.365 134.49 128.197L134.337 128.399C133.195 129.904 132.072 131.239 131.448 131.798C130.305 132.81 128.745 133.778 126.762 134.637L126.659 134.681L126.378 135.358C126.238 135.695 125.861 135.861 125.521 135.742L125.484 135.728C125.147 135.588 124.981 135.211 125.099 134.871L125.113 134.834L125.501 133.898C125.571 133.731 125.704 133.598 125.871 133.528C127.894 132.687 129.446 131.742 130.537 130.775L130.61 130.708C131.17 130.181 132.207 128.942 133.253 127.563L133.396 127.374C133.931 126.663 134.411 125.99 134.754 125.47L134.844 125.332C134.974 125.131 135.076 124.961 135.147 124.831L135.182 124.765L135.192 124.744L135.186 124.743C135.122 124.732 135.006 124.746 134.853 124.801L134.811 124.817C134.19 125.063 133.509 125.763 133.053 126.756C132.896 127.1 132.489 127.251 132.146 127.093C131.802 126.936 131.651 126.529 131.809 126.186C132.404 124.888 133.338 123.928 134.307 123.544Z" fill="#164E63"/>
<path fill-rule="evenodd" clip-rule="evenodd" d="M131.451 123.64L131.454 123.638C132.235 123.124 133.218 122.916 133.687 123.338C134.106 123.715 134.054 124.147 133.769 124.936L133.744 125.005C133.57 125.476 133.298 126.081 132.887 126.929C132.773 127.164 132.63 127.408 132.459 127.66C132.203 128.036 131.89 128.427 131.532 128.828C131.193 129.207 130.831 129.575 130.47 129.918L130.322 130.057C130.275 130.101 130.229 130.143 130.184 130.184L129.994 130.354L129.981 130.365C129.695 130.613 129.263 130.582 129.016 130.296C128.778 130.021 128.798 129.611 129.054 129.36L129.203 129.226L129.325 129.114C129.389 129.056 129.457 128.992 129.527 128.925C129.863 128.606 130.2 128.264 130.512 127.915C130.832 127.557 131.108 127.212 131.326 126.892C131.462 126.691 131.572 126.504 131.655 126.332L131.803 126.025C132.038 125.533 132.216 125.14 132.346 124.82L132.41 124.661L132.365 124.683C132.112 124.817 131.899 124.992 131.77 125.181L131.763 125.19L131.755 125.211C131.63 125.506 131.45 125.816 131.221 126.14L131.151 126.238C130.897 126.588 130.59 126.951 130.243 127.323C129.953 127.635 129.646 127.939 129.337 128.229L129.253 128.307L129.246 128.314C128.928 128.633 128.653 128.868 128.483 128.946L128.456 128.958C127.746 129.231 127.196 128.322 127.742 127.82L127.892 127.69L128.019 127.579C128.062 127.54 128.108 127.499 128.155 127.456L128.227 127.391L128.37 127.258L128.426 127.199C128.51 127.109 128.599 127.012 128.691 126.909L128.761 126.83C129.257 126.269 129.757 125.645 130.057 125.204C130.118 125.111 130.173 125.011 130.218 124.912L130.23 124.883L130.209 124.897C130.078 124.984 129.929 125.096 129.762 125.233L129.704 125.28L129.315 125.625L129.24 125.691C128.954 125.942 128.663 126.194 128.381 126.436L128.029 126.735L127.788 126.936C127.296 127.345 126.904 127.652 126.631 127.837C126.587 127.867 126.539 127.891 126.489 127.91L126.29 127.989L126.12 128.059C126.002 128.108 125.876 128.161 125.745 128.219C125.18 128.468 124.616 128.745 124.092 129.041C123.082 129.613 122.357 130.187 122.076 130.663L121.917 130.935C121.633 131.415 121.078 132.321 120.213 133.721C120.015 134.043 119.593 134.143 119.271 133.944C118.95 133.745 118.85 133.324 119.049 133.002L120.362 130.864C120.628 130.426 120.802 130.134 120.89 129.978C121.334 129.228 122.214 128.531 123.418 127.85C123.985 127.529 124.589 127.232 125.193 126.966C125.369 126.889 125.534 126.819 125.687 126.756L125.925 126.66L125.937 126.652C126.18 126.48 126.544 126.191 126.993 125.816L127.286 125.57C127.558 125.339 127.842 125.095 128.125 124.848L128.821 124.234C129.379 123.768 129.846 123.479 130.247 123.359C130.699 123.224 131.132 123.3 131.416 123.6L131.451 123.64Z" fill="#164E63"/>
<path fill-rule="evenodd" clip-rule="evenodd" d="M117.069 132.872L111.524 142.957C111.429 143.13 111.413 143.335 111.48 143.52L116.637 157.757C116.85 158.346 117.676 158.363 117.914 157.784L127.04 135.538C127.2 135.149 126.974 134.709 126.565 134.612L117.827 132.536C117.527 132.465 117.217 132.602 117.069 132.872ZM118.017 133.988L125.47 135.759L117.32 155.624L112.873 143.345L118.017 133.988Z" fill="#164E63"/>
<path fill-rule="evenodd" clip-rule="evenodd" d="M71.1878 131.103C71.5658 131.101 71.8737 131.406 71.8754 131.784C71.8771 132.149 71.5936 132.448 71.2343 132.47L71.1941 132.472L66.2626 132.495C63.8918 132.495 60.7876 135.131 60.4615 137.625L60.4186 137.948C60.0396 140.731 59.3567 143.917 58.1253 148.956L56.5787 155.242C56.4266 155.872 56.315 156.348 56.1599 157.017C56.1554 157.037 56.1501 157.056 56.1439 157.075C54.0701 163.435 52.6876 169.47 52.3171 174.739C51.8691 181.11 52.943 185.924 55.7656 188.801L55.8559 188.892L56.1413 188.898L57.0597 188.907L59.1612 188.914C60.0612 188.915 61.1086 188.915 62.2831 188.913L66.3496 188.903L73.3322 188.874C73.6979 188.873 73.9979 189.158 74.019 189.518L74.0202 189.559L74.0426 237.588H108.106L108.495 234.769C108.621 233.846 108.754 232.861 108.894 231.823C109.547 226.969 110.199 221.94 110.809 217.002L110.966 215.721C111.122 214.446 111.272 213.194 111.418 211.967L111.594 210.469C113.271 196.083 114.002 186.525 113.391 185.11C112.865 183.91 109.861 181.505 105.174 178.43C104.365 177.899 103.512 177.352 102.62 176.791C100.352 175.365 97.9312 173.91 95.5004 172.495L94.5632 171.952C94.0832 171.675 93.6231 171.411 93.1863 171.162L92.2672 170.641L91.508 170.216C91.2213 170.057 91.0892 169.718 91.1877 169.41L91.2131 169.34L91.3152 169.071L91.4366 168.746C91.6091 168.28 91.7999 167.751 92.0047 167.167L92.0609 167.006C92.7076 165.152 93.3543 163.147 93.9578 161.066C94.7527 158.325 95.4111 155.66 95.8864 153.153C97.1154 146.671 97.0103 141.826 95.2831 139.405C93.2217 136.626 90.5311 135.228 86.9816 134.512C86.611 134.437 86.3712 134.076 86.4459 133.705C86.5207 133.335 86.8817 133.095 87.2523 133.17C91.1043 133.947 94.0897 135.498 96.3901 138.6C98.4158 141.439 98.5272 146.574 97.2315 153.408C96.7473 155.962 96.0789 158.667 95.2726 161.448C94.7001 163.422 94.0894 165.327 93.4762 167.103L93.3535 167.457C93.1435 168.059 92.9472 168.606 92.7686 169.091L92.6883 169.307L93.4931 169.762C94.1009 170.107 94.7583 170.483 95.4553 170.886L95.6656 171.008C98.2842 172.525 100.903 174.094 103.348 175.632C104.135 176.127 104.892 176.611 105.617 177.084L105.925 177.285C110.907 180.554 113.961 182.999 114.646 184.564C115.42 186.356 114.697 195.748 112.904 211.05L112.849 211.515C112.634 213.346 112.406 215.234 112.167 217.17C111.604 221.733 111.004 226.373 110.401 230.881L109.992 233.922C109.908 234.538 109.827 235.13 109.749 235.697L109.379 238.368C109.334 238.692 109.065 238.937 108.742 238.956L108.701 238.957H73.3585C72.9941 238.957 72.6962 238.672 72.6752 238.313L72.674 238.273L72.6514 190.247L66.7448 190.271L61.3833 190.283C60.2759 190.284 59.3009 190.284 58.4784 190.282L56.7836 190.274L56.3278 190.27C56.151 190.267 56.0028 190.265 55.8834 190.262L55.7457 190.258C55.671 190.256 55.6125 190.253 55.5674 190.25L55.3007 190.231C54.9683 190.205 55.0645 190.19 54.9991 189.985L54.9905 189.96L54.892 189.864C51.6924 186.693 50.498 181.546 50.9374 174.851L50.9515 174.643C51.3248 169.334 52.6902 163.312 54.7377 156.973L54.8331 156.678L55.1739 155.229C55.3277 154.586 55.5128 153.83 55.8376 152.514L56.6494 149.226C58.0112 143.686 58.7291 140.351 59.1039 137.448C59.5164 134.294 63.1401 131.188 66.1678 131.127L66.2594 131.126L71.1878 131.103ZM55.8626 188.898L55.9407 188.975L56.0308 189.061C56.0894 189.116 56.1379 189.181 56.1739 189.253C56.0291 188.963 56.207 188.931 55.9736 188.907L55.8626 188.898Z" fill="#164E63"/>
<path fill-rule="evenodd" clip-rule="evenodd" d="M71.7612 124.393C71.9259 124.053 72.3352 123.91 72.6755 124.075C73.0158 124.24 73.1582 124.649 72.9935 124.989C72.7041 125.588 72.5995 126.435 72.7344 127.302C72.9763 128.865 73.8714 129.946 74.6103 129.901L74.649 129.898C75.0246 129.855 75.3641 130.124 75.4075 130.499C75.4508 130.875 75.1815 131.215 74.806 131.258C73.1696 131.447 71.7262 129.739 71.3816 127.512C71.2057 126.381 71.345 125.253 71.7612 124.393Z" fill="#06D0B6"/>
<path fill-rule="evenodd" clip-rule="evenodd" d="M90.5487 125.521C90.9222 125.463 91.272 125.719 91.3298 126.092C91.5717 127.656 92.4668 128.737 93.2057 128.692L93.2444 128.689C93.62 128.645 93.9595 128.915 94.0029 129.29C94.0462 129.666 93.7769 130.005 93.4013 130.049C91.765 130.237 90.3216 128.529 89.9769 126.302C89.9191 125.928 90.1751 125.578 90.5487 125.521Z" fill="#06D0B6"/>
<path fill-rule="evenodd" clip-rule="evenodd" d="M73.6553 109.678C76.4389 107.625 78.2871 96.8323 70.7348 89.5995C63.0684 82.2753 56.7026 89.7592 55.288 91.7214C53.8733 93.6836 52.8009 99.114 59.4178 104.248C66.0574 109.359 70.4838 112.028 73.6553 109.678Z" fill="#164E63"/>
<path fill-rule="evenodd" clip-rule="evenodd" d="M77.7164 114.447L77.5339 114.561C76.5072 115.222 75.0697 114.949 74.3396 113.922L72.3089 111.07C71.5788 110.043 71.8298 108.674 72.8565 108.012L73.039 107.898C74.0658 107.237 75.5032 107.51 76.2334 108.537L78.264 111.389C78.9942 112.416 78.7432 113.785 77.7164 114.447Z" fill="#06D0B6"/>
<path fill-rule="evenodd" clip-rule="evenodd" d="M71.0751 120.951C71.681 119.682 73.0437 119.013 74.4521 119.248C74.825 119.31 75.0769 119.662 75.0147 120.035C74.9526 120.408 74.5999 120.66 74.227 120.598C73.4079 120.461 72.6477 120.835 72.314 121.534C71.9039 122.42 72.3202 123.504 73.2767 123.965C73.8425 124.248 74.4999 124.228 75.0199 123.936L75.0771 123.902C75.3994 123.705 75.8208 123.806 76.0184 124.128C76.2159 124.451 76.1148 124.872 75.7924 125.07C74.8628 125.639 73.6757 125.695 72.6733 125.194C71.0642 124.418 70.3415 122.536 71.0751 120.951Z" fill="#164E63"/>
<path fill-rule="evenodd" clip-rule="evenodd" d="M90.6347 118.516C91.4171 118.275 92.2989 118.329 93.0499 118.69C94.659 119.466 95.3817 121.348 94.6479 122.933C94.0095 124.268 92.481 124.955 91.0186 124.604C90.651 124.516 90.4245 124.146 90.5127 123.779C90.6009 123.411 90.9704 123.185 91.338 123.273C92.1844 123.476 93.0587 123.083 93.4092 122.35C93.8193 121.465 93.403 120.38 92.4557 119.923C92.0452 119.726 91.5515 119.687 91.1104 119.803L91.0373 119.824C90.676 119.935 90.293 119.732 90.1818 119.371C90.0706 119.01 90.2734 118.627 90.6347 118.516Z" fill="#164E63"/>
<path fill-rule="evenodd" clip-rule="evenodd" d="M76.0535 125.809C76.4181 125.811 76.7149 126.097 76.7343 126.456L76.7353 126.497L76.7125 132.269C76.7109 132.664 76.3778 132.972 75.9892 132.95L75.9488 132.946L72.3235 132.524L72.3421 132.577C73.0896 134.697 73.844 136.321 74.7932 137.696L74.8706 137.807C76.3053 139.844 78.0453 141.056 80.2271 141.354C83.3847 141.783 85.2887 140.62 86.3022 138.319C86.6783 137.465 86.9035 136.5 86.9936 135.535C87.0242 135.208 87.0371 134.897 87.0345 134.628L87.0329 134.538L84.4575 133.961C84.1661 133.896 83.9522 133.65 83.9254 133.356L83.9229 133.315L83.8773 131.901C83.8651 131.523 84.1615 131.207 84.5393 131.194C84.9037 131.183 85.2107 131.458 85.2431 131.816L85.2455 131.856L85.274 132.741L87.814 133.31C88.0266 133.357 88.203 133.503 88.2904 133.701L88.3077 133.744C88.5861 134.509 88.3464 137.075 87.555 138.871C86.3035 141.712 83.8272 143.224 80.0424 142.71C77.4491 142.356 75.3903 140.922 73.7515 138.596C72.5142 136.84 71.6084 134.771 70.6774 131.932C70.5257 131.47 70.8906 131.006 71.368 131.035L71.407 131.039L75.3465 131.498L75.3663 126.491C75.3678 126.127 75.6539 125.83 76.0133 125.81L76.0535 125.809Z" fill="#164E63"/>
<path fill-rule="evenodd" clip-rule="evenodd" d="M80.9353 110.471C76.0968 111.36 73.1595 117.011 74.2671 123.039C75.3747 129.068 80.1291 133.306 84.9676 132.417C89.806 131.528 92.7434 125.877 91.6358 119.848C90.5281 113.82 85.7738 109.582 80.9353 110.471ZM81.1829 111.817C85.1932 111.08 89.3069 114.747 90.2895 120.096C91.2722 125.444 88.7307 130.334 84.7204 131.071C80.71 131.807 76.5964 128.141 75.6137 122.792C74.631 117.444 77.1725 112.554 81.1829 111.817Z" fill="#164E63"/>
<path fill-rule="evenodd" clip-rule="evenodd" d="M84.1807 118.668C84.5331 118.574 84.8941 118.774 85.0062 119.116L85.0176 119.154L86.1321 123.362C86.2963 123.937 85.8895 124.526 85.3087 124.553L85.2659 124.554L83.7144 124.6C83.3365 124.611 83.0212 124.314 83.0101 123.936C82.9994 123.571 83.2754 123.265 83.634 123.234L83.6741 123.231L84.6733 123.202L83.6943 119.505C83.6009 119.152 83.8001 118.791 84.1421 118.679L84.1807 118.668Z" fill="#164E63"/>
<path fill-rule="evenodd" clip-rule="evenodd" d="M79.5086 116.351C80.1947 115.962 80.932 115.815 81.6626 116.097C81.916 116.195 82.154 116.342 82.3724 116.539C82.6534 116.792 82.6762 117.225 82.4233 117.506C82.1802 117.776 81.7707 117.807 81.4897 117.585L81.4566 117.557C81.3608 117.47 81.2658 117.411 81.17 117.374C80.8914 117.267 80.5478 117.335 80.1836 117.542C80.0922 117.593 80.0085 117.649 79.9354 117.704L79.9001 117.731C79.8801 117.747 79.8673 117.758 79.8626 117.762C79.5816 118.015 79.1488 117.992 78.8959 117.711C78.643 117.43 78.6658 116.997 78.9468 116.744C79.0662 116.637 79.2575 116.493 79.5086 116.351Z" fill="#164E63"/>
<path fill-rule="evenodd" clip-rule="evenodd" d="M85.7815 116.118C86.2333 116.011 86.7041 115.979 87.1668 116.071C87.8337 116.203 88.3861 116.582 88.727 117.231C88.9028 117.566 88.7741 117.98 88.4394 118.156C88.1172 118.325 87.7215 118.212 87.5356 117.904L87.5151 117.868C87.3764 117.604 87.1795 117.469 86.9009 117.414C86.6575 117.365 86.3723 117.385 86.0944 117.45L86.0259 117.467C85.9841 117.478 85.9505 117.488 85.9266 117.496L85.8981 117.506C85.5443 117.639 85.1495 117.46 85.0163 117.106C84.883 116.753 85.0618 116.358 85.4156 116.225L85.484 116.2C85.5605 116.175 85.6609 116.146 85.7815 116.118Z" fill="#164E63"/>
<path fill-rule="evenodd" clip-rule="evenodd" d="M82.3313 120.721C82.3481 120.205 82.086 119.777 81.7459 119.766C81.4059 119.755 81.1166 120.165 81.0998 120.681C81.083 121.197 81.345 121.625 81.6851 121.636C82.0251 121.647 82.3144 121.237 82.3313 120.721Z" fill="#164E63"/>
<path fill-rule="evenodd" clip-rule="evenodd" d="M87.5733 121.855C87.9127 121.83 88.1575 121.392 88.1202 120.877C88.0829 120.362 87.7775 119.964 87.4382 119.988C87.0988 120.013 86.854 120.451 86.8913 120.966C86.9286 121.481 87.234 121.879 87.5733 121.855Z" fill="#164E63"/>
<path fill-rule="evenodd" clip-rule="evenodd" d="M92.559 121.55C94.2057 121.302 95.4819 123.092 95.8476 125.455C96.1945 127.723 95.2983 129.817 93.6303 130.068C93.6078 130.072 93.5851 130.074 93.5624 130.075L93.5282 130.076H93.4826C93.1045 130.076 92.7981 129.77 92.7981 129.392C92.7981 129.027 93.083 128.729 93.4423 128.708L93.4657 128.708L93.5002 128.7C94.1988 128.516 94.715 127.267 94.5062 125.744L94.4945 125.663C94.234 123.979 93.441 122.845 92.7965 122.9L92.7633 122.904C92.3895 122.961 92.0407 122.703 91.9843 122.329C91.9279 121.956 92.1852 121.607 92.559 121.55Z" fill="#06D0B6"/>
<path fill-rule="evenodd" clip-rule="evenodd" d="M73.5756 122.919C75.2384 122.668 76.7216 124.393 77.0696 126.641C77.4164 128.909 76.5203 131.003 74.8523 131.255C74.8298 131.258 74.8071 131.261 74.7843 131.262L74.7501 131.263H74.7045C74.3265 131.263 74.02 130.956 74.02 130.578C74.02 130.213 74.305 129.916 74.6643 129.895L74.6876 129.894L74.7222 129.886C75.4208 129.703 75.937 128.454 75.7281 126.93L75.7165 126.85C75.4736 125.28 74.5608 124.197 73.8182 124.268L73.7799 124.273C73.4061 124.329 73.0573 124.072 73.0009 123.698C72.9445 123.325 73.2018 122.976 73.5756 122.919Z" fill="#06D0B6"/>
<path fill-rule="evenodd" clip-rule="evenodd" d="M79.5879 124.421C79.678 126.773 80.5881 128.017 82.0671 128.149C82.6222 128.198 83.1848 128.081 83.7338 127.859C84.0067 127.749 84.2193 127.637 84.3515 127.555C84.7705 127.295 84.7861 126.691 84.381 126.411L80.6619 123.832C80.1981 123.511 79.5664 123.857 79.5879 124.421ZM81.1833 125.86L82.5098 126.779L82.4634 126.784C82.3681 126.793 82.2761 126.793 82.1886 126.785C81.7545 126.747 81.4136 126.495 81.1999 125.907L81.1833 125.86Z" fill="#164E63"/>
<path fill-rule="evenodd" clip-rule="evenodd" d="M80.0209 108.697L79.998 108.72C77.3513 109.108 74.3852 110.317 72.7424 112.097C69.8218 115.245 71.168 121.976 74.1342 122.432C74.3852 122.478 74.6361 122.501 74.8871 122.501C74.8643 122.341 74.8415 122.159 74.8187 121.999C74.7502 121.383 74.7274 120.767 74.7274 120.151C78.7888 118.645 78.7659 112.553 78.7659 112.051C79.633 112.735 80.751 113.899 80.4544 115.2L89.4213 115.77C90.2883 117.253 90.8816 118.987 91.0869 120.858C91.0869 120.881 91.0869 120.904 91.0869 120.927C91.9311 119.717 91.9539 117.846 91.2694 115.884L94.304 116.067C94.3269 116.067 97.0877 105.822 80.0209 108.697Z" fill="#164E63"/>
<path fill-rule="evenodd" clip-rule="evenodd" d="M70.4893 146.302C70.5382 145.927 70.8816 145.662 71.2565 145.711C71.618 145.758 71.8767 146.079 71.8509 146.438L71.8469 146.478L70.8747 153.944L89.1721 153.988C89.5366 153.989 89.8339 154.274 89.8538 154.634L89.8549 154.674C89.854 155.038 89.5684 155.336 89.209 155.356L89.1688 155.357L70.0941 155.311C69.6954 155.31 69.385 154.971 69.4129 154.579L69.417 154.538L70.4893 146.302Z" fill="#164E63"/>
<path fill-rule="evenodd" clip-rule="evenodd" d="M54.6016 157.562C54.6945 157.195 55.0668 156.973 55.4333 157.066C55.7997 157.159 56.0215 157.532 55.9286 157.898C55.1853 160.831 57.6444 164.332 60.5386 164.458L60.6264 164.461L88.303 164.438C88.681 164.438 88.9877 164.744 88.988 165.122C88.9883 165.486 88.7036 165.785 88.3443 165.806L88.3041 165.807L60.6134 165.83C56.763 165.753 53.6396 161.358 54.6016 157.562Z" fill="#164E63"/>
<path fill-rule="evenodd" clip-rule="evenodd" d="M66.377 154.447C67.591 153.649 68.8812 153.549 70.0543 153.856C70.2811 153.915 70.4522 153.977 70.5583 154.025C70.9033 154.179 71.0577 154.584 70.9032 154.929C70.7541 155.262 70.3722 155.418 70.0358 155.29L69.9672 155.261C69.9158 155.241 69.8273 155.212 69.7076 155.18C68.8784 154.963 67.9774 155.033 67.129 155.591C66.6945 155.876 66.2883 156.285 65.9177 156.835C65.7064 157.148 65.281 157.231 64.9675 157.02C64.654 156.808 64.5712 156.383 64.7825 156.069C65.2524 155.372 65.7874 154.834 66.377 154.447Z" fill="#164E63"/>
<path fill-rule="evenodd" clip-rule="evenodd" d="M63.818 153.507C65.9295 151.757 68.0226 151.661 69.8088 152.577C70.0464 152.699 70.2577 152.83 70.4413 152.963L70.5219 153.022C70.5966 153.079 70.6536 153.126 70.6921 153.161C70.9724 153.415 70.9939 153.848 70.7403 154.128C70.4963 154.397 70.0867 154.428 69.8064 154.204L69.7511 154.157C69.721 154.133 69.684 154.104 69.6404 154.073C69.5107 153.979 69.3577 153.884 69.184 153.795C67.858 153.115 66.3527 153.184 64.6916 154.561C64.4005 154.802 63.969 154.761 63.7278 154.47C63.4866 154.179 63.527 153.748 63.818 153.507Z" fill="#164E63"/>
<path fill-rule="evenodd" clip-rule="evenodd" d="M66.2171 161.974L80.2037 162.11L84.8126 140.435C84.9039 139.956 85.3146 139.613 85.7481 139.613L119.836 140.138C120.452 140.138 120.908 140.8 120.772 141.461L116.436 164.575C116.14 166.012 114.337 167.107 113.037 167.084C104.663 166.948 70.9401 166.468 69.9362 166.446C65.4413 166.423 66.2171 161.974 66.2171 161.974Z" fill="#06D0B6"/>
<path fill-rule="evenodd" clip-rule="evenodd" d="M125.038 165.898C125.403 165.898 125.701 166.183 125.722 166.542L125.723 166.583V247.559C125.723 247.937 125.416 248.243 125.038 248.243C124.674 248.243 124.376 247.958 124.355 247.599L124.354 247.559L124.353 167.267H48.2145L48.2147 247.559C48.2147 247.923 47.9297 248.221 47.5704 248.242L47.5302 248.243C47.1657 248.243 46.8677 247.958 46.8469 247.599L46.8457 247.559V166.583C46.8457 166.218 47.1307 165.92 47.49 165.899L47.5302 165.898H125.038Z" fill="#164E63"/>
<path fill-rule="evenodd" clip-rule="evenodd" d="M119.615 238.436L112.9 238.136L112.804 238.434C112.623 238.985 112.366 239.732 112.077 240.552L111.801 241.329C111.628 241.81 111.469 242.247 111.332 242.61L111.202 242.951C111.118 243.168 111.047 243.344 110.989 243.477L110.943 243.582C110.921 243.63 110.901 243.671 110.882 243.707L110.802 243.856C110.664 244.101 110.595 244.134 110.274 244.136L109.592 244.139C109.401 244.14 109.2 244.141 108.989 244.143C108.208 244.15 107.428 244.161 106.689 244.179L106.033 244.197C104.545 244.241 103.453 244.31 102.96 244.399C102.503 244.482 101.664 244.851 100.569 245.434C100.422 245.513 100.271 245.595 100.115 245.68L99.7977 245.857C99.2634 246.16 98.2787 246.734 97.7386 247.042L97.4429 247.209L97.3882 247.244C97.3473 247.27 97.3086 247.296 97.2719 247.321L97.1764 247.387L97.211 247.393C97.4357 247.424 97.6855 247.438 97.8603 247.429L97.9467 247.423L97.9777 247.422H102.536L102.548 247.39C102.638 247.159 102.763 246.931 102.929 246.713L102.993 246.632C103.503 246.01 104.277 245.599 105.319 245.487L105.641 245.453C106.323 245.382 106.915 245.331 107.42 245.298L107.646 245.284C108.027 245.262 108.277 245.255 108.405 245.255C108.783 245.255 109.089 245.561 109.089 245.939C109.089 246.304 108.804 246.602 108.445 246.622L108.25 246.627L108.05 246.634C107.953 246.639 107.845 246.644 107.726 246.651L107.393 246.672C106.855 246.709 106.214 246.767 105.466 246.848C104.915 246.907 104.519 247.07 104.24 247.309L104.202 247.342L104.905 247.36C106.333 247.393 107.772 247.413 109.131 247.411L109.536 247.41C112.623 247.395 114.817 247.26 115.464 247.01C115.703 246.92 116.109 246.455 116.568 245.68C117.031 244.898 117.528 243.85 118.051 242.585L118.117 242.426C118.421 241.683 118.892 240.42 119.279 239.362L119.615 238.436ZM121.203 238.045L121.213 238.022C121.231 238.005 119.993 241.457 119.384 242.944C118.814 244.337 118.268 245.495 117.746 246.378C117.136 247.406 116.57 248.056 115.953 248.289C115.078 248.626 112.861 248.763 109.543 248.779C108.187 248.785 106.745 248.769 105.305 248.738L104.873 248.728C104.514 248.72 104.177 248.711 103.864 248.702L103.469 248.69L103.446 248.704C103.358 248.753 103.258 248.784 103.152 248.79L103.112 248.791H98.0011L97.9567 248.794C97.4721 248.824 96.7649 248.755 96.2961 248.57L96.2159 248.536C95.6967 248.302 95.374 247.851 95.547 247.265C95.6742 246.834 96.0612 246.459 96.7247 246.043L96.7652 246.02L96.8211 245.992C96.9989 245.896 98.6287 244.94 99.2931 244.571C99.4566 244.48 99.6159 244.392 99.7712 244.309L99.9253 244.226C101.146 243.575 102.072 243.169 102.715 243.052L102.812 243.036C103.466 242.931 104.683 242.863 106.339 242.818C107.178 242.796 108.077 242.782 108.977 242.774L109.802 242.768L109.862 242.619C109.89 242.548 109.92 242.469 109.953 242.384L110.082 242.043C110.212 241.697 110.362 241.286 110.523 240.836L110.863 239.878C111.304 238.618 111.71 237.405 111.72 237.332C111.768 236.996 112.053 236.748 112.388 236.744L112.429 236.745L120.597 237.11C121.067 237.131 121.376 237.608 121.203 238.045Z" fill="#06D0B6"/>
<path fill-rule="evenodd" clip-rule="evenodd" d="M139.69 178.484C139.859 178.145 140.27 178.008 140.609 178.177C140.934 178.34 141.073 178.727 140.932 179.058L140.915 179.096L137.923 185.079L143.306 189.365C146.066 191.55 150.045 189.203 149.504 185.771L149.486 185.667C149.472 185.592 149.471 185.515 149.483 185.439L149.494 185.383L150.68 180.455C150.769 180.087 151.138 179.861 151.506 179.949C151.86 180.035 152.083 180.382 152.019 180.736L152.011 180.775L150.857 185.567L150.877 185.702C151.476 190.233 146.266 193.306 142.568 190.525L142.454 190.437L136.636 185.805C136.395 185.613 136.313 185.284 136.432 185.003L136.45 184.963L139.69 178.484Z" fill="#164E63"/>
<path fill-rule="evenodd" clip-rule="evenodd" d="M155.279 167.275L155.278 167.272L155.335 167.414L155.441 167.688C155.465 167.752 155.49 167.817 155.515 167.887C155.704 168.396 155.889 168.946 156.063 169.534C156.447 170.836 156.716 172.125 156.819 173.347C156.851 173.724 156.572 174.055 156.195 174.087C155.818 174.119 155.487 173.839 155.455 173.463C155.36 172.343 155.11 171.142 154.75 169.921C154.585 169.365 154.41 168.844 154.232 168.362L154.161 168.175C154.139 168.115 154.116 168.057 154.094 168.001L153.997 167.753C153.995 167.755 153.994 167.756 153.992 167.751L153.987 167.728L153.896 167.507C152.713 164.636 151.164 161.742 149.461 159.39L149.314 159.189C148.118 157.588 146.524 157.138 144.606 157.544C143.876 157.699 143.14 157.972 142.425 158.327C141.941 158.568 141.552 158.8 141.209 159.029C139.455 160.204 138.296 161.552 137.65 163.039C136.692 165.243 136.887 167.627 137.805 169.925C137.977 170.354 138.16 170.742 138.342 171.081C138.393 171.175 138.44 171.259 138.483 171.333L138.544 171.435L138.565 171.46L138.597 171.507L139.02 172.136C139.124 172.289 139.233 172.451 139.348 172.62L139.78 173.251C140.141 173.775 140.503 174.294 140.857 174.793L141.169 175.232L141.507 175.702C142.432 176.976 143.157 177.897 143.577 178.313L143.607 178.343C145.028 179.715 145.687 180.025 148.159 180.3C149.497 180.449 151.161 180.109 152.554 179.371C152.888 179.194 153.303 179.322 153.479 179.656C153.656 179.99 153.529 180.404 153.195 180.581C151.564 181.444 149.626 181.84 148.007 181.66L147.757 181.632C145.218 181.329 144.274 180.876 142.731 179.4L142.656 179.328C142.166 178.854 141.402 177.887 140.411 176.522L140.257 176.309C140.157 176.171 140.056 176.03 139.953 175.885C139.457 175.19 138.943 174.452 138.435 173.709L138.217 173.39C138.043 173.135 137.881 172.896 137.733 172.677L137.485 172.307L137.482 172.303C137.471 172.291 137.461 172.278 137.451 172.265L137.424 172.226L137.371 172.141C137.311 172.043 137.231 171.905 137.136 171.729C136.93 171.346 136.725 170.912 136.534 170.433C135.492 167.827 135.268 165.084 136.394 162.493C137.148 160.759 138.48 159.21 140.448 157.891C140.837 157.631 141.273 157.371 141.816 157.101C142.627 156.698 143.468 156.386 144.322 156.205C146.725 155.696 148.864 156.3 150.414 158.373C152.249 160.862 153.905 163.935 155.162 166.984L155.266 167.238L155.279 167.275Z" fill="#164E63"/>
<path fill-rule="evenodd" clip-rule="evenodd" d="M149.798 166.352C150.091 166.136 150.498 166.187 150.729 166.461L150.756 166.495L153.402 170.078C153.631 170.388 153.558 170.822 153.248 171.042L153.213 171.066L151.707 172.001C151.386 172.201 150.964 172.102 150.764 171.781C150.572 171.472 150.657 171.069 150.95 170.861L150.985 170.838L151.86 170.294L149.655 167.309C149.439 167.016 149.49 166.609 149.764 166.378L149.798 166.352Z" fill="#164E63"/>
<path fill-rule="evenodd" clip-rule="evenodd" d="M152.05 165.917C152.282 165.788 152.305 165.389 152.103 165.026C151.901 164.662 151.549 164.472 151.318 164.601C151.087 164.729 151.063 165.128 151.266 165.492C151.468 165.855 151.819 166.045 152.05 165.917Z" fill="#164E63"/>
<path fill-rule="evenodd" clip-rule="evenodd" d="M148.699 168.817C148.95 168.734 149.048 168.347 148.917 167.952C148.786 167.557 148.477 167.305 148.225 167.388C147.974 167.471 147.876 167.859 148.007 168.253C148.138 168.648 148.448 168.901 148.699 168.817Z" fill="#164E63"/>
<path fill-rule="evenodd" clip-rule="evenodd" d="M145.849 164.651C146.21 164.539 146.594 164.741 146.706 165.102C146.814 165.45 146.63 165.819 146.293 165.946L146.255 165.959C145.917 166.064 145.668 166.243 145.483 166.481C145.378 166.616 145.299 166.763 145.245 166.908L145.226 166.964C145.212 167.007 145.204 167.037 145.2 167.053L145.199 167.06C145.137 167.433 144.784 167.685 144.411 167.623C144.038 167.561 143.786 167.208 143.848 166.835C143.864 166.739 143.899 166.601 143.962 166.433C144.062 166.163 144.205 165.893 144.402 165.64C144.754 165.188 145.235 164.842 145.849 164.651Z" fill="#164E63"/>
<path fill-rule="evenodd" clip-rule="evenodd" d="M149.545 161.674C150.172 161.222 150.836 160.987 151.524 161.135C151.703 161.173 151.877 161.238 152.042 161.329C152.373 161.512 152.493 161.929 152.31 162.26C152.134 162.578 151.741 162.701 151.417 162.546L151.379 162.527C151.332 162.501 151.285 162.484 151.237 162.473C151.008 162.424 150.689 162.537 150.346 162.784C150.235 162.865 150.131 162.952 150.039 163.038L149.967 163.109L149.938 163.139C149.686 163.42 149.253 163.443 148.972 163.19C148.69 162.938 148.667 162.505 148.92 162.224C149.051 162.077 149.265 161.876 149.545 161.674Z" fill="#164E63"/>
<path fill-rule="evenodd" clip-rule="evenodd" d="M140.759 162.613C140.759 162.613 149.954 173.519 142.196 178.561C142.196 178.561 138.796 180.615 136.925 179.406C136.925 179.406 139.207 177.466 137.861 175.664C137.861 175.664 135.465 181.596 130.651 180.045C130.651 180.045 135.351 176.417 133.412 172.835C131.472 169.229 138.135 160.194 140.759 162.613Z" fill="#164E63"/>
<path fill-rule="evenodd" clip-rule="evenodd" d="M150.615 158.346C150.615 158.346 143.816 149.402 135.191 157.182C130.217 161.654 130.765 166.491 132.111 169.8L128.004 174.135C127.114 175.071 127.16 176.554 128.095 177.443C128.552 177.877 129.122 178.082 129.715 178.082C130.331 178.082 130.947 177.831 131.427 177.352L150.615 158.346Z" fill="#06D0B6"/>
<path fill-rule="evenodd" clip-rule="evenodd" d="M150.479 173.816L152.486 173.268Z" fill="#F1F5F9"/>
<path fill-rule="evenodd" clip-rule="evenodd" d="M152.306 172.608C152.671 172.508 153.047 172.723 153.147 173.088C153.243 173.44 153.046 173.802 152.705 173.917L152.667 173.929L150.659 174.476C150.294 174.576 149.918 174.361 149.818 173.996C149.722 173.644 149.919 173.282 150.26 173.167L150.299 173.155L152.306 172.608Z" fill="#164E63"/>
<path fill-rule="evenodd" clip-rule="evenodd" d="M158.457 179.954C158.646 179.965 158.842 179.981 159.054 180.004L159.317 180.034C159.417 180.047 159.514 180.059 159.624 180.074L160.37 180.178C161.581 180.34 162.084 180.346 162.378 180.191L162.418 180.169C162.731 179.976 163.137 180.066 163.342 180.365L163.521 180.652L163.599 180.775C163.799 181.087 164.039 181.446 164.317 181.847C165.116 182.997 166.064 184.249 167.158 185.561C167.401 185.851 167.362 186.283 167.071 186.525C166.781 186.767 166.35 186.728 166.107 186.438C164.986 185.094 164.013 183.81 163.193 182.628L163.025 182.384C162.861 182.145 162.712 181.922 162.577 181.716L162.506 181.606L162.491 181.61C161.975 181.736 161.321 181.69 160.145 181.529L159.391 181.424C159.323 181.415 159.26 181.407 159.197 181.399L159.15 181.393C158.861 181.358 158.612 181.334 158.381 181.321C158.003 181.3 157.714 180.977 157.735 180.6C157.756 180.236 158.057 179.954 158.417 179.953L158.457 179.954Z" fill="#164E63"/>
<path fill-rule="evenodd" clip-rule="evenodd" d="M159.325 172.451C161.584 172.202 163.827 172.895 165.541 174.361L165.681 174.478C166.183 174.9 166.766 175.426 167.483 176.099L168.018 176.606L168.044 176.632C169.051 177.701 170.764 179.005 173.049 180.472C173.367 180.677 173.459 181.1 173.255 181.418C173.051 181.736 172.628 181.829 172.309 181.624L171.997 181.422C169.832 180.015 168.178 178.747 167.122 177.649L167.062 177.586L166.753 177.293C165.958 176.54 165.327 175.969 164.796 175.522L164.659 175.408C163.224 174.181 161.357 173.605 159.479 173.811L158.96 173.873C157.241 174.084 156.048 174.294 155.43 174.526L154.559 174.87L154.031 175.081L153.61 175.252C153.127 175.449 152.677 175.638 152.246 175.826C151.767 176.035 151.328 176.235 150.933 176.426L150.71 176.535C150.311 176.732 149.97 176.916 149.692 177.083L149.588 177.147L149.604 177.147C149.729 177.144 149.866 177.138 150.012 177.128L150.219 177.112C151.044 177.042 152.087 176.876 153.033 176.682C153.403 176.605 153.765 176.844 153.841 177.214C153.918 177.584 153.679 177.946 153.309 178.023C152.314 178.227 151.22 178.401 150.334 178.476L150.16 178.49C148.763 178.596 148.006 178.489 147.726 177.8C147.464 177.177 147.82 176.713 148.522 176.213C148.952 175.906 149.563 175.567 150.337 175.193C150.698 175.019 151.091 174.838 151.516 174.651L151.699 174.571C152.203 174.351 152.732 174.131 153.303 173.899L153.835 173.685L154.882 173.27C155.702 172.946 157.14 172.704 159.325 172.451Z" fill="#164E63"/>
<path fill-rule="evenodd" clip-rule="evenodd" d="M154.909 174.968C155.23 174.769 155.652 174.867 155.852 175.188C156.051 175.51 155.953 175.932 155.631 176.131L155.53 176.197L155.421 176.269C155.364 176.308 155.304 176.35 155.241 176.394C154.94 176.606 154.641 176.838 154.363 177.081C153.873 177.51 153.512 177.924 153.34 178.271C153.25 178.454 153.224 178.591 153.246 178.684C153.318 179.006 153.414 179.131 153.517 179.174C153.57 179.196 153.643 179.2 153.716 179.188L153.771 179.177L153.768 179.178C154.12 179.041 154.517 179.216 154.653 179.569C154.79 179.921 154.615 180.318 154.263 180.454C154.214 180.473 154.146 180.495 154.062 180.514C153.722 180.593 153.356 180.589 152.992 180.438C152.455 180.215 152.076 179.72 151.91 178.986C151.812 178.552 151.894 178.108 152.113 177.665C152.38 177.124 152.847 176.588 153.461 176.051C153.778 175.774 154.115 175.513 154.451 175.276L154.557 175.201C154.71 175.096 154.831 175.017 154.909 174.968Z" fill="#164E63"/>
<path fill-rule="evenodd" clip-rule="evenodd" d="M156.316 176.054C156.617 175.825 157.047 175.884 157.275 176.185C157.504 176.486 157.445 176.916 157.144 177.144L157.043 177.223L156.936 177.31C156.881 177.355 156.822 177.404 156.76 177.457C156.465 177.706 156.171 177.977 155.898 178.256C155.53 178.633 155.233 178.995 155.033 179.321C154.811 179.684 154.739 179.953 154.783 180.092C154.874 180.386 154.976 180.512 155.073 180.555C155.133 180.582 155.22 180.581 155.31 180.554L155.337 180.546L155.334 180.548C155.674 180.381 156.084 180.522 156.25 180.862C156.416 181.201 156.276 181.611 155.936 181.777C155.879 181.805 155.798 181.838 155.697 181.867C155.322 181.978 154.915 181.985 154.513 181.805C154.033 181.59 153.678 181.147 153.476 180.499C153.29 179.904 153.457 179.273 153.865 178.606C154.126 178.181 154.485 177.744 154.919 177.299C155.224 176.987 155.55 176.688 155.875 176.412L156.013 176.296C156.144 176.188 156.247 176.106 156.316 176.054Z" fill="#164E63"/>
<path fill-rule="evenodd" clip-rule="evenodd" d="M157.426 177.84C157.723 177.607 158.153 177.659 158.387 177.956C158.611 178.242 158.572 178.651 158.304 178.89L158.193 178.981C158.126 179.036 158.051 179.099 157.97 179.17C157.738 179.371 157.507 179.589 157.293 179.813C157.027 180.091 156.809 180.356 156.656 180.596L156.6 180.683C156.342 181.097 156.369 181.163 156.688 181.263C157.663 181.575 158.34 181.643 158.768 181.574L158.804 181.567C158.782 181.549 158.753 181.529 158.713 181.506L158.68 181.489C158.494 181.394 158.202 181.317 157.797 181.273C157.421 181.232 157.15 180.894 157.191 180.518C157.232 180.142 157.569 179.871 157.945 179.912C159.064 180.033 159.774 180.396 160.072 181.014C160.266 181.415 160.243 181.82 160.102 182.189C160.061 182.295 160.017 182.38 159.979 182.44C159.936 182.508 159.882 182.567 159.819 182.616C159.725 182.689 159.585 182.764 159.396 182.826C158.696 183.058 157.672 183.015 156.273 182.568C154.899 182.134 154.765 181.01 155.503 179.857C155.71 179.534 155.982 179.203 156.303 178.867C156.549 178.61 156.81 178.365 157.07 178.138L157.202 178.024C157.297 177.943 157.374 177.881 157.426 177.84Z" fill="#164E63"/>
<path fill-rule="evenodd" clip-rule="evenodd" d="M196.241 191.627C200.148 191.618 203.891 193.047 206.256 195.495C206.518 195.767 206.511 196.2 206.239 196.463C205.967 196.725 205.533 196.718 205.271 196.446C203.178 194.279 199.795 192.988 196.244 192.996C192.473 193.004 188.956 194.454 186.517 197.2L186.249 197.501C183.222 200.896 175.664 208.996 164.849 220.488C164.59 220.764 164.157 220.777 163.882 220.518C163.607 220.259 163.593 219.825 163.853 219.55L169.522 213.518C177.597 204.914 183.182 198.902 185.492 196.292C188.203 193.24 192.095 191.636 196.241 191.627Z" fill="#164E63"/>
<path fill-rule="evenodd" clip-rule="evenodd" d="M194.109 224.471L194.076 224.475L154.056 230.157C153.857 230.185 153.681 230.299 153.574 230.468L142.348 248.197C142.059 248.652 142.387 249.248 142.927 249.247L237.502 249.179C237.878 249.179 238.184 248.874 238.186 248.498L238.277 229.925C238.279 229.578 238.021 229.285 237.677 229.242L199.436 224.496L199.415 224.494C197.573 224.325 195.807 224.313 194.109 224.471ZM199.278 225.856L236.905 230.526L236.82 247.81L144.17 247.877L154.561 231.467L194.25 225.833L194.236 225.834C195.762 225.692 197.352 225.694 199.012 225.833L199.278 225.856Z" fill="#164E63"/>
<path fill-rule="evenodd" clip-rule="evenodd" d="M195.45 193.575C194.629 193.415 193.807 193.94 193.648 194.761L188.172 222.803L160.312 226.568L160.404 227.184C160.563 228.37 161.659 229.214 162.845 229.055L189.381 225.472C190.567 225.313 191.412 224.217 191.252 223.031V223.031L196.637 195.4C196.796 194.556 196.271 193.757 195.45 193.575Z" fill="#06D0B6"/>
<path fill-rule="evenodd" clip-rule="evenodd" d="M177.927 205.85C181.395 201.971 184.225 198.731 186.004 196.746C186.506 196.176 187.077 195.651 187.647 195.195C187.305 194.487 186.894 193.734 186.347 193.004C183.745 189.628 173.022 176.827 173.022 176.827L164.078 184.494L165.629 186.616C159.56 185.155 153.513 184.311 150.433 184.471L150.182 185.543V185.543C150.935 189.65 146.189 192.502 142.904 189.901L137.085 185.27L137.565 184.311C132.362 184.083 127.753 185.11 126.293 188.943C123.555 194.008 111.303 239.254 111.303 239.254L127.092 239.664L128.689 233.39C129.1 237.474 129.556 241.17 130.104 244.045C130.857 247.992 138.934 248.905 142.949 248.859L153.354 248.722L168.869 230.15L160.974 204.184C165.697 205.12 172.679 206.17 177.927 205.85Z" fill="#164E63"/>
<path fill-rule="evenodd" clip-rule="evenodd" d="M160.837 162.019C160.837 162.019 155.818 163.548 154.198 160.308C153.513 158.939 151.368 158.186 149.132 158.004C149.383 158.232 149.634 158.506 149.862 158.802C151.916 161.586 153.559 164.871 154.631 167.518C154.631 167.518 154.859 168.066 155.133 168.887C156.046 168.294 157.072 167.358 157.118 166.24C157.118 166.24 154.563 166.902 153.924 164.986C153.969 164.986 159.491 166.309 160.837 162.019Z" fill="#164E63"/>
<path fill-rule="evenodd" clip-rule="evenodd" d="M318.819 237.999C318.819 237.999 330 243.543 328.996 249.27L305.403 249.179L305.814 238.044L318.819 237.999Z" fill="#06D0B6"/>
<path fill-rule="evenodd" clip-rule="evenodd" d="M311.404 103.244C310.354 100.163 306.635 98.6575 303.122 99.8896C301.296 100.528 299.882 101.761 299.083 103.244L301.593 109.267L306.065 110.089C305.745 110.545 305.38 111.001 304.97 111.458C305.609 111.412 306.27 111.275 306.909 111.047C310.446 109.815 312.454 106.324 311.404 103.244Z" fill="#164E63"/>
<path fill-rule="evenodd" clip-rule="evenodd" d="M313.681 116.024C316.404 114.996 317.887 112.242 316.992 109.872C316.097 107.503 313.165 106.415 310.441 107.443C307.718 108.471 306.236 111.226 307.131 113.595C308.025 115.965 310.958 117.052 313.681 116.024Z" fill="#164E63"/>
<path fill-rule="evenodd" clip-rule="evenodd" d="M319.468 120.754C321.908 119.832 323.237 117.365 322.436 115.243C321.635 113.121 319.007 112.148 316.567 113.069C314.127 113.991 312.798 116.458 313.599 118.58C314.4 120.702 317.028 121.675 319.468 120.754Z" fill="#164E63"/>
<path fill-rule="evenodd" clip-rule="evenodd" d="M325.665 122.067C326.258 123.847 325.117 125.855 323.086 126.562C321.056 127.269 318.911 126.402 318.318 124.646C317.724 122.866 318.774 120.767 320.805 120.059C322.835 119.329 325.071 120.288 325.665 122.067Z" fill="#164E63"/>
<path fill-rule="evenodd" clip-rule="evenodd" d="M329.406 126.859C329.452 128.775 330.41 129.551 331.323 129.848C331.756 129.985 331.779 130.601 331.368 130.761C328.95 131.719 324.592 132.882 323.246 129.483C322.607 127.886 323.383 125.946 325.162 125.102C326.965 124.258 329.361 125.125 329.406 126.859Z" fill="#164E63"/>
<path fill-rule="evenodd" clip-rule="evenodd" d="M309.927 106.807C310.277 106.445 310.855 106.436 311.217 106.786C311.567 107.125 311.588 107.676 311.272 108.04L311.238 108.077L307.77 111.659C307.419 112.021 306.842 112.03 306.479 111.68C306.129 111.341 306.109 110.79 306.425 110.426L306.459 110.389L309.927 106.807Z" fill="#06D0B6"/>
<path fill-rule="evenodd" clip-rule="evenodd" d="M316.313 112.31C316.687 111.971 317.264 112 317.602 112.374C317.929 112.735 317.913 113.287 317.574 113.628L317.538 113.663L314.412 116.492C314.039 116.831 313.461 116.802 313.123 116.428C312.796 116.067 312.812 115.515 313.151 115.174L313.187 115.139L316.313 112.31Z" fill="#06D0B6"/>
<path fill-rule="evenodd" clip-rule="evenodd" d="M320.235 119.404C320.647 119.114 321.216 119.214 321.506 119.626C321.786 120.026 321.702 120.572 321.322 120.869L321.283 120.898L320.211 121.651C319.799 121.94 319.229 121.841 318.94 121.428C318.659 121.029 318.744 120.483 319.123 120.186L319.162 120.157L320.235 119.404Z" fill="#06D0B6"/>
<path fill-rule="evenodd" clip-rule="evenodd" d="M324.192 124.473C324.59 124.163 325.163 124.235 325.472 124.633C325.772 125.018 325.715 125.566 325.351 125.882L325.312 125.914L324.286 126.712C323.888 127.022 323.314 126.95 323.005 126.552C322.706 126.168 322.763 125.619 323.126 125.303L323.165 125.271L324.192 124.473Z" fill="#06D0B6"/>
<path fill-rule="evenodd" clip-rule="evenodd" d="M334.175 141.462C333.445 140.161 332.099 136.967 331.186 135.506C325.185 125.741 315.831 113.169 311.245 111.64C311.13 111.595 311.016 111.549 310.879 111.526L305.7 110.545C302.802 114.333 296.916 118.28 291.828 117.116C283.751 115.268 287.082 108.081 287.378 107.579L289.957 108.149L289.66 107.488L287.698 107.1C285.713 106.621 283.134 106.758 279.917 107.83C275.035 109.473 266.25 112.462 260.067 114.584C260.113 114.629 260.158 114.675 260.204 114.721C262.394 117.093 267.14 123.642 263.558 126.403C262.577 127.156 261.641 127.658 260.729 127.863L261.094 128.388C261.094 128.388 263.74 127.064 272.274 124.258C273.962 123.71 275.833 123.163 277.704 122.615C278.024 126.471 280.031 130.966 284.983 135.986C287.492 139.111 297.463 140.435 297.463 140.435C300.407 141.279 306.453 136.579 308.05 133.909C308.575 133.042 309.123 132.061 309.67 130.989C312.408 134.594 315.899 139.043 318.797 142.694C323.816 138.085 328.106 137.583 334.175 141.462Z" fill="#164E63"/>
<path fill-rule="evenodd" clip-rule="evenodd" d="M297.323 138.025C301.107 138.645 303.685 139.646 305.538 141.157C307.036 142.379 307.983 143.785 309.109 146.194L309.3 146.608C309.546 147.151 310.137 148.479 310.271 148.774L310.44 149.144C310.801 149.927 311.13 150.6 311.485 151.273C312.746 153.665 314.695 164.42 317.221 181.857L317.377 182.933C317.831 186.086 318.298 189.418 318.777 192.909L318.993 194.49C320.169 203.131 321.362 212.333 322.519 221.586L322.959 225.122C323.147 226.634 323.327 228.098 323.5 229.507L324.323 236.301L324.519 237.941C324.565 238.331 324.275 238.676 323.889 238.704L323.849 238.706L296.15 239.117C295.789 239.122 295.488 238.846 295.458 238.491L295.455 238.451L294.019 186.25L288.048 214.888C287.974 215.245 287.634 215.479 287.278 215.426L287.238 215.419C286.882 215.344 286.648 215.004 286.701 214.648L286.708 214.609L293.872 180.247C294.035 179.467 295.162 179.553 295.224 180.324L295.227 180.368L296.805 237.738L323.069 237.348L322.712 234.371L322.184 230.025C322.013 228.625 321.833 227.17 321.647 225.667L321.276 222.681C320.16 213.738 319.01 204.827 317.871 196.409L317.492 193.619C317.061 190.466 316.639 187.441 316.227 184.558L316.022 183.128C313.467 165.39 311.445 154.133 310.274 151.911C309.879 151.162 309.516 150.415 309.112 149.532L308.034 147.131C308.02 147.1 308.007 147.072 307.996 147.048L307.869 146.775C306.823 144.537 305.978 143.283 304.672 142.218C303.109 140.943 300.899 140.052 297.622 139.465L297.373 139.422L297.171 139.558C297.077 139.621 296.978 139.686 296.873 139.754L296.658 139.892C295.92 140.362 295.117 140.832 294.278 141.271C293.006 141.936 291.762 142.471 290.582 142.829C290.492 142.856 290.403 142.882 290.314 142.907L290.181 142.944C286.567 143.923 284.167 146.091 281.998 150.717L281.937 150.851C280.868 153.252 276.007 166.307 268.216 187.581C268.086 187.936 267.693 188.119 267.338 187.989C266.983 187.859 266.801 187.465 266.931 187.11L269.672 179.633C276.038 162.299 279.912 151.954 280.758 150.138C283.067 145.211 285.748 142.761 289.703 141.655L289.823 141.622C289.942 141.59 290.063 141.555 290.185 141.518C291.273 141.189 292.442 140.687 293.643 140.058C294.446 139.638 295.215 139.187 295.923 138.737L296.128 138.605C296.261 138.519 296.385 138.437 296.499 138.36L296.719 138.21L296.814 138.144C296.961 138.039 297.144 137.996 297.323 138.025Z" fill="#164E63"/>
<path fill-rule="evenodd" clip-rule="evenodd" d="M301.012 91.524C301.083 91.1527 301.442 90.9094 301.813 90.9806C303.066 91.2209 304.187 91.6526 305.027 92.3702C306.224 93.3935 306.647 94.8593 306.08 96.6927C305.492 98.591 304.351 99.6388 302.853 99.9045C301.956 100.063 301.028 99.931 300.126 99.6186C299.747 99.4874 299.456 99.3542 299.281 99.2589C298.949 99.0782 298.826 98.6625 299.007 98.3305C299.181 98.0107 299.573 97.885 299.898 98.0375L300.004 98.0912C300.029 98.1031 300.059 98.1173 300.094 98.1333C300.236 98.1982 300.397 98.2638 300.574 98.3251C301.274 98.5675 301.982 98.6686 302.614 98.5566C303.596 98.3823 304.333 97.7061 304.772 96.2878C305.178 94.9764 304.919 94.0789 304.137 93.4111C303.514 92.8783 302.596 92.5247 301.555 92.3251C301.184 92.2539 300.941 91.8952 301.012 91.524Z" fill="#164E63"/>
<path fill-rule="evenodd" clip-rule="evenodd" d="M297.748 100.056C298.085 99.9164 298.47 100.065 298.626 100.389L298.643 100.426L302.06 108.661L306.166 109.416C306.643 109.503 306.876 110.043 306.625 110.448L306.602 110.483C305.1 112.618 302.763 114.707 300.228 116.115C297.324 117.728 294.354 118.368 291.697 117.761C287.863 116.881 286.012 114.746 285.82 111.866C285.752 110.853 285.897 109.817 286.191 108.807C286.384 108.144 286.633 107.534 286.8 107.228C286.939 106.974 287.223 106.835 287.506 106.88L287.549 106.888L288.794 107.163L287.781 104.917C287.631 104.585 287.768 104.196 288.087 104.029L288.124 104.012C288.456 103.862 288.845 103.999 289.011 104.318L289.029 104.354L290.603 107.845C290.83 108.347 290.401 108.892 289.868 108.802L289.831 108.795L287.796 108.345L287.77 108.411C287.691 108.611 287.616 108.826 287.546 109.052L287.505 109.189C287.253 110.056 287.13 110.938 287.186 111.774C287.338 114.047 288.753 115.681 292.003 116.426C296.111 117.365 301.534 114.578 304.786 110.61L304.826 110.561L301.446 109.941C301.233 109.901 301.053 109.764 300.957 109.572L300.938 109.53L297.379 100.951C297.234 100.601 297.399 100.201 297.748 100.056Z" fill="#164E63"/>
<path fill-rule="evenodd" clip-rule="evenodd" d="M289.575 78.7341C286.399 79.4877 283.88 82.7397 281.965 89.1212L281.907 89.3155C281.38 91.1129 281.023 94.0828 281.261 96.678C281.617 100.564 283.193 103.429 286.31 104.635C292.6 107.07 299.176 102.739 301.802 95.6321C304.14 89.3008 302.713 82.9696 298.403 81.0821L298.144 80.9724C297.95 80.8885 297.735 80.79 297.474 80.6655L296.177 80.0364L295.904 79.907C293.334 78.7046 291.524 78.2716 289.575 78.7341ZM283.191 89.8028L283.22 89.702C285.017 83.6146 287.26 80.6905 289.891 80.0661C291.486 79.6876 293.075 80.0823 295.456 81.209L295.847 81.3971C296.171 81.5543 296.627 81.7771 296.698 81.8112L296.978 81.9455C297.273 82.0852 297.516 82.1945 297.747 82.291C301.358 83.7765 302.654 89.3746 300.517 95.1577C298.13 101.621 292.275 105.476 286.804 103.358C284.257 102.372 282.937 99.9744 282.624 96.5531C282.407 94.1904 282.726 91.4557 283.191 89.8028Z" fill="#164E63"/>
<path fill-rule="evenodd" clip-rule="evenodd" d="M289.067 97.5624C287.766 97.7905 286.785 97.4255 286.237 97.1517C285.986 97.0376 285.713 97.1745 285.667 97.4483C285.53 98.2241 285.576 99.5931 287.287 100.004C289.09 100.437 289.455 98.8629 289.546 97.9731C289.569 97.7449 289.341 97.5167 289.067 97.5624Z" fill="#164E63"/>
<path fill-rule="evenodd" clip-rule="evenodd" d="M288.714 86.3119C288.866 85.9659 289.27 85.8088 289.616 85.9611C289.95 86.108 290.108 86.4888 289.982 86.8261L289.967 86.8634L286.936 93.7511L288.147 94.0714C288.499 94.1646 288.714 94.5162 288.643 94.8689L288.633 94.9081C288.54 95.2605 288.189 95.4758 287.836 95.4041L287.797 95.3949L285.812 94.8701C285.419 94.7662 285.205 94.3468 285.344 93.9713L285.36 93.9326L288.714 86.3119Z" fill="#164E63"/>
<path fill-rule="evenodd" clip-rule="evenodd" d="M290.909 87.1722C291.973 86.6955 292.94 87.042 293.701 87.8432C293.87 88.02 294.016 88.2072 294.141 88.3948L294.194 88.477C294.243 88.5548 294.28 88.619 294.305 88.6655C294.48 89.0003 294.351 89.414 294.016 89.5896C293.694 89.7586 293.298 89.6452 293.113 89.3376L293.078 89.2754C293.062 89.2479 293.036 89.2061 293.001 89.1541C292.918 89.0283 292.819 88.9021 292.709 88.7865C292.321 88.3779 291.942 88.2325 291.516 88.4015L291.468 88.4216C291.123 88.5761 290.718 88.4217 290.564 88.0766C290.409 87.7316 290.564 87.3267 290.909 87.1722Z" fill="#164E63"/>
<path fill-rule="evenodd" clip-rule="evenodd" d="M285.417 83.2474C286.439 82.6042 287.471 82.849 288.35 83.584C288.642 83.8278 288.856 84.0708 288.983 84.2482C289.204 84.555 289.135 84.9828 288.828 85.2037C288.533 85.4161 288.126 85.3599 287.899 85.0825L287.846 85.0137C287.829 84.9928 287.806 84.9649 287.777 84.9316C287.687 84.8303 287.585 84.7283 287.473 84.6345C287.016 84.2526 286.602 84.1451 286.19 84.3797L286.146 84.4062C285.826 84.6075 285.403 84.5112 285.202 84.1913C285.001 83.8713 285.097 83.4487 285.417 83.2474Z" fill="#164E63"/>
<path fill-rule="evenodd" clip-rule="evenodd" d="M291.314 92.4544C291.433 91.8742 291.23 91.3422 290.86 91.266C290.489 91.1897 290.092 91.5982 289.973 92.1784C289.854 92.7585 290.057 93.2905 290.427 93.3668C290.798 93.443 291.195 93.0345 291.314 92.4544Z" fill="#164E63"/>
<path fill-rule="evenodd" clip-rule="evenodd" d="M284.796 91.2118C284.916 90.6317 284.712 90.0996 284.342 90.0234C283.972 89.9472 283.575 90.3557 283.455 90.9358C283.336 91.5159 283.539 92.048 283.91 92.1242C284.28 92.2004 284.677 91.7919 284.796 91.2118Z" fill="#164E63"/>
<path fill-rule="evenodd" clip-rule="evenodd" d="M288.219 90.5016C287.641 93.9094 289.244 97.0748 291.898 97.5254C294.552 97.976 297.111 95.5174 297.69 92.1096C298.268 88.7018 296.664 85.5364 294.01 85.0858C291.357 84.6352 288.798 87.0938 288.219 90.5016ZM289.232 90.6734C289.725 87.77 291.821 85.7555 293.839 86.098C295.856 86.4406 297.17 89.0343 296.677 91.9377C296.184 94.8411 294.088 96.8557 292.07 96.5131C290.053 96.1706 288.739 93.5768 289.232 90.6734Z" fill="#06D0B6"/>
<path fill-rule="evenodd" clip-rule="evenodd" d="M277.096 88.3563C276.517 91.7641 278.121 94.9296 280.775 95.3802C283.429 95.8308 285.987 93.3721 286.566 89.9643C287.145 86.5566 285.541 83.3911 282.887 82.9405C280.233 82.4899 277.674 84.9486 277.096 88.3563ZM278.108 88.5282C278.601 85.6248 280.698 83.6102 282.715 83.9528C284.733 84.2953 286.047 86.8891 285.554 89.7925C285.061 92.6959 282.964 94.7105 280.947 94.3679C278.929 94.0254 277.615 91.4316 278.108 88.5282Z" fill="#06D0B6"/>
<path fill-rule="evenodd" clip-rule="evenodd" d="M285.802 88.385C285.853 88.1187 286.101 87.94 286.366 87.9716L286.402 87.9773L289.026 88.4792C289.305 88.5325 289.487 88.8014 289.434 89.0799C289.383 89.3463 289.135 89.5249 288.87 89.4933L288.833 89.4877L286.209 88.9857C285.931 88.9324 285.748 88.6635 285.802 88.385Z" fill="#06D0B6"/>
<path fill-rule="evenodd" clip-rule="evenodd" d="M296.862 89.8689C296.949 89.6119 297.219 89.4687 297.478 89.536L297.513 89.5465L303.468 91.5543C303.737 91.6449 303.881 91.9361 303.791 92.2048C303.704 92.4618 303.434 92.605 303.175 92.5377L303.14 92.5272L297.185 90.5194C296.916 90.4288 296.772 90.1376 296.862 89.8689Z" fill="#06D0B6"/>
<path fill-rule="evenodd" clip-rule="evenodd" d="M308.963 88.4586C308.484 85.2871 303.783 80.0393 299.471 80.0849C293.904 74.4264 285.576 68.7451 280.716 78.7159C280.214 79.7655 280.784 81.0432 281.902 81.2942L297.737 85.4012C298.171 87.7969 299.403 91.5845 302.734 93.0904C303.692 93.5239 304.354 93.4783 304.765 93.0904C305.517 93.8433 305.928 94.9157 305.426 96.4673C304.103 100.734 300.041 98.863 299.54 98.5892C298.718 99.8669 298.581 100.278 297.463 101.236C300.909 103.13 303.783 104.772 306.042 101.761C309.008 97.9047 309.602 92.885 308.963 88.4586Z" fill="#164E63"/>
<path fill-rule="evenodd" clip-rule="evenodd" d="M240.184 95.8285L236.17 95.8741C236.129 95.8746 236.088 95.8787 236.047 95.8866L232.839 96.5035C232.091 96.6459 231.532 96.7509 231.22 96.8071L231.023 96.8417C230.59 96.9138 229.553 97.3687 228.547 97.9017L228.336 98.0152C227.922 98.2409 227.561 98.4571 227.289 98.6453C227.098 98.7778 226.948 98.8987 226.834 99.0162L226.804 99.0486C226.573 99.298 226.452 99.5594 226.587 99.9123L226.593 99.9248C226.909 100.768 227.862 100.953 229.205 100.801C230.159 100.693 231.293 100.391 232.112 100.04C232.465 99.8942 233.07 99.8251 233.832 99.8391C234.364 99.8488 234.939 99.8972 235.519 99.972L235.655 99.99C235.745 100.002 235.831 100.015 235.915 100.027L235.989 100.039L236.027 100.169C236.055 100.267 236.082 100.366 236.108 100.466C236.151 100.63 236.189 100.788 236.222 100.937L236.238 101.014C236.27 101.165 236.294 101.303 236.311 101.423L236.314 101.45L236.344 101.451C235.679 101.43 235.152 101.429 234.609 101.462L234.421 101.475C233.09 101.577 232.211 101.866 231.846 102.595C231.084 104.12 231.734 105.419 233.514 105.225C233.719 105.203 233.968 105.213 234.249 105.256C234.591 105.307 234.965 105.403 235.35 105.529C235.566 105.601 235.772 105.677 235.96 105.754L236.101 105.812C236.139 105.829 236.168 105.842 236.187 105.85C236.297 105.901 236.418 105.922 236.538 105.91L236.611 105.9L237.286 105.78C237.364 105.766 237.444 105.751 237.525 105.736C238.226 105.605 238.927 105.466 239.583 105.324L239.874 105.26C240.396 105.142 240.861 105.028 241.257 104.918L241.356 104.891C241.68 104.799 241.952 104.71 242.173 104.623L242.201 104.611L242.229 104.64C242.315 104.73 242.419 104.857 242.538 105.018L242.583 105.08C242.959 105.6 243.44 106.397 244.057 107.515L244.273 107.909C245.167 109.566 247.871 114.75 248.506 115.933L248.864 116.596C249.649 118.043 250.365 119.312 251.051 120.463L251.154 120.635C251.38 121.012 251.602 121.375 251.82 121.724C256.279 128.844 259.67 130.227 263.953 126.922C265.88 125.436 265.938 123.018 264.648 120.115C263.767 118.133 262.255 115.964 260.801 114.362L260.287 113.806C259.398 112.855 257.657 111.029 254.949 108.205L245.046 97.8877C243.78 96.5462 242.023 95.803 240.184 95.8285ZM240.203 97.1973C241.626 97.1776 242.985 97.7382 243.984 98.7588L256.493 111.797C258.157 113.538 259.199 114.639 259.676 115.16C261.073 116.673 262.56 118.787 263.397 120.671C264.461 123.065 264.419 124.834 263.117 125.838C259.601 128.551 257.063 127.516 252.981 120.997C252.81 120.724 252.637 120.442 252.461 120.151L252.328 119.931C251.554 118.64 250.741 117.195 249.831 115.507L249.535 114.952C248.647 113.278 246.106 108.409 245.377 107.073L245.186 106.727C244.599 105.67 244.129 104.892 243.738 104.341L243.693 104.278C243.439 103.926 243.214 103.665 243 103.487C242.658 103.204 242.285 103.074 241.892 103.25L241.845 103.273C241.674 103.36 241.343 103.474 240.891 103.599C240.451 103.721 239.911 103.851 239.292 103.986C238.651 104.125 237.964 104.262 237.275 104.39L236.818 104.473L236.558 104.519L236.476 104.485C236.261 104.398 236.026 104.31 235.778 104.229C235.326 104.08 234.88 103.966 234.454 103.902C234.063 103.843 233.7 103.827 233.366 103.864C233.019 103.902 232.911 103.862 232.903 103.845C232.895 103.83 232.89 103.782 232.902 103.696C232.92 103.564 232.976 103.397 233.071 103.208C233.139 103.071 233.758 102.886 234.693 102.829C235.109 102.803 235.524 102.8 236.021 102.811L236.763 102.833C236.783 102.833 236.8 102.833 236.817 102.833C237.182 102.833 237.466 102.617 237.601 102.306C237.678 102.132 237.705 101.943 237.705 101.724C237.705 101.431 237.653 101.071 237.56 100.645C237.523 100.476 237.48 100.3 237.432 100.119C237.39 99.9557 237.345 99.7945 237.299 99.6391L237.238 99.434L237.171 99.2202C237.093 98.9834 236.893 98.8075 236.648 98.761L236.466 98.7288L236.378 98.7141C236.171 98.68 235.941 98.6459 235.694 98.6142C235.068 98.5335 234.445 98.481 233.857 98.4702C232.924 98.4532 232.156 98.5408 231.582 98.7779C230.876 99.08 229.872 99.3474 229.05 99.4406L228.966 99.4497C228.827 99.4636 228.697 99.4721 228.576 99.4753L228.534 99.4759L228.595 99.4406C228.774 99.3358 228.974 99.2247 229.188 99.1113L229.33 99.037C230.136 98.6185 230.978 98.2504 231.227 98.196L231.498 98.1479C231.714 98.1089 232.025 98.0509 232.42 97.9764L233.786 97.7163L236.246 97.2423L240.203 97.1973Z" fill="#164E63"/>
<path fill-rule="evenodd" clip-rule="evenodd" d="M316.439 143.653C322.337 138.684 327.623 137.276 331.368 138.924C334.552 140.325 335.776 143.874 333.705 145.796C332.682 146.746 331.28 147.745 329.528 148.793C326.927 150.349 323.6 151.989 319.713 153.677C316.285 155.166 312.614 156.61 308.943 157.954L308.184 158.23C307.269 158.561 306.408 158.867 305.611 159.144L304.702 159.458L304.045 159.68C303.888 159.732 303.719 159.726 303.568 159.663L303.523 159.643L303.432 159.597C303.094 159.428 302.957 159.017 303.126 158.679C303.257 158.416 303.535 158.274 303.811 158.304L303.833 158.307L304.705 158.009L305.378 157.775C306.328 157.444 307.366 157.073 308.472 156.668C312.12 155.333 315.767 153.898 319.168 152.421L319.676 152.199C323.211 150.649 326.251 149.144 328.655 147.72L328.825 147.618C330.501 146.615 331.831 145.668 332.774 144.793C334.024 143.633 333.192 141.223 330.816 140.177C327.616 138.769 322.856 140.037 317.325 144.697C315.973 145.853 314.559 146.899 313.055 147.877C312.738 148.083 312.314 147.993 312.108 147.676C311.902 147.359 311.992 146.935 312.309 146.729C313.764 145.783 315.131 144.772 316.439 143.653Z" fill="#164E63"/>
<path fill-rule="evenodd" clip-rule="evenodd" d="M321.375 151.341L315.99 151.478L311.381 129.802C311.29 129.323 310.879 128.981 310.446 128.981L276.358 129.506C275.742 129.506 275.285 130.167 275.422 130.829L279.758 153.942C280.054 155.38 281.857 156.475 283.157 156.452C285.439 156.407 288.953 156.361 292.877 156.27C292.444 155.745 292.078 155.152 291.736 154.536C290.025 151.341 288.017 147.052 289.363 146.39C289.979 146.253 290.641 147.189 291.211 148.307C290.687 146.801 290.367 145.249 291.097 145.112C291.805 144.975 292.489 145.865 293.219 147.485C292.877 146.481 292.603 145.569 292.603 145.272C292.672 143.469 293.904 142.99 295.387 146.892L294.885 145.204C294.565 143.401 296.231 143.652 297.144 145.295C297.714 146.344 298.878 148.854 299.836 151.113C300.315 150.246 301.433 148.649 302.46 149.311C303.51 149.995 301.935 152.984 301.159 154.33C301.251 154.558 301.319 154.764 301.365 154.946L303.03 156.087C310.514 155.95 317.108 155.813 317.61 155.813C322.151 155.79 321.375 151.341 321.375 151.341Z" fill="#06D0B6"/>
<path fill-rule="evenodd" clip-rule="evenodd" d="M292.488 143.576C293.02 143.074 293.734 143.171 294.328 143.719L294.369 143.758L294.43 143.818L294.435 143.811C294.673 143.477 295.049 143.29 295.535 143.317L295.589 143.321C296.371 143.389 297.187 144.05 297.72 145.008L297.781 145.119C298.348 146.167 299.373 148.393 300.374 150.729C300.523 151.077 300.362 151.479 300.015 151.628C299.667 151.777 299.265 151.616 299.116 151.269L298.901 150.769C297.95 148.574 297.009 146.548 296.523 145.673C296.215 145.119 295.801 144.762 295.53 144.695L295.517 144.692L295.515 144.71L295.511 144.738C295.502 144.825 295.506 144.937 295.527 145.071L295.53 145.095L295.994 146.66L296.004 146.687C296.406 147.754 296.8 149.072 297.179 150.637L297.217 150.794C297.42 151.645 296.187 151.988 295.907 151.188L295.894 151.148L294.69 147.08L294.668 147.022C294.23 145.882 293.806 145.12 293.43 144.754L293.387 144.714L293.362 144.692L293.355 144.711C293.315 144.832 293.279 145.019 293.267 145.254L293.265 145.314C293.263 145.38 293.335 145.694 293.466 146.134L293.484 146.194C293.558 146.441 293.649 146.723 293.754 147.035L293.801 147.176L293.806 147.186C294.2 148.067 294.611 149.183 295.068 150.582L295.172 150.904C295.442 151.746 294.205 152.186 293.883 151.362L293.617 150.672L293.577 150.568C293.394 150.087 293.211 149.597 293.036 149.117L292.86 148.631L292.68 148.122C292.65 148.038 292.622 147.956 292.594 147.876L292.525 147.675L292.486 147.591C292.392 147.386 292.299 147.197 292.208 147.025L292.169 146.952C291.912 146.475 291.673 146.14 291.465 145.951C291.43 145.919 291.397 145.893 291.368 145.872L291.345 145.857L291.344 145.873C291.342 145.936 291.343 146.011 291.349 146.098L291.353 146.151C291.393 146.6 291.546 147.224 291.791 147.969L291.837 148.106L291.888 148.208C291.942 148.318 291.996 148.432 292.051 148.548L292.105 148.666C292.367 149.237 292.612 149.845 292.834 150.453L292.909 150.66C292.934 150.727 292.957 150.793 292.979 150.856L293.086 151.169L293.118 151.269C293.375 152.07 292.251 152.528 291.866 151.807L291.848 151.771C291.833 151.739 291.805 151.679 291.767 151.596L291.688 151.422C291.646 151.331 291.603 151.233 291.558 151.13C291.342 150.64 291.126 150.123 290.924 149.601C290.809 149.303 290.701 149.011 290.603 148.728L290.575 148.647L290.552 148.602C290.218 147.956 289.899 147.479 289.63 147.237L289.597 147.208L289.596 147.215C289.587 147.28 289.583 147.359 289.585 147.45L289.587 147.506C289.607 147.947 289.757 148.567 290.026 149.331C290.495 150.663 291.287 152.335 292.317 154.257C294.798 158.876 299.281 160.338 305.846 157.578C306.194 157.431 306.595 157.595 306.742 157.944C306.888 158.292 306.725 158.693 306.376 158.84C299.174 161.868 293.933 160.159 291.11 154.904C290.05 152.924 289.232 151.198 288.735 149.786L288.67 149.597C288.004 147.637 287.977 146.343 289.039 145.821C289.09 145.796 289.144 145.777 289.2 145.766C289.463 145.711 289.718 145.741 289.962 145.84L289.975 145.845C289.995 145.148 290.255 144.639 290.887 144.477L290.941 144.464C291.295 144.393 291.623 144.444 291.932 144.605L291.967 144.624L291.98 144.564C292.065 144.176 292.218 143.852 292.444 143.619L292.488 143.576Z" fill="#164E63"/>
<path fill-rule="evenodd" clip-rule="evenodd" d="M301.031 148.733C301.617 148.408 302.257 148.401 302.838 148.785C303.788 149.413 303.644 150.654 302.917 152.401C302.764 152.768 302.586 153.151 302.387 153.545C302.155 154.003 301.908 154.452 301.661 154.875L301.56 155.046C301.527 155.1 301.496 155.153 301.465 155.203L301.349 155.391C301.34 155.406 301.333 155.418 301.327 155.427C301.124 155.746 300.701 155.841 300.382 155.638C300.075 155.443 299.976 155.043 300.15 154.729L300.254 154.56C300.321 154.45 300.397 154.323 300.479 154.183C300.713 153.783 300.947 153.358 301.165 152.927C301.35 152.562 301.514 152.208 301.653 151.875C301.904 151.272 302.061 150.757 302.105 150.372C302.126 150.194 302.121 150.058 302.097 149.971L302.089 149.943C302.085 149.929 302.083 149.927 302.083 149.927C301.839 149.766 301.489 149.96 301.031 150.593C300.89 150.788 300.759 151.001 300.644 151.214L300.587 151.321C300.578 151.338 300.57 151.354 300.562 151.371L300.506 151.485C300.351 151.83 299.946 151.984 299.601 151.828C299.256 151.673 299.103 151.268 299.258 150.923L299.301 150.83C299.336 150.758 299.383 150.667 299.44 150.562C299.582 150.3 299.743 150.038 299.922 149.79C300.259 149.325 300.622 148.96 301.031 148.733Z" fill="#164E63"/>
<path fill-rule="evenodd" clip-rule="evenodd" d="M249.669 170.062C249.814 169.713 250.215 169.547 250.564 169.692C253.975 171.11 255.87 173.573 256.603 176.779L256.632 176.909L256.701 176.944C257.891 177.559 259.133 178.445 260.535 179.641L261.067 180.101C261.671 180.629 262.156 181.075 263.103 181.984L265.585 184.381C266.485 185.247 267.146 185.867 267.816 186.47L267.893 186.539L267.921 186.565L268.071 186.715L268.279 186.906C275.523 193.629 278.222 203.983 275.231 213.463L275.137 213.753L272.993 220.278C272.934 220.458 272.804 220.604 272.634 220.684L272.486 220.744L270.322 221.582C269.236 222.001 268.05 222.456 266.783 222.94C262.681 224.505 258.508 226.071 254.48 227.546L253.619 227.861C253.01 228.083 252.409 228.301 251.815 228.516L250.704 228.917C239.882 232.81 232.737 235.055 230.542 235.055C227.406 235.055 218.383 228.808 211.923 221.889C208.124 217.821 205.293 213.69 203.801 209.78C202.054 205.203 202.177 201.029 204.458 197.493C207.491 192.802 210.873 188.829 214.463 185.519C216.965 183.212 219.403 181.374 221.665 179.962L221.785 179.887L221.78 179.867C220.812 175.638 224.048 172.191 231.994 169.854L232.247 169.781C232.61 169.676 232.989 169.886 233.094 170.25C233.198 170.613 232.989 170.992 232.625 171.096C224.799 173.347 222.118 176.379 223.234 180.003C223.326 180.304 223.202 180.629 222.932 180.791C220.591 182.198 218.031 184.092 215.391 186.526C211.884 189.759 208.577 193.644 205.608 198.235C201.773 204.181 204.891 212.353 212.923 220.955C216.112 224.37 219.894 227.612 223.478 230.093L223.707 230.251C226.831 232.389 229.461 233.686 230.542 233.686C232.515 233.686 239.842 231.376 250.58 227.507L250.907 227.389C251.642 227.123 252.391 226.852 253.15 226.575C257.149 225.116 261.31 223.559 265.416 221.996L267.876 221.056C268.642 220.762 269.372 220.481 270.059 220.216L271.793 219.544L273.837 213.326C276.81 204.274 274.272 194.336 267.348 187.91L267.137 187.716L267.112 187.693L266.966 187.546L266.665 187.274C266.007 186.678 265.336 186.043 264.424 185.163L262.005 182.828C260.997 181.863 260.542 181.454 259.792 180.807C258.262 179.489 256.954 178.569 255.736 177.994C255.538 177.9 255.397 177.718 255.356 177.502C254.786 174.496 253.16 172.254 250.039 170.957C249.69 170.812 249.524 170.411 249.669 170.062Z" fill="#164E63"/>
<path fill-rule="evenodd" clip-rule="evenodd" d="M255.229 177.055C255.64 179.109 255.48 181.048 255.412 182.235C255.207 187.186 253.336 189.856 252.788 191.704C256.393 189.559 259.724 184.608 261.367 181.368C260.34 180.364 257.032 177.922 255.229 177.055Z" fill="#164E63"/>
<path fill-rule="evenodd" clip-rule="evenodd" d="M235.493 192.069C233.714 191.247 224.633 185.383 223.104 179.679C221.279 180.66 218.404 182.394 216.624 184.516C218.678 185.771 230.268 192.662 235.402 192.274C235.471 192.274 235.539 192.251 235.607 192.251C235.562 192.183 235.539 192.114 235.493 192.069Z" fill="#164E63"/>
<path fill-rule="evenodd" clip-rule="evenodd" d="M249.457 192.114C251.419 186.433 249.936 180.09 248.567 178.242C247.107 183.946 243.799 187.437 243.799 187.437C238.254 181.117 232.459 177.535 232.459 177.535L232.618 177.352C232.368 177.352 232.231 177.375 232.231 177.375L230.154 179.52C230.154 179.52 240.034 187.026 243.251 205.143C245.35 216.916 246.423 227.959 246.423 227.959L252.537 227.64C252.537 227.594 247.335 198.321 249.457 192.114Z" fill="#06D0B6"/>
<path fill-rule="evenodd" clip-rule="evenodd" d="M229.468 164.176C229.814 164.024 230.218 164.182 230.37 164.528C230.522 164.874 230.365 165.278 230.019 165.43C228.681 166.017 228.075 166.901 228.744 168.324C229.326 169.571 230.378 169.608 231.814 168.832C232.147 168.653 232.562 168.777 232.742 169.109C232.921 169.442 232.797 169.857 232.464 170.037C231.649 170.477 230.83 170.736 230.039 170.709C228.945 170.671 228.05 170.075 227.504 168.904C226.917 167.654 226.991 166.532 227.616 165.62C228.059 164.973 228.718 164.506 229.468 164.176Z" fill="#164E63"/>
<path fill-rule="evenodd" clip-rule="evenodd" d="M247.085 154.24C247.437 154.102 247.834 154.275 247.972 154.627C249.736 159.116 250.75 164.968 250.849 169.122C250.858 169.5 250.559 169.813 250.181 169.822C249.803 169.831 249.489 169.532 249.48 169.154C249.385 165.151 248.398 159.454 246.698 155.128C246.56 154.776 246.733 154.379 247.085 154.24Z" fill="#164E63"/>
<path fill-rule="evenodd" clip-rule="evenodd" d="M234.493 173.154L234.533 173.155C234.897 173.178 235.176 173.481 235.174 173.841L235.173 173.881L235.081 175.319C235.073 175.452 235.026 175.579 234.946 175.686L234.915 175.724L233.467 177.391L233.739 177.575C234.477 178.083 235.299 178.682 236.184 179.369C238.622 181.265 241.059 183.46 243.346 185.936L243.59 186.203L243.765 186.396L243.772 186.388C243.846 186.296 243.922 186.198 244.001 186.095L244.081 185.991C244.699 185.174 245.318 184.224 245.897 183.149C247.137 180.847 248.013 178.308 248.368 175.575C248.416 175.2 248.76 174.936 249.135 174.985C249.509 175.033 249.774 175.377 249.725 175.751C249.348 178.66 248.417 181.356 247.102 183.798C246.489 184.937 245.832 185.947 245.173 186.817C244.97 187.085 244.779 187.323 244.604 187.531L244.455 187.705C244.373 187.799 244.311 187.867 244.272 187.908C243.995 188.2 243.527 188.191 243.261 187.888C243.036 187.632 242.809 187.378 242.579 187.125C240.277 184.602 237.81 182.368 235.344 180.45C234.539 179.824 233.788 179.274 233.108 178.804L232.964 178.704C232.808 178.597 232.662 178.499 232.529 178.41L232.202 178.196C232.143 178.159 232.101 178.132 232.076 178.117C231.73 177.902 231.648 177.438 231.892 177.119L231.919 177.085L233.73 175.001L233.806 173.795C233.829 173.444 234.111 173.172 234.453 173.154L234.493 173.154Z" fill="#164E63"/>
<path fill-rule="evenodd" clip-rule="evenodd" d="M232.11 164.175L230.079 164.836C229.697 164.961 229.507 165.384 229.659 165.749L229.749 165.937L230.286 167.035L230.863 168.205C231.032 168.548 231.201 168.889 231.368 169.225L232.148 170.784C232.96 172.395 233.578 173.58 233.941 174.207L233.967 174.252C235.191 176.347 236.037 177.066 238.843 178.192C240.47 178.846 242.699 178.995 244.712 178.563C247.034 178.065 248.878 176.859 249.796 175.01C250.285 174.019 250.589 172.845 250.739 171.523C250.922 169.903 250.866 168.184 250.661 166.528C250.62 166.196 250.576 165.894 250.532 165.628L250.486 165.366C250.48 165.334 250.475 165.307 250.471 165.285C250.41 164.978 250.148 164.752 249.835 164.735C249.345 164.709 248.653 164.771 247.793 164.899C247.497 164.943 247.188 164.994 246.869 165.051C246.559 165.106 246.252 165.164 245.958 165.223L245.594 165.298L245.27 165.367L245.242 165.373C243.851 165.744 242.51 166.184 241.224 166.679C239.775 167.237 238.47 167.835 237.331 168.434L237.199 168.503L236.947 168.639C236.865 168.684 236.786 168.728 236.709 168.77L236.516 168.879L236.47 168.805C235.43 167.151 233.446 164.721 232.685 164.245C232.513 164.138 232.302 164.112 232.11 164.175ZM232.188 165.589L232.211 165.61C233.071 166.407 235.034 168.921 235.661 170.136C235.846 170.495 236.3 170.617 236.639 170.398L236.718 170.349L236.86 170.263C236.895 170.242 236.932 170.22 236.971 170.197L237.167 170.084C237.404 169.948 237.671 169.801 237.968 169.646C239.062 169.07 240.318 168.494 241.716 167.956L242.027 167.838C243.069 167.447 244.148 167.094 245.26 166.787L245.582 166.7L245.808 166.651C245.872 166.638 245.941 166.623 246.014 166.608C246.363 166.537 246.734 166.465 247.109 166.398C247.354 166.355 247.593 166.315 247.823 166.279L248.094 166.238C248.482 166.182 248.828 166.142 249.121 166.12L249.222 166.112L249.234 166.19C249.257 166.348 249.28 166.517 249.302 166.696C249.495 168.253 249.548 169.871 249.379 171.37C249.245 172.545 248.98 173.571 248.569 174.402C247.858 175.834 246.371 176.807 244.425 177.225C242.67 177.601 240.718 177.47 239.353 176.922L239.132 176.832C236.861 175.905 236.225 175.37 235.243 173.722L235.149 173.561C234.856 173.06 234.354 172.107 233.697 170.813L233.085 169.6L232.759 168.948C232.539 168.507 232.315 168.055 232.09 167.599L231.325 166.044L231.251 165.894L232.188 165.589Z" fill="#164E63"/>
<path fill-rule="evenodd" clip-rule="evenodd" d="M231.044 166.423C231.044 166.423 228.717 164.232 227.394 161.677C226.161 159.281 226.686 156.315 228.763 154.581C230.497 153.144 232.139 153.531 232.139 153.531C232.139 153.531 229.173 150.474 231.523 146.55C232.368 145.158 233.737 144.177 235.311 143.834C239.167 142.99 241.175 145.956 241.175 145.956C241.175 145.956 243.411 137.4 252.948 139.773C253.906 140.024 255.184 141.028 255.846 141.758C259.884 146.207 252.218 154.535 247.563 156.201C242.452 158.026 239.167 157.912 237.159 157.045C238.619 157.502 239.144 165.716 231.044 166.423Z" fill="#164E63"/>
<path fill-rule="evenodd" clip-rule="evenodd" d="M245.067 163.111C245.409 162.985 245.787 163.149 245.931 163.479L245.946 163.516L247.726 168.33C247.888 168.768 247.574 169.231 247.115 169.251L247.075 169.252L245.227 169.229C244.849 169.225 244.547 168.914 244.551 168.536C244.556 168.172 244.844 167.877 245.204 167.861L245.244 167.86L246.097 167.871L244.662 163.991C244.536 163.649 244.7 163.27 245.03 163.126L245.067 163.111Z" fill="#164E63"/>
<path fill-rule="evenodd" clip-rule="evenodd" d="M247.714 164.042C247.996 163.972 248.138 163.569 248.032 163.141C247.926 162.713 247.613 162.422 247.331 162.491C247.05 162.561 246.908 162.964 247.013 163.392C247.119 163.821 247.433 164.111 247.714 164.042Z" fill="#164E63"/>
<path fill-rule="evenodd" clip-rule="evenodd" d="M243.148 165.134C243.437 165.119 243.653 164.749 243.629 164.308C243.605 163.868 243.351 163.524 243.062 163.539C242.772 163.555 242.557 163.925 242.581 164.365C242.605 164.806 242.859 165.15 243.148 165.134Z" fill="#164E63"/>
<path fill-rule="evenodd" clip-rule="evenodd" d="M241.646 160.446C242.023 160.428 242.343 160.721 242.36 161.098C242.377 161.462 242.106 161.773 241.748 161.81L241.708 161.813C241.237 161.835 240.872 162.003 240.583 162.276C240.474 162.379 240.384 162.49 240.313 162.599L240.284 162.645C240.267 162.672 240.257 162.692 240.251 162.702L240.249 162.708C240.095 163.053 239.691 163.209 239.345 163.055C239 162.902 238.844 162.497 238.998 162.152C239.03 162.08 239.084 161.977 239.165 161.853C239.292 161.657 239.451 161.462 239.644 161.28C240.161 160.792 240.831 160.483 241.646 160.446Z" fill="#164E63"/>
<path fill-rule="evenodd" clip-rule="evenodd" d="M247.433 157.598C247.975 157.608 248.469 157.791 248.863 158.175C249.133 158.439 249.139 158.873 248.875 159.143C248.621 159.403 248.212 159.418 247.94 159.185L247.907 159.155C247.778 159.029 247.619 158.971 247.409 158.967C247.159 158.962 246.86 159.038 246.555 159.17C246.473 159.206 246.396 159.243 246.324 159.281L246.254 159.318C246.22 159.337 246.194 159.353 246.177 159.363L246.158 159.375C245.841 159.582 245.417 159.493 245.211 159.176C245.004 158.86 245.093 158.436 245.41 158.229C245.539 158.144 245.746 158.029 246.011 157.914C246.48 157.711 246.958 157.59 247.433 157.598Z" fill="#164E63"/>
<path fill-rule="evenodd" clip-rule="evenodd" d="M245.236 171.922C243.616 171.762 243.068 170.963 243.068 170.963L245.875 170.781C245.852 170.781 246.308 171.899 245.236 171.922Z" fill="#164E63"/>
<path fill-rule="evenodd" clip-rule="evenodd" d="M236.34 190.094C236.675 189.95 237.061 190.093 237.223 190.415L237.251 190.477L237.383 190.792L237.47 191.003C237.559 191.221 237.655 191.46 237.756 191.717C238.142 192.697 238.527 193.746 238.886 194.826C239.27 195.978 239.603 197.097 239.868 198.159C240.178 199.4 240.39 200.534 240.487 201.54C240.523 201.917 240.248 202.251 239.871 202.287C239.495 202.324 239.161 202.048 239.124 201.672C239.035 200.74 238.835 199.67 238.54 198.491C238.284 197.465 237.961 196.379 237.588 195.259C237.271 194.309 236.934 193.382 236.595 192.508L236.482 192.218C236.351 191.883 236.228 191.581 236.119 191.317L235.983 190.994C235.833 190.647 235.993 190.244 236.34 190.094Z" fill="#164E63"/>
<path fill-rule="evenodd" clip-rule="evenodd" d="M251.338 190.314C251.701 190.283 252.022 190.541 252.074 190.898L252.295 193.381L252.379 194.297C252.505 195.669 252.635 197.029 252.763 198.326L252.884 199.531C252.935 200.037 252.986 200.522 253.035 200.986C253.075 201.362 252.803 201.699 252.427 201.739C252.051 201.779 251.714 201.507 251.674 201.131L251.599 200.416C251.548 199.929 251.496 199.42 251.443 198.893L251.315 197.586C251.2 196.407 251.086 195.187 250.974 193.964L250.789 191.91L250.714 191.055C250.682 190.678 250.961 190.347 251.338 190.314Z" fill="#164E63"/>
<path fill-rule="evenodd" clip-rule="evenodd" d="M229.221 199.771C229.503 199.52 229.936 199.546 230.187 199.828C230.428 200.1 230.414 200.511 230.161 200.765L230.129 200.795L225.863 204.582C225.636 204.783 225.305 204.811 225.048 204.652C222.639 203.161 220.643 203.21 219.027 204.158C218.782 204.302 218.569 204.455 218.392 204.607L218.33 204.66C218.283 204.702 218.248 204.735 218.225 204.759L218.203 204.781C217.949 205.061 217.516 205.082 217.236 204.828C216.956 204.574 216.935 204.141 217.189 203.861C217.251 203.793 217.356 203.69 217.503 203.565C217.74 203.363 218.017 203.163 218.334 202.977C220.246 201.855 222.599 201.731 225.243 203.181L225.326 203.228L229.221 199.771Z" fill="#164E63"/>
<path fill-rule="evenodd" clip-rule="evenodd" d="M224.403 203.503C224.584 203.187 224.978 203.069 225.3 203.228L225.461 203.319L228.626 205.123L234.721 208.582C235.645 209.104 236.237 209.434 236.412 209.525L236.45 209.545C236.791 209.708 236.936 210.117 236.772 210.458C236.609 210.799 236.201 210.943 235.86 210.78L235.707 210.7C235.342 210.504 234.425 209.989 233.03 209.199L229.846 207.392L224.658 204.437C224.33 204.249 224.216 203.831 224.403 203.503Z" fill="#164E63"/>
<path fill-rule="evenodd" clip-rule="evenodd" d="M260.133 198.287C260.466 198.14 260.854 198.281 261.018 198.601L261.035 198.638L263.157 203.452C263.31 203.798 263.153 204.202 262.807 204.354C262.473 204.501 262.086 204.361 261.922 204.04L261.904 204.004L259.782 199.19C259.63 198.844 259.787 198.44 260.133 198.287Z" fill="#164E63"/>
<path fill-rule="evenodd" clip-rule="evenodd" d="M235.63 228.94C235.63 228.94 225.043 224.537 211.924 215.456C198.827 206.375 190.476 220.43 194.013 226.18C197.116 231.245 214.57 248.677 214.57 248.677L273.939 248.198C273.939 248.198 287.88 230.652 290.07 227.891C297.486 218.582 291.348 213.676 283.225 212.969C275.559 212.307 254.887 227.366 252.355 229.305L235.63 228.94Z" fill="#164E63"/>
<path fill-rule="evenodd" clip-rule="evenodd" d="M271.954 203.226H233.805C233.303 203.226 232.869 203.568 232.755 204.047L227.576 225.929H217.993C217.993 225.929 217.126 230.423 222.191 230.423C223.492 230.423 225.408 230.423 227.576 230.423C227.667 230.446 227.781 230.469 227.873 230.469H266.022C266.524 230.469 266.957 230.127 267.071 229.648L273.004 204.572C273.163 203.865 272.639 203.226 271.954 203.226Z" fill="#06D0B6"/>
<path fill-rule="evenodd" clip-rule="evenodd" d="M363.996 247.901C364.374 247.901 364.681 248.207 364.681 248.585C364.681 248.95 364.396 249.248 364.037 249.269L363.996 249.27H5.6845C5.30646 249.27 5 248.963 5 248.585C5 248.221 5.28496 247.923 5.64428 247.902L5.6845 247.901H363.996Z" fill="#164E63"/>
</svg>
