<svg width="370" height="320" viewBox="0 0 370 320" fill="none" xmlns="http://www.w3.org/2000/svg">
<rect width="370" height="320" fill="white"/>
<path fill-rule="evenodd" clip-rule="evenodd" d="M99.7363 149.822C100.108 149.822 100.409 150.123 100.409 150.495C100.409 150.854 100.129 151.147 99.7758 151.167L99.7363 151.168H74.8976C58.2057 151.168 44.6336 164.574 44.3638 181.201L44.3597 181.706V248.459C44.3597 248.831 44.0583 249.132 43.6866 249.132C43.3281 249.132 43.035 248.852 43.0146 248.498L43.0134 248.459V181.706C43.0134 164.278 57.0094 150.108 74.3705 149.826L74.8976 149.822H99.7363Z" fill="#164E63"/>
<path fill-rule="evenodd" clip-rule="evenodd" d="M169.583 137.36C169.786 137.049 170.203 136.961 170.514 137.164C174.934 140.048 177.699 143.841 179.177 148.444L179.229 148.605C180.294 152.004 180.555 154.808 180.59 159.878L180.597 161.185L180.599 161.405L180.708 161.558C183.529 165.544 186.426 170.492 189.867 177.001L190.32 177.864C192.117 181.305 196.412 189.717 196.815 190.493L197.002 190.853C199.2 195.072 200.762 197.831 202.072 199.723L202.165 199.857L202.296 199.904C203.517 200.344 204.719 200.831 205.961 201.381L206.301 201.533C206.64 201.686 206.791 202.084 206.638 202.423C206.486 202.762 206.087 202.913 205.748 202.761C204.304 202.111 202.925 201.552 201.515 201.054C201.384 201.008 201.271 200.923 201.191 200.81L201.081 200.655C199.759 198.775 198.222 196.086 196.076 191.988L195.524 190.926C194.713 189.351 190.28 180.672 188.817 177.898L188.397 177.104C185.012 170.727 182.158 165.892 179.382 162.016C179.302 161.905 179.258 161.771 179.256 161.634L179.25 161.054L179.243 159.889C179.21 154.946 178.958 152.243 177.944 149.008C176.569 144.62 173.979 141.032 169.779 138.292C169.467 138.089 169.379 137.671 169.583 137.36Z" fill="#164E63"/>
<path fill-rule="evenodd" clip-rule="evenodd" d="M130.613 131.971C130.98 131.91 131.326 132.158 131.387 132.524C131.448 132.891 131.2 133.238 130.833 133.299C116.89 135.614 107.884 139.529 103.482 144.681C99.7207 149.083 99.4209 154.32 102.16 159.985C102.317 160.31 102.19 160.7 101.873 160.871C96.1874 163.931 90.2839 168.003 84.4016 173.237C76.9476 179.869 70.0125 187.947 63.8424 197.618C54.422 212.385 52.6715 225.205 57.1255 234.998C60.6565 242.762 68.1202 247.853 74.5387 247.853L76.4254 247.849C82.137 247.829 96.576 247.739 117.882 247.595L153.285 247.348L222.615 246.846L222.62 246.837C222.683 246.687 222.751 246.524 222.822 246.347L222.954 246.015C223.342 245.019 223.73 243.884 224.093 242.63C226.113 235.644 226.494 228.329 224.216 221.513C224.104 221.178 223.986 220.845 223.861 220.514C223.73 220.167 223.905 219.778 224.253 219.647C224.601 219.516 224.989 219.691 225.121 220.039C225.251 220.386 225.375 220.735 225.493 221.086C226.794 224.98 227.266 229.095 227.046 233.327C226.871 236.677 226.273 239.936 225.386 243.004C225.012 244.298 224.61 245.472 224.208 246.503L224.116 246.739C224.025 246.967 223.938 247.177 223.857 247.366L223.741 247.634C223.718 247.684 223.699 247.726 223.684 247.76L223.664 247.804C223.56 248.024 223.346 248.17 223.105 248.188L201.539 248.347L148.383 248.729C106.549 249.024 79.5755 249.199 74.5387 249.199C67.5778 249.199 59.644 243.787 55.9 235.555C51.2422 225.314 53.0572 212.022 62.7075 196.894C68.9451 187.117 75.9613 178.944 83.5068 172.231C89.1795 167.184 94.8767 163.199 100.39 160.146L100.676 159.989L100.609 159.839C98.0502 154.052 98.4792 148.568 102.336 143.952L102.459 143.806C107.106 138.367 116.386 134.333 130.613 131.971Z" fill="#164E63"/>
<path fill-rule="evenodd" clip-rule="evenodd" d="M127.828 147.937L124.867 150.091C124.867 150.091 144.679 170.712 153.565 212.715C154.574 217.495 155.292 221.107 155.786 223.867C155.764 223.889 161.799 224.518 161.642 224.45C159.892 212.895 157.469 191.848 160.969 181.661C165.928 167.211 166.063 158.842 162.697 148.296C161.889 145.761 160.767 164.698 154.799 171.452C139.743 154.713 127.828 147.937 127.828 147.937Z" fill="#06D0B6"/>
<path fill-rule="evenodd" clip-rule="evenodd" d="M133.121 138.76L133.161 138.761C133.519 138.781 133.796 139.077 133.797 139.431L133.796 139.471L133.594 143.128C133.587 143.261 133.54 143.388 133.461 143.494L133.429 143.533L129.365 148.195L129.75 148.45C129.965 148.592 130.193 148.745 130.432 148.907L130.863 149.201L131.261 149.476C132.867 150.591 134.636 151.887 136.529 153.359C142.387 157.913 148.243 163.213 153.711 169.203C153.983 169.502 154.254 169.801 154.524 170.102L154.797 170.409L154.811 170.39C154.998 170.134 155.2 169.837 155.413 169.498L155.485 169.383C156.387 167.925 157.294 166.046 158.143 163.703C159.655 159.534 160.811 154.378 161.467 148.136C161.505 147.767 161.837 147.498 162.206 147.537C162.576 147.576 162.844 147.907 162.805 148.277C162.139 154.625 160.959 159.888 159.409 164.162C158.528 166.591 157.581 168.554 156.63 170.092C156.293 170.636 155.978 171.089 155.693 171.457L155.578 171.602C155.459 171.751 155.367 171.855 155.308 171.918C155.035 172.203 154.576 172.193 154.315 171.896C153.789 171.297 153.256 170.701 152.717 170.111C147.414 164.301 141.74 159.146 136.058 154.699L135.703 154.421C133.752 152.904 131.935 151.577 130.297 150.446L129.833 150.128C129.395 149.829 128.997 149.563 128.641 149.331L128.249 149.077L127.99 148.914C127.649 148.703 127.57 148.245 127.81 147.932L127.837 147.899L132.262 142.823L132.452 139.396C132.471 139.052 132.746 138.782 133.082 138.761L133.121 138.76Z" fill="#164E63"/>
<path fill-rule="evenodd" clip-rule="evenodd" d="M137.694 178.295C138.127 178.087 138.644 178.257 138.871 178.674L138.918 178.769L139.1 179.156L139.266 179.515C139.539 180.106 139.84 180.773 140.163 181.508L140.244 181.694C141.255 184.002 142.266 186.474 143.21 189.01C144.189 191.643 145.041 194.198 145.726 196.622C146.612 199.752 147.199 202.582 147.435 205.046C147.483 205.539 147.121 205.977 146.628 206.025C146.134 206.072 145.696 205.711 145.648 205.217C145.424 202.874 144.858 200.145 143.999 197.11C143.327 194.736 142.491 192.226 141.528 189.636C140.596 187.134 139.598 184.693 138.6 182.414L138.362 181.874C138.103 181.289 137.86 180.751 137.636 180.266L137.401 179.761L137.274 179.492C137.059 179.045 137.247 178.509 137.694 178.295Z" fill="#164E63"/>
<path fill-rule="evenodd" clip-rule="evenodd" d="M166.557 177.668C167.025 177.776 167.322 178.232 167.238 178.7L167.123 179.221L167.016 179.72C166.961 179.984 166.902 180.269 166.84 180.574C166.547 182.03 166.253 183.637 165.98 185.348C165.374 189.133 164.952 192.868 164.795 196.353C164.672 199.094 164.719 201.589 164.958 203.778C165.012 204.27 164.656 204.713 164.163 204.767C163.67 204.821 163.227 204.465 163.174 203.972C162.924 201.683 162.875 199.099 163.002 196.273C163.162 192.712 163.591 188.911 164.207 185.065L164.312 184.419C164.542 183.03 164.783 181.715 165.025 180.499L165.08 180.22C165.143 179.909 165.203 179.618 165.26 179.349L165.404 178.679L165.48 178.34C165.592 177.857 166.074 177.556 166.557 177.668Z" fill="#164E63"/>
<path fill-rule="evenodd" clip-rule="evenodd" d="M179.506 243.892L179.53 243.931C179.704 244.209 179.832 244.435 179.912 244.608C180.234 245.305 179.965 246.035 179.304 246.445C178.733 246.798 177.928 246.891 177.053 246.702C175.091 246.279 173.015 244.575 171.195 241.593L171.145 241.51L147.3 240.56C146.931 240.545 146.645 240.237 146.654 239.872L146.656 239.833L148.07 222.399C148.1 222.023 148.432 221.748 148.802 221.783L148.975 221.808L150.046 221.975C150.866 222.103 151.767 222.246 152.73 222.402L153.217 222.48C156.305 222.981 159.392 223.505 162.299 224.029L163.5 224.247C165.022 224.527 166.448 224.799 167.762 225.062L168.263 225.163C168.51 225.213 168.752 225.263 168.988 225.312L169.222 225.361L171.224 225.756L171.355 225.766C172.483 225.858 173.619 226.133 174.713 226.516L174.885 226.577L175.108 226.66C176.693 227.261 180.304 228.875 183.754 230.524L184.543 230.903C188.82 232.968 191.592 234.473 192.122 235.136C192.836 236.029 192.743 237.331 191.911 238.127C191.327 238.686 190.503 238.909 189.538 238.77L189.504 238.765L189.676 238.951C190.504 239.852 190.957 240.486 191.095 240.945L191.104 240.976C191.425 242.222 190.405 243.175 188.942 243.331C187.853 243.446 186.643 243.137 185.538 242.432L185.512 242.415L185.649 242.582C185.987 242.998 186.219 243.316 186.337 243.529L186.369 243.589C186.948 244.79 185.808 246.038 184.201 246.105C182.837 246.162 181.268 245.473 179.625 244.001L179.506 243.892ZM149.353 223.229L148.055 239.243L171.564 240.18C171.779 240.188 171.976 240.299 172.095 240.476L172.12 240.514C173.82 243.444 175.699 245.033 177.336 245.386C177.894 245.506 178.347 245.454 178.595 245.3L178.642 245.27C178.706 245.226 178.707 245.211 178.69 245.174L178.662 245.116C178.381 244.555 177.442 243.209 176.077 241.384L175.839 241.067C175.267 240.306 174.659 239.511 174.046 238.719L173.429 237.926L172.849 237.186C172.489 236.73 172.838 236.062 173.418 236.097C174.028 236.134 175.464 237.38 178.681 241.046L179.203 241.645C181.116 243.848 182.854 244.814 184.145 244.76C184.57 244.742 184.889 244.606 185.061 244.418C185.163 244.307 185.18 244.223 185.161 244.183L185.142 244.147C184.873 243.672 183.417 242.006 181.273 239.697L181.016 239.42L180.446 238.81C179.773 238.091 179.073 237.352 178.371 236.614L177.402 235.601L176.73 234.903C176.143 234.296 176.979 233.393 177.624 233.901L177.654 233.926L185.457 240.672C186.528 241.662 187.774 242.101 188.8 241.992C189.548 241.913 189.876 241.605 189.804 241.323C189.692 240.918 188.657 239.746 186.685 237.849L186.201 237.386L185.425 236.987C185.139 236.839 184.84 236.684 184.53 236.522L183.581 236.027L182.756 235.593C181.922 235.154 181.063 234.699 180.203 234.242L178.658 233.418L178.062 233.098C177.735 232.922 177.612 232.514 177.788 232.187C177.958 231.871 178.342 231.746 178.663 231.894L180.407 232.825L181.692 233.509C182.262 233.811 182.828 234.11 183.383 234.402L184.426 234.95C185.156 235.332 185.831 235.682 186.442 235.996L186.556 236.055L186.581 236.058C186.699 236.076 186.814 236.125 186.912 236.206L186.943 236.235L186.986 236.275L187.627 236.601C187.76 236.668 187.888 236.732 188.012 236.794L188.462 237.018C189.673 237.615 190.538 237.578 190.98 237.155C191.311 236.838 191.348 236.323 191.071 235.978C190.331 235.052 178.07 229.16 174.428 227.843C173.333 227.448 172.19 227.168 171.09 227.097L171.046 227.092L171.003 227.085L168.954 226.68L168.385 226.562C168.192 226.523 167.996 226.483 167.798 226.443L167.498 226.382C166.005 226.084 164.364 225.772 162.601 225.452L161.514 225.256C159.142 224.831 156.657 224.408 154.156 223.998L152.516 223.731C151.875 223.627 151.262 223.529 150.682 223.438L149.353 223.229Z" fill="#164E63"/>
<path fill-rule="evenodd" clip-rule="evenodd" d="M106.082 211.212L109.414 211.499L112.505 211.769C116.423 212.114 120.341 212.466 124.083 212.811L127.479 213.127L130.824 213.445C139.344 214.263 144.899 214.873 146.561 215.209L146.612 215.22C148.75 215.667 149.712 216.518 150.636 218.237L150.77 218.488C151.425 219.72 151.821 220.158 152.81 220.49L153.396 220.683C154.435 221.028 155.287 221.322 155.97 221.567L156.152 221.632C156.315 221.691 156.461 221.744 156.59 221.793L156.983 221.942C157.036 221.963 157.074 221.978 157.098 221.988C157.451 222.134 157.61 222.542 157.455 222.886L157.361 223.072L157.31 223.176C157.206 223.389 157.089 223.637 156.963 223.917C156.602 224.72 156.24 225.615 155.902 226.577C154.968 229.242 154.397 231.899 154.368 234.359C154.345 236.294 154.664 238.026 155.363 239.511C155.498 239.798 155.414 240.141 155.161 240.333L155.12 240.363C155.065 240.402 154.988 240.453 154.885 240.514C154.68 240.637 154.426 240.771 154.12 240.914C153.268 241.311 152.162 241.703 150.775 242.068L150.517 242.134C149.532 242.377 149.099 242.769 148.393 243.87L148.198 244.177C147.153 245.815 146.151 246.594 144.043 246.89L141.218 247.287C139.61 247.511 138.104 247.709 136.518 247.897C132.557 248.369 128.779 248.701 125.224 248.849C123.645 248.915 122.138 248.943 120.709 248.93C120.338 248.926 120.039 248.622 120.043 248.25C120.046 247.879 120.35 247.58 120.722 247.583C122.127 247.597 123.611 247.569 125.168 247.504C128.684 247.357 132.43 247.028 136.359 246.56C137.76 246.394 139.098 246.22 140.502 246.027L143.737 245.573L143.762 245.57C145.437 245.351 146.145 244.849 146.97 243.598L147.1 243.395C147.127 243.353 147.158 243.303 147.206 243.228L147.316 243.057C148.148 241.778 148.802 241.189 150.105 240.85L150.313 240.797L150.433 240.765C151.745 240.421 152.774 240.055 153.552 239.693C153.64 239.652 153.722 239.612 153.799 239.574L153.9 239.522L153.89 239.497C153.295 238.006 153.018 236.338 153.021 234.525L153.022 234.343C153.053 231.717 153.653 228.924 154.632 226.131C154.983 225.131 155.359 224.201 155.735 223.365L155.832 223.151L155.912 222.977L155.422 222.8C154.64 222.521 153.637 222.179 152.386 221.767C151.018 221.308 150.407 220.654 149.629 219.209L149.45 218.875C148.713 217.503 148.063 216.915 146.428 216.557L146.337 216.538C144.749 216.206 138.744 215.551 129.604 214.68L126.891 214.424L125.2 214.267C121.706 213.942 118.038 213.611 114.344 213.283L109.564 212.863L106.007 212.556C105.636 212.524 105.361 212.198 105.393 211.828C105.424 211.47 105.728 211.202 106.082 211.212Z" fill="#164E63"/>
<path fill-rule="evenodd" clip-rule="evenodd" d="M150.828 241.997C154.373 241.121 155.584 240.246 155.584 240.246C152.017 232.864 157.783 222.027 157.783 222.027C157.783 222.027 156.661 221.578 153.206 220.434C151.815 219.963 151.231 219.132 150.738 218.235C142.458 225.617 145.083 240.65 146.385 246.148C148.27 244.846 148.157 242.647 150.828 241.997Z" fill="#164E63"/>
<path fill-rule="evenodd" clip-rule="evenodd" d="M109.532 201.366C109.604 201.001 109.958 200.764 110.322 200.836L110.38 200.848C110.465 200.867 110.586 200.898 110.737 200.943C111.042 201.034 111.379 201.156 111.741 201.312C112.766 201.757 113.789 202.393 114.743 203.258C117.043 205.343 118.568 208.397 118.963 212.562C118.998 212.932 118.726 213.261 118.356 213.296C117.986 213.331 117.657 213.059 117.622 212.689C117.259 208.857 115.89 206.115 113.839 204.256C113 203.495 112.101 202.936 111.205 202.548C110.894 202.413 110.607 202.309 110.352 202.233L110.261 202.207C110.192 202.187 110.137 202.174 110.099 202.165L110.062 202.157C109.698 202.085 109.46 201.731 109.532 201.366Z" fill="#164E63"/>
<path fill-rule="evenodd" clip-rule="evenodd" d="M201.747 226.081C202.111 226.161 202.341 226.519 202.262 226.882L202.211 227.106C202.197 227.166 202.182 227.23 202.165 227.298L202.104 227.55C202.041 227.808 201.97 228.085 201.892 228.378C201.595 229.496 201.254 230.613 200.875 231.66C200.258 233.362 199.601 234.71 198.887 235.596L198.822 235.675C198.22 236.395 198.412 237.059 199.274 237.581C200.175 238.127 201.395 238.193 202.164 237.703L202.448 237.513C202.504 237.475 202.546 237.446 202.591 237.414C202.629 237.387 202.665 237.361 202.699 237.336C202.794 237.266 202.884 237.194 202.987 237.107C203.27 236.867 203.695 236.903 203.935 237.186C204.175 237.47 204.14 237.895 203.856 238.135C203.732 238.24 203.618 238.33 203.501 238.418L203.435 238.465L203.321 238.546C203.258 238.59 203.196 238.632 203.099 238.697L202.974 238.781C201.747 239.63 199.924 239.548 198.577 238.733C197.085 237.83 196.617 236.269 197.743 234.868L197.789 234.811C198.404 234.077 199.023 232.819 199.609 231.201C199.974 230.196 200.303 229.114 200.591 228.032L200.665 227.753C200.736 227.479 200.799 227.222 200.856 226.986L200.946 226.595C201.025 226.232 201.384 226.002 201.747 226.081Z" fill="#164E63"/>
<path fill-rule="evenodd" clip-rule="evenodd" d="M209.218 216.778C209.59 216.757 209.907 217.042 209.927 217.413C209.948 217.784 209.663 218.102 209.292 218.122C205.401 218.335 203.1 220.286 202.91 224.329L202.907 224.409L203.125 226.582C203.255 227.887 203.386 229.206 203.511 230.491L203.769 233.175C204 235.618 204.17 237.517 204.26 238.707L204.295 239.192C204.374 240.367 204.873 240.903 205.624 240.961C206.276 241.011 206.986 240.663 207.213 240.246L207.232 240.208C207.389 239.871 207.79 239.726 208.127 239.884C208.464 240.041 208.609 240.442 208.451 240.779C207.997 241.75 206.722 242.396 205.521 242.303C204.107 242.194 203.107 241.141 202.958 239.369L202.911 238.728C202.817 237.493 202.639 235.518 202.398 232.986L202.276 231.712L202.062 229.514C202.026 229.143 201.989 228.77 201.952 228.396L201.563 224.496C201.559 224.465 201.558 224.434 201.56 224.404C201.735 219.528 204.636 217.029 209.218 216.778Z" fill="#164E63"/>
<path fill-rule="evenodd" clip-rule="evenodd" d="M212.973 217.665C213.053 217.302 213.411 217.072 213.775 217.151C217.329 217.929 220.604 219.597 221.306 221.066L221.317 221.09L221.345 221.121C222.477 222.424 222.744 226.108 222.443 231.409L222.418 231.831C222.162 235.978 221.556 240.475 221.151 241.34C220.681 242.345 219.434 242.848 218.275 242.554C217.675 242.401 217.164 242.063 216.778 241.565L216.758 241.539L216.749 241.555C216.222 242.398 215.108 242.81 214.054 242.569L213.989 242.554C213.39 242.401 212.879 242.063 212.492 241.565L212.458 241.52C211.958 242.539 210.784 243.011 209.635 242.712L209.57 242.694C208.256 242.319 207.336 241.067 207.215 239.282L207.194 238.965C207.13 237.94 207.066 236.578 207.004 234.957C206.963 233.902 206.924 232.788 206.889 231.662L206.842 230.102L206.81 228.933C206.8 228.561 207.094 228.252 207.465 228.243C207.837 228.233 208.146 228.527 208.156 228.898L208.203 230.592L208.235 231.619C208.265 232.602 208.299 233.576 208.334 234.508L208.389 235.904C208.445 237.239 208.502 238.355 208.558 239.192C208.642 240.433 209.197 241.188 209.939 241.4C210.547 241.574 211.113 241.326 211.292 240.827C211.469 240.335 211.552 238.766 211.543 236.514L211.54 236.152L211.491 234.934C211.45 233.88 211.412 232.766 211.377 231.639L211.33 230.08L211.297 228.91C211.275 228.027 212.593 227.973 212.642 228.855L212.681 229.603C212.71 230.19 212.739 230.833 212.766 231.511L212.794 232.247C212.825 233.102 212.85 233.94 212.866 234.743L212.873 235.086C212.877 235.295 212.88 235.499 212.882 235.699L212.887 236.131L212.932 237.134C212.968 237.878 213.003 238.527 213.039 239.067L213.046 239.169C213.129 240.398 213.629 241.073 214.321 241.249C214.883 241.392 215.465 241.157 215.648 240.764C215.69 240.677 215.749 240.013 215.774 239.049L215.783 238.648C215.8 237.675 215.793 236.446 215.767 235.021L215.753 234.307L215.747 234.133C215.717 233.322 215.689 232.484 215.662 231.639L215.615 230.08L215.583 228.91C215.56 228.02 216.891 227.975 216.928 228.865L216.961 229.7C216.986 230.354 217.01 231.064 217.033 231.806L217.059 232.682C217.067 232.971 217.075 233.258 217.082 233.542L217.099 234.272L217.149 235.556C217.209 237.036 217.27 238.265 217.331 239.169C217.414 240.398 217.915 241.073 218.607 241.249C219.168 241.392 219.751 241.157 219.932 240.769C220.238 240.114 220.842 235.608 221.082 231.619L221.09 231.499C221.383 226.488 221.103 222.776 220.314 221.986L220.289 221.963C220.216 221.896 220.158 221.814 220.121 221.722L220.104 221.675C219.811 220.78 216.753 219.181 213.487 218.466C213.124 218.387 212.894 218.028 212.973 217.665Z" fill="#164E63"/>
<path fill-rule="evenodd" clip-rule="evenodd" d="M214.64 218.1C217.804 218.953 220.407 220.456 220.743 221.511C222.291 222.924 221.977 230.464 221.416 235.781C223.593 233.246 224.894 229.97 224.894 226.357C224.894 219.895 220.676 214.42 214.82 212.558" fill="#164E63"/>
<path fill-rule="evenodd" clip-rule="evenodd" d="M209.121 211.952C201.739 212.603 195.95 218.818 195.95 226.38C195.95 229.521 196.959 232.416 198.642 234.794C200.415 232.191 201.604 226.761 201.604 226.761L202.591 227.973C202.389 225.931 202.232 224.473 202.232 224.473C202.389 219.514 205.508 217.719 209.143 217.495" fill="#164E63"/>
<path fill-rule="evenodd" clip-rule="evenodd" d="M204.734 204.234C205.106 204.228 205.412 204.524 205.418 204.896C205.424 205.254 205.149 205.552 204.796 205.578L204.576 205.587L204.435 205.595C204.312 205.603 204.175 205.613 204.027 205.627C203.428 205.681 202.759 205.772 202.037 205.908C199.974 206.298 197.913 206.973 195.995 207.998C190.681 210.838 187.449 215.774 187.289 223.41C187.281 223.781 186.973 224.076 186.602 224.069C186.23 224.061 185.935 223.753 185.943 223.382C186.113 215.243 189.63 209.874 195.36 206.811C197.409 205.716 199.598 204.999 201.787 204.586C202.553 204.441 203.265 204.344 203.906 204.286L204.055 204.273C204.368 204.247 204.598 204.236 204.734 204.234Z" fill="#164E63"/>
<path fill-rule="evenodd" clip-rule="evenodd" d="M184.574 207.161C186.959 202.961 191.202 200.502 197.652 200.689C198.024 200.7 198.316 201.01 198.305 201.381C198.295 201.753 197.985 202.045 197.613 202.035C191.668 201.863 187.887 204.054 185.745 207.826C185.02 209.103 184.538 210.477 184.255 211.852C184.156 212.332 184.089 212.778 184.048 213.176L184.034 213.333C184.029 213.383 184.026 213.43 184.022 213.474L184.015 213.59C184.014 213.621 184.013 213.641 184.013 213.652C184.003 214.024 183.695 214.317 183.323 214.308C182.951 214.299 182.658 213.99 182.667 213.619L182.671 213.518C182.676 213.415 182.686 213.276 182.703 213.105L182.709 213.039C182.754 212.597 182.828 212.107 182.936 211.58C183.246 210.076 183.774 208.571 184.574 207.161Z" fill="#164E63"/>
<path fill-rule="evenodd" clip-rule="evenodd" d="M179.189 160.794C179.189 161.063 179.189 161.31 179.211 161.557C177.013 173.606 175.06 172.125 169.877 181.661C169.832 181.729 169.81 181.796 169.765 181.886C176.855 179.103 182.42 175.491 185.606 169.321C185.629 169.321 181.455 163.442 179.189 160.794Z" fill="#164E63"/>
<path fill-rule="evenodd" clip-rule="evenodd" d="M102.092 159.829C98.7041 161.647 94.6877 164.182 90.1553 167.727C93.9473 169.904 122.129 185.633 135.21 182.267C126.056 182.267 107.567 171.452 102.092 159.829Z" fill="#164E63"/>
<path fill-rule="evenodd" clip-rule="evenodd" d="M141.544 90.8409C138.11 92.9315 135.473 95.8353 133.537 99.3391C132.088 101.961 131.113 104.765 130.52 107.568C130.313 108.55 130.168 109.462 130.074 110.282L130.051 110.493C130.037 110.629 130.025 110.757 130.014 110.877L130 111.051C129.99 111.187 129.985 111.283 129.982 111.336L129.982 111.364V111.453L129.983 111.493C130.003 111.832 130.274 112.106 130.617 112.125L134.614 112.353L134.637 112.393C135.58 114.114 136.892 120.425 137.594 125.767C137.644 126.143 137.993 126.401 138.363 126.345L138.656 126.287C138.844 126.25 139.063 126.21 139.311 126.167L139.42 126.149C140.262 126.005 141.243 125.861 142.352 125.727L142.646 125.691C148.262 125.031 154.681 124.871 161.573 125.507L161.928 125.54L162.321 125.594L162.857 125.671C163.068 125.702 163.29 125.735 163.519 125.77L163.693 125.797C165.031 126.004 166.368 126.235 167.613 126.486L168.066 126.579C169.797 126.941 171.169 127.31 172.043 127.67C172.426 127.828 172.86 127.605 172.955 127.202C174.961 118.689 176.118 109.847 175.957 101.948C175.821 95.8635 172.499 91.8091 167.025 89.4654C165.045 88.6175 162.887 88.042 160.657 87.6885C159.219 87.4604 157.962 87.3525 156.872 87.3152L156.725 87.3106C150.64 87.1253 145.605 88.3682 141.544 90.8409ZM156.685 88.6562C157.755 88.6871 159.005 88.7895 160.446 89.0181C162.573 89.3554 164.627 89.9029 166.495 90.7029C171.521 92.8547 174.488 96.4761 174.611 101.977L174.617 102.336C174.728 109.657 173.7 117.808 171.913 125.727L171.817 126.152L171.799 126.146C170.793 125.812 169.465 125.485 167.879 125.166C166.738 124.936 165.525 124.723 164.306 124.53L163.899 124.466C163.602 124.421 163.319 124.378 163.052 124.339L162.43 124.25L162.088 124.204L162.065 124.201C154.81 123.504 148.064 123.678 142.189 124.39L141.772 124.442C140.879 124.555 140.072 124.674 139.357 124.794L138.973 124.86L138.833 124.884L138.781 124.51C137.964 118.757 136.625 112.667 135.51 111.279L135.482 111.245C135.364 111.117 135.2 111.038 135.024 111.028L131.371 110.82L131.39 110.632C131.397 110.568 131.404 110.502 131.412 110.434C131.5 109.655 131.639 108.785 131.837 107.847C132.404 105.166 133.336 102.486 134.715 99.9902C136.543 96.6816 139.022 93.9524 142.244 91.9908C146.075 89.6579 150.852 88.4787 156.685 88.6562Z" fill="#164E63"/>
<path fill-rule="evenodd" clip-rule="evenodd" d="M128.705 114.55C129.077 114.539 129.387 114.831 129.398 115.203C129.41 115.574 129.118 115.885 128.746 115.896C127.222 115.942 125.742 116.28 124.589 117.025C123.029 118.034 122.242 119.688 122.463 122.233C122.656 124.479 123.655 125.782 125.331 126.396C126.662 126.884 128.346 126.911 130.163 126.608C130.53 126.547 130.877 126.795 130.938 127.161C130.999 127.528 130.751 127.875 130.384 127.936C128.358 128.274 126.459 128.243 124.867 127.66C122.702 126.866 121.359 125.117 121.122 122.349C120.858 119.313 121.875 117.177 123.859 115.895C125.254 114.992 126.958 114.603 128.705 114.55Z" fill="#164E63"/>
<path fill-rule="evenodd" clip-rule="evenodd" d="M128.401 110.691C128.001 110.671 127.675 111.001 127.694 111.395L127.725 111.694L127.962 113.893C128.002 114.263 128.044 114.645 128.087 115.039L128.267 116.66C128.507 118.817 128.752 120.951 128.992 122.97L129.11 123.951C129.162 124.38 129.213 124.799 129.263 125.209L129.409 126.377C129.819 129.642 130.163 132.049 130.421 133.39L130.483 133.711C131.51 138.882 132.76 140.951 137.862 145.436C140.838 148.052 145.556 150.114 150.256 150.78C155.627 151.541 160.474 150.467 163.826 147.378C166.071 145.301 167.956 142.395 169.522 138.871C170.659 136.311 171.564 133.574 172.261 130.839C172.486 129.955 172.674 129.129 172.828 128.379L172.865 128.193C172.922 127.913 172.969 127.663 173.008 127.448L173.054 127.176C173.103 126.87 172.936 126.569 172.65 126.449C171.628 126.021 170.05 125.605 168.048 125.199L167.889 125.167C166.619 124.912 165.26 124.678 163.902 124.468L163.383 124.388C163.215 124.363 163.052 124.339 162.895 124.317L162.089 124.204L162.065 124.201C154.81 123.504 148.064 123.678 142.19 124.39L141.772 124.442C140.879 124.555 140.073 124.674 139.357 124.794L138.973 124.86L138.833 124.884L138.781 124.51C137.965 118.757 136.625 112.667 135.511 111.279C135.39 111.129 135.212 111.038 135.02 111.028L128.401 110.691ZM129.119 112.076L134.615 112.355L134.637 112.393C135.58 114.114 136.892 120.425 137.594 125.767C137.644 126.143 137.993 126.401 138.363 126.344L138.656 126.287C138.844 126.25 139.063 126.21 139.311 126.167L139.42 126.149C140.262 126.005 141.243 125.861 142.352 125.727L142.647 125.691C148.262 125.031 154.681 124.871 161.573 125.507L161.927 125.54L162.401 125.606L162.702 125.649C163.012 125.694 163.345 125.744 163.697 125.798C164.915 125.986 166.132 126.195 167.281 126.419L167.773 126.517L168.096 126.583C169.53 126.882 170.717 127.185 171.578 127.482L171.629 127.5L171.566 127.828L171.546 127.928C171.39 128.705 171.194 129.572 170.956 130.506C170.277 133.174 169.395 135.84 168.291 138.324C166.794 141.695 165.005 144.454 162.913 146.388C159.893 149.171 155.448 150.156 150.445 149.447C145.996 148.817 141.523 146.862 138.751 144.425L138.457 144.165C133.773 140.013 132.727 138.184 131.772 133.288L131.716 132.997C131.468 131.666 131.137 129.332 130.744 126.205L130.637 125.349C130.537 124.542 130.434 123.694 130.329 122.811L130.209 121.794C130.008 120.084 129.805 118.305 129.605 116.51L129.324 113.97L129.119 112.076Z" fill="#164E63"/>
<path fill-rule="evenodd" clip-rule="evenodd" d="M128.456 113.787C128.456 113.787 125.719 106.831 125.45 100.145C125.203 93.8396 129.264 88.1179 135.367 86.5248C140.483 85.201 143.579 87.6692 143.579 87.6692C143.579 87.6692 140.326 78.2677 149.211 72.3217C152.353 70.235 156.234 69.4945 159.914 70.3471C168.912 72.4339 170.168 80.6461 170.168 80.6461C170.168 80.6461 183.429 64.7826 201.177 79.2998C202.972 80.7583 204.633 84.1688 205.306 86.3902C209.457 99.7856 184.955 109.793 173.467 108.671C160.857 107.437 154.035 103.937 150.647 100.122C153.295 102.478 146.272 120.316 128.456 113.787Z" fill="#164E63"/>
<path fill-rule="evenodd" clip-rule="evenodd" d="M162.605 118.768C163.086 118.767 163.479 119.144 163.503 119.619L163.505 119.664L163.527 131.623C163.528 132.238 162.928 132.667 162.351 132.478L162.312 132.465L158.273 130.939C157.81 130.764 157.576 130.246 157.751 129.782C157.921 129.333 158.412 129.099 158.864 129.244L158.908 129.26L161.729 130.326L161.709 119.667C161.709 119.187 162.086 118.793 162.561 118.769L162.605 118.768Z" fill="#164E63"/>
<path fill-rule="evenodd" clip-rule="evenodd" d="M168.37 120.119C168.486 119.084 168.04 118.185 167.375 118.111C166.71 118.037 166.077 118.815 165.962 119.85C165.847 120.884 166.292 121.783 166.957 121.857C167.622 121.931 168.255 121.153 168.37 120.119Z" fill="#164E63"/>
<path fill-rule="evenodd" clip-rule="evenodd" d="M156.793 118.673C156.909 117.638 156.463 116.739 155.798 116.665C155.133 116.591 154.5 117.369 154.385 118.404C154.269 119.438 154.715 120.337 155.38 120.411C156.045 120.485 156.678 119.707 156.793 118.673Z" fill="#164E63"/>
<path fill-rule="evenodd" clip-rule="evenodd" d="M151.045 110.095C152.501 109.194 154.236 108.839 156.172 109.352C156.652 109.479 156.937 109.97 156.81 110.449C156.683 110.928 156.192 111.214 155.713 111.087C154.292 110.71 153.051 110.964 151.989 111.622C151.738 111.777 151.519 111.943 151.334 112.108L151.271 112.165C151.222 112.21 151.187 112.245 151.164 112.269L151.142 112.292C150.816 112.665 150.249 112.702 149.876 112.375C149.503 112.048 149.466 111.481 149.793 111.108C149.863 111.029 149.979 110.911 150.141 110.767C150.4 110.536 150.701 110.308 151.045 110.095Z" fill="#164E63"/>
<path fill-rule="evenodd" clip-rule="evenodd" d="M166.172 110.071C166.857 110.015 167.621 110.062 168.369 110.294C169.709 110.711 170.664 111.65 170.939 113.155C171.028 113.642 170.705 114.11 170.217 114.199C169.744 114.285 169.291 113.984 169.182 113.521L169.173 113.477C169.028 112.681 168.578 112.239 167.836 112.009C167.375 111.865 166.866 111.827 166.413 111.853L166.267 111.865L166.212 111.871C165.721 111.941 165.266 111.6 165.196 111.109C165.126 110.618 165.467 110.164 165.958 110.094L166.013 110.087C166.055 110.082 166.108 110.076 166.172 110.071Z" fill="#164E63"/>
<path fill-rule="evenodd" clip-rule="evenodd" d="M152.53 133.141C152.992 133.008 153.473 133.261 153.628 133.71L153.653 133.791C153.672 133.849 153.708 133.945 153.76 134.066C153.873 134.324 154.015 134.583 154.187 134.82C154.804 135.67 155.586 136.012 156.733 135.658C157.207 135.513 157.709 135.779 157.855 136.252C158.001 136.726 157.735 137.228 157.261 137.374C155.31 137.974 153.77 137.301 152.734 135.875C152.48 135.524 152.275 135.152 152.114 134.781C152.015 134.554 151.951 134.371 151.917 134.252C151.779 133.776 152.054 133.278 152.53 133.141Z" fill="#164E63"/>
<path fill-rule="evenodd" clip-rule="evenodd" d="M145.824 248.459H230.078V242.401C230.078 241.032 228.978 239.932 227.61 239.932H148.359C146.968 239.932 145.824 241.077 145.824 242.468V248.459H145.824Z" fill="#164E63"/>
<path fill-rule="evenodd" clip-rule="evenodd" d="M369.327 247.92C369.699 247.92 370 248.222 370 248.593C370 248.952 369.72 249.245 369.366 249.265L369.327 249.266H0.673135C0.301373 249.266 0 248.965 0 248.593C0 248.235 0.280231 247.942 0.633583 247.921L0.673135 247.92H369.327Z" fill="#164E63"/>
<path fill-rule="evenodd" clip-rule="evenodd" d="M275.402 176.613C273.181 176.68 272.216 177.174 272.216 179.103C272.216 181.975 275.133 221.04 275.155 221.444C275.178 221.825 276.86 245.25 276.86 245.25C276.973 246.821 278.252 248.032 279.822 248.032L283.076 247.92L275.29 177.062C275.267 176.904 275.312 176.747 275.402 176.613Z" fill="#164E63"/>
<path fill-rule="evenodd" clip-rule="evenodd" d="M291.939 199.701C291.916 199.701 291.916 199.701 291.894 199.701C290.233 199.701 288.663 200.352 287.586 201.474C286.598 202.506 286.105 203.83 286.172 205.243C286.329 208.362 289.201 210.92 292.567 210.943C292.589 210.943 292.589 210.943 292.612 210.943C294.272 210.943 295.843 210.292 296.92 209.17C297.907 208.138 298.401 206.814 298.333 205.4C298.199 202.282 295.327 199.724 291.939 199.701Z" fill="#164E63"/>
<path fill-rule="evenodd" clip-rule="evenodd" d="M312.896 244.308L307.331 221.174C307.331 221.174 298.782 181.302 298.176 178.542C297.728 176.478 295.731 176.568 295.506 176.59C295.327 176.613 295.215 176.59 295.013 176.59H276.457C276.524 176.68 276.569 176.792 276.591 176.904L284.4 247.92H309.979C311.886 247.943 313.299 246.17 312.896 244.308ZM297.907 210.09C296.583 211.481 294.654 212.266 292.612 212.266C292.589 212.266 292.567 212.266 292.545 212.266C288.461 212.244 285.006 209.103 284.804 205.288C284.714 203.516 285.342 201.81 286.599 200.531C287.922 199.14 289.852 198.355 291.894 198.355C291.916 198.355 291.939 198.355 291.961 198.355C296.045 198.377 299.5 201.519 299.702 205.333C299.77 207.106 299.141 208.789 297.907 210.09Z" fill="#164E63"/>
<path fill-rule="evenodd" clip-rule="evenodd" d="M234.834 247.943H308.274V239.932H237.37C235.979 239.932 234.834 241.077 234.834 242.468V247.943Z" fill="#164E63"/>
<path fill-rule="evenodd" clip-rule="evenodd" d="M342.469 131.154C342.469 129.045 340.808 127.339 338.789 127.339L218.029 127.721C217.961 127.721 217.872 127.721 217.804 127.743L208.201 127.766C206.181 127.766 204.543 129.493 204.543 131.603L204.992 220.165C204.992 222.274 206.653 223.979 208.672 223.979L217.445 223.777C217.782 223.889 218.141 223.934 218.5 223.934L273.899 222.61C273.876 222.341 273.832 222.005 273.809 221.556C273.697 219.94 270.87 182.043 270.87 179.126C270.87 175.289 274.078 175.289 276.187 175.289H295.664C295.798 175.289 295.91 175.311 295.933 175.311C297.189 175.356 299.029 176.052 299.5 178.296C300.084 180.966 308.229 219.088 308.812 221.803L339.238 221.085C341.257 221.085 342.895 219.357 342.895 217.248L342.469 131.154ZM216.054 222.992C216.009 223.328 215.717 223.598 215.381 223.598C215.358 223.598 215.336 223.598 215.314 223.598C212.442 223.284 210.848 221.13 210.826 217.539C210.826 215.498 210.422 137.279 210.4 133.083C210.377 129.247 213.563 128.147 215.246 128.08C215.605 128.08 215.919 128.371 215.942 128.73C215.942 129.112 215.673 129.404 215.291 129.426C214.932 129.449 211.724 129.65 211.746 133.061C211.768 137.257 212.172 215.475 212.172 217.517C212.195 220.456 213.272 222.005 215.471 222.251C215.807 222.274 216.076 222.61 216.054 222.992Z" fill="#164E63"/>
<path fill-rule="evenodd" clip-rule="evenodd" d="M272.148 98.1253H271.857C271.228 98.1253 270.735 97.6317 270.735 97.0034V95.7694C270.735 95.1411 271.228 94.6475 271.857 94.6475H272.148C272.777 94.6475 273.27 95.1411 273.27 95.7694V97.0034C273.27 97.6317 272.777 98.1253 272.148 98.1253Z" fill="#06D0B6"/>
<path fill-rule="evenodd" clip-rule="evenodd" d="M268.648 98.1253H253.48C252.852 98.1253 252.358 97.6317 252.358 97.0034V95.7694C252.358 95.1411 252.852 94.6475 253.48 94.6475H268.648C269.277 94.6475 269.77 95.1411 269.77 95.7694V97.0034C269.77 97.6317 269.277 98.1253 268.648 98.1253Z" fill="#164E63"/>
<path fill-rule="evenodd" clip-rule="evenodd" d="M270.219 114.236H253.48C252.852 114.236 252.358 113.742 252.358 113.114V111.88C252.358 111.251 252.852 110.758 253.48 110.758H270.219C270.847 110.758 271.341 111.251 271.341 111.88V113.114C271.341 113.742 270.847 114.236 270.219 114.236Z" fill="#164E63"/>
<path fill-rule="evenodd" clip-rule="evenodd" d="M285.499 108.873H258.282C257.654 108.873 257.16 108.379 257.16 107.751V106.517C257.16 105.889 257.654 105.395 258.282 105.395H285.499C286.127 105.395 286.621 105.889 286.621 106.517V107.751C286.621 108.379 286.105 108.873 285.499 108.873Z" fill="#06D0B6"/>
<path fill-rule="evenodd" clip-rule="evenodd" d="M303.045 108.873H289.381C288.752 108.873 288.259 108.379 288.259 107.751V106.517C288.259 105.889 288.752 105.395 289.381 105.395H303.045C303.674 105.395 304.167 105.889 304.167 106.517V107.751C304.167 108.379 303.674 108.873 303.045 108.873Z" fill="#06D0B6"/>
<path fill-rule="evenodd" clip-rule="evenodd" d="M308.431 103.51H308.139C307.511 103.51 307.017 103.017 307.017 102.388V101.154C307.017 100.526 307.511 100.032 308.139 100.032H308.431C309.059 100.032 309.553 100.526 309.553 101.154V102.388C309.553 103.017 309.059 103.51 308.431 103.51Z" fill="#164E63"/>
<path fill-rule="evenodd" clip-rule="evenodd" d="M281.707 103.51H253.503C252.874 103.51 252.381 103.017 252.381 102.388V101.154C252.381 100.526 252.874 100.032 253.503 100.032H281.707C282.335 100.032 282.829 100.526 282.829 101.154V102.388C282.829 102.994 282.313 103.51 281.707 103.51Z" fill="#164E63"/>
<path fill-rule="evenodd" clip-rule="evenodd" d="M290.682 98.1253H275.514C274.886 98.1253 274.393 97.6317 274.393 97.0034V95.7694C274.393 95.1411 274.886 94.6475 275.514 94.6475H290.682C291.311 94.6475 291.804 95.1411 291.804 95.7694V97.0034C291.804 97.6317 291.311 98.1253 290.682 98.1253Z" fill="#164E63"/>
<path fill-rule="evenodd" clip-rule="evenodd" d="M304.549 103.51H285.297C284.669 103.51 284.175 103.017 284.175 102.388V101.132C284.175 100.504 284.669 100.01 285.297 100.01H304.549C305.177 100.01 305.671 100.504 305.671 101.132V102.388C305.671 103.017 305.155 103.51 304.549 103.51Z" fill="#06D0B6"/>
<path fill-rule="evenodd" clip-rule="evenodd" d="M73.9999 221.129C70.0221 221.129 66.7974 224.354 66.7974 228.332C66.7974 232.31 70.0221 235.534 73.9999 235.534C77.9778 235.534 81.2025 232.31 81.2025 228.332C81.2025 224.354 77.9778 221.129 73.9999 221.129ZM74 222.476C77.2343 222.476 79.8563 225.098 79.8563 228.332C79.8563 231.566 77.2343 234.188 74 234.188C70.7657 234.188 68.1437 231.566 68.1437 228.332C68.1437 225.098 70.7657 222.476 74 222.476Z" fill="#164E63"/>
<path fill-rule="evenodd" clip-rule="evenodd" d="M75.7051 219.447V241.279C75.7051 245.003 78.7117 248.01 82.4364 248.01H96.2581C99.9828 248.01 102.989 245.003 102.989 241.279V219.447H75.7051V219.447ZM86.7444 234.951C86.9239 235.063 86.9913 235.198 86.9913 235.377C86.9913 235.512 86.9464 235.624 86.8566 235.736C86.7669 235.826 86.6322 235.871 86.4976 235.871C86.4079 235.871 86.3181 235.849 86.2508 235.804L81.3145 232.842C81.135 232.73 81.0452 232.573 81.0452 232.393C81.0452 232.214 81.135 232.057 81.3145 231.944L86.2508 228.983C86.3181 228.938 86.4079 228.915 86.4976 228.915C86.6322 228.915 86.7444 228.96 86.8566 229.072C86.9464 229.162 86.9913 229.297 86.9913 229.431C86.9913 229.611 86.9015 229.745 86.7444 229.858L82.5037 232.393L86.7444 234.951ZM92.9148 227.659L88.9433 237.576C88.9209 237.621 88.876 237.666 88.8535 237.711C88.7638 237.801 88.6292 237.868 88.4945 237.868C88.3599 237.868 88.2477 237.823 88.1355 237.711C88.0458 237.621 88.0009 237.487 88.0009 237.352C88.0009 237.285 88.0233 237.217 88.0458 237.15L92.0173 227.232C92.0397 227.188 92.0846 227.143 92.1295 227.098C92.2192 227.008 92.3314 226.963 92.466 226.963C92.6007 226.963 92.7129 227.008 92.825 227.12C92.9148 227.21 92.9597 227.345 92.9597 227.479C92.9597 227.524 92.9372 227.591 92.9148 227.659ZM99.6237 232.864L94.6874 235.826C94.6201 235.871 94.5304 235.893 94.4406 235.893C94.306 235.893 94.1938 235.849 94.0816 235.759C93.9918 235.669 93.947 235.534 93.947 235.4C93.947 235.22 94.0367 235.086 94.1938 234.974L98.4345 232.438L94.1938 229.903C94.0143 229.79 93.947 229.656 93.947 229.476C93.947 229.342 93.9918 229.229 94.0816 229.117C94.1714 229.027 94.306 228.96 94.4406 228.96C94.5304 228.96 94.6201 228.983 94.6874 229.027L99.6237 231.989C99.8033 232.101 99.893 232.259 99.893 232.438C99.893 232.618 99.8033 232.73 99.6237 232.864Z" fill="#164E63"/>
</svg>
