<svg width="370" height="320" viewBox="0 0 370 320" fill="none" xmlns="http://www.w3.org/2000/svg">
<rect width="370" height="320" fill="white"/>
<path fill-rule="evenodd" clip-rule="evenodd" d="M181.533 235.861L110.204 236.19L104.64 230.536H49.5874V80.1426H182.781" fill="#F1F5F9"/>
<path fill-rule="evenodd" clip-rule="evenodd" d="M182.781 79.4705C183.148 79.4705 183.446 79.7713 183.446 80.1425C183.446 80.5004 183.169 80.7929 182.82 80.8134L182.781 80.8145H50.2525V229.864H104.64C104.802 229.864 104.958 229.924 105.079 230.031L105.111 230.062L110.479 235.516L181.53 235.188C181.884 235.187 182.175 235.465 182.196 235.818L182.198 235.857C182.199 236.215 181.924 236.509 181.575 236.531L181.536 236.532L110.207 236.862C110.044 236.863 109.887 236.803 109.765 236.694L109.732 236.664L104.363 231.208H49.5874C49.2332 231.208 48.9437 230.928 48.9235 230.575L48.9224 230.536V80.1425C48.9224 79.7846 49.1992 79.492 49.5484 79.4716L49.5874 79.4705H182.781Z" fill="#164E63"/>
<rect x="55.4048" y="105.93" width="48.9114" height="41.2821" fill="#008473"/>
<rect x="55.4048" y="161.081" width="48.9114" height="41.9721" fill="#008473"/>
<path fill-rule="evenodd" clip-rule="evenodd" d="M102.95 95.9663H72.9004V89.5889H102.95" fill="#008473"/>
<path fill-rule="evenodd" clip-rule="evenodd" d="M93.7971 218.106H73.4837C73.1555 218.106 72.8763 218.348 72.8264 218.675L69.6983 239.201C69.6363 239.608 69.948 239.975 70.3556 239.975H91.2565C91.5919 239.975 91.8748 239.723 91.9165 239.387L94.457 218.861C94.5067 218.46 94.1972 218.106 93.7971 218.106ZM93.0436 219.45L90.6695 238.631H71.1309L74.0541 219.45H93.0436Z" fill="#0E7490"/>
<path fill-rule="evenodd" clip-rule="evenodd" d="M96.1957 198.707H76.4409C76.1127 198.707 75.8336 198.948 75.7836 199.276L72.8263 218.675C72.7642 219.082 73.0759 219.45 73.4836 219.45H93.797C94.1324 219.45 94.4153 219.197 94.4569 218.861L96.8556 199.462C96.9052 199.061 96.5957 198.707 96.1957 198.707ZM95.4424 200.05L93.2097 218.105H74.2588L77.0113 200.05H95.4424Z" fill="#0E7490"/>
<path fill-rule="evenodd" clip-rule="evenodd" d="M98.4682 180.34H79.2388C78.9106 180.34 78.6314 180.582 78.5815 180.91L75.7838 199.276C75.7218 199.683 76.0335 200.051 76.4411 200.051H96.1959C96.5313 200.051 96.8142 199.798 96.8558 199.462L99.1281 181.096C99.1777 180.695 98.8682 180.34 98.4682 180.34ZM97.7146 181.684L95.6088 198.706H77.2163L79.8094 181.684H97.7146Z" fill="#0E7490"/>
<path fill-rule="evenodd" clip-rule="evenodd" d="M100.623 162.928H81.8926C81.5643 162.928 81.2852 163.17 81.2352 163.498L78.5816 180.91C78.5196 181.317 78.8313 181.685 79.2389 181.685H98.4683C98.8037 181.685 99.0866 181.432 99.1282 181.096L101.283 163.684C101.333 163.283 101.023 162.928 100.623 162.928ZM99.8696 164.273L97.8813 180.34H80.0142L82.463 164.273H99.8696Z" fill="#0E7490"/>
<path fill-rule="evenodd" clip-rule="evenodd" d="M102.667 146.397H84.4107C84.0824 146.397 83.8033 146.639 83.7533 146.967L81.2349 163.498C81.1729 163.905 81.4846 164.272 81.8923 164.272H100.623C100.958 164.272 101.241 164.02 101.283 163.684L103.327 147.152C103.376 146.751 103.067 146.397 102.667 146.397ZM101.913 147.741L100.036 162.928H82.6675L84.9813 147.741H101.913Z" fill="#0E7490"/>
<path fill-rule="evenodd" clip-rule="evenodd" d="M104.611 130.683H86.8051C86.4768 130.683 86.1977 130.925 86.1477 131.252L83.7535 146.966C83.6915 147.374 84.0032 147.741 84.4108 147.741H102.667C103.002 147.741 103.285 147.488 103.327 147.152L105.271 131.438C105.321 131.037 105.011 130.683 104.611 130.683ZM103.858 132.027L102.08 146.396H85.1861L87.3755 132.027H103.858Z" fill="#0E7490"/>
<rect x="81.1743" y="129.222" width="21.7766" height="2.13254" fill="#0E7490"/>
<path fill-rule="evenodd" clip-rule="evenodd" d="M154.203 216.983H145.105C144.737 216.983 144.439 217.284 144.439 217.655V226.849C144.439 227.22 144.737 227.521 145.105 227.521H154.203C154.57 227.521 154.868 227.22 154.868 226.849V217.655C154.868 217.284 154.57 216.983 154.203 216.983ZM153.537 218.327V226.177H145.769V218.327H153.537Z" fill="#0E7490"/>
<path fill-rule="evenodd" clip-rule="evenodd" d="M166.833 216.983H157.734C157.367 216.983 157.069 217.284 157.069 217.655V226.849C157.069 227.22 157.367 227.521 157.734 227.521H166.833C167.2 227.521 167.498 227.22 167.498 226.849V217.655C167.498 217.284 167.2 216.983 166.833 216.983ZM166.167 218.327V226.177H158.399V218.327H166.167Z" fill="#0E7490"/>
<rect x="113.048" y="216.759" width="24.9046" height="10.9808" fill="#0E7490"/>
<path fill-rule="evenodd" clip-rule="evenodd" d="M163.53 230.332C163.897 230.332 164.195 230.633 164.195 231.004C164.195 231.362 163.918 231.654 163.569 231.675L163.53 231.676H120.692C120.325 231.676 120.027 231.375 120.027 231.004C120.027 230.646 120.304 230.353 120.653 230.333L120.692 230.332H163.53Z" fill="#06D0B6"/>
<path fill-rule="evenodd" clip-rule="evenodd" d="M176.882 212.156C177.249 212.156 177.547 212.457 177.547 212.828C177.547 213.186 177.27 213.478 176.921 213.499L176.882 213.5H107.856C107.489 213.5 107.191 213.199 107.191 212.828C107.191 212.47 107.468 212.178 107.817 212.157L107.856 212.156H176.882Z" fill="#06D0B6"/>
<path fill-rule="evenodd" clip-rule="evenodd" d="M130.484 204.777C130.852 204.777 131.149 205.078 131.149 205.449C131.149 205.807 130.872 206.1 130.523 206.12L130.484 206.121H113.048C112.681 206.121 112.383 205.82 112.383 205.449C112.383 205.091 112.66 204.799 113.009 204.778L113.048 204.777H130.484Z" fill="#0E7490"/>
<ellipse cx="136.279" cy="205.449" rx="2.22577" ry="2.24902" fill="#0E7490"/>
<ellipse cx="143.041" cy="205.449" rx="2.22577" ry="2.24902" fill="#0E7490"/>
<ellipse cx="149.804" cy="205.449" rx="2.22577" ry="2.24902" fill="#0E7490"/>
<path fill-rule="evenodd" clip-rule="evenodd" d="M174.76 198.707C175.127 198.707 175.425 199.007 175.425 199.379C175.425 199.736 175.148 200.029 174.799 200.049L174.76 200.051H113.048C112.681 200.051 112.383 199.75 112.383 199.379C112.383 199.021 112.66 198.728 113.009 198.708L113.048 198.707H174.76Z" fill="#0E7490"/>
<path fill-rule="evenodd" clip-rule="evenodd" d="M174.76 194.374C175.127 194.374 175.425 194.675 175.425 195.046C175.425 195.404 175.148 195.697 174.799 195.717L174.76 195.718H113.048C112.681 195.718 112.383 195.417 112.383 195.046C112.383 194.688 112.66 194.396 113.009 194.375L113.048 194.374H174.76Z" fill="#0E7490"/>
<rect x="113.048" y="182.513" width="49.807" height="7.58484" fill="#0E7490"/>
<path fill-rule="evenodd" clip-rule="evenodd" d="M174.76 88.332H113.445C113.078 88.332 112.78 88.6329 112.78 89.0041V178.085C112.78 178.456 113.078 178.757 113.445 178.757H174.76C175.128 178.757 175.425 178.456 175.425 178.085V89.0041C175.425 88.6329 175.128 88.332 174.76 88.332ZM174.095 89.6761V177.413H114.11V89.6761H174.095Z" fill="#0E7490"/>
<path fill-rule="evenodd" clip-rule="evenodd" d="M174.763 89.0042H113.448V104.398H113.503V106.082V106.846V112.316V115.486H139.84V112.316H149.361V106.082H160.178V104.398H174.763V89.0042V89.0042Z" fill="#0E7490"/>
<path fill-rule="evenodd" clip-rule="evenodd" d="M176.882 230.124C176.882 233.484 174.137 236.19 170.752 236.19H116.334C112.946 236.19 110.204 233.475 110.204 230.124V87.5034C110.204 84.1433 112.946 81.4373 116.334 81.4373H123.45L124.674 83.0524C125.655 84.3518 127.18 85.1153 128.797 85.1177H163.654C164.728 85.1157 165.744 84.6214 166.416 83.7737L168.307 81.4261H170.745C174.131 81.4261 176.875 84.141 176.875 87.4922L176.882 230.124ZM178.46 75.929H114.583C112.321 75.9408 110.157 76.8599 108.567 78.484C106.976 80.108 106.089 82.3041 106.101 84.589V232.742C106.101 237.525 109.898 238.699 114.583 238.699H178.46C183.145 238.699 186.94 237.525 186.94 232.742V84.589C186.952 82.3043 186.066 80.1082 184.475 78.4841C182.885 76.8599 180.721 75.9408 178.46 75.929V75.929Z" fill="#164E63"/>
<path fill-rule="evenodd" clip-rule="evenodd" d="M187.877 73.2969H111.43C109.169 73.3087 107.006 74.2276 105.416 75.8512C103.825 77.4749 102.939 79.6704 102.95 81.9547V230.11C102.939 232.395 103.825 234.59 105.416 236.214C107.006 237.837 109.169 238.756 111.43 238.768H187.877C190.138 238.756 192.302 237.837 193.892 236.214C195.482 234.59 196.369 232.395 196.357 230.11V81.9547C196.369 79.6704 195.482 77.4749 193.892 75.8512C192.302 74.2276 190.138 73.3087 187.877 73.2969ZM173.729 227.489C173.729 230.849 170.985 233.558 167.599 233.558H113.181C109.796 233.558 107.052 230.84 107.052 227.489V84.869C107.052 81.5201 109.796 78.8029 113.181 78.8029H120.3L121.523 80.418C122.504 81.7189 124.029 82.4834 125.647 82.4856H160.503C161.577 82.4803 162.592 81.9867 163.265 81.1416L165.159 78.8029H167.597C170.982 78.8029 173.727 81.5201 173.727 84.869L173.729 227.489Z" fill="#06D0B6"/>
<path fill-rule="evenodd" clip-rule="evenodd" d="M168.774 73.4133C174.422 73.4133 179.023 77.8717 179.115 83.4019L179.116 83.5698L179.116 230.684C179.089 234.7 176.72 238.321 173.074 239.92C172.737 240.068 172.345 239.911 172.199 239.571C172.053 239.231 172.207 238.835 172.544 238.687C175.674 237.314 177.72 234.223 177.785 230.787L177.786 230.679V83.5698C177.786 78.7136 173.753 74.7574 168.774 74.7574C168.407 74.7574 168.109 74.4565 168.109 74.0853C168.109 73.7142 168.407 73.4133 168.774 73.4133Z" fill="#164E63"/>
<path fill-rule="evenodd" clip-rule="evenodd" d="M256.739 80.1133V80.1424H188.164V230.536H256.739V230.507H325.312V80.1133H256.739V80.1133Z" fill="#F1F5F9"/>
<path fill-rule="evenodd" clip-rule="evenodd" d="M256.739 79.4412L256.7 79.4423C256.665 79.4443 256.632 79.449 256.599 79.4561L256.544 79.4703H188.164C187.796 79.4703 187.499 79.7712 187.499 80.1423V230.536C187.499 230.907 187.796 231.208 188.164 231.208H256.739L256.778 231.207C256.812 231.204 256.846 231.2 256.879 231.193L256.932 231.179H325.312C325.679 231.179 325.977 230.878 325.977 230.507V80.1132C325.977 79.742 325.679 79.4412 325.312 79.4412H256.739ZM324.647 80.7852V229.835H256.739L256.7 229.836C256.665 229.838 256.631 229.842 256.599 229.849L256.544 229.864H188.828V80.8143H256.739L256.778 80.8132C256.812 80.8112 256.846 80.8065 256.879 80.7994L256.932 80.7852H324.647Z" fill="#164E63"/>
<path fill-rule="evenodd" clip-rule="evenodd" d="M256.736 79.4412C257.091 79.4412 257.38 79.7209 257.4 80.0737L257.401 80.1132V230.507C257.401 230.878 257.104 231.179 256.736 231.179C256.382 231.179 256.093 230.899 256.072 230.546L256.071 230.507V80.1132C256.071 79.742 256.369 79.4412 256.736 79.4412Z" fill="#164E63"/>
<path fill-rule="evenodd" clip-rule="evenodd" d="M188.115 75.2568C188.469 75.2568 188.758 75.5366 188.779 75.8894L188.78 75.9289V235.95C188.78 236.321 188.482 236.622 188.115 236.622C187.761 236.622 187.471 236.342 187.451 235.989L187.45 235.95V75.9289C187.45 75.5577 187.747 75.2568 188.115 75.2568Z" fill="#164E63"/>
<path fill-rule="evenodd" clip-rule="evenodd" d="M235.594 107.751L221.111 122.636L217.387 118.992L212.775 123.801L221.319 132.161L240.318 112.444L235.594 107.751V107.751Z" fill="#164E63"/>
<rect x="205.697" y="189.883" width="34.373" height="9.01178" fill="#06D0B6"/>
<path fill-rule="evenodd" clip-rule="evenodd" d="M233.144 193.716C233.511 193.716 233.809 194.017 233.809 194.388C233.809 194.746 233.532 195.038 233.183 195.059L233.144 195.06H212.622C212.255 195.06 211.957 194.759 211.957 194.388C211.957 194.03 212.234 193.737 212.583 193.717L212.622 193.716H233.144Z" fill="#F1F5F9"/>
<path fill-rule="evenodd" clip-rule="evenodd" d="M241.5 140.423C241.867 140.423 242.165 140.723 242.165 141.095C242.165 141.453 241.888 141.745 241.539 141.765L241.5 141.767H204.961C204.594 141.767 204.296 141.466 204.296 141.095C204.296 140.737 204.573 140.444 204.922 140.424L204.961 140.423H241.5Z" fill="#06D0B6"/>
<path fill-rule="evenodd" clip-rule="evenodd" d="M235.525 147.799C235.893 147.799 236.19 148.1 236.19 148.471C236.19 148.829 235.913 149.122 235.564 149.142L235.525 149.143H208.77C208.402 149.143 208.104 148.842 208.104 148.471C208.104 148.113 208.381 147.821 208.73 147.8L208.77 147.799H235.525Z" fill="#06D0B6"/>
<path fill-rule="evenodd" clip-rule="evenodd" d="M249.552 158.211C249.919 158.211 250.217 158.512 250.217 158.883C250.217 159.241 249.94 159.533 249.591 159.554L249.552 159.555H197.082C196.715 159.555 196.417 159.254 196.417 158.883C196.417 158.525 196.694 158.233 197.043 158.212L197.082 158.211H249.552Z" fill="#06D0B6"/>
<path fill-rule="evenodd" clip-rule="evenodd" d="M249.552 164.947C249.919 164.947 250.217 165.248 250.217 165.619C250.217 165.977 249.94 166.269 249.591 166.29L249.552 166.291H197.082C196.715 166.291 196.417 165.99 196.417 165.619C196.417 165.261 196.694 164.968 197.043 164.948L197.082 164.947H249.552Z" fill="#06D0B6"/>
<path fill-rule="evenodd" clip-rule="evenodd" d="M249.552 171.685C249.919 171.685 250.217 171.986 250.217 172.357C250.217 172.715 249.94 173.008 249.591 173.028L249.552 173.029H197.082C196.715 173.029 196.417 172.728 196.417 172.357C196.417 171.999 196.694 171.707 197.043 171.686L197.082 171.685H249.552Z" fill="#06D0B6"/>
<path fill-rule="evenodd" clip-rule="evenodd" d="M230.764 177.413C231.131 177.413 231.429 177.714 231.429 178.085C231.429 178.443 231.152 178.735 230.803 178.756L230.764 178.757H212.753C212.386 178.757 212.088 178.456 212.088 178.085C212.088 177.727 212.365 177.434 212.714 177.414L212.753 177.413H230.764Z" fill="#06D0B6"/>
<path fill-rule="evenodd" clip-rule="evenodd" d="M227.706 108.831L222.982 104.138L222.958 104.163L220.164 101.389L205.686 116.27L204.775 115.379L204.77 115.383L201.957 112.63L197.348 117.439L205.892 125.799L205.894 125.795L208.708 128.548L227.706 108.831V108.831Z" fill="#06D0B6"/>
<path fill-rule="evenodd" clip-rule="evenodd" d="M224.222 105.813C224.478 105.547 224.899 105.541 225.162 105.8C225.415 106.049 225.43 106.451 225.204 106.718L225.175 106.75L206.369 126.268C206.112 126.534 205.691 126.54 205.428 126.281C205.176 126.032 205.16 125.63 205.386 125.363L205.416 125.331L224.222 105.813Z" fill="#F1F5F9"/>
<rect x="265.447" y="177.462" width="48.8183" height="25.2701" fill="#0E7490"/>
<path fill-rule="evenodd" clip-rule="evenodd" d="M307.231 179.801C307.598 179.801 307.896 180.102 307.896 180.473C307.896 180.831 307.619 181.123 307.27 181.144L307.231 181.145H294.92C294.553 181.145 294.255 180.844 294.255 180.473C294.255 180.115 294.532 179.822 294.881 179.802L294.92 179.801H307.231Z" fill="#F1F5F9"/>
<path fill-rule="evenodd" clip-rule="evenodd" d="M301.075 183.477C301.442 183.477 301.74 183.777 301.74 184.149C301.74 184.506 301.463 184.799 301.114 184.819L301.075 184.821H294.92C294.553 184.821 294.255 184.52 294.255 184.149C294.255 183.791 294.532 183.498 294.881 183.478L294.92 183.477H301.075Z" fill="#F1F5F9"/>
<ellipse cx="308.882" cy="197.739" rx="2.55386" ry="2.58056" fill="#F1F5F9"/>
<path fill-rule="evenodd" clip-rule="evenodd" d="M290.409 176.803C290.763 176.803 291.053 177.083 291.073 177.436L291.074 177.475V202.746C291.074 203.117 290.777 203.418 290.409 203.418C290.055 203.418 289.765 203.138 289.745 202.785L289.744 202.746V177.475C289.744 177.104 290.042 176.803 290.409 176.803Z" fill="#F1F5F9"/>
<path fill-rule="evenodd" clip-rule="evenodd" d="M307.182 144.11C307.549 144.11 307.847 144.41 307.847 144.782C307.847 145.14 307.57 145.432 307.221 145.453L307.182 145.454H294.872C294.504 145.454 294.207 145.153 294.207 144.782C294.207 144.424 294.483 144.131 294.833 144.111L294.872 144.11H307.182Z" fill="#0E7490"/>
<path fill-rule="evenodd" clip-rule="evenodd" d="M301.026 147.788C301.393 147.788 301.691 148.089 301.691 148.46C301.691 148.818 301.414 149.11 301.065 149.131L301.026 149.132H294.872C294.504 149.132 294.207 148.831 294.207 148.46C294.207 148.102 294.483 147.809 294.833 147.789L294.872 147.788H301.026Z" fill="#0E7490"/>
<ellipse cx="308.834" cy="162.05" rx="2.55386" ry="2.58055" fill="#0E7490"/>
<path fill-rule="evenodd" clip-rule="evenodd" d="M314.219 141.101H265.4C265.033 141.101 264.735 141.402 264.735 141.773V167.043C264.735 167.415 265.033 167.716 265.4 167.716H314.219C314.586 167.716 314.884 167.415 314.884 167.043V141.773C314.884 141.402 314.586 141.101 314.219 141.101ZM313.554 142.445V166.371H266.065V142.445H313.554Z" fill="#0E7490"/>
<rect x="263.358" y="139.233" width="25.0088" height="25.2701" fill="#0E7490"/>
<path fill-rule="evenodd" clip-rule="evenodd" d="M287.897 138.758C288.157 138.495 288.578 138.495 288.837 138.758C289.087 139.01 289.097 139.412 288.867 139.676L288.837 139.708L263.829 164.978C263.569 165.241 263.148 165.241 262.888 164.978C262.639 164.726 262.629 164.324 262.858 164.06L262.888 164.028L287.897 138.758Z" fill="#F1F5F9"/>
<path fill-rule="evenodd" clip-rule="evenodd" d="M262.888 138.758C263.137 138.506 263.536 138.496 263.797 138.728L263.829 138.758L288.837 164.028C289.097 164.29 289.097 164.716 288.837 164.978C288.588 165.23 288.19 165.24 287.929 165.009L287.897 164.978L262.888 139.708C262.628 139.446 262.628 139.02 262.888 138.758Z" fill="#F1F5F9"/>
<path fill-rule="evenodd" clip-rule="evenodd" d="M307.231 109.617C307.598 109.617 307.896 109.918 307.896 110.289C307.896 110.647 307.619 110.94 307.27 110.96L307.231 110.961H294.92C294.553 110.961 294.255 110.66 294.255 110.289C294.255 109.931 294.532 109.639 294.881 109.618L294.92 109.617H307.231Z" fill="#0E7490"/>
<path fill-rule="evenodd" clip-rule="evenodd" d="M301.075 113.293C301.442 113.293 301.74 113.594 301.74 113.965C301.74 114.323 301.463 114.616 301.114 114.636L301.075 114.637H294.92C294.553 114.637 294.255 114.336 294.255 113.965C294.255 113.607 294.532 113.315 294.881 113.294L294.92 113.293H301.075Z" fill="#0E7490"/>
<path fill-rule="evenodd" clip-rule="evenodd" d="M301.075 118.047C301.442 118.047 301.74 118.348 301.74 118.719C301.74 119.077 301.463 119.369 301.114 119.39L301.075 119.391H294.92C294.553 119.391 294.255 119.09 294.255 118.719C294.255 118.361 294.532 118.068 294.881 118.048L294.92 118.047H301.075Z" fill="#0E7490"/>
<ellipse cx="308.882" cy="124.957" rx="2.55386" ry="2.58055" fill="#0E7490"/>
<rect x="265.352" y="106.082" width="48.8183" height="25.2701" fill="#0E7490"/>
<rect x="263.358" y="102.852" width="25.0088" height="25.2701" fill="#0E7490"/>
<path fill-rule="evenodd" clip-rule="evenodd" d="M287.897 102.377C288.157 102.115 288.578 102.115 288.837 102.377C289.087 102.629 289.097 103.031 288.867 103.295L288.837 103.327L263.829 128.598C263.569 128.86 263.148 128.86 262.888 128.598C262.639 128.346 262.629 127.943 262.858 127.679L262.888 127.647L287.897 102.377Z" fill="#F1F5F9"/>
<path fill-rule="evenodd" clip-rule="evenodd" d="M262.888 102.377C263.137 102.125 263.536 102.115 263.797 102.347L263.829 102.377L288.837 127.647C289.097 127.91 289.097 128.335 288.837 128.598C288.588 128.849 288.19 128.86 287.929 128.628L287.897 128.598L262.888 103.327C262.628 103.065 262.628 102.639 262.888 102.377Z" fill="#F1F5F9"/>
<rect x="291.87" y="213.384" width="22.3973" height="7.74165" fill="#008473"/>
<rect x="275.179" y="89.0042" width="29.9857" height="7.42581" fill="#008473"/>
<path fill-rule="evenodd" clip-rule="evenodd" d="M130.519 112.513C130.858 112.41 131.215 112.593 131.335 112.925L131.347 112.963L132.203 115.835C132.305 116.177 132.124 116.538 131.795 116.659L131.758 116.672L128.455 117.675C128.239 117.741 128.006 117.692 127.835 117.546L127.802 117.516L124.508 114.312L87.9477 125.426C87.6085 125.529 87.2515 125.346 87.1315 125.014L87.1192 124.976C87.0172 124.633 87.1989 124.273 87.5274 124.151L87.5645 124.139L124.498 112.912C124.714 112.846 124.947 112.896 125.117 113.041L125.151 113.071L128.444 116.275L130.738 115.578L130.074 113.35C129.972 113.008 130.153 112.647 130.482 112.526L130.519 112.513Z" fill="#164E63"/>
<rect width="8.08919" height="2.35644" rx="1.17822" transform="matrix(0.286433 0.9581 -0.956436 0.291943 130.056 106.894)" fill="#F1F5F9"/>
<path fill-rule="evenodd" clip-rule="evenodd" d="M91.8497 130.634L91.889 130.635L94.8707 130.859C95.1842 130.883 95.4367 131.124 95.48 131.436L95.4843 131.475L96.0407 138.352C96.0431 138.381 96.0436 138.411 96.0421 138.441L96.0384 138.485L95.2586 145.194L97.2046 145.194C97.5588 145.194 97.8483 145.474 97.8685 145.826L97.8696 145.866C97.8696 146.224 97.5928 146.516 97.2437 146.537L97.2046 146.538H94.511C94.1263 146.538 93.8248 146.21 93.847 145.827L93.8505 145.788L94.7095 138.395L94.2047 132.157L92.4602 132.026L92.0888 137.874C92.0881 137.885 92.0871 137.896 92.0858 137.908L92.056 138.092L91.9574 138.669L91.8611 139.217C91.6912 140.173 91.5111 141.129 91.3288 142.023L91.258 142.366L91.1532 142.859L91.0843 143.173L91.0163 143.475C91.005 143.524 90.9938 143.572 90.9826 143.62L90.916 143.902L90.854 144.156L90.7934 144.396C90.7635 144.513 90.734 144.624 90.705 144.731L90.6473 144.937C90.6378 144.97 90.6283 145.002 90.6188 145.034L90.5732 145.185L92.3717 145.185C92.7259 145.185 93.0155 145.465 93.0357 145.817L93.0368 145.857C93.0368 146.215 92.7599 146.507 92.4108 146.528L92.3717 146.529H89.574C89.0328 146.529 88.7233 145.914 89.0273 145.474L89.0495 145.444C89.058 145.433 89.0674 145.418 89.0775 145.399L89.0989 145.356L89.1224 145.303L89.1477 145.241L89.1749 145.169L89.2038 145.088L89.2343 144.998L89.2827 144.848L89.3342 144.678L89.3883 144.491L89.4446 144.287L89.5028 144.068L89.5626 143.833L89.6235 143.585L89.6881 143.311L89.7539 143.024L89.8206 142.725L89.8882 142.412L89.9567 142.088L90.0261 141.752C90.1834 140.981 90.3393 140.161 90.4884 139.334L90.5768 138.839L90.6905 138.186L90.7636 137.752L91.176 131.262C91.198 130.916 91.4758 130.648 91.8108 130.634L91.8497 130.634Z" fill="#164E63"/>
<ellipse cx="1.68746" cy="1.9168" rx="1.68746" ry="1.9168" transform="matrix(0.92144 -0.38852 0.381701 0.924286 90.3062 115.559)" fill="#164E63"/>
<path fill-rule="evenodd" clip-rule="evenodd" d="M91.6097 114.288C90.3917 114.803 89.8825 116.291 90.4189 117.594C90.9553 118.897 92.3573 119.577 93.5754 119.062C94.7934 118.547 95.3026 117.058 94.7662 115.756C94.2297 114.453 92.8277 113.773 91.6097 114.288ZM92.1193 115.526C92.6228 115.313 93.2683 115.626 93.536 116.276C93.8037 116.926 93.5692 117.611 93.0658 117.824C92.5623 118.037 91.9168 117.724 91.6491 117.074C91.3814 116.424 91.6158 115.738 92.1193 115.526Z" fill="#164E63"/>
<path fill-rule="evenodd" clip-rule="evenodd" d="M101.47 120.304C101.772 120.516 101.847 120.935 101.637 121.239L101.471 121.478L101.306 121.712L101.143 121.939L100.98 122.16C100.926 122.233 100.873 122.305 100.819 122.376L100.659 122.585L100.5 122.789C100.158 123.224 99.8229 123.618 99.496 123.972L99.3457 124.132C99.2708 124.211 99.1963 124.288 99.1223 124.362L98.9747 124.508C98.705 124.771 98.4407 125.006 98.1816 125.212L98.0407 125.322C97.1986 125.965 96.4106 126.309 95.6674 126.374C94.2012 126.501 93.1322 125.585 92.4066 124.08C92.1842 123.619 92.0087 123.13 91.8735 122.643L91.8381 122.511L91.8069 122.39L91.7799 122.278L91.757 122.177L91.738 122.088L91.7168 121.976C91.6529 121.61 91.8944 121.262 92.2562 121.197C92.605 121.135 92.9382 121.36 93.0188 121.704L93.0476 121.847L93.0547 121.88C93.0809 122 93.114 122.135 93.1543 122.28C93.2694 122.695 93.4183 123.11 93.6024 123.492C94.1139 124.553 94.7573 125.104 95.5537 125.035C96.0305 124.993 96.5783 124.752 97.195 124.289L97.3152 124.196C97.4161 124.117 97.5187 124.032 97.6232 123.941L97.7493 123.829C97.8552 123.734 97.9628 123.632 98.0722 123.525L98.2043 123.393C98.2487 123.348 98.2933 123.302 98.3381 123.255L98.4736 123.111L98.6108 122.962C98.6338 122.937 98.6568 122.911 98.68 122.885L98.8196 122.727L98.961 122.563C98.9847 122.535 99.0084 122.507 99.0323 122.478L99.1761 122.305C99.2243 122.246 99.2728 122.187 99.3216 122.126L99.4687 121.941L99.6175 121.75L99.768 121.552L99.9201 121.349L100.074 121.139L100.229 120.923L100.386 120.701L100.545 120.472C100.754 120.167 101.169 120.092 101.47 120.304Z" fill="#164E63"/>
<path fill-rule="evenodd" clip-rule="evenodd" d="M96.3338 118.835C98.4879 117.669 101.485 117.385 105.396 118.481C105.75 118.58 105.958 118.95 105.86 119.308C105.762 119.666 105.395 119.875 105.041 119.776C101.451 118.77 98.8069 119.021 96.9617 120.019C96.6192 120.205 96.3378 120.401 96.1142 120.594L96.0511 120.649L95.9982 120.698L95.9553 120.74L95.9096 120.787L95.8913 120.808C95.6578 121.094 95.2387 121.135 94.9552 120.899C94.6716 120.663 94.6311 120.24 94.8646 119.953L94.8858 119.928L94.9363 119.871L94.998 119.807C95.0092 119.795 95.0209 119.783 95.033 119.771L95.1115 119.696C95.1255 119.683 95.14 119.67 95.155 119.656L95.2506 119.572C95.5453 119.317 95.9053 119.067 96.3338 118.835Z" fill="#164E63"/>
<path fill-rule="evenodd" clip-rule="evenodd" d="M91.8398 131.314V121.178L95.378 120.401L94.8216 131.53L91.8398 131.314V131.314Z" fill="#164E63"/>
<path fill-rule="evenodd" clip-rule="evenodd" d="M95.2363 119.744L91.6981 120.521C91.3924 120.589 91.1743 120.862 91.1743 121.178V131.314C91.1743 131.667 91.444 131.96 91.792 131.985L94.7738 132.2C95.1455 132.227 95.4665 131.94 95.4853 131.563L96.0418 120.435C96.0639 119.993 95.6643 119.65 95.2363 119.744ZM94.6692 121.244L94.1911 130.81L92.5042 130.689V121.72L94.6692 121.244Z" fill="#164E63"/>
<ellipse cx="1.9181" cy="1.68631" rx="1.9181" ry="1.68631" transform="matrix(0.285128 -0.958489 0.956839 0.290617 179.326 56.2036)" fill="#164E63"/>
<path fill-rule="evenodd" clip-rule="evenodd" d="M179.232 54.1671C178.831 55.5193 179.49 56.9471 180.753 57.3327C182.017 57.7183 183.342 56.8957 183.742 55.5435C184.143 54.1913 183.484 52.7635 182.22 52.3779C180.957 51.9923 179.632 52.8149 179.232 54.1671ZM180.508 54.5566C180.708 53.8818 181.318 53.5031 181.84 53.6625C182.363 53.8219 182.666 54.4792 182.466 55.154C182.266 55.8288 181.656 56.2075 181.134 56.0481C180.611 55.8887 180.308 55.2314 180.508 54.5566Z" fill="#164E63"/>
<path fill-rule="evenodd" clip-rule="evenodd" d="M182.855 59.5572C183.206 59.4477 183.578 59.6463 183.686 60.0009L183.698 60.0377L183.749 60.1884L183.778 60.2709C183.859 60.4972 183.958 60.7506 184.075 61.0242C184.408 61.8063 184.818 62.5882 185.304 63.3142C186.548 65.1727 188.054 66.3269 189.824 66.4899C190.19 66.5236 190.459 66.8506 190.426 67.2202C190.393 67.5898 190.069 67.8621 189.703 67.8284C187.468 67.6225 185.648 66.2277 184.202 64.067C183.666 63.2655 183.218 62.4109 182.853 61.5565C182.744 61.3 182.648 61.0587 182.567 60.837L182.493 60.6316L182.441 60.4778L182.416 60.3977C182.307 60.0431 182.504 59.6668 182.855 59.5572Z" fill="#164E63"/>
<path fill-rule="evenodd" clip-rule="evenodd" d="M174.676 73.1153C174.676 73.1153 178.276 66.2831 179.141 59.8989C180.105 59.9101 182.781 60.0288 182.781 60.0288C182.781 60.0288 182.229 73.1153 179.238 73.1153H174.676Z" fill="#164E63"/>
<path fill-rule="evenodd" clip-rule="evenodd" d="M179.148 59.2271C178.813 59.2232 178.527 59.4722 178.482 59.808C178.431 60.1841 178.369 60.5677 178.297 60.9585C177.913 63.0538 177.247 65.2977 176.379 67.5934C175.877 68.9226 175.339 70.1862 174.801 71.3418L174.677 71.6046L174.558 71.8545L174.389 72.2043L174.25 72.484L174.089 72.7996C173.853 73.2472 174.174 73.7875 174.676 73.7875H179.238C180.246 73.7875 180.985 72.9768 181.571 71.5689L181.64 71.4005C181.651 71.372 181.662 71.3433 181.673 71.3143C181.995 70.4784 182.273 69.4421 182.513 68.2376L182.577 67.905C182.609 67.7366 182.64 67.5652 182.67 67.3907L182.73 67.0378C182.749 66.9189 182.769 66.7987 182.788 66.6771C183.015 65.2271 183.186 63.6773 183.311 62.1281L183.338 61.7727L183.363 61.4296L183.396 60.9398L183.425 60.4493L183.445 60.0576C183.46 59.7004 183.196 59.3963 182.849 59.3605L182.681 59.352L181.6 59.3067L180.3 59.2578L179.537 59.2347L179.196 59.2277C179.18 59.2275 179.164 59.2273 179.148 59.2271ZM179.691 60.7133L179.711 60.5836L180.201 60.5993L180.814 60.6212L181.547 60.6497L182.08 60.6717L182.059 61.0107L182.037 61.3343L182.012 61.6708L181.985 62.0194C181.863 63.5373 181.695 65.0547 181.474 66.4673L181.436 66.7037L181.397 66.9375L181.338 67.2806L181.276 67.6146L181.234 67.832L181.17 68.1501L181.126 68.3568L181.082 68.5592L181.014 68.8543L180.968 69.0454L180.922 69.232L180.875 69.4139L180.827 69.5911L180.779 69.7636L180.731 69.9312L180.682 70.094L180.632 70.2519L180.583 70.4047L180.532 70.5526L180.482 70.6953C180.474 70.7187 180.465 70.7418 180.457 70.7648L180.406 70.8998L180.355 71.0295L180.303 71.154L180.252 71.2731C180.243 71.2925 180.234 71.3117 180.226 71.3306L180.174 71.4416L180.122 71.547L180.069 71.6469C180.017 71.7441 179.965 71.8328 179.912 71.9128L179.86 71.9899C179.65 72.2868 179.44 72.4434 179.238 72.4434H175.754L175.877 72.1844L176.004 71.914C176.556 70.7295 177.107 69.4354 177.622 68.0728C178.516 65.7068 179.204 63.3878 179.605 61.2037C179.635 61.0392 179.664 60.8757 179.691 60.7133Z" fill="#164E63"/>
<path fill-rule="evenodd" clip-rule="evenodd" d="M183.051 72.4343C183.478 72.4343 183.79 72.8324 183.702 73.2469L183.692 73.2858L181.199 82.3764L182.83 84.775C183.03 85.0696 182.967 85.4685 182.691 85.6853L182.659 85.7095C182.367 85.9119 181.972 85.8475 181.758 85.5693L181.734 85.5362L179.927 82.8795C179.824 82.7284 179.787 82.5421 179.824 82.3638L179.834 82.3195L182.176 73.7784H174.676C174.322 73.7784 174.032 73.4986 174.012 73.1458L174.011 73.1063C174.011 72.7485 174.288 72.4559 174.637 72.4355L174.676 72.4343H183.051Z" fill="#164E63"/>
<path fill-rule="evenodd" clip-rule="evenodd" d="M186.968 72.4343C187.395 72.4343 187.707 72.8324 187.619 73.2469L187.609 73.2858L185.116 82.3764L186.747 84.775C186.947 85.0696 186.884 85.4685 186.608 85.6853L186.576 85.7095C186.284 85.9119 185.889 85.8475 185.675 85.5693L185.651 85.5362L183.844 82.8795C183.741 82.7284 183.704 82.5421 183.741 82.3638L183.751 82.3195L186.093 73.7784H178.593C178.239 73.7784 177.949 73.4986 177.929 73.1458L177.928 73.1063C177.928 72.7485 178.205 72.4559 178.554 72.4355L178.593 72.4343H186.968Z" fill="#164E63"/>
<path fill-rule="evenodd" clip-rule="evenodd" d="M212.551 94.6714C212.779 94.2096 213.41 94.1728 213.693 94.5898L213.716 94.6267L224.575 112.973C224.763 113.291 224.661 113.704 224.345 113.894C224.042 114.078 223.652 113.988 223.455 113.697L223.433 113.663L213.198 96.3694L200.728 121.604C200.569 121.924 200.193 122.06 199.872 121.922L199.835 121.905C199.519 121.745 199.384 121.365 199.52 121.04L199.537 121.003L212.551 94.6714Z" fill="#0E7490"/>
<path fill-rule="evenodd" clip-rule="evenodd" d="M208.422 57.1873C209.617 56.6923 210.977 56.8306 212.051 57.5562C213.101 58.266 213.742 59.4469 213.772 60.7194L213.773 60.8044L213.868 95.4559C213.869 95.8271 213.572 96.1288 213.205 96.1298C212.851 96.1308 212.561 95.8519 212.539 95.4991L212.538 95.4597L212.443 60.8079C212.441 59.9504 212.016 59.1501 211.311 58.6733C210.628 58.2114 209.767 58.1116 209 58.4016L208.926 58.4309L184.647 68.4865C184.307 68.6273 183.919 68.463 183.779 68.1196C183.645 67.7884 183.791 67.4116 184.107 67.2589L184.143 67.2429L208.422 57.1873Z" fill="#0E7490"/>
<ellipse cx="189.139" cy="68.8929" rx="2.10162" ry="2.12358" fill="#0E7490"/>
<path fill-rule="evenodd" clip-rule="evenodd" d="M189.139 66.0972C187.611 66.0972 186.372 67.3488 186.372 68.8928C186.372 70.4367 187.611 71.6884 189.139 71.6884C190.667 71.6884 191.905 70.4367 191.905 68.8928C191.905 67.3488 190.667 66.0972 189.139 66.0972ZM189.139 67.4412C189.932 67.4412 190.575 68.0911 190.575 68.8928C190.575 69.6944 189.932 70.3443 189.139 70.3443C188.345 70.3443 187.702 69.6944 187.702 68.8928C187.702 68.0911 188.345 67.4412 189.139 67.4412Z" fill="#0E7490"/>
<path fill-rule="evenodd" clip-rule="evenodd" d="M179.297 59.2569C179.647 59.1474 180.02 59.346 180.128 59.7006L180.14 59.7374L180.191 59.888L180.22 59.9705C180.301 60.1968 180.4 60.4502 180.517 60.7237C180.851 61.5058 181.26 62.2877 181.746 63.0136C182.8 64.5883 184.054 65.6664 185.499 66.0523C187.31 66.5358 189.41 65.9303 191.857 63.9488C192.144 63.7167 192.563 63.7634 192.792 64.053C193.022 64.3427 192.976 64.7656 192.689 64.9977C189.935 67.2275 187.415 67.954 185.159 67.3517C183.356 66.87 181.863 65.5864 180.644 63.7667C180.108 62.9652 179.66 62.1106 179.295 61.2562C179.186 60.9997 179.09 60.7585 179.009 60.5367L178.951 60.3779L178.894 60.211L178.857 60.0974C178.749 59.7428 178.946 59.3665 179.297 59.2569Z" fill="#164E63"/>
<path fill-rule="evenodd" clip-rule="evenodd" d="M205.359 115.147C205.696 115 206.088 115.156 206.234 115.497C206.375 115.825 206.236 116.205 205.924 116.364L205.888 116.381L198.568 119.588C198.231 119.736 197.839 119.58 197.693 119.239C197.552 118.911 197.691 118.531 198.003 118.372L198.039 118.355L205.359 115.147Z" fill="#0E7490"/>
<path fill-rule="evenodd" clip-rule="evenodd" d="M214.488 105.367C214.625 105.038 214.992 104.876 215.322 104.994L215.358 105.008L226.804 109.867C227.143 110.011 227.302 110.405 227.16 110.747C227.023 111.077 226.655 111.238 226.326 111.12L226.289 111.106L214.843 106.247C214.505 106.104 214.345 105.71 214.488 105.367Z" fill="#0E7490"/>
<path fill-rule="evenodd" clip-rule="evenodd" d="M274.181 222.951C274.467 222.951 274.719 223.135 274.81 223.405L274.822 223.444L276.554 229.79C276.566 229.834 276.573 229.879 276.576 229.924L276.578 229.969L276.577 237.287L278.486 237.287C278.841 237.287 279.13 237.567 279.15 237.92L279.151 237.959C279.151 238.317 278.875 238.61 278.525 238.63L278.486 238.631H275.913C275.558 238.631 275.269 238.352 275.249 237.999L275.248 237.959L275.247 230.06L273.674 224.295H271.578L271.579 237.959C271.579 238.317 271.302 238.61 270.953 238.63L270.913 238.631H268.805C268.438 238.631 268.14 238.33 268.14 237.959C268.14 237.601 268.417 237.309 268.766 237.288L268.805 237.287L270.248 237.287L270.248 223.623C270.248 223.265 270.525 222.973 270.874 222.952L270.913 222.951H274.181Z" fill="#164E63"/>
<path fill-rule="evenodd" clip-rule="evenodd" d="M270.913 223.623L269.47 212.483H274.7L274.181 223.623H270.913V223.623Z" fill="#164E63"/>
<path fill-rule="evenodd" clip-rule="evenodd" d="M274.7 211.811H269.47C269.069 211.811 268.759 212.168 268.811 212.57L270.254 223.71C270.297 224.045 270.58 224.295 270.914 224.295H274.181C274.536 224.295 274.829 224.013 274.846 223.654L275.364 212.515C275.382 212.132 275.08 211.811 274.7 211.811ZM274.003 213.155L273.547 222.951H271.497L270.228 213.155H274.003Z" fill="#164E63"/>
<ellipse cx="1.91915" cy="1.68536" rx="1.91915" ry="1.68536" transform="matrix(0.169351 -0.985556 0.984956 0.172804 270.082 208.542)" fill="#164E63"/>
<path fill-rule="evenodd" clip-rule="evenodd" d="M269.748 206.533C269.51 207.925 270.332 209.263 271.631 209.492C272.931 209.722 274.148 208.744 274.385 207.352C274.623 205.96 273.801 204.622 272.502 204.392C271.202 204.163 269.985 205.141 269.748 206.533ZM271.06 206.764C271.179 206.07 271.739 205.62 272.276 205.714C272.813 205.809 273.192 206.425 273.073 207.12C272.954 207.815 272.394 208.265 271.857 208.17C271.32 208.075 270.942 207.459 271.06 206.764Z" fill="#164E63"/>
<path fill-rule="evenodd" clip-rule="evenodd" d="M269.644 211.834C269.986 211.927 270.193 212.274 270.122 212.619L270.109 212.67L270.017 213.002L269.949 213.241L269.875 213.494L269.795 213.759C269.782 213.804 269.768 213.85 269.754 213.896C269.471 214.822 269.16 215.747 268.828 216.614L268.73 216.867C268.714 216.909 268.698 216.95 268.681 216.991L268.584 217.234C268.567 217.273 268.551 217.313 268.535 217.352L268.437 217.585C268.421 217.623 268.405 217.661 268.388 217.698L268.291 217.92C268.226 218.065 268.161 218.206 268.096 218.341L267.998 218.541C267.56 219.424 267.119 220.081 266.667 220.476C266.013 221.047 265.247 221.112 264.619 220.511C263.6 219.516 262.501 218.608 261.336 217.794C261.033 217.583 260.957 217.164 261.166 216.859C261.375 216.554 261.789 216.477 262.091 216.688C263.24 217.49 264.327 218.38 265.337 219.345L265.551 219.552L265.574 219.572C265.609 219.598 265.634 219.594 265.698 219.544L265.741 219.508L265.797 219.46C266.003 219.28 266.228 218.979 266.465 218.575L266.545 218.437C266.558 218.413 266.571 218.389 266.585 218.365L266.665 218.216L266.747 218.059L266.829 217.895L266.911 217.725L266.995 217.547C267.023 217.487 267.05 217.426 267.078 217.363L267.163 217.173C267.177 217.141 267.191 217.108 267.205 217.075L267.289 216.876C267.304 216.842 267.318 216.808 267.332 216.773L267.417 216.565C267.431 216.529 267.445 216.494 267.459 216.458L267.545 216.24C267.559 216.204 267.573 216.167 267.587 216.129C267.907 215.295 268.208 214.398 268.483 213.5L268.562 213.236L268.637 212.985L268.706 212.746L268.828 212.308C268.924 211.95 269.289 211.738 269.644 211.834Z" fill="#164E63"/>
<path fill-rule="evenodd" clip-rule="evenodd" d="M283.213 194.982C283.273 194.616 283.615 194.368 283.977 194.428C284.327 194.486 284.567 194.81 284.531 195.161L284.525 195.2L281.743 212.308C281.684 212.674 281.342 212.922 280.979 212.862C280.63 212.804 280.389 212.48 280.426 212.129L280.431 212.09L283.213 194.982Z" fill="#06D0B6"/>
<ellipse cx="283.922" cy="194.822" rx="1.53853" ry="1.5546" fill="#06D0B6"/>
<path fill-rule="evenodd" clip-rule="evenodd" d="M281.441 206.242C281.608 205.911 282.008 205.78 282.336 205.948C282.663 206.117 282.793 206.521 282.626 206.852C282.062 207.971 281.448 208.936 280.791 209.757C279.572 211.279 278.25 212.256 276.904 212.784C276.017 213.131 275.259 213.237 274.705 213.208L274.654 213.205C274.647 213.204 274.64 213.204 274.635 213.203C274.269 213.167 274.002 212.837 274.038 212.468C274.073 212.112 274.378 211.849 274.727 211.863L274.774 211.866C274.797 211.867 274.823 211.868 274.852 211.868L274.943 211.867C275.042 211.863 275.159 211.853 275.295 211.834C275.641 211.786 276.02 211.689 276.423 211.531C277.552 211.088 278.683 210.252 279.756 208.912C280.354 208.165 280.918 207.279 281.441 206.242Z" fill="#164E63"/>
<path fill-rule="evenodd" clip-rule="evenodd" d="M300.813 221.749C301.206 221.711 301.542 222.026 301.54 222.419L301.539 222.459L301.116 229.44L301.111 229.856C301.097 231.081 301.103 232.436 301.145 233.711L301.155 234.017L301.167 234.314L301.18 234.601L301.202 235.013L301.219 235.275C301.222 235.318 301.225 235.36 301.228 235.402L301.246 235.648L301.266 235.883C301.269 235.921 301.273 235.959 301.276 235.996L301.298 236.214C301.302 236.249 301.306 236.284 301.31 236.318L301.335 236.525L301.352 236.654L301.37 236.777L301.388 236.891L301.416 237.049L301.434 237.143L301.461 237.268L301.478 237.34C301.48 237.351 301.483 237.362 301.486 237.372L301.502 237.429L301.516 237.476L301.53 237.512C301.534 237.523 301.538 237.531 301.542 237.538L301.548 237.546C301.881 237.977 301.591 238.602 301.061 238.631L301.024 238.632H298.044C297.677 238.632 297.379 238.331 297.379 237.959C297.379 237.602 297.656 237.309 298.005 237.289L298.044 237.287L300.105 237.287L300.103 237.28C300.083 237.176 300.064 237.066 300.047 236.95L300.021 236.771L299.997 236.582C299.993 236.55 299.989 236.517 299.985 236.484L299.963 236.282L299.943 236.07L299.924 235.848L299.906 235.617L299.89 235.377L299.875 235.127L299.86 234.868L299.847 234.598L299.836 234.32L299.819 233.883L299.815 233.755C299.777 232.575 299.768 231.333 299.777 230.183L299.787 229.401L299.788 229.373L300.164 223.161L298.253 223.343L296.918 229.514L296.431 237.998C296.412 238.341 296.141 238.611 295.806 238.63L295.767 238.632H292.901C292.534 238.632 292.236 238.331 292.236 237.959C292.236 237.602 292.513 237.309 292.862 237.289L292.901 237.287L295.14 237.287L295.593 229.384C295.595 229.36 295.597 229.337 295.601 229.314L295.608 229.279L297.057 222.577C297.116 222.305 297.334 222.099 297.604 222.056L297.645 222.051L300.813 221.749Z" fill="#164E63"/>
<ellipse cx="1.91681" cy="1.68747" rx="1.91681" ry="1.68747" transform="matrix(0.381701 -0.924286 0.92144 0.388521 297.899 208.217)" fill="#164E63"/>
<path fill-rule="evenodd" clip-rule="evenodd" d="M298.013 206.181C297.476 207.484 297.985 208.972 299.203 209.488C300.421 210.003 301.823 209.323 302.36 208.02C302.896 206.717 302.387 205.229 301.169 204.714C299.951 204.198 298.549 204.878 298.013 206.181ZM299.243 206.702C299.511 206.051 300.156 205.738 300.66 205.951C301.163 206.164 301.397 206.849 301.13 207.5C300.862 208.15 300.217 208.463 299.713 208.25C299.21 208.037 298.975 207.352 299.243 206.702Z" fill="#164E63"/>
<path fill-rule="evenodd" clip-rule="evenodd" d="M301.593 212.199L300.875 222.418L297.707 222.72L298.671 212.783L301.593 212.199V212.199Z" fill="#164E63"/>
<path fill-rule="evenodd" clip-rule="evenodd" d="M301.464 211.539L298.542 212.124C298.255 212.182 298.038 212.423 298.01 212.718L297.045 222.655C297.004 223.075 297.353 223.429 297.77 223.389L300.938 223.087C301.261 223.056 301.515 222.793 301.538 222.465L302.257 212.246C302.288 211.804 301.894 211.453 301.464 211.539ZM300.868 213.029L300.251 221.802L298.448 221.975L299.285 213.345L300.868 213.029Z" fill="#164E63"/>
<path fill-rule="evenodd" clip-rule="evenodd" d="M300.986 211.924C301.137 211.585 301.53 211.434 301.865 211.586L301.939 211.619L302.023 211.66L302.119 211.708L302.225 211.763L302.34 211.825L302.466 211.894L302.6 211.969C302.623 211.982 302.646 211.996 302.67 212.01C303.259 212.351 303.849 212.752 304.402 213.211C306.071 214.597 307.077 216.222 307.03 218.086C306.979 220.09 305.692 222.117 303.025 224.162L302.812 224.324C302.56 224.512 302.296 224.701 302.02 224.89L301.78 225.052C301.7 225.106 301.618 225.16 301.535 225.214C301.227 225.415 300.815 225.326 300.616 225.014C300.416 224.702 300.505 224.286 300.813 224.085L300.929 224.008L301.157 223.857L301.379 223.705C301.451 223.655 301.523 223.604 301.594 223.554L301.804 223.404C301.838 223.379 301.873 223.354 301.906 223.329L302.107 223.179L302.302 223.031C302.719 222.708 303.094 222.39 303.43 222.076L303.583 221.931C305.003 220.558 305.67 219.261 305.7 218.052C305.735 216.681 304.941 215.398 303.558 214.249C303.067 213.841 302.538 213.482 302.009 213.176C301.855 213.087 301.71 213.008 301.578 212.939L301.439 212.869L301.321 212.812C300.986 212.66 300.836 212.263 300.986 211.924Z" fill="#164E63"/>
<path fill-rule="evenodd" clip-rule="evenodd" d="M298.875 212.415C299.19 212.605 299.293 213.017 299.105 213.336L299.028 213.466L298.875 213.721C298.772 213.888 298.67 214.052 298.569 214.211L298.417 214.447L298.266 214.676C298.241 214.714 298.216 214.751 298.19 214.788L298.04 215.009C297.99 215.081 297.94 215.152 297.89 215.222L297.741 215.43C297.641 215.566 297.542 215.699 297.444 215.827L297.296 216.016C295.945 217.721 294.66 218.656 293.422 218.896C291.943 219.182 290.722 218.482 289.777 217.207C289.511 216.847 289.286 216.466 289.099 216.085L289.041 215.963L288.99 215.853L288.946 215.753L288.909 215.664L288.88 215.589C288.875 215.578 288.871 215.567 288.867 215.556C288.74 215.208 288.917 214.822 289.261 214.693C289.593 214.569 289.961 214.73 290.101 215.054L290.155 215.189L290.203 215.301C290.23 215.36 290.259 215.423 290.291 215.488C290.444 215.801 290.629 216.113 290.842 216.402C291.513 217.308 292.281 217.748 293.172 217.576C294.093 217.397 295.157 216.598 296.346 215.066L296.481 214.889L296.618 214.706C296.686 214.613 296.755 214.518 296.824 214.42L296.963 214.221C297.032 214.12 297.102 214.017 297.173 213.911L297.314 213.696L297.457 213.474L297.6 213.246L297.745 213.012C297.769 212.972 297.793 212.932 297.817 212.892L297.963 212.647C298.151 212.329 298.56 212.224 298.875 212.415Z" fill="#164E63"/>
<path fill-rule="evenodd" clip-rule="evenodd" d="M66.9864 224.345C67.1859 224.315 67.3873 224.378 67.5348 224.514L67.5656 224.545L72.9504 230.223C73.0272 230.304 73.0825 230.403 73.1117 230.511L73.1226 230.557L74.387 237L76.6644 235.705C76.9726 235.53 77.3601 235.63 77.5492 235.926L77.5701 235.961C77.7436 236.273 77.6447 236.664 77.3513 236.855L77.3166 236.876L74.2396 238.626C73.8571 238.843 73.3791 238.633 73.2702 238.211L73.2611 238.171L71.8557 231.011L66.8433 225.726L64.1192 226.14L68.0163 231.775C68.1744 232.004 68.1755 232.306 68.0233 232.535L67.7985 232.83L64.3145 237.368H67.48C67.8342 237.368 68.1237 237.648 68.1439 238.001L68.1451 238.04C68.1451 238.398 67.8682 238.691 67.5191 238.711L67.48 238.712H62.9598C62.408 238.712 62.0962 238.072 62.4326 237.63L66.6451 232.139L62.4146 226.022C62.1396 225.624 62.3601 225.077 62.8218 224.979L62.8608 224.972L66.9864 224.345Z" fill="#164E63"/>
<path fill-rule="evenodd" clip-rule="evenodd" d="M62.0223 214.746C62.0223 214.746 59.9074 221.88 62.9512 225.637C64.4611 225.644 65.9677 225.494 67.4471 225.189C67.4471 225.189 64.073 217.521 67.3429 214.743L62.0223 214.746Z" fill="#164E63"/>
<path fill-rule="evenodd" clip-rule="evenodd" d="M67.3424 214.072L62.0219 214.074C61.7282 214.074 61.4693 214.269 61.3851 214.553L61.341 214.71L61.2931 214.892L61.2654 215.002C61.1786 215.351 61.092 215.743 61.0112 216.171C60.6821 217.916 60.545 219.702 60.7117 221.385C60.8961 223.246 61.4441 224.838 62.4364 226.063C62.5621 226.218 62.7496 226.308 62.9479 226.309C64.5035 226.316 66.0557 226.162 67.5799 225.847C67.9833 225.764 68.2127 225.336 68.0696 224.953L68.0497 224.905L67.9948 224.774L67.9319 224.62C67.9209 224.592 67.9098 224.564 67.8984 224.536L67.828 224.354C67.654 223.9 67.4798 223.397 67.3172 222.862C66.9558 221.672 66.7057 220.5 66.6164 219.416C66.4615 217.534 66.8064 216.121 67.7165 215.305L67.7707 215.258C68.2458 214.854 67.9632 214.071 67.3424 214.072ZM65.9478 215.416L65.9077 215.49C65.3406 216.564 65.1598 217.935 65.2908 219.527C65.389 220.719 65.6583 221.982 66.0456 223.257L66.1035 223.444C66.2396 223.879 66.3822 224.292 66.5262 224.677L66.2972 224.714C65.3617 224.86 64.4175 224.942 63.4708 224.961L63.2776 224.964L63.2601 224.94C62.5796 223.976 62.1814 222.727 62.0353 221.251C61.8831 219.714 62.0108 218.051 62.3179 216.423L62.3465 216.274C62.3946 216.028 62.4445 215.797 62.4948 215.581L62.5338 215.417L65.9478 215.416Z" fill="#164E63"/>
<ellipse cx="1.68746" cy="1.9168" rx="1.68746" ry="1.9168" transform="matrix(0.92144 -0.38852 0.381701 0.924286 61.7319 209.548)" fill="#164E63"/>
<path fill-rule="evenodd" clip-rule="evenodd" d="M63.036 208.277C61.818 208.792 61.3088 210.281 61.8452 211.584C62.3816 212.886 63.7836 213.566 65.0016 213.051C66.2196 212.536 66.7289 211.048 66.1924 209.745C65.656 208.442 64.254 207.762 63.036 208.277ZM63.5456 209.515C64.0491 209.302 64.6945 209.615 64.9622 210.265C65.23 210.916 64.9955 211.601 64.492 211.814C63.9885 212.027 63.3431 211.714 63.0754 211.063C62.8077 210.413 63.0421 209.728 63.5456 209.515Z" fill="#164E63"/>
<path fill-rule="evenodd" clip-rule="evenodd" d="M71.6725 204.851L71.7115 204.853C72.0777 204.883 72.3509 205.207 72.3219 205.577L72.2951 205.908L72.2671 206.233L72.2381 206.553L72.2079 206.866L72.1766 207.173L72.1443 207.475L72.1108 207.77L72.0762 208.06L72.0405 208.344L72.0038 208.622L71.9659 208.894L71.927 209.16L71.887 209.421L71.8459 209.676L71.8038 209.925L71.7606 210.169C71.7533 210.209 71.746 210.249 71.7386 210.288L71.6938 210.524L71.6479 210.753C71.6402 210.791 71.6324 210.828 71.6246 210.866L71.5772 211.087L71.5287 211.303L71.4791 211.513L71.4286 211.718C71.4201 211.751 71.4115 211.785 71.4029 211.818L71.3508 212.015L71.2976 212.206L71.2434 212.392L71.1882 212.573C71.1697 212.632 71.1509 212.69 71.132 212.748L71.0748 212.918C71.0459 213.002 71.0166 213.083 70.987 213.163L70.9272 213.32C70.8469 213.526 70.7638 213.718 70.6782 213.897L70.6134 214.028C70.5373 214.179 70.4592 214.319 70.3791 214.449L70.31 214.558C70.2868 214.594 70.2634 214.628 70.2399 214.662C69.3752 215.908 68.2883 216.063 67.3672 215.49C67.1864 215.378 67.0522 215.263 66.9659 215.172C66.7122 214.903 66.7218 214.478 66.9874 214.222C67.2424 213.976 67.6405 213.975 67.8965 214.212L67.9331 214.248L67.9479 214.261C67.9808 214.289 68.0201 214.318 68.0638 214.345C68.4151 214.564 68.7131 214.521 69.1507 213.891L69.209 213.804C69.2186 213.789 69.2283 213.774 69.2379 213.758L69.2953 213.664C69.3238 213.616 69.3521 213.565 69.3802 213.513L69.4361 213.406C69.4454 213.387 69.4546 213.369 69.4638 213.35L69.5188 213.235C69.5279 213.216 69.537 213.196 69.5461 213.176L69.6001 213.053L69.6535 212.925C69.6624 212.904 69.6712 212.882 69.68 212.859L69.7324 212.724L69.7841 212.583L69.8352 212.436L69.8855 212.285L69.9352 212.128L69.9841 211.965L70.0323 211.798L70.0798 211.625L70.1266 211.446C70.1343 211.416 70.142 211.385 70.1497 211.355L70.1953 211.168C70.2028 211.136 70.2103 211.104 70.2178 211.072L70.2622 210.877L70.3058 210.677L70.3487 210.471C70.3557 210.436 70.3628 210.401 70.3698 210.366L70.4114 210.151C70.4183 210.115 70.4251 210.079 70.4319 210.042L70.4723 209.819L70.5118 209.591L70.5505 209.356L70.5883 209.117L70.6252 208.871L70.6613 208.62L70.6964 208.363L70.7306 208.1C70.7362 208.056 70.7418 208.011 70.7474 207.966L70.7802 207.695L70.8121 207.417L70.8431 207.134L70.8731 206.845L70.9021 206.55L70.9438 206.096L70.9704 205.786L70.9959 205.47C71.0239 205.113 71.3228 204.844 71.6725 204.851Z" fill="#164E63"/>
<rect width="49.8599" height="7.57695" transform="matrix(0.94704 -0.321115 0.31517 0.949035 64.0137 216.677)" fill="#0E7490"/>
<path fill-rule="evenodd" clip-rule="evenodd" d="M61.8209 214.141C62.1657 214.059 62.511 214.264 62.6106 214.603L62.6619 214.801L62.7032 214.95C62.7768 215.209 62.8683 215.498 62.9786 215.81C63.294 216.701 63.6954 217.593 64.1879 218.42C65.2136 220.143 66.4878 221.346 68.0196 221.83C69.9361 222.435 72.2406 221.909 75.0057 219.964C75.3072 219.752 75.7217 219.828 75.9315 220.132C76.1412 220.437 76.0669 220.856 75.7654 221.068C72.6865 223.233 69.9685 223.853 67.623 223.113C65.7345 222.517 64.2268 221.093 63.048 219.113C62.5062 218.203 62.0692 217.232 61.7261 216.262C61.621 215.965 61.5313 215.686 61.4562 215.43L61.4091 215.266L61.3579 215.077L61.3259 214.949C61.2418 214.588 61.4634 214.226 61.8209 214.141Z" fill="#164E63"/>
<path fill-rule="evenodd" clip-rule="evenodd" d="M369.322 238.631C369.689 238.631 369.987 238.932 369.987 239.303C369.987 239.661 369.71 239.954 369.361 239.974L369.322 239.975H0.665069C0.297761 239.975 0 239.675 0 239.303C0 238.945 0.276873 238.653 0.625991 238.632L0.665069 238.631H369.322Z" fill="#164E63"/>
</svg>
