<svg width="370" height="320" viewBox="0 0 370 320" fill="none" xmlns="http://www.w3.org/2000/svg">
<rect width="370" height="320" fill="white"/>
<path fill-rule="evenodd" clip-rule="evenodd" d="M234.489 191.873H57.5433C54.9931 191.873 52.9224 189.933 52.9224 187.513V98.6045H239.132V187.513C239.11 189.933 237.04 191.873 234.489 191.873Z" fill="#F1F5F9"/>
<path fill-rule="evenodd" clip-rule="evenodd" d="M239.132 97.9504H52.9225C52.5613 97.9504 52.2686 98.2432 52.2686 98.6043V187.513C52.2686 190.298 54.6356 192.527 57.5434 192.527H234.489C237.392 192.527 239.761 190.304 239.786 187.519L239.786 98.6043C239.786 98.2432 239.493 97.9504 239.132 97.9504ZM53.5765 99.2581H238.478V187.513C238.46 189.558 236.69 191.219 234.49 191.219H57.5435L57.4694 191.218C55.3015 191.181 53.5765 189.535 53.5765 187.513V99.2581Z" fill="#164E63"/>
<path fill-rule="evenodd" clip-rule="evenodd" d="M52.3557 100.108L52.1377 78.8565C52.1377 76.1973 54.2302 74.0612 56.8022 74.0612L235.143 73.8433C237.715 73.8433 239.808 76.0011 239.808 78.6385V100.108H52.3557Z" fill="#06D0B6"/>
<path fill-rule="evenodd" clip-rule="evenodd" d="M132.176 77.3308C134.034 77.3308 135.776 78.2086 136.905 79.7053L136.92 79.727L136.935 79.7493L142.606 88.7087H239.808C240.156 88.7087 240.441 88.9809 240.461 89.3242L240.462 89.3626C240.462 89.7109 240.19 89.9955 239.847 90.0154L239.808 90.0165H142.246C142.037 90.0165 141.841 89.9165 141.718 89.7492L141.693 89.7123L135.846 80.4748L135.805 80.4202C134.94 79.3178 133.647 78.6667 132.266 78.6395L132.176 78.6386H94.0532C92.638 78.6386 91.3078 79.2939 90.4243 80.4202L90.3822 80.4748L84.5356 89.7123C84.4243 89.8882 84.2365 89.9998 84.0306 90.0148L83.9862 90.0165L52.2283 90.1691C51.8672 90.1708 51.573 89.8795 51.5713 89.5183C51.5696 89.1701 51.8405 88.8841 52.1836 88.8626L52.2221 88.8613L83.6219 88.7105L89.2939 79.7493C89.2986 79.7417 89.3036 79.7343 89.3086 79.727L89.3243 79.7053C90.4328 78.2353 92.1333 77.3624 93.9538 77.3316L94.0532 77.3308H132.176Z" fill="#F1F5F9"/>
<path fill-rule="evenodd" clip-rule="evenodd" d="M148.48 77.3962C150.032 77.3962 151.319 78.5838 151.356 80.0766L151.357 80.1426V88.469C151.357 88.8301 151.064 89.1229 150.703 89.1229C150.355 89.1229 150.07 88.8507 150.05 88.5074L150.049 88.469V80.1426C150.049 79.3765 149.379 78.7314 148.534 78.7049L148.48 78.704H132.088C131.727 78.704 131.435 78.4113 131.435 78.0501C131.435 77.7019 131.707 77.4172 132.05 77.3974L132.088 77.3962H148.48Z" fill="#F1F5F9"/>
<path fill-rule="evenodd" clip-rule="evenodd" d="M59.919 84.5673C61.484 84.5673 62.7526 83.2987 62.7526 81.7337C62.7526 80.1688 61.484 78.9001 59.919 78.9001C58.3541 78.9001 57.0854 80.1688 57.0854 81.7337C57.0854 83.2987 58.3541 84.5673 59.919 84.5673Z" fill="#F1F5F9"/>
<path fill-rule="evenodd" clip-rule="evenodd" d="M69.2481 84.5673C70.8131 84.5673 72.0817 83.2987 72.0817 81.7337C72.0817 80.1688 70.8131 78.9001 69.2481 78.9001C67.6832 78.9001 66.4146 80.1688 66.4146 81.7337C66.4146 83.2987 67.6832 84.5673 69.2481 84.5673Z" fill="#F1F5F9"/>
<path fill-rule="evenodd" clip-rule="evenodd" d="M78.5992 84.5673C80.1641 84.5673 81.4328 83.2987 81.4328 81.7337C81.4328 80.1688 80.1641 78.9001 78.5992 78.9001C77.0343 78.9001 75.7656 80.1688 75.7656 81.7337C75.7656 83.2987 77.0343 84.5673 78.5992 84.5673Z" fill="#F1F5F9"/>
<path fill-rule="evenodd" clip-rule="evenodd" d="M128.61 82.6985C128.838 82.437 129.229 82.4012 129.5 82.6102L129.532 82.6364L132.126 84.9033C132.398 85.1409 132.426 85.554 132.188 85.8259C131.96 86.0874 131.569 86.1231 131.298 85.9142L131.266 85.888L128.672 83.6211C128.4 83.3835 128.372 82.9704 128.61 82.6985Z" fill="#F1F5F9"/>
<path fill-rule="evenodd" clip-rule="evenodd" d="M131.299 82.6485C131.576 82.4171 131.989 82.4542 132.22 82.7315C132.443 82.9981 132.417 83.3896 132.168 83.625L132.137 83.6525L129.5 85.854C129.222 86.0854 128.81 86.0482 128.579 85.771C128.356 85.5044 128.382 85.1129 128.631 84.8775L128.662 84.85L131.299 82.6485Z" fill="#F1F5F9"/>
<path fill-rule="evenodd" clip-rule="evenodd" d="M144.321 82.0606C144.669 82.063 144.952 82.3372 144.969 82.6806L144.97 82.7191L144.948 85.8142C144.946 86.1753 144.651 86.466 144.29 86.4635C143.942 86.461 143.659 86.1868 143.641 85.8434L143.641 85.805L143.662 82.7098C143.665 82.3487 143.96 82.058 144.321 82.0606Z" fill="#F1F5F9"/>
<path fill-rule="evenodd" clip-rule="evenodd" d="M145.864 83.6082C146.225 83.6082 146.518 83.9009 146.518 84.2621C146.518 84.6103 146.246 84.895 145.903 84.9148L145.864 84.916H142.747C142.386 84.916 142.093 84.6232 142.093 84.2621C142.093 83.9138 142.365 83.6292 142.709 83.6093L142.747 83.6082H145.864Z" fill="#F1F5F9"/>
<path fill-rule="evenodd" clip-rule="evenodd" d="M232.266 92.218C232.627 92.218 232.92 92.5108 232.92 92.8719C232.92 93.2202 232.648 93.5048 232.305 93.5247L232.266 93.5258H228.713C228.352 93.5258 228.06 93.2331 228.06 92.8719C228.06 92.5237 228.332 92.239 228.675 92.2191L228.713 92.218H232.266Z" fill="#F1F5F9"/>
<path fill-rule="evenodd" clip-rule="evenodd" d="M232.266 94.1797C232.627 94.1797 232.92 94.4724 232.92 94.8336C232.92 95.1818 232.648 95.4665 232.305 95.4864L232.266 95.4875H228.713C228.352 95.4875 228.06 95.1947 228.06 94.8336C228.06 94.4853 228.332 94.2007 228.675 94.1808L228.713 94.1797H232.266Z" fill="#F1F5F9"/>
<path fill-rule="evenodd" clip-rule="evenodd" d="M232.266 96.1631C232.627 96.1631 232.92 96.4558 232.92 96.817C232.92 97.1652 232.648 97.4499 232.305 97.4698L232.266 97.4709H228.713C228.352 97.4709 228.06 97.1781 228.06 96.817C228.06 96.4687 228.332 96.1841 228.675 96.1642L228.713 96.1631H232.266Z" fill="#F1F5F9"/>
<path fill-rule="evenodd" clip-rule="evenodd" d="M222.479 93.7001C222.392 93.4167 222.153 93.2206 221.847 93.2206H220.409L219.973 91.8474C219.886 91.5858 219.624 91.3896 219.341 91.3896C219.057 91.3896 218.796 91.564 218.709 91.8474L218.273 93.2206H216.834C216.551 93.2206 216.289 93.395 216.202 93.6783C216.115 93.9399 216.202 94.245 216.442 94.4194L217.597 95.2695L217.161 96.6427C217.074 96.9042 217.161 97.2094 217.401 97.3838C217.51 97.4709 217.641 97.5145 217.793 97.5145C217.946 97.5145 218.055 97.4709 218.185 97.3838L219.384 96.5119L220.561 97.1876C220.801 97.3184 221.084 97.2966 221.302 97.1222C221.52 96.9478 221.586 96.6645 221.52 96.4029L221.084 95.0951L222.174 94.463C222.436 94.2886 222.545 93.9835 222.479 93.7001Z" fill="#F1F5F9"/>
<path fill-rule="evenodd" clip-rule="evenodd" d="M210.077 97.3182H84.9419C84.3316 97.3182 83.8521 96.8387 83.8521 96.2284V94.3103C83.8521 93.7 84.3316 93.2205 84.9419 93.2205H210.077C210.687 93.2205 211.167 93.7 211.167 94.3103V96.2284C211.167 96.8387 210.687 97.3182 210.077 97.3182Z" fill="#F1F5F9"/>
<path fill-rule="evenodd" clip-rule="evenodd" d="M62.9868 92.5644C63.2529 92.3203 63.6665 92.3381 63.9107 92.6042C64.1454 92.86 64.138 93.2523 63.9005 93.4992L63.8709 93.5281L62.2838 94.984L63.9343 96.486C64.1912 96.7197 64.2191 97.1111 64.0047 97.3783L63.9779 97.4098C63.7441 97.6666 63.3528 97.6945 63.0856 97.4802L63.0541 97.4533L60.8744 95.4698C60.6007 95.2207 60.5897 94.797 60.8422 94.534L60.8725 94.5043L62.9868 92.5644Z" fill="#F1F5F9"/>
<path fill-rule="evenodd" clip-rule="evenodd" d="M66.633 94.3757C66.9941 94.3757 67.2869 94.6685 67.2869 95.0296C67.2869 95.3779 67.0146 95.6625 66.6714 95.6824L66.633 95.6835H61.3145C60.9534 95.6835 60.6606 95.3908 60.6606 95.0296C60.6606 94.6814 60.9329 94.3967 61.2761 94.3768L61.3145 94.3757H66.633Z" fill="#F1F5F9"/>
<path fill-rule="evenodd" clip-rule="evenodd" d="M73.4115 92.6017C73.6475 92.347 74.0391 92.3228 74.3044 92.5395L74.3356 92.5667L76.4281 94.5066C76.6985 94.7574 76.7066 95.1793 76.4539 95.4404L76.4236 95.4698L74.2439 97.4533C73.9768 97.6963 73.5632 97.6769 73.3202 97.4098C73.0865 97.1529 73.0955 96.7607 73.334 96.5148L73.3637 96.486L75.0166 94.9816L73.4464 93.5258C73.1918 93.2897 73.1675 92.8981 73.3843 92.6329L73.4115 92.6017Z" fill="#F1F5F9"/>
<path fill-rule="evenodd" clip-rule="evenodd" d="M75.9837 94.3757C76.3449 94.3757 76.6376 94.6685 76.6376 95.0296C76.6376 95.3779 76.3654 95.6625 76.0221 95.6824L75.9837 95.6835H70.6871C70.326 95.6835 70.0332 95.3908 70.0332 95.0296C70.0332 94.6814 70.3054 94.3967 70.6487 94.3768L70.6871 94.3757H75.9837Z" fill="#F1F5F9"/>
<path fill-rule="evenodd" clip-rule="evenodd" d="M226.677 82.2391C226.747 81.8848 227.091 81.6542 227.445 81.7242C227.787 81.7916 228.013 82.1138 227.966 82.4544L227.96 82.4923L227.77 83.4516L228.808 83.5686C229.154 83.6075 229.407 83.9099 229.388 84.2532L229.385 84.2915C229.346 84.6376 229.044 84.89 228.7 84.8714L228.662 84.8682L226.918 84.6721C226.551 84.6308 226.294 84.2952 226.343 83.9344L226.35 83.8956L226.677 82.2391Z" fill="#F1F5F9"/>
<path fill-rule="evenodd" clip-rule="evenodd" d="M229.157 81.6623C229.449 81.45 229.858 81.5148 230.071 81.807C230.275 82.0879 230.223 82.4768 229.959 82.695L229.926 82.7203L227.376 84.5731C227.084 84.7853 226.675 84.7205 226.462 84.4284C226.258 84.1474 226.31 83.7585 226.574 83.5403L226.607 83.515L229.157 81.6623Z" fill="#F1F5F9"/>
<path fill-rule="evenodd" clip-rule="evenodd" d="M231.464 78.8678C231.505 78.522 231.808 78.2708 232.152 78.2909L232.19 78.2943L233.868 78.4904C234.235 78.5333 234.491 78.8703 234.44 79.231L234.433 79.2697L234.084 80.9917C234.013 81.3456 233.668 81.5745 233.314 81.5028C232.972 81.4336 232.747 81.1103 232.796 80.77L232.803 80.7321L233.01 79.7066L232.038 79.5932C231.692 79.5528 231.441 79.2494 231.461 78.9061L231.464 78.8678Z" fill="#F1F5F9"/>
<path fill-rule="evenodd" clip-rule="evenodd" d="M233.427 78.6349C233.718 78.421 234.127 78.4835 234.341 78.7745C234.547 79.0543 234.497 79.4434 234.234 79.6631L234.201 79.6886L231.651 81.5632C231.36 81.777 230.951 81.7145 230.737 81.4236C230.531 81.1438 230.581 80.7546 230.844 80.5349L230.877 80.5094L233.427 78.6349Z" fill="#F1F5F9"/>
<path fill-rule="evenodd" clip-rule="evenodd" d="M112.101 159.962H78.2287C76.8991 159.962 75.8311 158.894 75.8311 157.565V138.863C75.8311 137.533 76.8991 136.465 78.2287 136.465H112.101C113.43 136.465 114.499 137.533 114.499 138.863V157.565C114.499 158.894 113.43 159.962 112.101 159.962Z" fill="#008473"/>
<path fill-rule="evenodd" clip-rule="evenodd" d="M205.849 129.861H77.4874C76.8117 129.861 76.2886 129.316 76.2886 128.662V119.573C76.2886 118.897 76.8335 118.374 77.4874 118.374H205.849C206.524 118.374 207.047 118.919 207.047 119.573V128.662C207.047 129.316 206.502 129.861 205.849 129.861Z" fill="#F1F5F9"/>
<path fill-rule="evenodd" clip-rule="evenodd" d="M205.849 117.72H77.4875C76.4667 117.72 75.6348 118.542 75.6348 119.573V128.662C75.6348 129.683 76.4563 130.515 77.4875 130.515H205.849C206.864 130.515 207.701 129.677 207.701 128.662V119.573C207.701 118.552 206.88 117.72 205.849 117.72ZM77.4875 119.028H205.849C206.154 119.028 206.394 119.271 206.394 119.573V128.662C206.394 128.955 206.141 129.207 205.849 129.207H77.4875C77.1823 129.207 76.9426 128.964 76.9426 128.662V119.573C76.9426 119.268 77.1853 119.028 77.4875 119.028Z" fill="#0E7490"/>
<rect x="173.677" y="118.178" width="33.2401" height="11.6613" fill="#0E7490"/>
<path fill-rule="evenodd" clip-rule="evenodd" d="M194.427 129.316C194.318 129.316 194.231 129.272 194.166 129.229L191.158 126.613C190.787 126.809 190.417 126.962 190.002 127.027C189.741 127.071 189.458 127.115 189.196 127.115C187.278 127.115 185.621 125.763 185.251 123.889C185.033 122.842 185.251 121.753 185.839 120.859C186.428 119.965 187.343 119.355 188.411 119.137C188.673 119.093 188.956 119.05 189.218 119.05C191.136 119.05 192.792 120.401 193.163 122.276C193.403 123.475 193.098 124.717 192.313 125.654L195.146 128.117C195.255 128.226 195.299 128.379 195.255 128.553C195.234 128.684 195.146 128.837 195.038 128.946L194.95 129.055C194.82 129.207 194.602 129.316 194.427 129.316ZM189.196 120.597C189.021 120.597 188.869 120.619 188.695 120.641C188.041 120.772 187.496 121.142 187.125 121.709C186.755 122.254 186.624 122.93 186.755 123.562C186.994 124.717 187.997 125.545 189.174 125.545C189.348 125.545 189.501 125.523 189.675 125.502C190.329 125.371 190.874 125 191.245 124.434C191.615 123.889 191.746 123.213 191.615 122.581C191.397 121.426 190.373 120.597 189.196 120.597Z" fill="#F1F5F9"/>
<path fill-rule="evenodd" clip-rule="evenodd" d="M117.376 126.591H81.4111C80.9534 126.591 80.561 126.221 80.561 125.741V122.341C80.561 121.883 80.9316 121.491 81.4111 121.491H117.376C117.833 121.491 118.226 121.862 118.226 122.341V125.741C118.226 126.199 117.833 126.591 117.376 126.591Z" fill="#06D0B6"/>
<path fill-rule="evenodd" clip-rule="evenodd" d="M113.169 166.61H76.5718C76.114 166.61 75.7217 166.24 75.7217 165.76V164.67C75.7217 164.213 76.0922 163.82 76.5718 163.82H113.169C113.626 163.82 114.019 164.191 114.019 164.67V165.76C113.997 166.24 113.626 166.61 113.169 166.61Z" fill="#008473"/>
<path fill-rule="evenodd" clip-rule="evenodd" d="M158.833 159.962H124.961C123.631 159.962 122.563 158.894 122.563 157.565V138.863C122.563 137.533 123.631 136.465 124.961 136.465H158.833C160.162 136.465 161.23 137.533 161.23 138.863V157.565C161.23 158.894 160.162 159.962 158.833 159.962Z" fill="#06D0B6"/>
<path fill-rule="evenodd" clip-rule="evenodd" d="M159.879 166.61H123.304C122.846 166.61 122.454 166.24 122.454 165.76V164.67C122.454 164.213 122.825 163.82 123.304 163.82H159.879C160.337 163.82 160.729 164.191 160.729 164.67V165.76C160.729 166.24 160.359 166.61 159.879 166.61Z" fill="#06D0B6"/>
<path fill-rule="evenodd" clip-rule="evenodd" d="M205.565 159.962H171.671C170.341 159.962 169.273 158.894 169.273 157.565V138.863C169.273 137.533 170.341 136.465 171.671 136.465H205.543C206.873 136.465 207.941 137.533 207.941 138.863V157.565C207.963 158.894 206.873 159.962 205.565 159.962Z" fill="#008473"/>
<path fill-rule="evenodd" clip-rule="evenodd" d="M206.612 166.61H170.037C169.579 166.61 169.187 166.24 169.187 165.76V164.67C169.187 164.213 169.557 163.82 170.037 163.82H206.612C207.069 163.82 207.462 164.191 207.462 164.67V165.76C207.462 166.24 207.069 166.61 206.612 166.61Z" fill="#008473"/>
<path fill-rule="evenodd" clip-rule="evenodd" d="M114.499 177.727V191.241H75.8311V177.727C75.8311 176.397 76.8991 175.329 78.2287 175.329H112.101C113.43 175.329 114.499 176.397 114.499 177.727Z" fill="#008473"/>
<path fill-rule="evenodd" clip-rule="evenodd" d="M161.23 177.727V191.241H122.563V177.727C122.563 176.397 123.631 175.329 124.961 175.329H158.833C160.162 175.329 161.23 176.397 161.23 177.727Z" fill="#008473"/>
<path fill-rule="evenodd" clip-rule="evenodd" d="M207.963 177.727V191.241H169.273V177.727C169.273 176.397 170.341 175.329 171.671 175.329H205.543C206.873 175.329 207.963 176.397 207.963 177.727Z" fill="#008473"/>
<path fill-rule="evenodd" clip-rule="evenodd" d="M255.284 157.586C254.848 156.344 252.603 155.952 243.012 158.654C229.651 162.425 220.627 164.016 221.586 166.087C226.098 168.376 254.63 161.314 255.284 157.586Z" fill="#164E63"/>
<path fill-rule="evenodd" clip-rule="evenodd" d="M247.611 146.623L226.12 155.232C226.12 155.232 227.079 160.703 228.06 166.327C234.729 165.608 244.56 163.166 250.401 160.79C249.072 154.099 247.611 146.623 247.611 146.623Z" fill="#F1F5F9"/>
<path fill-rule="evenodd" clip-rule="evenodd" d="M247.368 146.016L225.877 154.625C225.602 154.735 225.437 155.015 225.47 155.306L225.519 155.591L227.416 166.439C227.475 166.779 227.787 167.014 228.13 166.977C234.846 166.253 244.738 163.8 250.648 161.396C250.938 161.278 251.104 160.971 251.043 160.663L250.258 156.701C249.883 154.802 249.496 152.835 249.108 150.862L248.253 146.497C248.175 146.095 247.749 145.863 247.368 146.016ZM226.855 155.642L247.121 147.523L247.93 151.652C248.318 153.623 248.704 155.584 249.077 157.47L249.654 160.385L249.582 160.413C243.995 162.594 235.208 164.782 228.868 165.574L228.598 165.607L226.855 155.642Z" fill="#164E63"/>
<path fill-rule="evenodd" clip-rule="evenodd" d="M310.931 227.031C309.928 212.58 293.908 191.676 288.001 183.677C280.982 174.174 269.975 167.809 256.788 166.676C256.047 161.575 255.284 157.39 255.284 157.39C255.589 161.052 226.163 168.398 221.564 166.087L222.065 169.64C219.646 170.25 216.987 171.057 213.892 172.147C198.765 177.487 169.426 215.064 169.426 215.064C169.426 215.064 163.367 198.15 139.368 207.13C123.108 214.323 134.857 239.433 134.857 239.433L299.684 239.084C306.223 239.084 311.389 233.548 310.931 227.031Z" fill="#0E7490"/>
<path fill-rule="evenodd" clip-rule="evenodd" d="M270.641 211.454C273.906 211.072 277.377 211.06 280.646 211.665C284.537 212.386 287.694 213.922 289.83 216.452C290.063 216.728 290.028 217.14 289.752 217.373C289.476 217.606 289.064 217.571 288.831 217.295C286.916 215.027 284.027 213.622 280.407 212.951C277.286 212.373 273.939 212.385 270.794 212.753L270.485 212.79C270.184 212.828 269.904 212.867 269.649 212.907L269.376 212.951L269.116 212.996C269.098 212.999 269.084 213.002 269.075 213.003C269.052 213.008 269.028 213.011 269.004 213.013C266.044 213.255 258.809 214.886 248.665 217.5L247.599 217.775C247.241 217.868 246.881 217.961 246.518 218.056L245.971 218.199C241.905 219.261 237.692 220.395 233.544 221.534L230.984 222.239C230.207 222.454 229.468 222.66 228.771 222.854L226.712 223.431C226.364 223.53 226.003 223.328 225.905 222.98C225.81 222.645 225.994 222.297 226.319 222.185L226.463 222.143L228.419 221.594C229.582 221.27 230.863 220.915 232.241 220.535C236.382 219.395 240.606 218.255 244.699 217.18L245.641 216.933C246.19 216.79 246.733 216.648 247.271 216.509L248.949 216.076C258.66 213.584 265.603 212.02 268.708 211.727L268.863 211.713L268.957 211.696C269.06 211.677 269.181 211.657 269.317 211.635C269.706 211.573 270.15 211.511 270.641 211.454Z" fill="#F1F5F9"/>
<path fill-rule="evenodd" clip-rule="evenodd" d="M260.162 198.065C260.462 197.89 260.845 197.98 261.036 198.265L261.057 198.299L268.948 211.769C269.13 212.081 269.025 212.482 268.714 212.664C268.414 212.84 268.031 212.749 267.84 212.464L267.819 212.43L259.929 198.96C259.746 198.648 259.851 198.248 260.162 198.065Z" fill="#F1F5F9"/>
<path fill-rule="evenodd" clip-rule="evenodd" d="M169.315 214.442C169.671 214.38 170.009 214.619 170.071 214.975L170.086 215.073C170.105 215.198 170.128 215.375 170.15 215.599L170.157 215.668C170.28 216.95 170.281 218.462 170.078 220.115C169.794 222.43 169.143 224.7 168.042 226.832C165.748 231.275 161.728 234.7 155.681 236.697C155.338 236.811 154.969 236.624 154.855 236.281C154.742 235.939 154.928 235.569 155.271 235.456C160.994 233.566 164.743 230.371 166.88 226.232C167.905 224.247 168.514 222.125 168.78 219.956C168.97 218.404 168.97 216.986 168.855 215.793L168.838 215.628C168.83 215.549 168.821 215.475 168.812 215.408L168.792 215.26C168.787 215.231 168.784 215.21 168.782 215.198C168.72 214.842 168.959 214.503 169.315 214.442Z" fill="#F1F5F9"/>
<path fill-rule="evenodd" clip-rule="evenodd" d="M170.361 214.465C170.488 214.127 170.864 213.955 171.203 214.081L171.371 214.147L171.51 214.202C171.583 214.232 171.66 214.263 171.743 214.298L171.827 214.333C172.314 214.538 172.856 214.781 173.439 215.063C175.104 215.867 176.77 216.817 178.328 217.909C183.521 221.552 186.342 225.888 185.414 230.878C185.348 231.233 185.007 231.467 184.652 231.401C184.297 231.335 184.062 230.994 184.128 230.639C184.94 226.271 182.396 222.36 177.577 218.98C176.082 217.931 174.476 217.016 172.87 216.24C172.365 215.996 171.892 215.782 171.462 215.599L171.164 215.473C171.114 215.453 171.066 215.433 171.02 215.415L170.745 215.306C170.407 215.18 170.235 214.803 170.361 214.465Z" fill="#F1F5F9"/>
<path fill-rule="evenodd" clip-rule="evenodd" d="M208.102 199.589C208.21 199.245 208.577 199.053 208.921 199.161C209.266 199.269 209.458 199.636 209.35 199.98L209.279 200.214C209.164 200.608 208.999 201.213 208.828 201.901C208.52 203.134 208.22 204.497 207.948 205.949C207.203 209.927 206.781 213.952 206.824 217.79C206.878 222.62 207.669 226.839 209.325 230.226C211.249 234.159 214.29 236.868 218.615 238.175C218.96 238.28 219.156 238.645 219.051 238.99C218.947 239.336 218.582 239.532 218.236 239.427C213.552 238.011 210.229 235.051 208.151 230.801C206.398 227.217 205.572 222.814 205.516 217.805C205.472 213.872 205.903 209.765 206.662 205.709L206.743 205.285C207.213 202.85 207.754 200.699 208.102 199.589Z" fill="#F1F5F9"/>
<path fill-rule="evenodd" clip-rule="evenodd" d="M257.178 168.878C257.49 168.697 257.891 168.803 258.072 169.115C258.128 169.211 258.196 169.361 258.26 169.563C258.545 170.46 258.489 171.541 257.883 172.712C257.07 174.28 255.359 175.797 252.573 177.219C252.251 177.383 251.857 177.256 251.693 176.934C251.529 176.612 251.657 176.219 251.978 176.054C254.539 174.747 256.048 173.409 256.722 172.11C257.161 171.263 257.198 170.539 257.014 169.959C256.998 169.91 256.983 169.868 256.967 169.831L256.942 169.772C256.76 169.46 256.866 169.06 257.178 168.878Z" fill="#F1F5F9"/>
<path fill-rule="evenodd" clip-rule="evenodd" d="M255.099 168.189C255.166 167.834 255.508 167.601 255.863 167.668C256.218 167.735 256.451 168.077 256.384 168.432C256.363 168.541 256.316 168.714 256.23 168.942C256.096 169.302 255.903 169.698 255.641 170.119C254.91 171.295 253.784 172.46 252.186 173.536C249.28 175.491 245.122 176.948 239.505 177.721C239.147 177.77 238.817 177.52 238.768 177.162C238.719 176.804 238.969 176.474 239.327 176.425C244.757 175.678 248.727 174.287 251.455 172.451C252.901 171.478 253.897 170.448 254.53 169.429C254.746 169.082 254.901 168.764 255.006 168.484L255.034 168.404C255.073 168.293 255.093 168.22 255.099 168.189Z" fill="#F1F5F9"/>
<path fill-rule="evenodd" clip-rule="evenodd" d="M220.431 229.734C220.431 229.734 215.853 231.042 212.867 232.916C209.881 234.791 205.827 237.472 206.023 238.126C206.197 238.801 209.445 239.564 211.407 238.583C215.832 234.42 221.739 233.505 221.739 233.505C221.106 233.374 216.159 235.466 213.979 236.774C209.881 239.259 209.881 239.324 216.115 239.346L235.558 239.085C236.037 228.426 226.556 222.802 226.556 222.802C226.556 222.802 217.532 222.541 211.363 226.224C207.701 228.426 202.383 232.262 202.1 233.614C201.86 234.769 202.95 234.878 204.301 234.616C204.301 234.616 201.293 237.493 206.219 237.297" fill="#F1F5F9"/>
<path fill-rule="evenodd" clip-rule="evenodd" d="M226.363 223.453L226.153 223.452C225.891 223.452 225.577 223.457 225.218 223.468C224.487 223.49 223.698 223.537 222.868 223.613C220.621 223.819 218.398 224.207 216.327 224.821C214.598 225.332 213.042 225.984 211.7 226.785L211.448 226.937C207.326 229.445 202.929 232.846 202.74 233.746L202.72 233.845C202.696 233.982 202.716 233.994 202.813 234.027C203.063 234.111 203.542 234.097 204.177 233.974C204.805 233.852 205.209 234.609 204.778 235.063L204.702 235.14C204.685 235.158 204.665 235.18 204.642 235.205C204.55 235.305 204.459 235.415 204.374 235.53C204.214 235.75 204.104 235.957 204.062 236.121C204.025 236.27 204.039 236.312 204.154 236.386C204.454 236.577 205.125 236.686 206.193 236.644C206.232 236.642 206.27 236.644 206.307 236.649L206.312 236.65L206.344 236.621C206.69 236.324 207.129 235.988 207.669 235.593L207.868 235.449C209.083 234.569 210.68 233.517 212.52 232.362C213.268 231.892 214.143 231.436 215.121 230.995C216.244 230.488 217.445 230.026 218.644 229.617L218.953 229.513C219.206 229.429 219.446 229.351 219.671 229.281L219.876 229.217L220.251 229.105C220.598 229.006 220.96 229.207 221.059 229.554C221.155 229.889 220.972 230.237 220.647 230.351L220.26 230.467L220.191 230.489C219.852 230.594 219.474 230.716 219.066 230.855C217.903 231.251 216.741 231.699 215.659 232.187C214.732 232.606 213.908 233.035 213.215 233.47L212.694 233.798C211.153 234.774 209.807 235.666 208.751 236.424L208.635 236.508C207.934 237.016 207.393 237.444 207.036 237.777C206.973 237.836 206.916 237.892 206.867 237.942L206.831 237.98L206.867 237.996L206.915 238.017C207.228 238.149 207.661 238.261 208.136 238.328C209.095 238.464 210.058 238.402 210.793 238.136L210.817 238.126L210.826 238.117C210.937 237.999 211.077 237.878 211.251 237.746L211.317 237.696C211.45 237.597 211.593 237.497 211.765 237.382L211.841 237.331L211.981 237.218C212.51 236.791 213.067 236.392 213.648 236.02L213.842 235.897C215.545 234.831 217.365 234.035 219.185 233.468C219.648 233.323 220.088 233.201 220.499 233.1L220.604 233.074L220.658 233.058C221.203 232.892 221.602 232.821 221.843 232.859L221.871 232.864C222.57 233.009 222.559 234 221.879 234.143L221.689 234.177L221.55 234.204C221.502 234.213 221.451 234.224 221.398 234.235L221.163 234.287L220.971 234.331L220.858 234.368L220.775 234.396C220.216 234.585 219.489 234.867 218.693 235.202L218.415 235.321C216.837 235.998 215.262 236.767 214.318 237.333L213.672 237.726C213.313 237.946 213.033 238.12 212.805 238.266L212.619 238.385L212.522 238.466L212.437 238.538L212.349 238.613L212.454 238.621L212.614 238.632C213.156 238.664 213.804 238.679 214.993 238.687L216.106 238.692L234.921 238.439L234.921 238.428C234.956 234.166 233.366 230.451 230.67 227.289L230.571 227.174C229.614 226.068 228.588 225.113 227.562 224.312C227.205 224.033 226.874 223.794 226.578 223.594L226.461 223.516L226.363 223.453ZM205.401 238.329L205.387 238.278C205.36 238.174 205.351 238.071 205.362 237.966L205.363 237.953C204.546 237.919 203.936 237.778 203.503 237.521L203.45 237.488C202.83 237.092 202.626 236.467 202.794 235.802C202.828 235.666 202.877 235.531 202.938 235.397L202.947 235.376L202.887 235.37C202.735 235.354 202.592 235.326 202.46 235.286L202.394 235.266C201.634 235.009 201.28 234.343 201.459 233.479C201.769 232.005 206.366 228.466 211.028 225.663C212.472 224.801 214.128 224.108 215.955 223.567C218.117 222.926 220.422 222.524 222.749 222.31L223.058 222.283C224.384 222.171 225.517 222.136 226.367 222.145L226.574 222.149C226.685 222.152 226.794 222.183 226.889 222.24L227.022 222.322C227.098 222.37 227.194 222.433 227.308 222.51C227.629 222.726 227.985 222.983 228.367 223.281C229.456 224.131 230.544 225.144 231.56 226.318C234.653 229.894 236.433 234.169 236.211 239.114C236.196 239.447 235.933 239.713 235.604 239.737L235.566 239.738L216.112 240L214.875 239.994C211.874 239.974 211.18 239.906 210.776 239.518L210.76 239.503L210.746 239.507C208.653 240.013 205.757 239.46 205.401 238.329Z" fill="#164E63"/>
<path fill-rule="evenodd" clip-rule="evenodd" d="M218.465 226.517C218.821 226.455 219.16 226.693 219.222 227.049C219.284 227.405 219.046 227.744 218.69 227.806C217.18 228.07 214.065 229.548 210.526 231.598L210.395 231.675C208.928 232.528 207.505 233.415 206.382 234.171L206.243 234.265C205.201 234.973 204.476 235.544 204.412 235.657C204.14 236.138 204.178 236.296 204.447 236.404C204.94 236.603 205.911 236.517 207.088 236.093C207.427 235.971 207.802 236.147 207.924 236.487C208.047 236.827 207.87 237.201 207.53 237.324C206.081 237.846 204.806 237.959 203.959 237.618C202.893 237.189 202.64 236.135 203.274 235.014C203.637 234.371 206.289 232.563 209.523 230.669L210.016 230.383C213.63 228.297 216.771 226.813 218.465 226.517Z" fill="#164E63"/>
<path fill-rule="evenodd" clip-rule="evenodd" d="M250.14 142.808C242.249 157.543 231.176 160.006 224.049 158.153C214.11 155.625 210.47 138.122 218.36 123.365C226.25 108.631 237.65 105.209 247.851 110.658C258.008 116.107 258.008 128.074 250.14 142.808Z" fill="#F1F5F9"/>
<path fill-rule="evenodd" clip-rule="evenodd" d="M217.784 123.057C213.952 130.222 212.616 138.406 213.875 145.46C215.121 152.443 218.78 157.488 223.888 158.787C227.979 159.85 232.654 159.417 237.091 157.291C242.316 154.787 246.983 150.089 250.716 143.117C258.933 127.73 258.405 115.812 248.463 110.248L248.159 110.081C237.039 104.141 225.47 108.704 217.784 123.057ZM247.542 111.234C256.985 116.3 257.567 127.513 249.563 142.5C245.956 149.236 241.488 153.733 236.526 156.111C232.369 158.103 228.01 158.507 224.213 157.52C219.671 156.365 216.326 151.755 215.162 145.23C213.956 138.468 215.243 130.582 218.937 123.674C226.228 110.057 236.889 105.745 247.23 111.07L247.542 111.234Z" fill="#164E63"/>
<path fill-rule="evenodd" clip-rule="evenodd" d="M246.434 134.547C246.434 134.547 255.785 133.85 253.409 141.326C251.033 148.802 244.015 145.293 244.015 145.293" fill="#F1F5F9"/>
<path fill-rule="evenodd" clip-rule="evenodd" d="M246.571 133.885C247.689 133.839 249.008 133.932 250.287 134.279C253.65 135.193 255.294 137.554 254.032 141.524C253.113 144.417 251.442 146.05 249.254 146.582C247.829 146.928 246.331 146.78 244.888 146.328L244.717 146.273C244.272 146.126 243.931 145.982 243.722 145.878C243.399 145.716 243.269 145.324 243.43 145.001C243.586 144.689 243.956 144.557 244.271 144.691L244.385 144.745C244.429 144.764 244.485 144.789 244.554 144.818C244.768 144.907 245.011 144.997 245.279 145.08C246.515 145.467 247.786 145.593 248.945 145.311C250.678 144.89 252.002 143.596 252.786 141.128C253.8 137.936 252.644 136.275 249.944 135.541C248.865 135.248 247.724 135.159 246.755 135.187L246.525 135.197C246.506 135.198 246.492 135.199 246.483 135.199C246.123 135.226 245.809 134.956 245.782 134.596C245.755 134.236 246.026 133.922 246.386 133.895L246.503 133.888C246.523 133.887 246.546 133.886 246.571 133.885Z" fill="#164E63"/>
<path fill-rule="evenodd" clip-rule="evenodd" d="M220.983 131.896C221.258 130.736 220.874 129.652 220.124 129.474C219.375 129.296 218.544 130.091 218.268 131.25C217.993 132.41 218.377 133.494 219.126 133.673C219.876 133.851 220.707 133.055 220.983 131.896Z" fill="#164E63"/>
<path fill-rule="evenodd" clip-rule="evenodd" d="M232.519 133.413C232.795 132.253 232.411 131.169 231.661 130.991C230.912 130.813 230.08 131.608 229.805 132.768C229.529 133.927 229.913 135.011 230.663 135.19C231.412 135.368 232.244 134.572 232.519 133.413Z" fill="#164E63"/>
<path fill-rule="evenodd" clip-rule="evenodd" d="M225.7 127.453C225.85 127.124 226.238 126.98 226.566 127.13C226.883 127.275 227.028 127.641 226.904 127.962L226.889 127.997L221.086 140.673L224.941 141.448C225.282 141.516 225.508 141.839 225.46 142.18L225.453 142.218C225.384 142.559 225.061 142.785 224.721 142.736L224.683 142.73L220.019 141.793C219.618 141.712 219.392 141.29 219.538 140.916L219.553 140.879L225.7 127.453Z" fill="#164E63"/>
<path fill-rule="evenodd" clip-rule="evenodd" d="M230.368 125.306C232.232 124.399 234.097 124.946 235.794 126.351C236.172 126.663 236.512 126.997 236.811 127.331L236.898 127.429C237.034 127.586 237.135 127.712 237.195 127.794C237.41 128.085 237.348 128.494 237.058 128.708C236.779 128.915 236.389 128.866 236.169 128.604L236.089 128.501L236.071 128.479C236.005 128.396 235.926 128.304 235.837 128.204C235.579 127.915 235.284 127.626 234.96 127.358C233.615 126.245 232.25 125.845 230.94 126.482C230.615 126.64 230.223 126.505 230.066 126.18C229.908 125.855 230.043 125.464 230.368 125.306Z" fill="#164E63"/>
<path fill-rule="evenodd" clip-rule="evenodd" d="M229.063 145.315C228.515 146.04 227.845 146.482 227.068 146.692C226.163 146.937 225.168 146.857 224.204 146.571C224.008 146.513 223.831 146.451 223.677 146.39L223.589 146.354L223.503 146.316C223.148 146.146 222.725 146.326 222.601 146.699L222.579 146.767C222.553 146.855 222.523 146.975 222.493 147.122C222.359 147.781 222.343 148.477 222.526 149.151C222.98 150.823 224.507 151.788 227.187 151.701C227.236 151.699 227.285 151.692 227.332 151.68C229.887 151.009 231.352 149.217 231.552 147.174C231.635 146.331 231.47 145.547 231.078 145.081C230.518 144.417 229.682 144.53 229.098 145.269L229.063 145.315ZM230.15 146.048L230.154 146.057C230.242 146.268 230.291 146.632 230.251 147.046L230.243 147.119C230.07 148.573 229.018 149.852 227.097 150.389L227.071 150.396L226.95 150.398C224.975 150.424 224.063 149.821 223.788 148.808L223.765 148.718C223.703 148.445 223.687 148.155 223.708 147.864L223.714 147.789L223.831 147.825C225.008 148.174 226.235 148.272 227.409 147.955C228.428 147.679 229.321 147.102 230.036 146.193L230.131 146.071L230.15 146.048Z" fill="#164E63"/>
<path fill-rule="evenodd" clip-rule="evenodd" d="M216.929 122.583C218.367 122.131 219.857 122.485 221.286 123.328C221.627 123.528 221.937 123.743 222.214 123.958L222.309 124.033C222.429 124.129 222.519 124.207 222.575 124.259C222.84 124.505 222.856 124.918 222.61 125.183C222.374 125.438 221.983 125.462 221.717 125.245L221.641 125.179L221.623 125.162C221.563 125.111 221.492 125.053 221.411 124.99C221.176 124.808 220.911 124.625 220.622 124.454C219.481 123.782 218.34 123.51 217.322 123.83C216.902 123.963 216.501 124.196 216.121 124.545C215.854 124.789 215.441 124.771 215.197 124.505C214.953 124.239 214.971 123.825 215.237 123.581C215.757 123.104 216.325 122.773 216.929 122.583Z" fill="#164E63"/>
<path fill-rule="evenodd" clip-rule="evenodd" d="M282.639 99.9993C281.266 100.217 279.849 100.588 278.476 101.067C268.275 104.686 262.39 114.363 265.332 122.69C268.253 130.907 278.672 134.722 288.764 131.343C290.333 136.988 290.616 146.666 280.764 158.044C279.064 160.006 281.178 162.905 283.554 161.88C293.058 157.761 305.874 150.59 310.125 140.541C316.729 124.869 315.988 91.0191 282.639 99.9993Z" fill="#164E63"/>
<path fill-rule="evenodd" clip-rule="evenodd" d="M261.43 124.39L261.387 124.216C260.755 122.145 261.91 119.943 263.981 119.29L266.269 118.592C268.34 117.96 270.541 119.115 271.195 121.186L271.239 121.36C271.871 123.431 270.716 125.632 268.645 126.286L266.356 126.984C264.264 127.616 262.062 126.461 261.43 124.39Z" fill="#06D0B6"/>
<path fill-rule="evenodd" clip-rule="evenodd" d="M262.869 118.701C261.125 113.295 254.957 106.931 236.953 103.029C236.756 103.007 236.539 103.029 236.299 103.073C227.166 101.133 212.453 106.233 212.736 123.387C212.802 126.613 213.608 129.621 214.96 132.368C215.657 129.338 216.769 126.286 218.338 123.366C222.218 116.085 226.97 111.573 232.005 109.525C230.893 115.41 233.182 124.739 246.173 135.07C246.194 135.114 246.216 135.158 246.26 135.223L246.412 134.547C246.412 134.547 251.186 134.199 253.039 136.727C253.06 136.771 253.082 136.792 253.104 136.836C253.126 136.858 253.148 136.88 253.148 136.923C253.169 136.967 253.191 136.989 253.213 137.032C253.235 137.054 253.257 137.097 253.257 137.119C253.278 137.163 253.3 137.206 253.322 137.228C253.344 137.272 253.366 137.315 253.387 137.359C253.409 137.403 253.431 137.446 253.453 137.512C253.475 137.555 253.475 137.577 253.496 137.621C253.518 137.664 253.518 137.686 253.54 137.73C253.562 137.773 253.562 137.817 253.584 137.86C253.584 137.904 253.605 137.926 253.605 137.969C253.627 138.013 253.627 138.057 253.649 138.1C253.649 138.122 253.671 138.166 253.671 138.187C253.714 138.362 253.736 138.536 253.736 138.732C253.736 138.754 253.736 138.776 253.736 138.819C253.736 138.885 253.736 138.928 253.736 138.994C253.736 139.016 253.736 139.059 253.736 139.081C253.736 139.146 253.736 139.212 253.736 139.277C253.736 139.299 253.736 139.343 253.736 139.364C253.736 139.43 253.736 139.495 253.714 139.561V139.561C253.693 139.735 253.671 139.909 253.649 140.084C253.584 140.476 253.496 140.89 253.344 141.348C252.232 144.835 250.096 145.925 248.156 146.1C248.178 146.012 248.44 150.459 248.374 150.524C250.946 149.652 253.736 147.974 256.722 145.14C265.463 136.88 266.553 126.308 262.869 118.701Z" fill="#164E63"/>
<path fill-rule="evenodd" clip-rule="evenodd" d="M147.346 201.703C147.346 201.703 143.27 196.537 146.039 195.535C152.229 193.29 169.034 223.849 151.03 224.829C150.136 224.873 141.352 226.573 136.143 219.402C132.219 213.408 131.936 207.022 134.704 203.469C137.494 199.916 147.346 201.703 147.346 201.703Z" fill="#F1F5F9"/>
<path fill-rule="evenodd" clip-rule="evenodd" d="M145.815 194.92C144.257 195.484 144.099 196.951 144.845 198.782C145.052 199.289 145.325 199.82 145.648 200.364L145.76 200.549L145.874 200.731L145.944 200.842L145.829 200.829C144.083 200.627 142.298 200.542 140.623 200.64C137.627 200.815 135.38 201.549 134.19 203.065C131.131 206.991 131.651 213.734 135.595 219.76L135.614 219.786C137.189 221.955 139.168 223.481 141.457 224.444C144.252 225.621 147.078 225.864 149.964 225.599L150.231 225.573C150.494 225.545 150.934 225.494 151.041 225.484L151.065 225.482C155.561 225.237 158.335 223.187 159.344 219.705C160.196 216.762 159.737 212.911 158.221 208.749C155.294 200.71 149.331 193.645 145.815 194.92ZM151.115 224.169L150.961 224.179C150.787 224.194 150.194 224.262 150.002 224.281C147.255 224.552 144.577 224.339 141.964 223.239L141.829 223.181C139.857 222.325 138.149 221.005 136.765 219.145L136.68 219.029L136.69 219.044C133.024 213.444 132.55 207.297 135.22 203.871C136.115 202.731 138.044 202.101 140.699 201.945C142.289 201.852 144.002 201.934 145.679 202.128C146.044 202.17 146.382 202.215 146.687 202.26L147.013 202.31L147.229 202.346C147.81 202.452 148.216 201.798 147.881 201.327L147.771 201.182L147.678 201.057C147.629 200.991 147.578 200.92 147.524 200.845C147.267 200.484 147.011 200.096 146.772 199.695C146.48 199.204 146.236 198.729 146.056 198.288L146 198.146C145.559 197 145.65 196.371 146.261 196.149C148.763 195.242 154.299 201.801 156.992 209.196C158.422 213.121 158.85 216.71 158.088 219.341C157.248 222.241 154.999 223.926 151.115 224.169Z" fill="#164E63"/>
<path fill-rule="evenodd" clip-rule="evenodd" d="M152.621 187.056L136.055 162.534C135.227 161.314 133.353 161.684 133.047 163.145L127.467 191.284C127.228 192.483 128.579 193.355 129.582 192.657L137.102 187.361L144.164 215.217C144.425 216.263 145.493 216.895 146.54 216.634L147.695 216.35C148.741 216.089 149.373 215.021 149.112 213.975L142.18 186.598L151.139 189.148C152.359 189.475 153.34 188.102 152.621 187.056Z" fill="#164E63"/>
<path fill-rule="evenodd" clip-rule="evenodd" d="M137.101 202.466C141.875 200.809 149.874 202.074 151.727 204.973C153.58 207.871 151.771 207.348 151.771 207.348C151.771 207.348 153.885 208.743 153.929 210.029C153.972 211.315 153.689 212.34 153.689 212.34C153.689 212.34 155.433 212.427 154.909 214.389C154.386 216.329 154.147 216.939 154.147 216.939C154.147 216.939 154.517 220.71 151.422 220.95C148.327 221.189 142.006 223.238 139.238 220.993C136.469 218.748 132.328 204.122 137.101 202.466Z" fill="#F1F5F9"/>
<path fill-rule="evenodd" clip-rule="evenodd" d="M140.257 215.7C142.805 214.971 145.992 214.66 148.855 214.801C151.806 214.946 153.903 215.512 154.43 216.566C155.375 218.511 154.854 219.531 152.314 220.777C151.365 221.229 149.797 221.451 147.736 221.513C146.465 221.551 145.107 221.524 143.784 221.457L143.522 221.443C143.394 221.436 143.271 221.429 143.155 221.421L142.746 221.394L142.608 221.383C142.248 221.354 141.979 221.039 142.008 220.679C142.037 220.319 142.353 220.051 142.713 220.08L143.017 220.102L143.352 220.123C143.509 220.133 143.675 220.142 143.85 220.151C145.141 220.217 146.465 220.242 147.697 220.205L147.946 220.197C149.709 220.13 151.05 219.931 151.745 219.6L151.967 219.49C153.703 218.62 153.819 218.302 153.257 217.144C153.18 216.991 152.735 216.746 151.994 216.546C151.165 216.323 150.052 216.169 148.791 216.107C146.064 215.973 143.018 216.27 140.617 216.957C140.27 217.057 139.908 216.856 139.808 216.509C139.709 216.161 139.91 215.799 140.257 215.7Z" fill="#164E63"/>
<path fill-rule="evenodd" clip-rule="evenodd" d="M140.581 210.044C142.777 209.712 144.994 209.536 147.072 209.598C148.241 209.633 149.329 209.744 150.325 209.94L150.495 209.975L150.598 209.993C152.932 210.425 154.722 211.705 155.404 213.276L155.436 213.351C156.145 215.086 155.273 216.67 153.273 216.933C152.915 216.98 152.586 216.728 152.539 216.37C152.492 216.012 152.744 215.684 153.102 215.637C154.238 215.487 154.616 214.8 154.225 213.846C153.749 212.681 152.32 211.643 150.368 211.281L150.241 211.258C149.278 211.055 148.202 210.94 147.033 210.905C145.043 210.846 142.901 211.016 140.776 211.337C140.198 211.424 139.66 211.517 139.173 211.611L139.013 211.642C138.89 211.666 138.777 211.689 138.673 211.71L138.36 211.778C138.009 211.859 137.657 211.64 137.576 211.288C137.498 210.949 137.699 210.61 138.029 210.514L138.102 210.496L138.251 210.463C138.374 210.437 138.512 210.408 138.666 210.377L138.761 210.359C139.307 210.251 139.919 210.144 140.581 210.044Z" fill="#164E63"/>
<path fill-rule="evenodd" clip-rule="evenodd" d="M138.353 205.64C141.11 204.989 143.93 204.713 146.581 205.025C147.917 205.182 149.168 205.488 150.319 205.959C151.198 206.32 151.941 206.705 152.555 207.114C154.832 208.629 155.268 210.392 154.53 211.944C154.411 212.194 154.288 212.38 154.193 212.495C153.963 212.773 153.551 212.812 153.273 212.582C153.005 212.361 152.958 211.972 153.16 211.694L153.185 211.662C153.215 211.625 153.28 211.527 153.349 211.383C153.527 211.008 153.592 210.592 153.483 210.151C153.326 209.514 152.815 208.858 151.831 208.203C151.292 207.844 150.625 207.498 149.823 207.169C148.788 206.745 147.652 206.467 146.429 206.323C143.95 206.032 141.274 206.294 138.653 206.912C138.056 207.053 137.506 207.203 137.012 207.353L136.865 207.398C136.711 207.446 136.572 207.491 136.45 207.532L136.217 207.613C135.878 207.738 135.502 207.565 135.377 207.226C135.251 206.888 135.424 206.512 135.763 206.386L135.852 206.354L135.955 206.319C136.106 206.267 136.28 206.21 136.477 206.149C137.036 205.975 137.666 205.801 138.353 205.64Z" fill="#164E63"/>
<path fill-rule="evenodd" clip-rule="evenodd" d="M146.113 201.229C146.254 200.897 146.638 200.742 146.97 200.884C147.072 200.927 147.172 200.97 147.271 201.014C149.88 202.166 151.496 203.424 152.282 204.754C152.878 205.761 152.949 206.709 152.693 207.499C152.638 207.667 152.579 207.795 152.53 207.878C152.345 208.189 151.944 208.291 151.634 208.107C151.335 207.93 151.228 207.551 151.385 207.246L151.405 207.211C151.407 207.207 151.426 207.167 151.449 207.095C151.594 206.648 151.552 206.088 151.157 205.419C150.527 204.354 149.123 203.261 146.743 202.21C146.649 202.169 146.554 202.128 146.458 202.087C146.126 201.945 145.971 201.561 146.113 201.229Z" fill="#164E63"/>
<path fill-rule="evenodd" clip-rule="evenodd" d="M369.346 238.627C369.707 238.627 370 238.919 370 239.281C370 239.629 369.728 239.914 369.385 239.933L369.346 239.935H0.653903C0.292762 239.935 0 239.642 0 239.281C0 238.932 0.272224 238.648 0.615481 238.628L0.653903 238.627H369.346Z" fill="#164E63"/>
</svg>
