<svg width="370" height="320" viewBox="0 0 370 320" fill="none" xmlns="http://www.w3.org/2000/svg">
<g clip-path="url(#clip0_138_953)">
<rect width="370" height="320" fill="white"/>
<path fill-rule="evenodd" clip-rule="evenodd" d="M354.677 189.665L347.587 184.067V174.807C347.587 173.64 346.654 172.707 345.487 172.707C344.321 172.707 343.388 173.64 343.388 174.807V180.755L296.155 143.505C295.758 143.201 295.269 143.038 294.802 143.061C294.452 142.945 294.079 142.875 293.683 142.875H244.7C242.834 142.875 241.341 144.391 241.341 146.234V146.933C241.341 148.799 242.857 150.292 244.7 150.292H293.683C294.755 150.292 295.712 149.779 296.318 149.009L343.388 186.119V233.632H303.596V239.3H343.971C344.344 239.697 344.881 239.93 345.464 239.93C346.047 239.93 346.584 239.697 346.957 239.3H350.572V233.632H347.563V189.431L352.065 192.977C352.461 193.28 352.905 193.42 353.371 193.42C354.001 193.42 354.607 193.14 355.027 192.627C355.727 191.717 355.587 190.388 354.677 189.665Z" fill="#008473"/>
<rect x="241.108" y="184.72" width="79.8647" height="54.044" fill="#F1F5F9"/>
<path fill-rule="evenodd" clip-rule="evenodd" d="M320.973 184.02H241.108C240.722 184.02 240.409 184.333 240.409 184.72V238.764C240.409 239.15 240.722 239.463 241.108 239.463H320.973C321.36 239.463 321.673 239.15 321.673 238.764V184.72C321.673 184.333 321.36 184.02 320.973 184.02ZM320.273 185.419V238.064H241.808V185.419H320.273Z" fill="#164E63"/>
<path fill-rule="evenodd" clip-rule="evenodd" d="M286.615 184.207V239.067H285.216V184.207H286.615Z" fill="#164E63"/>
<path fill-rule="evenodd" clip-rule="evenodd" d="M311.317 190.014C311.703 190.014 312.017 190.328 312.017 190.714C312.017 191.087 311.725 191.391 311.358 191.413L311.317 191.414H275.163C274.777 191.414 274.463 191.101 274.463 190.714C274.463 190.341 274.755 190.037 275.122 190.016L275.163 190.014H311.317Z" fill="#164E63"/>
<path fill-rule="evenodd" clip-rule="evenodd" d="M320.25 209.421C320.636 209.421 320.95 209.734 320.95 210.121C320.95 210.493 320.658 210.798 320.291 210.819L320.25 210.82H297.042C296.655 210.82 296.342 210.507 296.342 210.121C296.342 209.748 296.633 209.443 297 209.422L297.042 209.421H320.25Z" fill="#164E63"/>
<path fill-rule="evenodd" clip-rule="evenodd" d="M316.821 225.189C317.208 225.189 317.521 225.502 317.521 225.888C317.521 226.261 317.23 226.566 316.862 226.587L316.821 226.588H271.547C271.161 226.588 270.848 226.275 270.848 225.888C270.848 225.516 271.139 225.211 271.506 225.19L271.547 225.189H316.821Z" fill="#164E63"/>
<path fill-rule="evenodd" clip-rule="evenodd" d="M277.892 204.569C278.278 204.569 278.591 204.882 278.591 205.269C278.591 205.641 278.3 205.946 277.933 205.967L277.892 205.969H254.497C254.11 205.969 253.797 205.655 253.797 205.269C253.797 204.896 254.088 204.592 254.456 204.57L254.497 204.569H277.892Z" fill="#164E63"/>
<path fill-rule="evenodd" clip-rule="evenodd" d="M268.842 217.771C269.228 217.771 269.542 218.085 269.542 218.471C269.542 218.844 269.25 219.148 268.883 219.17L268.842 219.171H241.108C240.722 219.171 240.409 218.857 240.409 218.471C240.409 218.098 240.7 217.794 241.067 217.772L241.108 217.771H268.842Z" fill="#164E63"/>
<path fill-rule="evenodd" clip-rule="evenodd" d="M321.206 210.027C327.177 212.29 321.02 216.045 321.02 216.045C321.02 216.045 319.48 211.777 311.62 210.051C312.646 210.051 321.206 210.027 321.206 210.027Z" fill="#F1F5F9"/>
<path fill-rule="evenodd" clip-rule="evenodd" d="M321.204 209.328L311.62 209.351C310.782 209.351 310.652 210.555 311.469 210.734C314.041 211.299 316.071 212.172 317.626 213.265C318.605 213.952 319.333 214.682 319.85 215.404C320.026 215.651 320.163 215.877 320.265 216.076L320.311 216.169C320.318 216.183 320.324 216.197 320.33 216.21L320.361 216.283C320.511 216.699 321.006 216.873 321.384 216.643L321.481 216.582C321.58 216.518 321.71 216.43 321.864 216.319C322.214 216.068 322.564 215.787 322.893 215.48C324.062 214.39 324.708 213.251 324.464 212.059C324.235 210.941 323.233 210.047 321.454 209.373C321.374 209.343 321.29 209.327 321.204 209.328ZM321.076 210.728L321.141 210.753C322.392 211.256 322.983 211.803 323.093 212.34C323.211 212.915 322.783 213.669 321.939 214.457L321.817 214.568C321.652 214.715 321.481 214.856 321.308 214.989L321.272 215.017L321.252 214.984C321.172 214.857 321.085 214.726 320.988 214.591C320.381 213.742 319.54 212.899 318.431 212.12L318.308 212.034C317.647 211.581 316.915 211.165 316.109 210.792L315.998 210.741L321.076 210.728Z" fill="#164E63"/>
<path fill-rule="evenodd" clip-rule="evenodd" d="M206.541 97.0645H41.9829C40.0702 97.0645 38.5308 98.6272 38.5308 100.517V198.295C38.5308 200.207 40.0935 201.747 41.9829 201.747H106.616L97.1231 237.947L157.138 239.86L147.388 201.77H206.564C208.477 201.77 210.016 200.207 210.016 198.318V100.54C210.016 98.6272 208.453 97.0645 206.541 97.0645Z" fill="#06D0B6"/>
<path fill-rule="evenodd" clip-rule="evenodd" d="M126.023 224.955C129.991 224.955 133.207 221.739 133.207 217.771C133.207 213.804 129.991 210.587 126.023 210.587C122.055 210.587 118.839 213.804 118.839 217.771C118.839 221.739 122.055 224.955 126.023 224.955Z" fill="#F1F5F9"/>
<path fill-rule="evenodd" clip-rule="evenodd" d="M141.703 201.02C142.167 200.912 142.63 201.186 142.762 201.637L142.774 201.683L151.497 238.77C151.61 239.248 151.313 239.727 150.835 239.84C150.372 239.949 149.908 239.674 149.776 239.223L149.764 239.177L141.041 202.091C140.928 201.612 141.225 201.133 141.703 201.02Z" fill="#164E63"/>
<path fill-rule="evenodd" clip-rule="evenodd" d="M192.056 192.883H50.0067C48.2107 192.883 46.7412 191.414 46.7412 189.618V106.908C46.7412 105.112 48.2107 103.642 50.0067 103.642H192.056C193.852 103.642 195.321 105.112 195.321 106.908V189.618C195.321 191.414 193.852 192.883 192.056 192.883Z" fill="#F1F5F9"/>
<path fill-rule="evenodd" clip-rule="evenodd" d="M202.809 97.2043C203.181 97.2043 203.486 97.4957 203.507 97.863L203.508 97.9041V200.837C203.508 201.224 203.195 201.537 202.809 201.537C202.436 201.537 202.131 201.246 202.11 200.878L202.109 200.837V97.9041C202.109 97.5176 202.422 97.2043 202.809 97.2043Z" fill="#164E63"/>
<path fill-rule="evenodd" clip-rule="evenodd" d="M134.653 117.217C135.026 117.217 135.33 117.509 135.351 117.876L135.353 117.917V183.717C135.353 184.103 135.039 184.417 134.653 184.417C134.28 184.417 133.976 184.125 133.954 183.758L133.953 183.717V117.917C133.953 117.531 134.266 117.217 134.653 117.217Z" fill="#0E7490"/>
<path fill-rule="evenodd" clip-rule="evenodd" d="M144.191 126.325C147.922 126.316 152.599 126.334 158.341 126.376L164.347 126.425L187.529 126.644C189.444 126.659 190.036 126.66 190.083 126.653L190.085 126.653C190.452 126.531 190.848 126.729 190.97 127.096C191.092 127.462 190.894 127.858 190.528 127.981L190.495 127.989C190.276 128.039 189.52 128.051 187.349 128.039L180.531 127.982L165.427 127.834L158.865 127.779C152.704 127.733 147.747 127.714 143.854 127.726L142.249 127.733C140.055 127.746 138.319 127.771 137.066 127.809L136.501 127.828C136.045 127.846 135.677 127.866 135.399 127.888L135.222 127.903C135.151 127.91 135.089 127.917 135.039 127.924L134.988 127.931L134.961 127.945C134.879 127.985 134.789 128.01 134.694 128.015L134.653 128.017C134.266 128.017 133.953 127.703 133.953 127.317C133.953 126.917 134.158 126.746 134.429 126.635C134.507 126.603 134.586 126.582 134.681 126.564C134.799 126.541 134.952 126.522 135.145 126.505L135.219 126.498C135.569 126.469 136.051 126.443 136.664 126.422L137.451 126.398C138.672 126.366 140.274 126.345 142.239 126.333L144.191 126.325ZM135.352 127.358C135.34 127.562 135.24 127.743 135.091 127.863L135.084 127.867L135.098 127.859C135.238 127.768 135.34 127.626 135.352 127.367L135.352 127.332L135.352 127.358Z" fill="#0E7490"/>
<path fill-rule="evenodd" clip-rule="evenodd" d="M144.191 149.907C147.922 149.898 152.599 149.916 158.341 149.958L164.347 150.007L187.529 150.226C189.444 150.241 190.036 150.242 190.083 150.235L190.085 150.235C190.452 150.113 190.848 150.311 190.97 150.677C191.092 151.044 190.894 151.44 190.528 151.562L190.495 151.571C190.276 151.621 189.52 151.633 187.349 151.621L180.531 151.564L165.427 151.416L158.865 151.361C152.704 151.315 147.747 151.296 143.854 151.308L142.249 151.315C140.055 151.328 138.319 151.353 137.066 151.391L136.501 151.41C136.045 151.428 135.677 151.447 135.399 151.469L135.222 151.485C135.151 151.492 135.089 151.499 135.039 151.505L134.988 151.513L134.961 151.527C134.879 151.567 134.789 151.592 134.694 151.597L134.653 151.598C134.266 151.598 133.953 151.285 133.953 150.899C133.953 150.499 134.158 150.327 134.429 150.217C134.507 150.185 134.586 150.164 134.681 150.146C134.799 150.123 134.952 150.104 135.145 150.086L135.219 150.08C135.569 150.05 136.051 150.025 136.664 150.004L137.451 149.98C138.672 149.948 140.274 149.927 142.239 149.915L144.191 149.907ZM135.352 150.94C135.34 151.144 135.24 151.325 135.091 151.445L135.084 151.449L135.098 151.441C135.238 151.35 135.34 151.208 135.352 150.949L135.352 150.914L135.352 150.94Z" fill="#0E7490"/>
<path fill-rule="evenodd" clip-rule="evenodd" d="M144.191 169.827C147.922 169.817 152.599 169.835 158.341 169.877L164.347 169.926L187.529 170.145C189.444 170.161 190.036 170.161 190.083 170.155L190.085 170.154C190.452 170.032 190.848 170.23 190.97 170.597C191.092 170.963 190.894 171.36 190.528 171.482L190.495 171.491C190.276 171.54 189.52 171.552 187.349 171.54L180.531 171.484L165.427 171.336L158.865 171.281C152.704 171.235 147.747 171.215 143.854 171.227L142.249 171.234C140.055 171.247 138.319 171.272 137.066 171.31L136.501 171.329C136.045 171.347 135.677 171.367 135.399 171.389L135.222 171.404C135.151 171.411 135.089 171.418 135.039 171.425L134.988 171.432L134.961 171.447C134.879 171.487 134.789 171.511 134.694 171.517L134.653 171.518C134.266 171.518 133.953 171.204 133.953 170.818C133.953 170.418 134.158 170.247 134.429 170.136C134.507 170.105 134.586 170.083 134.681 170.065C134.799 170.043 134.952 170.023 135.145 170.006L135.219 169.999C135.569 169.97 136.051 169.945 136.664 169.923L137.451 169.899C138.672 169.867 140.274 169.846 142.239 169.835L144.191 169.827ZM135.352 170.859C135.34 171.063 135.24 171.244 135.091 171.364L135.084 171.369L135.098 171.36C135.238 171.27 135.34 171.127 135.352 170.868L135.352 170.833L135.352 170.859Z" fill="#0E7490"/>
<path fill-rule="evenodd" clip-rule="evenodd" d="M162.713 132.402C163.1 132.402 163.413 132.715 163.413 133.102C163.413 133.474 163.122 133.779 162.754 133.8L162.713 133.801H139.598C139.212 133.801 138.898 133.488 138.898 133.102C138.898 132.729 139.19 132.424 139.557 132.403L139.598 132.402H162.713Z" fill="#0E7490"/>
<path fill-rule="evenodd" clip-rule="evenodd" d="M176.382 137.23C176.768 137.23 177.081 137.544 177.081 137.93C177.081 138.303 176.79 138.607 176.423 138.629L176.382 138.63H139.598C139.212 138.63 138.898 138.316 138.898 137.93C138.898 137.557 139.19 137.253 139.557 137.231L139.598 137.23H176.382Z" fill="#0E7490"/>
<path fill-rule="evenodd" clip-rule="evenodd" d="M163.32 141.102C163.706 141.102 164.019 141.415 164.019 141.802C164.019 142.174 163.728 142.479 163.361 142.5L163.32 142.502H139.598C139.212 142.502 138.898 142.188 138.898 141.802C138.898 141.429 139.19 141.125 139.557 141.103L139.598 141.102H163.32Z" fill="#0E7490"/>
<path fill-rule="evenodd" clip-rule="evenodd" d="M147.995 144.951C148.382 144.951 148.695 145.264 148.695 145.65C148.695 146.023 148.404 146.328 148.036 146.349L147.995 146.35H139.598C139.212 146.35 138.898 146.037 138.898 145.65C138.898 145.278 139.19 144.973 139.557 144.952L139.598 144.951H147.995Z" fill="#0E7490"/>
<path fill-rule="evenodd" clip-rule="evenodd" d="M176.382 155.19C176.768 155.19 177.081 155.503 177.081 155.89C177.081 156.263 176.79 156.567 176.423 156.588L176.382 156.59H139.598C139.212 156.59 138.898 156.276 138.898 155.89C138.898 155.517 139.19 155.213 139.557 155.191L139.598 155.19H176.382Z" fill="#0E7490"/>
<path fill-rule="evenodd" clip-rule="evenodd" d="M163.32 159.039C163.706 159.039 164.019 159.352 164.019 159.739C164.019 160.111 163.728 160.416 163.361 160.437L163.32 160.439H139.598C139.212 160.439 138.898 160.125 138.898 159.739C138.898 159.366 139.19 159.062 139.557 159.04L139.598 159.039H163.32Z" fill="#0E7490"/>
<path fill-rule="evenodd" clip-rule="evenodd" d="M147.995 162.911C148.382 162.911 148.695 163.224 148.695 163.611C148.695 163.983 148.404 164.288 148.036 164.309L147.995 164.31H139.598C139.212 164.31 138.898 163.997 138.898 163.611C138.898 163.238 139.19 162.933 139.557 162.912L139.598 162.911H147.995Z" fill="#0E7490"/>
<path fill-rule="evenodd" clip-rule="evenodd" d="M176.382 173.967C176.768 173.967 177.081 174.28 177.081 174.667C177.081 175.039 176.79 175.344 176.423 175.365L176.382 175.366H139.598C139.212 175.366 138.898 175.053 138.898 174.667C138.898 174.294 139.19 173.989 139.557 173.968L139.598 173.967H176.382Z" fill="#0E7490"/>
<path fill-rule="evenodd" clip-rule="evenodd" d="M163.32 177.816C163.706 177.816 164.019 178.129 164.019 178.515C164.019 178.888 163.728 179.193 163.361 179.214L163.32 179.215H139.598C139.212 179.215 138.898 178.902 138.898 178.515C138.898 178.143 139.19 177.838 139.557 177.817L139.598 177.816H163.32Z" fill="#0E7490"/>
<path fill-rule="evenodd" clip-rule="evenodd" d="M111.258 126.641C111.645 126.641 111.958 126.954 111.958 127.34C111.958 127.713 111.667 128.018 111.299 128.039L111.258 128.04H57.2608C56.8743 128.04 56.561 127.727 56.561 127.34C56.561 126.968 56.8523 126.663 57.2197 126.642L57.2608 126.641H111.258Z" fill="#0E7490"/>
<path fill-rule="evenodd" clip-rule="evenodd" d="M111.258 130.979C111.645 130.979 111.958 131.292 111.958 131.679C111.958 132.051 111.667 132.356 111.299 132.377L111.258 132.379H57.2608C56.8743 132.379 56.561 132.065 56.561 131.679C56.561 131.306 56.8523 131.001 57.2197 130.98L57.2608 130.979H111.258Z" fill="#0E7490"/>
<path fill-rule="evenodd" clip-rule="evenodd" d="M111.258 177.186C111.645 177.186 111.958 177.499 111.958 177.886C111.958 178.258 111.667 178.563 111.299 178.584L111.258 178.585H57.2608C56.8743 178.585 56.561 178.272 56.561 177.886C56.561 177.513 56.8523 177.208 57.2197 177.187L57.2608 177.186H111.258Z" fill="#0E7490"/>
<path fill-rule="evenodd" clip-rule="evenodd" d="M101.111 137.23C101.498 137.23 101.811 137.544 101.811 137.93C101.811 138.303 101.52 138.607 101.153 138.629L101.111 138.63H63.8848C63.4983 138.63 63.1851 138.316 63.1851 137.93C63.1851 137.557 63.4764 137.253 63.8437 137.231L63.8848 137.23H101.111Z" fill="#0E7490"/>
<path fill-rule="evenodd" clip-rule="evenodd" d="M95.6767 141.708C96.0632 141.708 96.3765 142.022 96.3765 142.408C96.3765 142.781 96.0852 143.086 95.7179 143.107L95.6767 143.108H63.8848C63.4983 143.108 63.1851 142.795 63.1851 142.408C63.1851 142.036 63.4764 141.731 63.8437 141.71L63.8848 141.708H95.6767Z" fill="#0E7490"/>
<path fill-rule="evenodd" clip-rule="evenodd" d="M70.8649 147.633L112.033 147.983C112.42 147.986 112.731 148.302 112.727 148.689C112.724 149.061 112.43 149.363 112.063 149.382L112.022 149.382L70.853 149.033C70.4665 149.029 70.1559 148.713 70.1592 148.327C70.1624 147.954 70.4563 147.652 70.8238 147.634L70.8649 147.633Z" fill="#0E7490"/>
<path fill-rule="evenodd" clip-rule="evenodd" d="M70.8653 151.808L112.034 152.181C112.42 152.185 112.731 152.501 112.727 152.887C112.724 153.26 112.43 153.562 112.062 153.58L112.021 153.581L70.8526 153.208C70.4661 153.204 70.1557 152.888 70.1592 152.501C70.1626 152.129 70.4566 151.827 70.8241 151.809L70.8653 151.808Z" fill="#0E7490"/>
<path fill-rule="evenodd" clip-rule="evenodd" d="M70.8649 164.894L112.033 165.243C112.42 165.247 112.731 165.563 112.727 165.949C112.724 166.322 112.43 166.624 112.063 166.642L112.022 166.643L70.853 166.293C70.4665 166.29 70.1559 165.974 70.1592 165.587C70.1624 165.215 70.4563 164.913 70.8238 164.894L70.8649 164.894Z" fill="#0E7490"/>
<path fill-rule="evenodd" clip-rule="evenodd" d="M70.8649 168.532L112.033 168.882C112.42 168.885 112.731 169.201 112.727 169.588C112.724 169.96 112.43 170.263 112.063 170.281L112.022 170.282L70.853 169.932C70.4665 169.928 70.1559 169.612 70.1592 169.226C70.1624 168.853 70.4563 168.551 70.8238 168.533L70.8649 168.532Z" fill="#0E7490"/>
<path fill-rule="evenodd" clip-rule="evenodd" d="M87.2102 156.777C87.5966 156.777 87.9099 157.09 87.9099 157.476C87.9099 157.849 87.6186 158.154 87.2513 158.175L87.2102 158.176H63.2554C62.869 158.176 62.5557 157.863 62.5557 157.476C62.5557 157.104 62.847 156.799 63.2143 156.778L63.2554 156.777H87.2102Z" fill="#0E7490"/>
<path fill-rule="evenodd" clip-rule="evenodd" d="M87.2102 160.835C87.5966 160.835 87.9099 161.148 87.9099 161.535C87.9099 161.907 87.6186 162.212 87.2513 162.233L87.2102 162.234H63.2554C62.869 162.234 62.5557 161.921 62.5557 161.535C62.5557 161.162 62.847 160.857 63.2143 160.836L63.2554 160.835H87.2102Z" fill="#0E7490"/>
<path fill-rule="evenodd" clip-rule="evenodd" d="M77.0405 173.803C77.4269 173.803 77.7402 174.117 77.7402 174.503C77.7402 174.876 77.4489 175.18 77.0816 175.202L77.0405 175.203H63.2554C62.869 175.203 62.5557 174.89 62.5557 174.503C62.5557 174.131 62.847 173.826 63.2143 173.805L63.2554 173.803H77.0405Z" fill="#0E7490"/>
<path fill-rule="evenodd" clip-rule="evenodd" d="M190.306 117.217H51.1963C50.8099 117.217 50.4966 117.531 50.4966 117.917V183.717C50.4966 184.103 50.8099 184.417 51.1963 184.417H190.306C190.693 184.417 191.006 184.103 191.006 183.717V117.917C191.006 117.531 190.693 117.217 190.306 117.217ZM189.607 118.617V183.017H51.8961V118.617H189.607Z" fill="#0E7490"/>
<path fill-rule="evenodd" clip-rule="evenodd" d="M63.2552 112.669C63.6416 112.669 63.9549 112.982 63.9549 113.369C63.9549 113.741 63.6636 114.046 63.2963 114.067L63.2552 114.068H56.1177C55.7313 114.068 55.418 113.755 55.418 113.369C55.418 112.996 55.7093 112.691 56.0766 112.67L56.1177 112.669H63.2552Z" fill="#06D0B6"/>
<path fill-rule="evenodd" clip-rule="evenodd" d="M92.9713 112.669C93.3577 112.669 93.671 112.982 93.671 113.369C93.671 113.741 93.3797 114.046 93.0124 114.067L92.9713 114.068H87.21C86.8235 114.068 86.5103 113.755 86.5103 113.369C86.5103 112.996 86.8016 112.691 87.1689 112.67L87.21 112.669H92.9713Z" fill="#06D0B6"/>
<path fill-rule="evenodd" clip-rule="evenodd" d="M104.028 112.669C104.414 112.669 104.727 112.982 104.727 113.369C104.727 113.741 104.436 114.046 104.069 114.067L104.028 114.068H99.5025C99.116 114.068 98.8027 113.755 98.8027 113.369C98.8027 112.996 99.094 112.691 99.4614 112.67L99.5025 112.669H104.028Z" fill="#06D0B6"/>
<path fill-rule="evenodd" clip-rule="evenodd" d="M186.037 112.669C186.424 112.669 186.737 112.982 186.737 113.369C186.737 113.741 186.446 114.046 186.079 114.067L186.037 114.068H181.536C181.149 114.068 180.836 113.755 180.836 113.369C180.836 112.996 181.127 112.691 181.495 112.67L181.536 112.669H186.037Z" fill="#0E7490"/>
<path fill-rule="evenodd" clip-rule="evenodd" d="M178.318 112.669C178.704 112.669 179.017 112.982 179.017 113.369C179.017 113.741 178.726 114.046 178.359 114.067L178.318 114.068H173.816C173.429 114.068 173.116 113.755 173.116 113.369C173.116 112.996 173.408 112.691 173.775 112.67L173.816 112.669H178.318Z" fill="#0E7490"/>
<path fill-rule="evenodd" clip-rule="evenodd" d="M80.2355 112.669C80.6219 112.669 80.9352 112.982 80.9352 113.369C80.9352 113.741 80.6439 114.046 80.2766 114.067L80.2355 114.068H69.9258C69.5394 114.068 69.2261 113.755 69.2261 113.369C69.2261 112.996 69.5174 112.691 69.8847 112.67L69.9258 112.669H80.2355Z" fill="#06D0B6"/>
<path fill-rule="evenodd" clip-rule="evenodd" d="M190.306 108.4H51.1963C50.8099 108.4 50.4966 108.714 50.4966 109.1V117.917C50.4966 118.303 50.8099 118.617 51.1963 118.617H190.306C190.693 118.617 191.006 118.303 191.006 117.917V109.1C191.006 108.714 190.693 108.4 190.306 108.4ZM189.607 109.8V117.217H51.8961V109.8H189.607Z" fill="#0E7490"/>
<path fill-rule="evenodd" clip-rule="evenodd" d="M49.2601 201.724C44.8284 200.394 37.9008 196.825 31.0666 187.332C24.2324 177.839 29.2006 171.005 35.9649 176.276C42.7291 181.548 49.2601 201.724 49.2601 201.724Z" fill="#F1F5F9"/>
<path fill-rule="evenodd" clip-rule="evenodd" d="M27.804 175.929C26.2817 178.69 27.2016 183.16 30.4991 187.741C36.3967 195.933 42.8118 200.52 49.0594 202.394C49.5875 202.552 50.0772 202.068 49.9371 201.545L49.9188 201.485L49.7611 201.01C49.694 200.811 49.6188 200.59 49.5358 200.349L49.326 199.745C49.0615 198.99 48.7674 198.173 48.4459 197.309C47.2768 194.164 45.9865 191.018 44.6115 188.08L44.4284 187.69C41.7131 181.954 39.0185 177.768 36.3954 175.724C32.8833 172.987 29.3558 173.116 27.804 175.929ZM35.535 176.828C37.9902 178.741 40.6556 182.927 43.3437 188.673C44.7009 191.573 45.9772 194.685 47.134 197.796L47.2201 198.029C47.5334 198.876 47.8193 199.674 48.0756 200.409L48.1475 200.617L48.0295 200.574C42.5276 198.541 36.8951 194.23 31.6348 186.923C28.621 182.737 27.8131 178.811 29.0293 176.605C30.1039 174.657 32.6308 174.565 35.535 176.828Z" fill="#164E63"/>
<path fill-rule="evenodd" clip-rule="evenodd" d="M49.4473 201.327C46.9048 195.449 42.1932 184.626 41.4468 174.317C40.4438 160.158 50.9167 156.846 54.0423 166.783C58.7306 181.711 49.4473 201.327 49.4473 201.327Z" fill="#F1F5F9"/>
<path fill-rule="evenodd" clip-rule="evenodd" d="M45.8983 160.881C42.3664 162.542 40.2692 167.601 40.7485 174.366C40.8186 175.335 40.9242 176.323 41.0639 177.33C41.762 182.359 43.2635 187.661 45.4278 193.396L45.7006 194.112C46.5916 196.435 47.3412 198.221 48.8047 201.605C49.0436 202.157 49.822 202.17 50.0794 201.626L50.1496 201.475C50.1866 201.394 50.2275 201.304 50.272 201.204L50.3414 201.048C50.5465 200.583 50.7747 200.045 51.0201 199.438C51.7203 197.71 52.4201 195.783 53.0732 193.705C54.9913 187.604 56.1211 181.489 56.0621 175.763C56.0289 172.556 55.6168 169.56 54.784 166.814L54.7095 166.573C53.1164 161.508 49.4135 159.228 45.8983 160.881ZM53.3745 166.993C54.2134 169.664 54.6301 172.607 54.6628 175.778C54.7202 181.336 53.6159 187.313 51.7383 193.285C51.097 195.326 50.4099 197.218 49.7232 198.913L49.594 199.23L49.452 199.572L49.0122 198.543C48.1433 196.502 47.5577 195.058 46.8615 193.229C44.664 187.457 43.1452 182.144 42.4503 177.138C42.3147 176.161 42.2124 175.203 42.1446 174.266C41.7022 168.022 43.5668 163.524 46.4939 162.148C49.122 160.912 51.9554 162.628 53.3333 166.864L53.3745 166.993Z" fill="#164E63"/>
<path fill-rule="evenodd" clip-rule="evenodd" d="M67.9669 187.729C74.8011 178.235 69.8329 171.401 63.0687 176.673C56.3044 181.967 53.1789 191.461 49.7734 201.724C49.7734 201.724 61.1327 197.222 67.9669 187.729Z" fill="#F1F5F9"/>
<path fill-rule="evenodd" clip-rule="evenodd" d="M62.639 176.121C59.653 178.458 57.2347 181.66 55.0913 185.89L54.9826 186.106C53.3504 189.368 52.0291 192.802 50.1237 198.461L49.1097 201.503C48.9266 202.055 49.4554 202.57 49.9956 202.387L50.0317 202.374C50.0823 202.354 50.1755 202.316 50.3084 202.259L50.4786 202.186C50.6257 202.123 50.7859 202.052 50.9584 201.973L51.0633 201.926C51.871 201.556 52.7696 201.111 53.7365 200.591C56.4972 199.103 59.2577 197.302 61.837 195.178C64.4258 193.046 66.6895 190.701 68.5352 188.137C71.8328 183.557 72.7527 179.086 71.2304 176.326C69.6786 173.512 66.1511 173.384 62.639 176.121ZM63.3551 177.338L63.4986 177.225C66.4028 174.961 68.9297 175.053 70.0043 177.002C71.2205 179.207 70.4126 183.133 67.3988 187.32C65.628 189.78 63.4472 192.039 60.9468 194.098C58.443 196.159 55.7574 197.912 53.0721 199.359L52.8852 199.459C52.2713 199.786 51.6876 200.081 51.1407 200.343L50.9364 200.441L51.1638 199.759C53.2063 193.644 54.5586 190.08 56.2335 186.733C58.2827 182.637 60.5674 179.563 63.3551 177.338Z" fill="#164E63"/>
<path fill-rule="evenodd" clip-rule="evenodd" d="M49.7737 204.826C49.5404 204.523 50.6367 199.694 41.5166 193.933C32.3965 188.172 30.3206 190.038 29.1544 192.137C27.9881 194.236 33.2829 199.228 38.9509 202.097C44.6422 204.989 49.7737 204.826 49.7737 204.826Z" fill="#F1F5F9"/>
<path fill-rule="evenodd" clip-rule="evenodd" d="M32.3494 189.388C30.5055 189.397 29.4181 190.222 28.5426 191.797C27.1186 194.361 32.3427 199.536 38.6348 202.721C41.0806 203.964 43.5996 204.755 46.0679 205.184C46.9622 205.339 47.7975 205.437 48.5587 205.488L48.7553 205.5C49.1372 205.522 49.4507 205.529 49.6882 205.527L49.7959 205.525L49.8352 205.523C50.3021 205.483 50.5804 205.011 50.4365 204.598L50.4325 204.588L50.4113 204.248C50.4033 204.128 50.3941 204.015 50.3822 203.899C50.3511 203.595 50.3039 203.291 50.2336 202.971C50.0516 202.141 49.7319 201.282 49.2344 200.382C47.9352 198.033 45.5761 195.67 41.8903 193.342L41.5905 193.153C37.4215 190.551 34.4579 189.378 32.3494 189.388ZM32.3561 190.787C34.1842 190.778 37.0221 191.922 41.1428 194.525C44.6396 196.734 46.8317 198.929 48.0096 201.059L48.0766 201.182C48.6657 202.273 48.8827 203.033 48.9839 204.017L48.9929 204.111L48.9192 204.107C48.8345 204.103 48.7456 204.098 48.6524 204.091C47.9387 204.043 47.1518 203.951 46.3072 203.805C43.9695 203.399 41.5826 202.649 39.2678 201.473C36.5501 200.097 33.8541 198.186 31.9822 196.331C30.1962 194.562 29.4275 193.086 29.766 192.477C30.4183 191.303 31.09 190.793 32.3561 190.787Z" fill="#164E63"/>
<path fill-rule="evenodd" clip-rule="evenodd" d="M49.7734 204.826C50.0067 204.523 48.9104 199.694 58.0305 193.933C67.1505 188.172 69.2265 190.038 70.3927 192.137C71.559 194.236 66.2642 199.228 60.5962 202.097C54.9049 204.989 49.7734 204.826 49.7734 204.826Z" fill="#F1F5F9"/>
<path fill-rule="evenodd" clip-rule="evenodd" d="M67.1979 189.388C65.0391 189.377 61.9841 190.608 57.657 193.341C53.9712 195.67 51.612 198.032 50.3128 200.382C49.8153 201.282 49.4957 202.141 49.3137 202.971C49.2433 203.291 49.1961 203.595 49.1651 203.899C49.1571 203.976 49.1504 204.052 49.1444 204.13L49.1145 204.588L49.1108 204.598C48.9674 205.009 49.2433 205.48 49.7073 205.522L49.7645 205.526L49.8013 205.526C50.0822 205.531 50.483 205.522 50.9885 205.488C51.7498 205.437 52.5851 205.339 53.4794 205.184C55.9477 204.755 58.4667 203.964 60.9135 202.721C67.2045 199.536 72.4287 194.36 71.0046 191.797C70.1292 190.221 69.0418 189.396 67.1979 189.388ZM67.1907 190.787C68.4569 190.793 69.1286 191.303 69.7809 192.477C70.1194 193.086 69.3507 194.562 67.5647 196.331C65.6927 198.186 62.9967 200.097 60.2801 201.472C57.9643 202.649 55.5774 203.399 53.2397 203.805C52.3951 203.951 51.6082 204.043 50.8944 204.091L50.6276 204.107L50.5537 204.111L50.5629 204.017C50.6679 202.996 50.8974 202.217 51.5372 201.059C52.7152 198.929 54.9073 196.734 58.404 194.525L58.6928 194.343C62.6577 191.868 65.4057 190.778 67.1907 190.787Z" fill="#164E63"/>
<path fill-rule="evenodd" clip-rule="evenodd" d="M41.3532 239.16L30.7637 227.171L40.117 205.479H59.7333L68.7601 227.544L58.5204 239.16H41.3532Z" fill="#008473"/>
<path fill-rule="evenodd" clip-rule="evenodd" d="M125.743 238.787H48.2108C46.858 238.787 45.7617 237.691 45.7617 236.338V234.868C45.7617 233.515 46.858 232.419 48.2108 232.419H125.743C127.096 232.419 128.192 233.515 128.192 234.868V236.338C128.192 237.691 127.096 238.787 125.743 238.787Z" fill="#164E63"/>
<path fill-rule="evenodd" clip-rule="evenodd" d="M23.2996 238.787H6.97207C5.61922 238.787 4.52295 237.691 4.52295 236.338V234.868C4.52295 233.515 5.61922 232.419 6.97207 232.419H23.2996C24.6524 232.419 25.7487 233.515 25.7487 234.868V236.338C25.772 237.691 24.6524 238.787 23.2996 238.787Z" fill="#164E63"/>
<path fill-rule="evenodd" clip-rule="evenodd" d="M151.634 174.06L242.321 174.807C243.511 174.807 244.537 175.623 244.817 176.766L257.366 229.9H290.091C290.091 229.9 291.91 239.277 281.32 239.277C275.956 239.277 166.048 239.277 166.048 239.277C164.859 239.277 163.832 238.461 163.553 237.318L149.138 177.209C148.765 175.6 150.001 174.06 151.634 174.06Z" fill="#0E7490"/>
<path fill-rule="evenodd" clip-rule="evenodd" d="M251.675 224.839L241.832 183.437C241.482 182.014 240.222 181.011 238.753 181.011L160.241 180.078C158.188 180.078 156.672 181.991 157.162 183.973L167.028 226.378C167.378 227.801 168.638 228.827 170.107 228.804L248.572 228.734C250.625 228.734 252.141 226.821 251.675 224.839Z" fill="#F1F5F9"/>
<path fill-rule="evenodd" clip-rule="evenodd" d="M168.072 186.861C168.281 186.536 168.714 186.441 169.039 186.65C169.352 186.851 169.451 187.26 169.272 187.581L169.25 187.617L167.569 190.234L170.285 192.045C170.595 192.251 170.687 192.662 170.502 192.979L170.48 193.015C170.273 193.325 169.863 193.417 169.545 193.232L169.509 193.209L166.22 191.017C165.915 190.813 165.821 190.41 165.997 190.094L166.02 190.056L168.072 186.861Z" fill="#06D0B6"/>
<path fill-rule="evenodd" clip-rule="evenodd" d="M175.154 187.412C175.355 187.081 175.785 186.977 176.116 187.178C176.434 187.371 176.542 187.777 176.371 188.102L176.35 188.139L173.667 192.547C173.466 192.878 173.036 192.982 172.706 192.781C172.388 192.588 172.279 192.182 172.451 191.857L172.472 191.82L175.154 187.412Z" fill="#06D0B6"/>
<path fill-rule="evenodd" clip-rule="evenodd" d="M178.231 187.114C178.459 186.82 178.874 186.757 179.177 186.963L179.213 186.989L182.315 189.391C182.599 189.611 182.669 190.009 182.482 190.311L182.458 190.348L180.545 193.054C180.322 193.37 179.885 193.445 179.57 193.222C179.266 193.007 179.185 192.595 179.378 192.283L179.402 192.246L180.929 190.088L178.356 188.095C178.062 187.868 177.999 187.453 178.205 187.149L178.231 187.114Z" fill="#06D0B6"/>
<path fill-rule="evenodd" clip-rule="evenodd" d="M190.353 220.897C190.74 220.897 191.053 221.21 191.053 221.596C191.053 221.969 190.762 222.274 190.394 222.295L190.353 222.296H183.169C182.783 222.296 182.469 221.983 182.469 221.596C182.469 221.224 182.761 220.919 183.128 220.898L183.169 220.897H190.353Z" fill="#06D0B6"/>
<path fill-rule="evenodd" clip-rule="evenodd" d="M210.016 220.92C210.402 220.92 210.715 221.233 210.715 221.62C210.715 221.992 210.424 222.297 210.057 222.318L210.016 222.319H195.344C194.958 222.319 194.645 222.006 194.645 221.62C194.645 221.247 194.936 220.942 195.303 220.921L195.344 220.92H210.016Z" fill="#06D0B6"/>
<path fill-rule="evenodd" clip-rule="evenodd" d="M214.868 220.92L242.765 220.943C243.151 220.944 243.464 221.257 243.464 221.644C243.464 222.016 243.172 222.321 242.805 222.342L242.764 222.343L214.867 222.319C214.481 222.319 214.168 222.006 214.168 221.619C214.168 221.246 214.46 220.942 214.827 220.921L214.868 220.92Z" fill="#06D0B6"/>
<path fill-rule="evenodd" clip-rule="evenodd" d="M172.84 216.605L177.225 216.628C177.611 216.63 177.923 216.945 177.921 217.332C177.919 217.704 177.626 218.007 177.258 218.027L177.217 218.028L172.832 218.004C172.446 218.002 172.134 217.687 172.136 217.301C172.138 216.928 172.431 216.625 172.799 216.606L172.84 216.605Z" fill="#06D0B6"/>
<path fill-rule="evenodd" clip-rule="evenodd" d="M189.374 216.628C189.76 216.628 190.073 216.941 190.073 217.328C190.073 217.701 189.782 218.005 189.415 218.026L189.374 218.028H182.189C181.803 218.028 181.49 217.714 181.49 217.328C181.49 216.955 181.781 216.651 182.148 216.629L182.189 216.628H189.374Z" fill="#06D0B6"/>
<path fill-rule="evenodd" clip-rule="evenodd" d="M194.319 216.628L243.301 216.651C243.688 216.652 244.001 216.965 244.001 217.352C244 217.724 243.709 218.029 243.342 218.05L243.301 218.051L194.318 218.028C193.932 218.027 193.618 217.714 193.619 217.328C193.619 216.955 193.91 216.65 194.278 216.629L194.319 216.628Z" fill="#06D0B6"/>
<path fill-rule="evenodd" clip-rule="evenodd" d="M181.793 212.337C182.179 212.337 182.493 212.65 182.493 213.036C182.493 213.409 182.201 213.714 181.834 213.735L181.793 213.736H171.833C171.447 213.736 171.133 213.423 171.133 213.036C171.133 212.664 171.425 212.359 171.792 212.338L171.833 212.337H181.793Z" fill="#06D0B6"/>
<path fill-rule="evenodd" clip-rule="evenodd" d="M186.529 212.337L199.754 212.36C200.141 212.361 200.454 212.675 200.453 213.061C200.452 213.434 200.16 213.738 199.793 213.758L199.752 213.759L186.527 213.736C186.14 213.735 185.827 213.422 185.828 213.035C185.829 212.663 186.121 212.358 186.488 212.338L186.529 212.337Z" fill="#06D0B6"/>
<path fill-rule="evenodd" clip-rule="evenodd" d="M229.609 212.36C229.996 212.36 230.309 212.673 230.309 213.06C230.309 213.432 230.018 213.737 229.65 213.758L229.609 213.759H213.165C212.779 213.759 212.465 213.446 212.465 213.06C212.465 212.687 212.757 212.382 213.124 212.361L213.165 212.36H229.609Z" fill="#06D0B6"/>
<path fill-rule="evenodd" clip-rule="evenodd" d="M209.129 212.36C209.516 212.36 209.829 212.673 209.829 213.06C209.829 213.432 209.538 213.737 209.171 213.758L209.129 213.759H204.464C204.078 213.759 203.765 213.446 203.765 213.06C203.765 212.687 204.056 212.382 204.423 212.361L204.464 212.36H209.129Z" fill="#06D0B6"/>
<path fill-rule="evenodd" clip-rule="evenodd" d="M170.855 208.045L184.547 208.068C184.933 208.069 185.246 208.382 185.245 208.769C185.244 209.142 184.953 209.446 184.585 209.466L184.544 209.467L170.852 209.444C170.466 209.444 170.153 209.13 170.154 208.743C170.154 208.371 170.446 208.066 170.814 208.046L170.855 208.045Z" fill="#06D0B6"/>
<path fill-rule="evenodd" clip-rule="evenodd" d="M188.721 208.068L223.568 208.091C223.955 208.091 224.268 208.405 224.268 208.791C224.267 209.164 223.976 209.468 223.608 209.49L223.567 209.491L188.72 209.467C188.333 209.467 188.02 209.154 188.021 208.767C188.021 208.394 188.312 208.09 188.68 208.069L188.721 208.068Z" fill="#06D0B6"/>
<path fill-rule="evenodd" clip-rule="evenodd" d="M241.318 208.091C241.704 208.091 242.017 208.405 242.017 208.791C242.017 209.164 241.726 209.468 241.359 209.49L241.318 209.491H227.719C227.333 209.491 227.02 209.178 227.02 208.791C227.02 208.418 227.311 208.114 227.678 208.092L227.719 208.091H241.318Z" fill="#06D0B6"/>
<path fill-rule="evenodd" clip-rule="evenodd" d="M183.239 203.776C183.625 203.776 183.939 204.09 183.939 204.476C183.939 204.849 183.647 205.153 183.28 205.175L183.239 205.176H177.991C177.604 205.176 177.291 204.863 177.291 204.476C177.291 204.103 177.582 203.799 177.95 203.778L177.991 203.776H183.239Z" fill="#06D0B6"/>
<path fill-rule="evenodd" clip-rule="evenodd" d="M186.669 203.776L219.067 203.8C219.453 203.8 219.766 204.113 219.766 204.5C219.766 204.873 219.474 205.177 219.107 205.198L219.066 205.199L186.668 205.176C186.281 205.176 185.968 204.862 185.968 204.476C185.969 204.103 186.26 203.799 186.627 203.778L186.669 203.776Z" fill="#06D0B6"/>
<path fill-rule="evenodd" clip-rule="evenodd" d="M174.562 203.776C174.949 203.776 175.262 204.09 175.262 204.476C175.262 204.849 174.971 205.153 174.603 205.175L174.562 205.176H169.851C169.464 205.176 169.151 204.863 169.151 204.476C169.151 204.103 169.442 203.799 169.81 203.778L169.851 203.776H174.562Z" fill="#06D0B6"/>
<path fill-rule="evenodd" clip-rule="evenodd" d="M194.015 200.417C194.401 200.417 194.715 200.731 194.715 201.117C194.715 201.49 194.423 201.795 194.056 201.816L194.015 201.817H169.081C168.694 201.817 168.381 201.504 168.381 201.117C168.381 200.745 168.672 200.44 169.039 200.419L169.081 200.417H194.015Z" fill="#06D0B6"/>
<path fill-rule="evenodd" clip-rule="evenodd" d="M197.841 200.417L240.176 200.441C240.562 200.441 240.875 200.754 240.875 201.141C240.875 201.514 240.583 201.818 240.216 201.839L240.175 201.84L197.84 201.817C197.454 201.817 197.14 201.503 197.141 201.117C197.141 200.744 197.432 200.44 197.8 200.419L197.841 200.417Z" fill="#06D0B6"/>
<path fill-rule="evenodd" clip-rule="evenodd" d="M168.149 196.359L181.84 196.382C182.227 196.383 182.54 196.697 182.539 197.083C182.538 197.456 182.247 197.76 181.879 197.781L181.838 197.782L168.146 197.758C167.76 197.758 167.447 197.444 167.448 197.057C167.448 196.685 167.74 196.381 168.108 196.36L168.149 196.359Z" fill="#06D0B6"/>
<path fill-rule="evenodd" clip-rule="evenodd" d="M196.627 196.382C197.014 196.382 197.327 196.695 197.327 197.082C197.327 197.454 197.036 197.759 196.668 197.78L196.627 197.782H186.481C186.095 197.782 185.781 197.468 185.781 197.082C185.781 196.709 186.073 196.405 186.44 196.383L186.481 196.382H196.627Z" fill="#06D0B6"/>
<path fill-rule="evenodd" clip-rule="evenodd" d="M206.75 196.382C207.137 196.382 207.45 196.695 207.45 197.082C207.45 197.454 207.159 197.759 206.791 197.78L206.75 197.782H200.942C200.556 197.782 200.243 197.468 200.243 197.082C200.243 196.709 200.534 196.405 200.901 196.383L200.942 196.382H206.75Z" fill="#06D0B6"/>
<path fill-rule="evenodd" clip-rule="evenodd" d="M211.044 196.382L223.546 196.405C223.932 196.406 224.245 196.72 224.244 197.106C224.244 197.479 223.952 197.783 223.585 197.804L223.543 197.805L211.041 197.782C210.655 197.781 210.342 197.467 210.343 197.081C210.343 196.708 210.635 196.404 211.003 196.383L211.044 196.382Z" fill="#06D0B6"/>
<path fill-rule="evenodd" clip-rule="evenodd" d="M231.219 196.406C231.605 196.406 231.918 196.719 231.918 197.105C231.918 197.478 231.627 197.783 231.26 197.804L231.219 197.805H227.86C227.473 197.805 227.16 197.492 227.16 197.105C227.16 196.733 227.451 196.428 227.819 196.407L227.86 196.406H231.219Z" fill="#06D0B6"/>
<path fill-rule="evenodd" clip-rule="evenodd" d="M214.588 178.049C214.588 178.049 218.67 196.242 222.378 199.111H251.745C251.745 199.111 247.173 198.015 245.773 193.023C244.374 188.032 241.598 178.095 241.598 178.095L214.588 178.049Z" fill="#008473"/>
<path fill-rule="evenodd" clip-rule="evenodd" d="M238.542 183.833C238.929 183.833 239.242 184.147 239.242 184.533C239.242 184.906 238.951 185.21 238.584 185.232L238.542 185.233H220.815C220.429 185.233 220.116 184.919 220.116 184.533C220.116 184.16 220.407 183.856 220.774 183.834L220.815 183.833H238.542Z" fill="#164E63"/>
<path fill-rule="evenodd" clip-rule="evenodd" d="M239.312 187.169C239.698 187.169 240.012 187.482 240.012 187.869C240.012 188.241 239.72 188.546 239.353 188.567L239.312 188.568H221.585C221.199 188.568 220.885 188.255 220.885 187.869C220.885 187.496 221.177 187.191 221.544 187.17L221.585 187.169H239.312Z" fill="#164E63"/>
<path fill-rule="evenodd" clip-rule="evenodd" d="M234.274 190.574C234.66 190.574 234.974 190.888 234.974 191.274C234.974 191.647 234.682 191.951 234.315 191.973L234.274 191.974H222.518C222.132 191.974 221.818 191.66 221.818 191.274C221.818 190.901 222.11 190.597 222.477 190.575L222.518 190.574H234.274Z" fill="#164E63"/>
<path fill-rule="evenodd" clip-rule="evenodd" d="M384.3 238.6C384.687 238.6 385 238.914 385 239.3C385 239.673 384.709 239.977 384.341 239.999L384.3 240H-14.3003C-14.6867 240 -15 239.687 -15 239.3C-15 238.927 -14.7087 238.623 -14.3414 238.602L-14.3003 238.6H384.3Z" fill="#164E63"/>
</g>
<defs>
<clipPath id="clip0_138_953">
<rect width="370" height="320" fill="white"/>
</clipPath>
</defs>
</svg>
