<svg width="370" height="320" viewBox="0 0 370 320" fill="none" xmlns="http://www.w3.org/2000/svg">
<g clip-path="url(#clip0_138_948)">
<rect width="370" height="320" fill="white"/>
<path fill-rule="evenodd" clip-rule="evenodd" d="M89.9434 201.765L79.8154 238.926H140.657L130.821 201.447L89.9434 201.765Z" fill="#06D0B6"/>
<path fill-rule="evenodd" clip-rule="evenodd" d="M109.419 226.864C113.476 226.864 116.764 223.574 116.764 219.515C116.764 215.456 113.476 212.166 109.419 212.166C105.362 212.166 102.073 215.456 102.073 219.515C102.073 223.574 105.362 226.864 109.419 226.864Z" fill="#F1F5F9"/>
<path fill-rule="evenodd" clip-rule="evenodd" d="M125.505 202.541C125.885 202.452 126.265 202.676 126.374 203.045L126.385 203.087L134.512 237.758C134.604 238.151 134.36 238.546 133.966 238.638C133.587 238.727 133.207 238.503 133.097 238.134L133.086 238.092L124.959 203.421C124.867 203.028 125.111 202.633 125.505 202.541Z" fill="#164E63"/>
<path fill-rule="evenodd" clip-rule="evenodd" d="M192.712 203.132H22.562C21.1465 203.132 19.9995 201.984 19.9995 200.568V98.6562C19.9995 97.2401 21.1465 96.0925 22.562 96.0925H192.712C194.127 96.0925 195.275 97.2401 195.275 98.6562V200.568C195.275 201.984 194.127 203.132 192.712 203.132Z" fill="#06D0B6"/>
<path fill-rule="evenodd" clip-rule="evenodd" d="M187.928 96.1902C188.318 96.1902 188.637 96.4951 188.659 96.8796L188.661 96.9227V202.204C188.661 202.609 188.333 202.937 187.928 202.937C187.539 202.937 187.22 202.632 187.198 202.247L187.196 202.204V96.9227C187.196 96.5181 187.524 96.1902 187.928 96.1902Z" fill="#164E63"/>
<path fill-rule="evenodd" clip-rule="evenodd" d="M177.678 194.049H30.9326C29.5171 194.049 28.3701 192.902 28.3701 191.486V105.371C28.3701 103.954 29.5171 102.807 30.9326 102.807H177.678C179.094 102.807 180.241 103.954 180.241 105.371V191.486C180.265 192.902 179.094 194.049 177.678 194.049Z" fill="#F1F5F9"/>
<path fill-rule="evenodd" clip-rule="evenodd" d="M42.403 108.325C42.793 108.325 43.1117 108.63 43.1339 109.014L43.1352 109.057V194.049C43.1352 194.454 42.8074 194.782 42.403 194.782C42.0131 194.782 41.6944 194.477 41.6721 194.092L41.6709 194.049V109.057C41.6709 108.653 41.9987 108.325 42.403 108.325Z" fill="#164E63"/>
<path fill-rule="evenodd" clip-rule="evenodd" d="M180.266 108.325C180.67 108.325 180.998 108.653 180.998 109.057C180.998 109.448 180.693 109.766 180.309 109.789L180.266 109.79H28.3703C27.966 109.79 27.6382 109.462 27.6382 109.057C27.6382 108.667 27.943 108.348 28.3273 108.326L28.3703 108.325H180.266Z" fill="#164E63"/>
<rect x="29.981" y="114.282" width="4.14881" height="4.15071" fill="#164E63"/>
<rect x="36.0332" y="114.282" width="4.14881" height="4.15071" fill="#164E63"/>
<rect x="29.981" y="120.655" width="4.14881" height="4.15071" fill="#164E63"/>
<rect x="36.0332" y="120.655" width="4.14881" height="4.15071" fill="#164E63"/>
<rect x="29.981" y="127.003" width="4.14881" height="4.15071" fill="#164E63"/>
<rect x="36.0332" y="127.003" width="4.14881" height="4.15071" fill="#164E63"/>
<rect x="29.981" y="133.351" width="4.14881" height="4.15071" fill="#164E63"/>
<rect x="36.0332" y="133.351" width="4.14881" height="4.15071" fill="#164E63"/>
<rect x="29.981" y="139.724" width="4.14881" height="4.15071" fill="#164E63"/>
<rect x="36.0332" y="139.724" width="4.14881" height="4.15071" fill="#164E63"/>
<rect x="29.981" y="146.072" width="4.14881" height="4.15071" fill="#164E63"/>
<rect x="36.0332" y="146.072" width="4.14881" height="4.15071" fill="#164E63"/>
<rect x="29.981" y="152.445" width="4.14881" height="4.15071" fill="#164E63"/>
<rect x="36.0332" y="152.445" width="4.14881" height="4.15071" fill="#164E63"/>
<rect x="29.981" y="158.793" width="4.14881" height="4.15071" fill="#164E63"/>
<rect x="36.0332" y="158.793" width="4.14881" height="4.15071" fill="#164E63"/>
<path fill-rule="evenodd" clip-rule="evenodd" d="M58.8274 171.123C57.1285 171.123 55.7524 172.49 55.7524 174.175V175.42C55.7524 177.119 57.1191 178.496 58.803 178.496L72.735 178.569C74.4108 178.569 75.7826 177.206 75.8131 175.529L75.8132 174.272C75.8132 172.598 74.4864 171.236 72.8366 171.197L58.8274 171.123ZM58.8274 172.343L72.7594 172.417C73.7707 172.417 74.5929 173.245 74.5929 174.272V175.517C74.5746 176.522 73.7425 177.349 72.7382 177.349L58.8062 177.275C57.7949 177.275 56.9727 176.447 56.9727 175.42V174.175C56.9727 173.166 57.8006 172.343 58.8274 172.343Z" fill="#164E63"/>
<path fill-rule="evenodd" clip-rule="evenodd" d="M71.8351 179.522C74.4634 179.522 76.594 177.39 76.594 174.761C76.594 172.131 74.4634 170 71.8351 170C69.2068 170 67.0762 172.131 67.0762 174.761C67.0762 177.39 69.2068 179.522 71.8351 179.522Z" fill="#008473"/>
<path fill-rule="evenodd" clip-rule="evenodd" d="M94.5803 125.367H66.466C66.0617 125.367 65.7339 125.695 65.7339 126.1V162.748C65.7339 163.153 66.0617 163.48 66.466 163.48H94.5803C94.9847 163.48 95.3125 163.153 95.3125 162.748V126.1C95.3125 125.695 94.9847 125.367 94.5803 125.367ZM93.8482 126.832V162.016H67.1982V126.832H93.8482Z" fill="#164E63"/>
<path fill-rule="evenodd" clip-rule="evenodd" d="M80.5232 140.774C75.9406 140.774 72.2256 144.49 72.2256 149.075C72.2256 153.66 75.9406 157.377 80.5232 157.377C85.1059 157.377 88.8208 153.66 88.8208 149.075C88.8208 144.49 85.1059 140.774 80.5232 140.774ZM80.5232 142.239C84.2971 142.239 87.3565 145.299 87.3565 149.075C87.3565 152.851 84.2971 155.912 80.5232 155.912C76.7493 155.912 73.6899 152.851 73.6899 149.075C73.6899 145.299 76.7493 142.239 80.5232 142.239Z" fill="#164E63"/>
<path fill-rule="evenodd" clip-rule="evenodd" d="M88.1131 137.502C88.5174 137.502 88.8452 137.83 88.8452 138.234C88.8452 138.625 88.5404 138.943 88.1561 138.966L88.1131 138.967H72.9577C72.5534 138.967 72.2256 138.639 72.2256 138.234C72.2256 137.844 72.5304 137.525 72.9147 137.503L72.9577 137.502H88.1131Z" fill="#164E63"/>
<path fill-rule="evenodd" clip-rule="evenodd" d="M88.1131 135.353C88.5174 135.353 88.8452 135.681 88.8452 136.086C88.8452 136.476 88.5404 136.795 88.1561 136.817L88.1131 136.818H72.9577C72.5534 136.818 72.2256 136.49 72.2256 136.086C72.2256 135.696 72.5304 135.377 72.9147 135.355L72.9577 135.353H88.1131Z" fill="#164E63"/>
<path fill-rule="evenodd" clip-rule="evenodd" d="M88.1131 133.131C88.5174 133.131 88.8452 133.459 88.8452 133.864C88.8452 134.254 88.5404 134.573 88.1561 134.595L88.1131 134.596H72.9577C72.5534 134.596 72.2256 134.268 72.2256 133.864C72.2256 133.474 72.5304 133.155 72.9147 133.133L72.9577 133.131H88.1131Z" fill="#164E63"/>
<rect x="83.4272" y="113.403" width="56.3262" height="73.4187" fill="#06D0B6"/>
<path fill-rule="evenodd" clip-rule="evenodd" d="M117.448 119.654H89.26C88.9231 119.654 88.6499 119.927 88.6499 120.264V142.678C88.6499 143.015 88.9231 143.288 89.26 143.288H117.448C117.784 143.288 118.058 143.015 118.058 142.678V120.264C118.058 119.927 117.784 119.654 117.448 119.654ZM116.837 120.874V142.067H89.8701V120.874H116.837Z" fill="#164E63"/>
<path fill-rule="evenodd" clip-rule="evenodd" d="M133.97 146.292H89.26C88.9231 146.292 88.6499 146.565 88.6499 146.902V182.452C88.6499 182.789 88.9231 183.062 89.26 183.062H133.97C134.306 183.062 134.58 182.789 134.58 182.452V146.902C134.58 146.565 134.306 146.292 133.97 146.292ZM133.359 147.512V181.841H89.8701V147.512H133.359Z" fill="#164E63"/>
<path fill-rule="evenodd" clip-rule="evenodd" d="M117.068 119.786C117.332 119.577 117.716 119.621 117.925 119.884C118.126 120.137 118.094 120.499 117.86 120.714L117.827 120.742L89.6397 143.156C89.3759 143.366 88.9921 143.322 88.7824 143.058C88.5819 142.805 88.6133 142.443 88.8473 142.229L88.8804 142.2L117.068 119.786Z" fill="#164E63"/>
<path fill-rule="evenodd" clip-rule="evenodd" d="M88.7824 119.884C88.983 119.632 89.3428 119.581 89.6046 119.76L89.6397 119.786L117.827 142.2C118.091 142.41 118.135 142.794 117.925 143.058C117.725 143.31 117.365 143.361 117.103 143.182L117.068 143.156L88.8804 120.742C88.6166 120.532 88.5728 120.148 88.7824 119.884Z" fill="#164E63"/>
<path fill-rule="evenodd" clip-rule="evenodd" d="M133.614 146.424C133.878 146.214 134.262 146.258 134.472 146.522C134.672 146.775 134.641 147.137 134.407 147.352L134.373 147.38L89.6395 182.929C89.3757 183.139 88.9919 183.095 88.7823 182.831C88.5818 182.579 88.6134 182.216 88.8474 182.002L88.8806 181.974L133.614 146.424Z" fill="#164E63"/>
<path fill-rule="evenodd" clip-rule="evenodd" d="M88.7823 146.522C88.9828 146.27 89.3426 146.219 89.6045 146.398L89.6395 146.424L134.373 181.974C134.637 182.183 134.681 182.567 134.472 182.831C134.271 183.084 133.911 183.135 133.65 182.955L133.614 182.929L88.8806 147.38C88.6167 147.17 88.5727 146.786 88.7823 146.522Z" fill="#164E63"/>
<path fill-rule="evenodd" clip-rule="evenodd" d="M133.994 123.487C134.331 123.487 134.604 123.76 134.604 124.097C134.604 124.421 134.352 124.686 134.034 124.707L133.994 124.708H121.401C121.064 124.708 120.791 124.435 120.791 124.097C120.791 123.774 121.043 123.509 121.361 123.488L121.401 123.487H133.994Z" fill="#164E63"/>
<path fill-rule="evenodd" clip-rule="evenodd" d="M133.994 126.368C134.331 126.368 134.604 126.641 134.604 126.979C134.604 127.302 134.352 127.567 134.034 127.588L133.994 127.589H121.401C121.064 127.589 120.791 127.316 120.791 126.979C120.791 126.655 121.043 126.39 121.361 126.369L121.401 126.368H133.994Z" fill="#164E63"/>
<path fill-rule="evenodd" clip-rule="evenodd" d="M133.994 129.249C134.331 129.249 134.604 129.523 134.604 129.86C134.604 130.183 134.352 130.448 134.034 130.469L133.994 130.47H121.401C121.064 130.47 120.791 130.197 120.791 129.86C120.791 129.536 121.043 129.271 121.361 129.251L121.401 129.249H133.994Z" fill="#164E63"/>
<path fill-rule="evenodd" clip-rule="evenodd" d="M133.994 132.399C134.331 132.399 134.604 132.672 134.604 133.009C134.604 133.333 134.352 133.598 134.034 133.618L133.994 133.62H121.401C121.064 133.62 120.791 133.346 120.791 133.009C120.791 132.686 121.043 132.421 121.361 132.4L121.401 132.399H133.994Z" fill="#164E63"/>
<path fill-rule="evenodd" clip-rule="evenodd" d="M133.97 135.134H121.401C121.064 135.134 120.791 135.407 120.791 135.744V138.601C120.791 138.938 121.064 139.211 121.401 139.211H133.97C134.307 139.211 134.58 138.938 134.58 138.601V135.744C134.58 135.407 134.307 135.134 133.97 135.134ZM133.359 136.354V137.99H122.011V136.354H133.359Z" fill="#164E63"/>
<path fill-rule="evenodd" clip-rule="evenodd" d="M175.873 108.325C176.263 108.325 176.581 108.63 176.604 109.014L176.605 109.057V194.049C176.605 194.454 176.277 194.782 175.873 194.782C175.483 194.782 175.164 194.477 175.142 194.092L175.141 194.049V109.057C175.141 108.653 175.468 108.325 175.873 108.325Z" fill="#164E63"/>
<path fill-rule="evenodd" clip-rule="evenodd" d="M213.285 172.759H149.247C148.076 172.759 147.148 171.806 147.148 170.659V106.591C147.148 105.42 148.1 104.492 149.247 104.492H213.285C214.457 104.492 215.384 105.444 215.384 106.591V170.659C215.384 171.806 214.457 172.759 213.285 172.759Z" fill="#164E63"/>
<path fill-rule="evenodd" clip-rule="evenodd" d="M215.384 118.042C215.788 118.042 216.116 118.37 216.116 118.775C216.116 119.165 215.811 119.484 215.427 119.506L215.384 119.507H147.148C146.744 119.507 146.416 119.179 146.416 118.775C146.416 118.385 146.721 118.066 147.105 118.044L147.148 118.042H215.384Z" fill="#F1F5F9"/>
<path fill-rule="evenodd" clip-rule="evenodd" d="M215.384 131.594C215.788 131.594 216.116 131.921 216.116 132.326C216.116 132.716 215.811 133.035 215.427 133.057L215.384 133.058H147.148C146.744 133.058 146.416 132.731 146.416 132.326C146.416 131.936 146.721 131.617 147.105 131.595L147.148 131.594H215.384Z" fill="#F1F5F9"/>
<path fill-rule="evenodd" clip-rule="evenodd" d="M215.384 145.169C215.788 145.169 216.116 145.497 216.116 145.901C216.116 146.291 215.811 146.61 215.427 146.632L215.384 146.634H147.148C146.744 146.634 146.416 146.306 146.416 145.901C146.416 145.511 146.721 145.192 147.105 145.17L147.148 145.169H215.384Z" fill="#F1F5F9"/>
<path fill-rule="evenodd" clip-rule="evenodd" d="M215.384 158.719C215.788 158.719 216.116 159.047 216.116 159.452C216.116 159.842 215.811 160.161 215.427 160.183L215.384 160.184H147.148C146.744 160.184 146.416 159.856 146.416 159.452C146.416 159.062 146.721 158.743 147.105 158.721L147.148 158.719H215.384Z" fill="#F1F5F9"/>
<path fill-rule="evenodd" clip-rule="evenodd" d="M168.6 118.042C168.99 118.042 169.308 118.347 169.331 118.732L169.332 118.775V172.759C169.332 173.163 169.004 173.491 168.6 173.491C168.21 173.491 167.891 173.186 167.869 172.802L167.868 172.759V118.775C167.868 118.37 168.195 118.042 168.6 118.042Z" fill="#F1F5F9"/>
<path fill-rule="evenodd" clip-rule="evenodd" d="M179.363 118.042C179.752 118.042 180.071 118.347 180.093 118.732L180.095 118.775V172.759C180.095 173.163 179.767 173.491 179.363 173.491C178.973 173.491 178.654 173.186 178.632 172.802L178.63 172.759V118.775C178.63 118.37 178.958 118.042 179.363 118.042Z" fill="#F1F5F9"/>
<path fill-rule="evenodd" clip-rule="evenodd" d="M157.959 122.34C154.2 122.34 151.077 123.678 151.077 125.709C151.077 127.74 154.2 129.078 157.959 129.078C161.719 129.078 164.841 127.74 164.841 125.709C164.841 123.699 161.781 122.366 158.072 122.34L157.959 122.34ZM157.959 123.805C160.993 123.805 163.377 124.827 163.377 125.709C163.377 126.591 160.993 127.613 157.959 127.613C154.926 127.613 152.541 126.591 152.541 125.709C152.541 124.837 154.871 123.828 157.854 123.805L157.959 123.805Z" fill="#F1F5F9"/>
<path fill-rule="evenodd" clip-rule="evenodd" d="M158.008 128.321C158.669 128.321 159.204 127.152 159.204 125.709C159.204 124.266 158.669 123.096 158.008 123.096C157.348 123.096 156.812 124.266 156.812 125.709C156.812 127.152 157.348 128.321 158.008 128.321Z" fill="#F1F5F9"/>
<rect x="172.212" y="121.851" width="3.66071" height="7.69102" fill="#008473"/>
<path fill-rule="evenodd" clip-rule="evenodd" d="M199.13 124.977C199.534 124.977 199.862 125.305 199.862 125.709C199.862 126.099 199.557 126.418 199.173 126.44L199.13 126.442H185.951C185.547 126.442 185.219 126.114 185.219 125.709C185.219 125.319 185.524 125 185.908 124.978L185.951 124.977H199.13Z" fill="#F1F5F9"/>
<path fill-rule="evenodd" clip-rule="evenodd" d="M207.574 122.706C205.916 122.706 204.572 124.05 204.572 125.709C204.572 127.368 205.916 128.712 207.574 128.712C209.232 128.712 210.576 127.368 210.576 125.709C210.576 124.05 209.232 122.706 207.574 122.706ZM207.574 124.171C208.423 124.171 209.112 124.859 209.112 125.709C209.112 126.558 208.423 127.247 207.574 127.247C206.725 127.247 206.037 126.558 206.037 125.709C206.037 124.859 206.725 124.171 207.574 124.171Z" fill="#F1F5F9"/>
<path fill-rule="evenodd" clip-rule="evenodd" d="M157.959 135.866C154.2 135.866 151.077 137.205 151.077 139.236C151.077 141.266 154.2 142.605 157.959 142.605C161.719 142.605 164.841 141.266 164.841 139.236C164.841 137.225 161.781 135.893 158.072 135.867L157.959 135.866ZM157.959 137.331C160.993 137.331 163.377 138.354 163.377 139.236C163.377 140.118 160.993 141.14 157.959 141.14C154.926 141.14 152.541 140.118 152.541 139.236C152.541 138.364 154.871 137.355 157.854 137.332L157.959 137.331Z" fill="#F1F5F9"/>
<path fill-rule="evenodd" clip-rule="evenodd" d="M158.008 141.848C158.669 141.848 159.204 140.678 159.204 139.236C159.204 137.793 158.669 136.623 158.008 136.623C157.348 136.623 156.812 137.793 156.812 139.236C156.812 140.678 157.348 141.848 158.008 141.848Z" fill="#F1F5F9"/>
<rect x="172.212" y="135.402" width="3.66071" height="7.69102" fill="#F1F5F9"/>
<path fill-rule="evenodd" clip-rule="evenodd" d="M199.13 138.503C199.534 138.503 199.862 138.831 199.862 139.236C199.862 139.626 199.557 139.945 199.173 139.967L199.13 139.968H185.951C185.547 139.968 185.219 139.64 185.219 139.236C185.219 138.846 185.524 138.527 185.908 138.504L185.951 138.503H199.13Z" fill="#F1F5F9"/>
<path fill-rule="evenodd" clip-rule="evenodd" d="M207.574 136.232C205.916 136.232 204.572 137.577 204.572 139.236C204.572 140.894 205.916 142.239 207.574 142.239C209.232 142.239 210.576 140.894 210.576 139.236C210.576 137.577 209.232 136.232 207.574 136.232ZM207.574 137.697C208.423 137.697 209.112 138.386 209.112 139.236C209.112 140.085 208.423 140.774 207.574 140.774C206.725 140.774 206.037 140.085 206.037 139.236C206.037 138.386 206.725 137.697 207.574 137.697Z" fill="#F1F5F9"/>
<path fill-rule="evenodd" clip-rule="evenodd" d="M157.959 148.782C154.2 148.782 151.077 150.121 151.077 152.152C151.077 154.182 154.2 155.521 157.959 155.521C161.719 155.521 164.841 154.182 164.841 152.152C164.841 150.141 161.781 148.809 158.072 148.783L157.959 148.782ZM157.959 150.247C160.993 150.247 163.377 151.27 163.377 152.152C163.377 153.034 160.993 154.056 157.959 154.056C154.926 154.056 152.541 153.034 152.541 152.152C152.541 151.28 154.871 150.271 157.854 150.248L157.959 150.247Z" fill="#F1F5F9"/>
<path fill-rule="evenodd" clip-rule="evenodd" d="M158.008 154.764C158.669 154.764 159.204 153.594 159.204 152.152C159.204 150.709 158.669 149.539 158.008 149.539C157.348 149.539 156.812 150.709 156.812 152.152C156.812 153.594 157.348 154.764 158.008 154.764Z" fill="#F1F5F9"/>
<rect x="172.212" y="148.294" width="3.66071" height="7.69102" fill="#06D0B6"/>
<path fill-rule="evenodd" clip-rule="evenodd" d="M199.13 151.419C199.534 151.419 199.862 151.747 199.862 152.152C199.862 152.542 199.557 152.861 199.173 152.883L199.13 152.884H185.951C185.547 152.884 185.219 152.556 185.219 152.152C185.219 151.762 185.524 151.443 185.908 151.42L185.951 151.419H199.13Z" fill="#F1F5F9"/>
<path fill-rule="evenodd" clip-rule="evenodd" d="M207.574 149.148C205.916 149.148 204.572 150.493 204.572 152.152C204.572 153.81 205.916 155.155 207.574 155.155C209.232 155.155 210.576 153.81 210.576 152.152C210.576 150.493 209.232 149.148 207.574 149.148ZM207.574 150.613C208.423 150.613 209.112 151.302 209.112 152.152C209.112 153.001 208.423 153.69 207.574 153.69C206.725 153.69 206.037 153.001 206.037 152.152C206.037 151.302 206.725 150.613 207.574 150.613Z" fill="#F1F5F9"/>
<path fill-rule="evenodd" clip-rule="evenodd" d="M157.959 162.309C154.2 162.309 151.077 163.647 151.077 165.678C151.077 167.688 154.138 169.021 157.847 169.047L157.959 169.047C161.719 169.047 164.841 167.709 164.841 165.678C164.841 163.647 161.719 162.309 157.959 162.309ZM157.959 163.774C160.993 163.774 163.377 164.796 163.377 165.678C163.377 166.55 161.048 167.559 158.065 167.582L157.959 167.582C154.926 167.582 152.541 166.56 152.541 165.678C152.541 164.796 154.926 163.774 157.959 163.774Z" fill="#F1F5F9"/>
<path fill-rule="evenodd" clip-rule="evenodd" d="M158.008 168.29C158.669 168.29 159.204 167.121 159.204 165.678C159.204 164.235 158.669 163.065 158.008 163.065C157.348 163.065 156.812 164.235 156.812 165.678C156.812 167.121 157.348 168.29 158.008 168.29Z" fill="#F1F5F9"/>
<rect x="172.212" y="161.845" width="3.66071" height="7.69102" fill="#F1F5F9"/>
<path fill-rule="evenodd" clip-rule="evenodd" d="M199.13 164.946C199.534 164.946 199.862 165.273 199.862 165.678C199.862 166.068 199.557 166.387 199.173 166.409L199.13 166.411H185.951C185.547 166.411 185.219 166.083 185.219 165.678C185.219 165.288 185.524 164.969 185.908 164.947L185.951 164.946H199.13Z" fill="#F1F5F9"/>
<path fill-rule="evenodd" clip-rule="evenodd" d="M207.574 162.675C205.916 162.675 204.572 164.019 204.572 165.678C204.572 167.337 205.916 168.681 207.574 168.681C209.232 168.681 210.576 167.337 210.576 165.678C210.576 164.019 209.232 162.675 207.574 162.675ZM207.574 164.14C208.423 164.14 209.112 164.828 209.112 165.678C209.112 166.527 208.423 167.216 207.574 167.216C206.725 167.216 206.037 166.527 206.037 165.678C206.037 164.828 206.725 164.14 207.574 164.14Z" fill="#F1F5F9"/>
<path fill-rule="evenodd" clip-rule="evenodd" d="M205.435 108.624C205.718 108.356 206.157 108.357 206.438 108.619L206.471 108.651L210.473 112.875C210.751 113.169 210.739 113.632 210.445 113.911C210.163 114.178 209.724 114.177 209.443 113.916L209.41 113.883L205.408 109.659C205.13 109.365 205.142 108.902 205.435 108.624Z" fill="#F1F5F9"/>
<path fill-rule="evenodd" clip-rule="evenodd" d="M209.41 108.651C209.688 108.358 210.152 108.345 210.445 108.624C210.727 108.891 210.75 109.33 210.504 109.624L210.473 109.659L206.471 113.883C206.192 114.177 205.729 114.189 205.435 113.911C205.153 113.643 205.131 113.204 205.377 112.91L205.408 112.875L209.41 108.651Z" fill="#F1F5F9"/>
<path fill-rule="evenodd" clip-rule="evenodd" d="M34.6179 198.298H5.33221C4.16078 198.298 3.2334 197.346 3.2334 196.198V166.899C3.2334 165.727 4.18518 164.799 5.33221 164.799H34.6179C35.7894 164.799 36.7167 165.751 36.7167 166.899V196.198C36.7411 197.346 35.7894 198.298 34.6179 198.298Z" fill="#0E7490"/>
<rect x="17.0708" y="179.302" width="12.6417" height="12.6475" fill="#F1F5F9"/>
<rect x="20.4385" y="182.672" width="5.85714" height="5.85983" fill="#0E7490"/>
<rect x="9.06592" y="171.123" width="12.544" height="12.5498" fill="#008473"/>
<path fill-rule="evenodd" clip-rule="evenodd" d="M23.862 171.566C24.5165 171.476 25.236 171.517 25.9267 171.787C27.3885 172.358 28.2607 173.793 28.2607 176.226C28.2607 176.462 28.0694 176.653 27.8335 176.653C27.5975 176.653 27.4062 176.462 27.4062 176.226C27.4062 174.129 26.7318 173.019 25.6158 172.583C25.1125 172.386 24.5688 172.346 24.0709 172.401L23.9781 172.413C23.9289 172.42 23.8887 172.426 23.8584 172.432L23.8075 172.442C23.5778 172.496 23.3477 172.354 23.2933 172.124C23.239 171.895 23.3811 171.664 23.6107 171.61L23.6952 171.593C23.7407 171.584 23.7966 171.575 23.862 171.566Z" fill="#F1F5F9"/>
<path fill-rule="evenodd" clip-rule="evenodd" d="M28.7303 174.797C28.8988 174.632 29.1693 174.635 29.3344 174.803C29.4899 174.962 29.4966 175.211 29.3564 175.378L29.3283 175.408L28.1081 176.604C27.9506 176.759 27.7038 176.766 27.5373 176.629L27.507 176.601L26.3112 175.405C26.1443 175.238 26.1443 174.967 26.3112 174.8C26.4682 174.643 26.717 174.634 26.8849 174.773L26.9153 174.8L27.8118 175.697L28.7303 174.797Z" fill="#F1F5F9"/>
<path fill-rule="evenodd" clip-rule="evenodd" d="M24.4562 170.503C24.6231 170.336 24.8936 170.336 25.0604 170.503C25.2174 170.66 25.2267 170.909 25.0881 171.077L25.0604 171.108L24.1819 171.986L25.0694 172.93C25.2216 173.091 25.2233 173.341 25.0797 173.504L25.0511 173.534C24.8894 173.686 24.6404 173.688 24.4768 173.544L24.4472 173.515L23.2758 172.27C23.1268 172.112 23.1216 171.869 23.2576 171.705L23.2848 171.675L24.4562 170.503Z" fill="#F1F5F9"/>
<path fill-rule="evenodd" clip-rule="evenodd" d="M346.95 224.838H335.212C335.626 224.179 336.066 223.422 336.456 222.64C336.92 223.104 337.554 223.617 338.262 223.886C339.848 224.472 340.703 223.788 341.142 222.616C341.581 221.42 340.093 220.321 339.385 220.003C338.994 219.833 338.335 219.93 337.652 220.15C337.701 220.003 337.774 219.857 337.823 219.71C338.018 219.222 338.238 218.612 338.457 217.904C339.751 218.685 341.459 218.514 341.923 217.464C342.533 216.072 341.703 214.192 340.312 214.339C339.995 214.363 339.678 214.461 339.385 214.608C340.483 209.968 340.922 204.768 337.457 206.599C336.432 207.136 335.504 208.211 334.699 209.602C333.552 207.039 331.502 204.28 330.355 205.036C328.281 206.453 329.598 210.481 333.21 212.776C332.332 215.096 331.697 217.708 331.38 220.101C330.526 219.295 329.623 219.076 329.013 219.588C328.281 220.199 328.476 222.347 329.916 221.957C330.501 221.786 330.941 221.664 331.209 221.566C331.112 222.787 331.112 223.91 331.209 224.862H325.889C325.718 223.666 325.474 222.347 325.108 221.346C324.864 220.663 324.473 219.588 323.985 218.416C325.328 218.148 326.816 216.829 327.109 215.877C327.5 214.51 326.597 213.68 325.035 213.899C324.254 214.022 323.204 214.827 322.594 215.731C321.398 213.802 319.788 212.239 317.713 212.386C315.761 212.63 317.128 216.634 319.007 220.101C317.762 219.662 316.42 219.735 315.712 220.15C314.614 220.809 314.492 223.763 318.616 223.3C319.593 223.178 320.251 223.031 320.642 222.836C321.276 223.763 321.862 224.496 322.326 224.887H312.369C311.026 224.887 309.953 225.985 309.953 227.304V235.556C309.953 237.632 311.637 239.292 313.687 239.292H345.681C347.756 239.292 349.415 237.607 349.415 235.556V227.304C349.391 225.912 348.293 224.838 346.95 224.838Z" fill="#008473"/>
<path fill-rule="evenodd" clip-rule="evenodd" d="M120.23 239.805H34.3984C32.983 239.805 31.8359 238.657 31.8359 237.241V235.337C31.8359 233.92 32.983 232.773 34.3984 232.773H120.23C121.645 232.773 122.792 233.92 122.792 235.337V237.241C122.817 238.657 121.645 239.805 120.23 239.805Z" fill="#164E63"/>
<path fill-rule="evenodd" clip-rule="evenodd" d="M23.5625 238.584H7.28451C6.35713 238.584 5.60059 237.827 5.60059 236.899V234.677C5.60059 233.75 6.35713 232.993 7.28451 232.993H23.5625C24.4899 232.993 25.2464 233.75 25.2464 234.677V236.899C25.2464 237.851 24.4899 238.584 23.5625 238.584Z" fill="#164E63"/>
<path fill-rule="evenodd" clip-rule="evenodd" d="M308.293 210.188H306.17V152.566C306.17 151.981 305.682 151.492 305.096 151.492H304.535V143.606C304.535 142.678 303.778 141.921 302.851 141.921H302.582C301.655 141.921 300.899 142.678 300.899 143.606V151.492H300.337C299.751 151.492 299.263 151.981 299.263 152.566V210.188H297.946L290.868 238.584H316.542L308.293 210.188Z" fill="#164E63"/>
<rect x="300.898" y="150.003" width="3.61188" height="1.46495" fill="#F1F5F9"/>
<path fill-rule="evenodd" clip-rule="evenodd" d="M304.608 216.781C308.122 216.781 308.391 212.654 308.415 210.628L308.293 210.188H306.951V210.188C306.951 213.777 306.243 215.316 304.608 215.316C303.485 215.316 302.216 214.73 302.216 210.188V210.188H300.752V210.188C300.752 211.824 300.752 216.781 304.608 216.781Z" fill="#F1F5F9"/>
<rect x="299.264" y="208.699" width="6.90656" height="1.46496" fill="#F1F5F9"/>
<path fill-rule="evenodd" clip-rule="evenodd" d="M300.557 232.626L284.425 185.577C283.742 183.599 281.887 182.281 279.788 182.281H160.132C156.764 182.281 154.421 185.601 155.495 188.775L162.255 208.503L148.173 239.805L159.18 239.829L167.038 222.445L171.626 235.825C172.31 237.803 174.164 239.121 176.263 239.121H295.895C299.263 239.121 301.63 235.801 300.557 232.626Z" fill="#0E7490"/>
<path fill-rule="evenodd" clip-rule="evenodd" d="M293.821 228.817L280.301 189.41C279.74 187.75 278.178 186.651 276.421 186.651H195.275C192.468 186.651 190.491 189.435 191.394 192.096L204.915 231.503C205.476 233.163 207.038 234.262 208.795 234.262H289.941C292.772 234.238 294.749 231.479 293.821 228.817Z" fill="#F1F5F9"/>
<path fill-rule="evenodd" clip-rule="evenodd" d="M275.132 186.67C275.312 186.61 275.507 186.697 275.583 186.867L275.596 186.9L291.361 233.632C291.426 233.824 291.323 234.032 291.132 234.097C290.951 234.157 290.757 234.07 290.68 233.9L290.668 233.867L274.902 187.135C274.837 186.943 274.94 186.735 275.132 186.67Z" fill="#164E63"/>
<path fill-rule="evenodd" clip-rule="evenodd" d="M276.421 190.118C276.623 190.118 276.787 190.282 276.787 190.484C276.787 190.675 276.641 190.831 276.456 190.849L276.421 190.851H191.272C191.07 190.851 190.906 190.687 190.906 190.484C190.906 190.294 191.051 190.138 191.237 190.12L191.272 190.118H276.421Z" fill="#164E63"/>
<path fill-rule="evenodd" clip-rule="evenodd" d="M197.445 190.14C197.624 190.075 197.82 190.159 197.9 190.328L197.913 190.361L205.894 212.579C205.976 212.808 205.817 213.048 205.58 213.068L205.549 213.069H198.374C198.172 213.069 198.008 212.905 198.008 212.703C198.008 212.513 198.153 212.356 198.339 212.338L198.374 212.337H205.029L197.224 190.608C197.16 190.429 197.244 190.233 197.412 190.153L197.445 190.14Z" fill="#164E63"/>
<path fill-rule="evenodd" clip-rule="evenodd" d="M203.133 206.404C203.335 206.404 203.499 206.568 203.499 206.77C203.499 206.96 203.354 207.117 203.168 207.135L203.133 207.136H196.397C196.195 207.136 196.031 206.972 196.031 206.77C196.031 206.58 196.176 206.423 196.362 206.405L196.397 206.404H203.133Z" fill="#164E63"/>
<path fill-rule="evenodd" clip-rule="evenodd" d="M201.327 201.081C201.53 201.081 201.693 201.245 201.693 201.447C201.693 201.638 201.548 201.794 201.363 201.812L201.327 201.814H194.665C194.463 201.814 194.299 201.65 194.299 201.447C194.299 201.257 194.444 201.1 194.63 201.083L194.665 201.081H201.327Z" fill="#164E63"/>
<path fill-rule="evenodd" clip-rule="evenodd" d="M199.497 195.758C199.699 195.758 199.863 195.922 199.863 196.125C199.863 196.315 199.718 196.471 199.532 196.489L199.497 196.491H192.834C192.632 196.491 192.468 196.327 192.468 196.125C192.468 195.934 192.613 195.778 192.799 195.76L192.834 195.758H199.497Z" fill="#164E63"/>
<path fill-rule="evenodd" clip-rule="evenodd" d="M234.03 199.958C234.232 199.958 234.396 200.122 234.396 200.324C234.396 200.515 234.251 200.671 234.065 200.689L234.03 200.69H221.559C221.357 200.69 221.193 200.527 221.193 200.324C221.193 200.134 221.338 199.977 221.524 199.96L221.559 199.958H234.03Z" fill="#164E63"/>
<path fill-rule="evenodd" clip-rule="evenodd" d="M234.493 201.276C234.695 201.276 234.859 201.44 234.859 201.643C234.859 201.833 234.714 201.989 234.528 202.007L234.493 202.009H222.022C221.82 202.009 221.656 201.845 221.656 201.643C221.656 201.452 221.801 201.296 221.987 201.278L222.022 201.276H234.493Z" fill="#164E63"/>
<path fill-rule="evenodd" clip-rule="evenodd" d="M234.957 202.619C235.159 202.619 235.323 202.783 235.323 202.986C235.323 203.176 235.178 203.332 234.992 203.35L234.957 203.352H222.486C222.284 203.352 222.12 203.188 222.12 202.986C222.12 202.795 222.265 202.639 222.451 202.621L222.486 202.619H234.957Z" fill="#164E63"/>
<path fill-rule="evenodd" clip-rule="evenodd" d="M235.421 203.962C235.623 203.962 235.787 204.126 235.787 204.328C235.787 204.519 235.642 204.675 235.456 204.693L235.421 204.695H222.95C222.748 204.695 222.584 204.531 222.584 204.328C222.584 204.138 222.729 203.982 222.915 203.964L222.95 203.962H235.421Z" fill="#164E63"/>
<path fill-rule="evenodd" clip-rule="evenodd" d="M227.211 207.787C225.777 209.839 226.72 212.926 229.257 214.701C231.795 216.477 235.017 216.304 236.451 214.253C237.885 212.201 236.942 209.114 234.404 207.339C231.866 205.563 228.645 205.736 227.211 207.787ZM227.811 208.207C228.987 206.524 231.75 206.376 233.984 207.939C236.219 209.502 237.028 212.149 235.851 213.833C234.674 215.516 231.911 215.664 229.677 214.101C227.443 212.538 226.634 209.89 227.811 208.207Z" fill="#164E63"/>
<path fill-rule="evenodd" clip-rule="evenodd" d="M237.495 197.223H217.8C217.55 197.223 217.373 197.469 217.454 197.707L224.922 219.803C224.972 219.952 225.111 220.052 225.268 220.052H244.939C245.189 220.052 245.365 219.806 245.285 219.569L237.842 197.473C237.792 197.324 237.652 197.223 237.495 197.223ZM237.232 197.956L244.429 219.32H225.531L218.31 197.956H237.232Z" fill="#164E63"/>
<path fill-rule="evenodd" clip-rule="evenodd" d="M276.738 231.869H242.473L228.807 192.609H263.071L276.738 231.869Z" fill="#06D0B6"/>
<path fill-rule="evenodd" clip-rule="evenodd" d="M252.382 195.49H233.199C232.948 195.49 232.771 195.738 232.854 195.976L237.173 208.404C237.224 208.551 237.363 208.65 237.519 208.65H256.701C256.953 208.65 257.13 208.401 257.047 208.163L252.727 195.736C252.676 195.588 252.537 195.49 252.382 195.49ZM252.121 196.222L256.186 207.917H237.779L233.714 196.222H252.121Z" fill="#164E63"/>
<path fill-rule="evenodd" clip-rule="evenodd" d="M252.147 195.575C252.302 195.445 252.533 195.466 252.662 195.621C252.784 195.767 252.773 195.979 252.644 196.112L252.616 196.137L237.754 208.565C237.599 208.694 237.368 208.674 237.238 208.519C237.116 208.373 237.127 208.161 237.257 208.028L237.284 208.003L252.147 195.575Z" fill="#164E63"/>
<path fill-rule="evenodd" clip-rule="evenodd" d="M232.876 195.685C232.964 195.517 233.166 195.446 233.338 195.517L233.37 195.532L256.872 207.96C257.051 208.055 257.119 208.276 257.025 208.455C256.936 208.623 256.734 208.694 256.562 208.623L256.53 208.608L233.028 196.18C232.849 196.085 232.781 195.864 232.876 195.685Z" fill="#164E63"/>
<path fill-rule="evenodd" clip-rule="evenodd" d="M266.024 210.603H238.446C238.195 210.603 238.018 210.851 238.101 211.089L244.299 228.938C244.351 229.085 244.489 229.184 244.645 229.184H272.223C272.474 229.184 272.651 228.935 272.568 228.697L266.37 210.849C266.318 210.702 266.18 210.603 266.024 210.603ZM265.763 211.335L271.708 228.451H244.905L238.961 211.335H265.763Z" fill="#164E63"/>
<path fill-rule="evenodd" clip-rule="evenodd" d="M265.789 210.688C265.945 210.558 266.175 210.579 266.305 210.735C266.426 210.88 266.416 211.092 266.286 211.225L266.259 211.25L244.88 229.099C244.725 229.228 244.494 229.207 244.364 229.052C244.243 228.906 244.254 228.694 244.383 228.562L244.411 228.536L265.789 210.688Z" fill="#164E63"/>
<path fill-rule="evenodd" clip-rule="evenodd" d="M238.123 210.798C238.211 210.63 238.413 210.559 238.585 210.631L238.617 210.645L272.393 228.494C272.572 228.588 272.641 228.81 272.546 228.988C272.457 229.157 272.256 229.227 272.083 229.156L272.051 229.141L238.275 211.293C238.096 211.199 238.028 210.977 238.123 210.798Z" fill="#164E63"/>
<path fill-rule="evenodd" clip-rule="evenodd" d="M261.387 197.296C261.589 197.296 261.753 197.46 261.753 197.663C261.753 197.853 261.608 198.009 261.422 198.027L261.387 198.029H254.578C254.376 198.029 254.212 197.865 254.212 197.663C254.212 197.472 254.357 197.316 254.543 197.298L254.578 197.296H261.387Z" fill="#164E63"/>
<path fill-rule="evenodd" clip-rule="evenodd" d="M261.924 198.81C262.126 198.81 262.29 198.974 262.29 199.176C262.29 199.367 262.145 199.523 261.959 199.541L261.924 199.543H255.115C254.913 199.543 254.749 199.379 254.749 199.176C254.749 198.986 254.894 198.829 255.08 198.812L255.115 198.81H261.924Z" fill="#164E63"/>
<path fill-rule="evenodd" clip-rule="evenodd" d="M262.436 200.324C262.638 200.324 262.802 200.488 262.802 200.69C262.802 200.881 262.657 201.037 262.471 201.055L262.436 201.056H255.627C255.425 201.056 255.261 200.892 255.261 200.69C255.261 200.5 255.406 200.343 255.592 200.326L255.627 200.324H262.436Z" fill="#164E63"/>
<path fill-rule="evenodd" clip-rule="evenodd" d="M262.973 201.838C263.175 201.838 263.339 202.002 263.339 202.204C263.339 202.394 263.194 202.551 263.009 202.568L262.973 202.57H256.164C255.962 202.57 255.798 202.406 255.798 202.204C255.798 202.014 255.944 201.857 256.129 201.839L256.164 201.838H262.973Z" fill="#164E63"/>
<path fill-rule="evenodd" clip-rule="evenodd" d="M263.437 203.181H256.628C256.377 203.181 256.201 203.427 256.282 203.665L256.672 204.812C256.723 204.961 256.862 205.061 257.019 205.061H263.827C264.078 205.061 264.255 204.814 264.174 204.576L263.784 203.429C263.733 203.28 263.594 203.181 263.437 203.181ZM263.175 203.913L263.316 204.328H257.28L257.139 203.913H263.175Z" fill="#164E63"/>
<path fill-rule="evenodd" clip-rule="evenodd" d="M284.376 221.615L280.325 208.723C280.081 207.893 279.325 207.356 278.47 207.356L251.845 207.429C250.454 207.429 249.941 208.723 250.356 210.042L254.407 222.933C254.651 223.763 255.408 224.301 256.262 224.301H282.351C283.742 224.301 284.791 222.933 284.376 221.615Z" fill="#F1F5F9"/>
<path fill-rule="evenodd" clip-rule="evenodd" d="M278.471 206.99L251.845 207.063C250.248 207.063 249.497 208.53 250.007 210.152L254.058 223.043C254.344 224.015 255.237 224.667 256.262 224.667H282.351C283.992 224.667 285.214 223.057 284.726 221.505L280.674 208.613C280.389 207.641 279.495 206.99 278.471 206.99ZM251.846 207.795L278.472 207.722C279.153 207.722 279.742 208.137 279.955 208.767L284.027 221.725C284.365 222.799 283.504 223.934 282.351 223.934H256.262C255.58 223.934 254.99 223.52 254.777 222.89L250.705 209.932C250.329 208.735 250.81 207.795 251.846 207.795Z" fill="#164E63"/>
<path fill-rule="evenodd" clip-rule="evenodd" d="M280.838 210.774C281.04 210.774 281.204 210.938 281.204 211.14C281.204 211.331 281.059 211.487 280.873 211.505L280.838 211.507H250.698C250.496 211.507 250.332 211.343 250.332 211.14C250.332 210.95 250.477 210.794 250.663 210.776L250.698 210.774H280.838Z" fill="#164E63"/>
<path fill-rule="evenodd" clip-rule="evenodd" d="M255.628 212.361L255.587 212.363C255.159 212.388 254.832 212.82 254.992 213.247L255.593 215.124L255.586 215.094C255.646 215.396 255.92 215.584 256.213 215.584H260.069L260.11 215.583C260.538 215.557 260.865 215.125 260.705 214.699L260.104 212.821L260.111 212.851C260.051 212.55 259.776 212.361 259.484 212.361H255.628ZM259.422 213.094L259.986 214.852H256.274L255.711 213.094H259.422Z" fill="#164E63"/>
<path fill-rule="evenodd" clip-rule="evenodd" d="M256.848 215.804L256.807 215.805C256.379 215.831 256.052 216.263 256.212 216.689L256.813 218.567L256.806 218.537C256.866 218.838 257.141 219.027 257.433 219.027H261.289L261.332 219.026C261.778 219 262.086 218.57 261.925 218.141L261.324 216.263L261.331 216.294C261.271 215.993 260.997 215.804 260.704 215.804H256.848ZM260.642 216.536L261.206 218.294H257.495L256.931 216.536H260.642Z" fill="#164E63"/>
<path fill-rule="evenodd" clip-rule="evenodd" d="M257.873 219.295L257.833 219.297C257.405 219.322 257.078 219.755 257.238 220.181L257.839 222.059L257.831 222.029C257.892 222.33 258.166 222.518 258.459 222.518H262.315L262.357 222.517C262.803 222.491 263.111 222.061 262.95 221.633L262.349 219.755L262.357 219.785C262.296 219.484 262.022 219.295 261.729 219.295H257.873ZM261.668 220.028L262.231 221.786H258.52L257.957 220.028H261.668Z" fill="#164E63"/>
<path fill-rule="evenodd" clip-rule="evenodd" d="M267.83 212.361L267.79 212.363C267.362 212.388 267.035 212.82 267.195 213.247L267.796 215.124L267.788 215.094C267.849 215.396 268.123 215.584 268.416 215.584H272.272L272.314 215.583C272.729 215.557 273.022 215.148 272.92 214.739L272.306 212.821L272.314 212.851C272.253 212.55 271.979 212.361 271.686 212.361H267.83ZM271.625 213.094L272.188 214.852H268.477L267.914 213.094H271.625Z" fill="#164E63"/>
<path fill-rule="evenodd" clip-rule="evenodd" d="M269.05 215.804L269.01 215.805C268.582 215.831 268.255 216.263 268.415 216.689L269.016 218.567L269.009 218.537C269.069 218.838 269.343 219.027 269.636 219.027H273.492L273.534 219.026C273.949 219 274.242 218.591 274.14 218.181L273.526 216.264L273.534 216.294C273.474 215.993 273.199 215.804 272.906 215.804H269.05ZM272.845 216.536L273.408 218.294H269.697L269.134 216.536H272.845Z" fill="#164E63"/>
<path fill-rule="evenodd" clip-rule="evenodd" d="M270.075 219.295L270.035 219.297C269.607 219.322 269.28 219.755 269.44 220.181L270.041 222.059L270.034 222.029C270.094 222.33 270.368 222.518 270.661 222.518H274.517L274.559 222.517C274.974 222.491 275.267 222.082 275.165 221.673L274.551 219.755L274.559 219.785C274.498 219.484 274.224 219.295 273.931 219.295H270.075ZM273.87 220.028L274.433 221.786H270.722L270.159 220.028H273.87Z" fill="#164E63"/>
<path fill-rule="evenodd" clip-rule="evenodd" d="M265.243 213.436C265.445 213.436 265.609 213.6 265.609 213.802C265.609 213.992 265.464 214.149 265.278 214.166L265.243 214.168H261.827C261.624 214.168 261.46 214.004 261.46 213.802C261.46 213.611 261.606 213.455 261.791 213.437L261.827 213.436H265.243Z" fill="#164E63"/>
<path fill-rule="evenodd" clip-rule="evenodd" d="M266.317 216.854C266.519 216.854 266.683 217.018 266.683 217.22C266.683 217.41 266.538 217.567 266.352 217.585L266.317 217.586H262.9C262.698 217.586 262.534 217.422 262.534 217.22C262.534 217.03 262.679 216.873 262.865 216.855L262.9 216.854H266.317Z" fill="#164E63"/>
<path fill-rule="evenodd" clip-rule="evenodd" d="M267.537 220.541C267.739 220.541 267.903 220.704 267.903 220.907C267.903 221.097 267.758 221.254 267.572 221.271L267.537 221.273H264.12C263.918 221.273 263.754 221.109 263.754 220.907C263.754 220.716 263.9 220.56 264.085 220.542L264.12 220.541H267.537Z" fill="#164E63"/>
<path fill-rule="evenodd" clip-rule="evenodd" d="M277.324 213.436C277.526 213.436 277.69 213.6 277.69 213.802C277.69 213.992 277.545 214.149 277.359 214.166L277.324 214.168H273.785C273.583 214.168 273.419 214.004 273.419 213.802C273.419 213.611 273.564 213.455 273.75 213.437L273.785 213.436H277.324Z" fill="#164E63"/>
<path fill-rule="evenodd" clip-rule="evenodd" d="M278.958 216.854C279.161 216.854 279.325 217.018 279.325 217.22C279.325 217.41 279.179 217.567 278.994 217.585L278.958 217.586H275.42C275.218 217.586 275.054 217.422 275.054 217.22C275.054 217.03 275.199 216.873 275.385 216.855L275.42 216.854H278.958Z" fill="#164E63"/>
<path fill-rule="evenodd" clip-rule="evenodd" d="M280.374 220.541C280.576 220.541 280.74 220.704 280.74 220.907C280.74 221.097 280.595 221.254 280.409 221.271L280.374 221.273H276.835C276.633 221.273 276.469 221.109 276.469 220.907C276.469 220.716 276.614 220.56 276.8 220.542L276.835 220.541H280.374Z" fill="#164E63"/>
<path fill-rule="evenodd" clip-rule="evenodd" d="M232.565 225.106L224.905 225.057C223.694 225.057 223.099 226.101 223.616 227.258L223.721 227.467C224.192 228.523 225.401 229.379 226.489 229.379L234.149 229.428C235.386 229.428 235.983 228.379 235.434 227.22L235.333 227.018C234.862 225.962 233.653 225.106 232.565 225.106ZM224.856 225.791L224.902 225.79L232.563 225.839C233.352 225.839 234.307 226.515 234.672 227.331L234.776 227.541C235.099 228.222 234.829 228.695 234.152 228.695L226.491 228.647C225.702 228.647 224.747 227.97 224.382 227.154L224.278 226.945C223.983 226.284 224.235 225.813 224.856 225.791Z" fill="#164E63"/>
<path fill-rule="evenodd" clip-rule="evenodd" d="M235.767 229.357C236.543 228.389 235.963 226.634 234.47 225.435C232.977 224.237 231.138 224.049 230.362 225.017C229.586 225.984 230.167 227.74 231.659 228.939C233.152 230.137 234.991 230.325 235.767 229.357Z" fill="#008473"/>
<path fill-rule="evenodd" clip-rule="evenodd" d="M178.747 208.143C176.872 210.462 177.934 214.362 181.041 216.876C184.148 219.39 188.181 219.615 190.057 217.295C191.932 214.975 190.87 211.076 187.763 208.562C184.656 206.047 180.623 205.823 178.747 208.143ZM179.317 208.603C180.899 206.646 184.478 206.845 187.303 209.131C190.127 211.417 191.07 214.876 189.487 216.834C187.905 218.792 184.326 218.592 181.501 216.306C178.676 214.02 177.734 210.561 179.317 208.603Z" fill="#F1F5F9"/>
<path fill-rule="evenodd" clip-rule="evenodd" d="M180.759 209.771C179.536 211.284 180.227 213.8 182.223 215.415C184.219 217.03 186.822 217.18 188.045 215.667C189.269 214.155 188.577 211.639 186.582 210.024C184.586 208.409 181.982 208.258 180.759 209.771ZM181.328 210.231C182.258 209.081 184.407 209.206 186.121 210.593C187.835 211.98 188.406 214.057 187.476 215.207C186.546 216.356 184.397 216.232 182.683 214.845C180.969 213.458 180.398 211.381 181.328 210.231Z" fill="#F1F5F9"/>
<path fill-rule="evenodd" clip-rule="evenodd" d="M182.161 201.081L179.037 201.154C177.735 201.185 177.031 202.29 177.48 203.548L177.51 203.624C177.986 204.775 179.227 205.65 180.396 205.622L183.52 205.549C184.796 205.519 185.497 204.418 185.079 203.163L185.045 203.075C184.571 201.928 183.33 201.054 182.161 201.081ZM184.368 203.355L184.392 203.414C184.652 204.197 184.269 204.799 183.503 204.817L180.379 204.89C179.523 204.91 178.551 204.225 178.189 203.349L178.165 203.29C177.884 202.502 178.264 201.905 179.054 201.887L182.178 201.813C183.034 201.794 184.006 202.479 184.368 203.355Z" fill="#F1F5F9"/>
<path fill-rule="evenodd" clip-rule="evenodd" d="M180.306 195.978L177.182 196.051C175.88 196.082 175.176 197.187 175.625 198.445L175.655 198.521C176.131 199.672 177.372 200.547 178.541 200.519L181.665 200.446C182.967 200.416 183.671 199.311 183.221 198.052L183.19 197.972C182.716 196.825 181.475 195.951 180.306 195.978ZM182.513 198.252L182.537 198.311C182.818 199.099 182.437 199.695 181.648 199.714L178.524 199.787C177.668 199.807 176.696 199.122 176.334 198.246L176.31 198.187C176.029 197.399 176.409 196.802 177.199 196.784L180.323 196.71C181.179 196.691 182.151 197.376 182.513 198.252Z" fill="#F1F5F9"/>
<path fill-rule="evenodd" clip-rule="evenodd" d="M190.678 224.911L187.554 224.984C186.252 225.015 185.548 226.12 185.997 227.378L186.027 227.454C186.503 228.605 187.744 229.479 188.913 229.452L192.037 229.379C193.339 229.349 194.043 228.244 193.594 226.985L193.562 226.904C193.088 225.758 191.847 224.884 190.678 224.911ZM192.885 227.185L192.909 227.244C193.19 228.031 192.81 228.628 192.02 228.647L188.896 228.72C188.04 228.74 187.068 228.054 186.706 227.179L186.682 227.12C186.401 226.332 186.782 225.735 187.571 225.717L190.695 225.643C191.551 225.623 192.523 226.309 192.885 227.185Z" fill="#F1F5F9"/>
<path fill-rule="evenodd" clip-rule="evenodd" d="M188.848 219.808L185.724 219.881C184.422 219.912 183.718 221.017 184.167 222.275L184.197 222.351C184.673 223.502 185.914 224.377 187.083 224.349L190.207 224.276C191.509 224.246 192.213 223.141 191.763 221.882L191.732 221.802C191.258 220.656 190.017 219.781 188.848 219.808ZM191.055 222.082L191.078 222.141C191.359 222.929 190.979 223.526 190.19 223.544L187.066 223.617C186.21 223.637 185.238 222.952 184.876 222.076L184.852 222.017C184.571 221.229 184.951 220.632 185.741 220.614L188.865 220.541C189.721 220.521 190.693 221.206 191.055 222.082Z" fill="#F1F5F9"/>
<path fill-rule="evenodd" clip-rule="evenodd" d="M278.763 184.161H188.661C185.83 184.161 183.88 187.465 184.769 190.632L199.809 234.138C200.357 236.098 201.909 237.436 203.694 237.436H294.138L294.223 237.435C297.027 237.37 298.935 234.105 298.053 230.965L282.651 187.469L282.654 187.48C282.1 185.499 280.548 184.161 278.763 184.161ZM188.661 184.893H278.763C280.199 184.893 281.479 185.996 281.949 187.678L281.957 187.701L297.356 231.186C298.118 233.903 296.458 236.704 294.138 236.704H203.694C202.258 236.704 200.978 235.6 200.508 233.919L185.468 190.414C184.706 187.698 186.361 184.893 188.661 184.893Z" fill="#F1F5F9"/>
<path fill-rule="evenodd" clip-rule="evenodd" d="M166.599 223.446L167.038 222.469L162.279 208.479L161.84 209.456L166.599 223.446Z" fill="#F1F5F9"/>
<path fill-rule="evenodd" clip-rule="evenodd" d="M182.486 239.121H183.243L163.743 182.256H162.987L182.486 239.121Z" fill="#F1F5F9"/>
<path fill-rule="evenodd" clip-rule="evenodd" d="M389.951 238.462C390.356 238.462 390.684 238.79 390.684 239.194C390.684 239.584 390.379 239.903 389.994 239.926L389.951 239.927H-19.951C-20.3553 239.927 -20.6831 239.599 -20.6831 239.194C-20.6831 238.804 -20.3783 238.485 -19.994 238.463L-19.951 238.462H389.951Z" fill="#164E63"/>
</g>
<defs>
<clipPath id="clip0_138_948">
<rect width="370" height="320" fill="white"/>
</clipPath>
</defs>
</svg>
