<svg width="370" height="320" viewBox="0 0 370 320" fill="none" xmlns="http://www.w3.org/2000/svg">
<rect width="370" height="320" fill="white"/>
<path fill-rule="evenodd" clip-rule="evenodd" d="M149.148 159.876H67.3553C62.1464 159.875 57.1507 161.944 53.4672 165.627C49.7837 169.31 47.7144 174.306 47.7144 179.515V219.725C47.7144 224.934 49.7837 229.929 53.4672 233.612C57.1507 237.295 62.1464 239.364 67.3553 239.364H149.148V159.876Z" fill="#0E7490"/>
<path fill-rule="evenodd" clip-rule="evenodd" d="M147.484 165.454H83.4347C79.601 165.454 76.4932 168.562 76.4932 172.396V227.171C76.4932 231.004 79.601 234.112 83.4347 234.112H147.484C147.842 234.112 148.133 233.822 148.133 233.463V166.103C148.133 165.745 147.842 165.454 147.484 165.454ZM146.834 166.752V232.814H83.4344C80.3178 232.814 77.7912 230.287 77.7912 227.17V172.396L77.792 172.302C77.8418 169.229 80.3489 166.752 83.4344 166.752L146.834 166.752Z" fill="#06D0B6"/>
<path fill-rule="evenodd" clip-rule="evenodd" d="M88.8417 171.231C86.4931 171.233 84.5898 173.137 84.5898 175.486V224.078C84.5898 226.427 86.4935 228.33 88.8417 228.33H145.079V171.231H88.8417Z" fill="#F1F5F9"/>
<circle cx="63.5189" cy="183.137" r="7.06919" fill="#008473"/>
<path fill-rule="evenodd" clip-rule="evenodd" d="M63.5187 177.745C60.5407 177.745 58.1265 180.159 58.1265 183.137C58.1265 186.115 60.5407 188.529 63.5187 188.529C66.4968 188.529 68.9109 186.115 68.9109 183.137C68.9109 180.159 66.4968 177.745 63.5187 177.745ZM63.5187 179.043C65.7797 179.043 67.6126 180.876 67.6126 183.137C67.6126 185.398 65.7797 187.231 63.5187 187.231C61.2577 187.231 59.4247 185.398 59.4247 183.137C59.4247 180.876 61.2577 179.043 63.5187 179.043Z" fill="#06D0B6"/>
<path fill-rule="evenodd" clip-rule="evenodd" d="M72.1203 204.894H66.436V199.212H60.7928V204.894H55.1084V210.537H60.7928V216.222H66.436V210.537H72.1203V204.894V204.894Z" fill="#06D0B6"/>
<rect x="66.3579" y="223.419" width="5.39656" height="5.39656" fill="#F1F5F9"/>
<rect x="66.3579" y="168.925" width="4.65437" height="1.96258" rx="0.981292" fill="#F1F5F9"/>
<path fill-rule="evenodd" clip-rule="evenodd" d="M227.201 201.622C229.895 200.878 237.981 201.343 237.981 201.343C237.981 201.343 239.005 207.757 245.572 210.111C260.935 215.285 266.05 204.875 266.05 204.875C267.041 208.337 281.013 240.844 296.627 238.985C312.241 237.126 310.382 194.497 296.008 165.128C281.634 135.758 261.928 144.556 254.865 146.043C247.803 147.529 238.879 148.362 231.816 148.274C228.955 148.285 226.097 148.077 223.267 147.65L227.201 201.622Z" fill="#0E7490"/>
<path fill-rule="evenodd" clip-rule="evenodd" d="M283.393 233.167C287.454 237.038 291.961 239.537 296.616 238.983C306.465 237.81 309.363 220.411 306.548 200.35C299.582 198.836 292.816 208.543 288.995 215.562C286.13 220.833 284.325 228.324 283.393 233.167Z" fill="#06D0B6"/>
<path fill-rule="evenodd" clip-rule="evenodd" d="M254.329 178.751C248.798 178.751 244.293 182.899 244.293 188.044C244.293 193.19 248.798 197.338 254.329 197.338C259.86 197.338 264.365 193.19 264.365 188.044C264.365 182.899 259.86 178.751 254.329 178.751ZM254.329 180.049C259.166 180.049 263.067 183.641 263.067 188.044C263.067 192.447 259.166 196.04 254.329 196.04C249.492 196.04 245.592 192.447 245.592 188.044C245.592 183.641 249.492 180.049 254.329 180.049Z" fill="#06D0B6"/>
<ellipse cx="254.329" cy="186.272" rx="9.38665" ry="8.64446" fill="#06D0B6"/>
<path fill-rule="evenodd" clip-rule="evenodd" d="M272.42 169.18C269.27 169.18 266.66 171.202 266.66 173.789C266.66 176.376 269.27 178.398 272.42 178.398C275.57 178.398 278.18 176.376 278.18 173.789C278.18 171.202 275.57 169.18 272.42 169.18ZM272.42 170.479C274.916 170.479 276.882 172.002 276.882 173.789C276.882 175.576 274.916 177.1 272.42 177.1C269.925 177.1 267.959 175.576 267.959 173.789C267.959 172.002 269.925 170.479 272.42 170.479Z" fill="#06D0B6"/>
<ellipse cx="260.606" cy="164.359" rx="5.11094" ry="3.95979" fill="#008473"/>
<ellipse cx="271.698" cy="154.631" rx="5.11094" ry="3.95979" fill="#06D0B6"/>
<ellipse cx="283.778" cy="164.359" rx="5.11094" ry="3.95979" fill="#F1F5F9"/>
<ellipse cx="232.58" cy="158.125" rx="6.41356" ry="5.66921" fill="#F1F5F9"/>
<path fill-rule="evenodd" clip-rule="evenodd" d="M232.58 149.779C227.431 149.779 223.226 153.497 223.226 158.125C223.226 162.753 227.431 166.471 232.58 166.471C237.73 166.471 241.934 162.753 241.934 158.125C241.934 153.497 237.73 149.779 232.58 149.779ZM232.58 151.078C237.046 151.078 240.636 154.252 240.636 158.125C240.636 161.999 237.046 165.173 232.58 165.173C228.114 165.173 224.524 161.999 224.524 158.125C224.524 154.252 228.114 151.078 232.58 151.078Z" fill="#F1F5F9"/>
<path fill-rule="evenodd" clip-rule="evenodd" d="M271.119 146.854C264.115 146.897 258.171 149.537 254.133 153.889C250.599 157.698 248.967 162.457 249.912 166.02L249.988 166.296C251.486 171.757 250.245 174.587 245.989 177.093L245.875 177.159L245.9 177.147C242.603 178.742 240.3 180.814 238.875 183.251C237.177 186.156 236.867 189.223 237.363 191.996L237.402 192.202L237.432 192.351L237.461 192.49L237.491 192.618L237.519 192.736L237.547 192.842L237.585 192.981L237.616 193.084L237.644 193.182L237.683 193.306L237.732 193.457L237.77 193.571C237.904 193.962 238.074 194.395 238.282 194.861C238.877 196.189 239.666 197.515 240.678 198.755C243.341 202.019 247.038 204.099 251.901 204.408C258.092 204.701 262.784 203.02 266.043 199.925C268.33 197.754 269.751 194.919 269.934 193.028L269.941 192.942C270.052 191.512 270.529 189.878 271.407 188.394L271.471 188.286C272.606 186.417 274.296 184.927 276.619 183.961L276.705 183.925L276.65 183.938C280.77 183.034 284.239 181.758 287.152 179.85C290.825 177.445 293.347 174.168 294.49 169.862C295.726 165.201 293.731 159.413 289.409 154.767C284.847 149.864 278.364 146.87 271.332 146.853L271.119 146.854ZM271.127 148.152C277.867 148.11 284.092 150.957 288.458 155.651C292.5 159.996 294.344 165.345 293.235 169.529C292.179 173.511 289.856 176.527 286.441 178.764C283.68 180.572 280.351 181.796 276.371 182.669C276.336 182.677 276.301 182.688 276.268 182.701C273.559 183.793 271.587 185.537 270.289 187.733C269.334 189.347 268.804 191.115 268.659 192.698L268.647 192.841C268.526 194.403 267.243 196.995 265.149 198.984C262.151 201.83 257.805 203.387 251.973 203.112C247.5 202.827 244.128 200.93 241.684 197.934C240.749 196.788 240.018 195.559 239.467 194.33C239.275 193.901 239.12 193.504 238.998 193.149L238.974 193.078L238.93 192.945L238.894 192.827L238.854 192.689L238.833 192.619L238.798 192.493C238.752 192.318 238.706 192.114 238.662 191.883C238.187 189.358 238.451 186.549 239.996 183.906C241.287 181.696 243.395 179.8 246.465 178.316L246.508 178.293C251.414 175.452 252.942 171.99 251.191 165.776C250.32 162.685 251.798 158.314 255.085 154.772C258.88 150.681 264.484 148.193 271.127 148.152Z" fill="#06D0B6"/>
<path fill-rule="evenodd" clip-rule="evenodd" d="M237.988 191.29C238.334 191.29 238.616 191.561 238.636 191.901L238.637 191.939V201.175C238.637 201.533 238.346 201.824 237.988 201.824C237.642 201.824 237.36 201.554 237.34 201.213L237.339 201.175L237.339 192.589H227.208C226.862 192.589 226.579 192.318 226.56 191.978L226.559 191.939C226.559 191.594 226.829 191.311 227.17 191.291L227.208 191.29H237.988Z" fill="#06D0B6"/>
<path fill-rule="evenodd" clip-rule="evenodd" d="M266.009 198.679C266.355 198.679 266.637 198.95 266.657 199.29L266.658 199.329V204.284C266.658 204.642 266.368 204.933 266.009 204.933C265.663 204.933 265.381 204.663 265.361 204.322L265.36 204.284V199.329C265.36 198.97 265.65 198.679 266.009 198.679Z" fill="#06D0B6"/>
<path fill-rule="evenodd" clip-rule="evenodd" d="M139.534 239.275H217.323C217.323 239.275 232.961 238.182 232.961 218.95V86.8427C232.961 83.5234 230.663 80.8337 227.85 80.8337H144.655C141.827 80.8337 139.534 83.5234 139.534 86.8427V239.275Z" fill="#06D0B6"/>
<path fill-rule="evenodd" clip-rule="evenodd" d="M232.961 89.4717H224.648V85.2198C224.661 83.6454 224.17 82.1081 223.245 80.8337H221.503C222.622 81.8204 223.349 83.4303 223.349 85.2198V89.4717H213.519V80.8337H212.221V89.4717H150.69V80.8337H149.392V89.4717H139.534V90.77H223.349V218.736C223.349 234.952 212.34 237.994 208.964 238.544C208.616 238.601 208.378 238.926 208.428 239.275H211.483C213.924 238.531 216.182 237.284 218.113 235.616C222.453 231.816 224.654 226.136 224.654 218.738V90.77H232.967L232.961 89.4717Z" fill="#F1F5F9"/>
<path fill-rule="evenodd" clip-rule="evenodd" d="M149.148 157.104H200.069C200.069 157.104 212.797 157.26 212.797 140.276V97.9277C212.797 96.268 211.691 94.9221 210.328 94.9221H151.617C150.254 94.9221 149.148 96.268 149.148 97.9277L149.148 157.104Z" fill="#164E63"/>
<rect x="159.923" y="102.907" width="42.9237" height="46.3295" rx="8.1" fill="#F1F5F9"/>
<path fill-rule="evenodd" clip-rule="evenodd" d="M201.095 102.258H161.676C160.35 102.258 159.274 103.333 159.274 104.659V147.484C159.274 148.81 160.35 149.885 161.676 149.885H201.095C202.421 149.885 203.496 148.81 203.496 147.484V104.659C203.496 103.333 202.421 102.258 201.095 102.258ZM161.676 103.556H201.094C201.704 103.556 202.198 104.05 202.198 104.659V147.483C202.198 148.093 201.704 148.587 201.094 148.587H161.676C161.067 148.587 160.573 148.093 160.573 147.483V104.659C160.573 104.05 161.067 103.556 161.676 103.556Z" fill="#164E63"/>
<ellipse cx="190.904" cy="184.748" rx="4.2519" ry="4.70198" transform="rotate(-9.53 190.904 184.748)" fill="#164E63"/>
<ellipse cx="201.416" cy="176.575" rx="4.27099" ry="4.72309" transform="rotate(-9.74364 201.416 176.575)" fill="#164E63"/>
<path fill-rule="evenodd" clip-rule="evenodd" d="M198.025 168.866L184.121 180.072C180.905 182.665 180.3 187.664 182.743 191.259L182.814 191.362C185.306 194.911 189.901 195.71 193.115 193.115L207.018 181.907C210.235 179.314 210.84 174.314 208.396 170.719L208.322 170.613C205.833 167.068 201.238 166.271 198.025 168.866ZM207.259 171.358L207.325 171.453C209.395 174.497 208.881 178.737 206.203 180.896L192.3 192.105C189.685 194.215 185.948 193.566 183.879 190.62L183.814 190.525C181.745 187.481 182.258 183.241 184.936 181.082L198.84 169.876C201.454 167.765 205.191 168.414 207.259 171.358Z" fill="#F1F5F9"/>
<path fill-rule="evenodd" clip-rule="evenodd" d="M176.017 207.124C177.3 206.359 178.961 206.779 179.726 208.062C180.479 209.325 180.084 210.954 178.847 211.734L178.788 211.77L171.524 216.102C170.241 216.867 168.581 216.447 167.816 215.164C167.062 213.901 167.458 212.272 168.695 211.492L168.753 211.456L176.017 207.124Z" fill="#164E63"/>
<path fill-rule="evenodd" clip-rule="evenodd" d="M162.045 207.1C163.342 206.358 164.994 206.807 165.736 208.104C166.466 209.381 166.042 211.002 164.791 211.76L164.731 211.795L157.16 216.127C155.864 216.869 154.211 216.419 153.469 215.122C152.739 213.846 153.164 212.224 154.415 211.466L154.474 211.431L162.045 207.1Z" fill="#164E63"/>
<path fill-rule="evenodd" clip-rule="evenodd" d="M172.813 177.453H164.757V169.418H157.123V177.453H149.065V185.065H157.123V193.099H164.757V185.065H172.813V177.453V177.453Z" fill="#164E63"/>
<path fill-rule="evenodd" clip-rule="evenodd" d="M160.94 178.738C159.545 178.738 158.413 179.866 158.413 181.259C158.413 182.651 159.545 183.779 160.94 183.779C162.336 183.779 163.468 182.651 163.468 181.259C163.468 179.866 162.336 178.738 160.94 178.738ZM160.94 180.036C161.62 180.036 162.169 180.584 162.169 181.259C162.169 181.933 161.62 182.481 160.94 182.481C160.261 182.481 159.711 181.933 159.711 181.259C159.711 180.584 160.261 180.036 160.94 180.036Z" fill="#06D0B6"/>
<path fill-rule="evenodd" clip-rule="evenodd" d="M164.848 102.258C165.194 102.258 165.476 102.528 165.496 102.869L165.497 102.907V148.91C165.497 149.268 165.206 149.559 164.848 149.559C164.502 149.559 164.22 149.288 164.2 148.948L164.199 148.91V102.907C164.199 102.548 164.489 102.258 164.848 102.258Z" fill="#164E63"/>
<path fill-rule="evenodd" clip-rule="evenodd" d="M156.185 126.553C156.543 126.553 156.834 126.844 156.834 127.202C156.834 127.548 156.564 127.83 156.223 127.85L156.185 127.851H152.244C151.886 127.851 151.595 127.561 151.595 127.202C151.595 126.856 151.865 126.574 152.206 126.554L152.244 126.553H156.185Z" fill="#F1F5F9"/>
<ellipse cx="154.213" cy="122.187" rx="1.48871" ry="1.74837" fill="#06D0B6"/>
<path fill-rule="evenodd" clip-rule="evenodd" d="M205.822 206.684C206.14 206.548 206.506 206.685 206.659 206.99L206.675 207.025L212.034 219.517C212.176 219.846 212.023 220.228 211.694 220.369C211.376 220.505 211.01 220.369 210.857 220.063L210.841 220.029L205.481 207.537C205.34 207.207 205.493 206.826 205.822 206.684Z" fill="#F1F5F9"/>
<path fill-rule="evenodd" clip-rule="evenodd" d="M201.428 209.283C201.745 209.147 202.111 209.284 202.264 209.589L202.28 209.624L207.64 222.115C207.781 222.445 207.629 222.826 207.299 222.968C206.982 223.104 206.615 222.967 206.463 222.662L206.447 222.627L201.087 210.135C200.946 209.806 201.098 209.424 201.428 209.283Z" fill="#F1F5F9"/>
<path fill-rule="evenodd" clip-rule="evenodd" d="M197.031 211.882C197.348 211.746 197.715 211.882 197.867 212.188L197.883 212.222L203.243 224.714C203.384 225.044 203.232 225.425 202.902 225.567C202.585 225.703 202.218 225.566 202.066 225.261L202.05 225.226L196.69 212.734C196.549 212.405 196.701 212.023 197.031 211.882Z" fill="#F1F5F9"/>
<path fill-rule="evenodd" clip-rule="evenodd" d="M192.634 214.48C192.951 214.344 193.318 214.481 193.47 214.786L193.486 214.821L198.846 227.313C198.987 227.642 198.835 228.024 198.505 228.165C198.188 228.302 197.821 228.165 197.669 227.859L197.653 227.825L192.293 215.333C192.152 215.004 192.304 214.622 192.634 214.48Z" fill="#F1F5F9"/>
<path fill-rule="evenodd" clip-rule="evenodd" d="M188.237 217.077C188.554 216.94 188.921 217.077 189.073 217.383L189.089 217.417L194.449 229.911C194.59 230.241 194.438 230.622 194.108 230.764C193.791 230.9 193.424 230.763 193.272 230.458L193.256 230.423L187.896 217.929C187.755 217.6 187.907 217.218 188.237 217.077Z" fill="#F1F5F9"/>
<path fill-rule="evenodd" clip-rule="evenodd" d="M183.842 219.676C184.16 219.54 184.526 219.677 184.679 219.982L184.695 220.017L190.054 232.508C190.196 232.838 190.043 233.22 189.714 233.361C189.396 233.497 189.03 233.36 188.877 233.055L188.861 233.02L183.501 220.529C183.36 220.199 183.513 219.817 183.842 219.676Z" fill="#F1F5F9"/>
<path fill-rule="evenodd" clip-rule="evenodd" d="M369.351 238.702C369.709 238.702 370 238.992 370 239.351C370 239.697 369.73 239.979 369.389 239.999L369.351 240H0.649146C0.290632 240 0 239.709 0 239.351C0 239.005 0.270244 238.723 0.611003 238.703L0.649146 238.702H369.351Z" fill="#164E63"/>
</svg>
