<svg width="370" height="320" viewBox="0 0 370 320" fill="none" xmlns="http://www.w3.org/2000/svg">
<g clip-path="url(#clip0_138_956)">
<rect width="370" height="320" fill="white"/>
<path fill-rule="evenodd" clip-rule="evenodd" d="M50.8788 166.363C51.4812 166.363 51.836 167.039 51.4937 167.535C50.746 168.618 50.4952 169.637 50.7895 171.127L50.8095 171.225L50.9965 171.939C51.0908 172.291 51.1855 172.621 51.2931 172.966C51.4391 173.433 51.1047 173.907 50.6239 173.934L50.5798 173.936L44.925 173.935V206.071H53.1457V183.128C53.1457 182.315 54.2402 182.102 54.566 182.801L54.5836 182.842L54.5995 182.884L55.4359 185.297C57.3636 190.836 59.7232 197.467 62.8917 206.292C62.9034 206.324 62.9127 206.357 62.9198 206.391L62.9286 206.442L62.9317 206.474C62.9497 206.501 62.9656 206.528 62.9797 206.555L62.9995 206.598L63.0167 206.642L63.8045 208.843C64.5883 211.03 65.3588 213.167 66.1027 215.221L67.6827 219.568L68.1575 220.867C68.3764 221.509 69.9822 227.056 70.7195 229.009C72.3215 233.251 74.2735 236.079 76.8579 237.307C77.1031 237.424 77.2646 237.663 77.2827 237.931L77.2845 237.982V239.352C77.2845 239.75 76.9733 240.075 76.581 240.098L76.5371 240.099H22.6297C22.2317 240.099 21.9063 239.788 21.8836 239.396L21.8823 239.352V167.11C21.8823 166.712 22.1934 166.387 22.5857 166.364L22.6297 166.363H50.8788ZM49.6078 167.857H23.377V238.605H75.7898V238.44L75.7644 238.426C73.057 236.945 71.0713 234.041 69.4569 229.891L69.387 229.71L69.3212 229.537C68.5487 227.491 66.9141 221.838 66.7476 221.363L65.4888 217.912L64.883 216.242C63.958 213.691 62.9899 211.004 62.0043 208.25L61.73 207.483L61.721 207.476C61.5733 207.358 61.4716 207.184 61.4469 206.987L61.4423 206.937L61.441 206.893V206.675L59.2361 200.521C57.6487 196.081 56.293 192.263 55.0991 188.863L54.6403 187.554V206.818C54.6403 207.202 54.3518 207.517 53.9802 207.561L53.9369 207.564L53.893 207.566H44.1777C43.7797 207.566 43.4544 207.255 43.4316 206.862L43.4304 206.818V173.188C43.4304 172.79 43.7415 172.465 44.1338 172.442L44.1777 172.441L49.5839 172.441L49.3595 171.587L49.3506 171.55C49.0546 170.157 49.138 169.021 49.5618 167.968L49.6078 167.857ZM36.0318 172.541C36.4298 172.541 36.7551 172.852 36.7779 173.244L36.7791 173.288V206.918C36.7791 207.316 36.468 207.641 36.0757 207.664L36.0318 207.665H26.3165C25.9185 207.665 25.5932 207.354 25.5704 206.962L25.5692 206.918V173.288C25.5692 172.89 25.8803 172.565 26.2726 172.542L26.3165 172.541H36.0318ZM35.2845 174.035H27.0638V206.171H35.2845V174.035Z" fill="#164E63"/>
<rect x="53.855" y="209.489" width="3.13879" height="9.7153" transform="rotate(90 53.855 209.489)" fill="#06D0B6"/>
<path fill-rule="evenodd" clip-rule="evenodd" d="M62.1636 212.722V209.559H63.0853L63.9572 212.722H62.1636Z" fill="#06D0B6"/>
<rect x="36.0303" y="209.551" width="3.13879" height="9.71531" transform="rotate(90 36.0303 209.551)" fill="#06D0B6"/>
<path fill-rule="evenodd" clip-rule="evenodd" d="M48.8364 222.712C46.5388 222.712 44.6763 224.574 44.6763 226.872C44.6763 229.169 46.5388 231.032 48.8364 231.032C51.134 231.032 52.9966 229.169 52.9966 226.872C52.9966 224.574 51.134 222.712 48.8364 222.712ZM48.8364 224.206C50.3085 224.206 51.5019 225.4 51.5019 226.872C51.5019 228.344 50.3085 229.537 48.8364 229.537C47.3643 229.537 46.1709 228.344 46.1709 226.872C46.1709 225.4 47.3643 224.206 48.8364 224.206Z" fill="#164E63"/>
<path fill-rule="evenodd" clip-rule="evenodd" d="M66.8223 222.786C67.3875 222.786 67.9387 222.903 68.4421 223.123C68.8202 223.288 68.9926 223.729 68.8272 224.107C68.6618 224.485 68.2211 224.658 67.843 224.492C67.5276 224.354 67.1803 224.281 66.8223 224.281C65.3418 224.281 64.1568 225.466 64.1568 226.947C64.1568 228.427 65.3418 229.612 66.8223 229.612C67.6931 229.612 68.5013 229.184 69.0042 228.48C69.2441 228.144 69.7108 228.066 70.0467 228.306C70.3825 228.546 70.4603 229.013 70.2204 229.349C69.4407 230.44 68.1824 231.107 66.8223 231.107C64.5163 231.107 62.6621 229.252 62.6621 226.947C62.6621 224.641 64.5163 222.786 66.8223 222.786Z" fill="#164E63"/>
<path fill-rule="evenodd" clip-rule="evenodd" d="M31 222.786C28.7024 222.786 26.8398 224.649 26.8398 226.947C26.8398 229.244 28.7024 231.107 31 231.107C33.2976 231.107 35.1601 229.244 35.1601 226.947C35.1601 224.649 33.2976 222.786 31 222.786ZM31 224.281C32.4721 224.281 33.6655 225.474 33.6655 226.947C33.6655 228.419 32.4721 229.612 31 229.612C29.5279 229.612 28.3345 228.419 28.3345 226.947C28.3345 225.474 29.5279 224.281 31 224.281Z" fill="#164E63"/>
<path fill-rule="evenodd" clip-rule="evenodd" d="M50.3056 172.441C50.7184 172.441 51.053 172.776 51.053 173.188C51.053 173.586 50.7418 173.912 50.3495 173.935L50.3056 173.936L44.8999 173.936V206.096H53.1206V183.477C53.1206 183.079 53.4317 182.753 53.824 182.731L53.8679 182.729C54.2659 182.729 54.5912 183.041 54.614 183.433L54.6152 183.477V206.843C54.6152 207.241 54.3041 207.567 53.9118 207.589L53.8679 207.591H44.1526C43.7546 207.591 43.4293 207.28 43.4065 206.887L43.4053 206.843V173.188C43.4053 172.79 43.7164 172.465 44.1087 172.442L44.1526 172.441H50.3056Z" fill="#164E63"/>
<path fill-rule="evenodd" clip-rule="evenodd" d="M53.1955 180.462C53.6082 180.462 53.9428 180.797 53.9428 181.21C53.9428 181.608 53.6317 181.933 53.2394 181.956L53.1955 181.957H45.0994C44.6866 181.957 44.3521 181.622 44.3521 181.21C44.3521 180.812 44.6632 180.486 45.0555 180.464L45.0994 180.462H53.1955Z" fill="#164E63"/>
<path fill-rule="evenodd" clip-rule="evenodd" d="M53.1955 184.149C53.6082 184.149 53.9428 184.484 53.9428 184.897C53.9428 185.295 53.6317 185.62 53.2394 185.643L53.1955 185.644H45.0994C44.6866 185.644 44.3521 185.309 44.3521 184.897C44.3521 184.499 44.6632 184.173 45.0555 184.151L45.0994 184.149H53.1955Z" fill="#164E63"/>
<path fill-rule="evenodd" clip-rule="evenodd" d="M53.1955 187.861C53.6082 187.861 53.9428 188.196 53.9428 188.608C53.9428 189.006 53.6317 189.332 53.2394 189.354L53.1955 189.356H45.0994C44.6866 189.356 44.3521 189.021 44.3521 188.608C44.3521 188.21 44.6632 187.885 45.0555 187.862L45.0994 187.861H53.1955Z" fill="#164E63"/>
<path fill-rule="evenodd" clip-rule="evenodd" d="M36.7822 206.915L36.7822 173.285C36.7822 172.872 36.4476 172.538 36.0349 172.538H26.3196C25.9069 172.538 25.5723 172.872 25.5723 173.285L25.5723 206.915C25.5723 207.328 25.9069 207.662 26.3196 207.662H36.0349C36.4476 207.662 36.7822 207.328 36.7822 206.915ZM35.2878 206.168H27.0672L27.0672 174.033H35.2878L35.2878 206.168Z" fill="#164E63"/>
<path fill-rule="evenodd" clip-rule="evenodd" d="M35.384 195.932C35.7968 195.932 36.1314 196.267 36.1314 196.679C36.1314 197.077 35.8202 197.403 35.4279 197.426L35.384 197.427H27.0388C26.6261 197.427 26.2915 197.092 26.2915 196.679C26.2915 196.281 26.6026 195.956 26.9949 195.933L27.0388 195.932H35.384Z" fill="#164E63"/>
<path fill-rule="evenodd" clip-rule="evenodd" d="M35.384 176.825C35.7968 176.825 36.1314 177.16 36.1314 177.573C36.1314 177.971 35.8202 178.296 35.4279 178.319L35.384 178.32H27.0388C26.6261 178.32 26.2915 177.986 26.2915 177.573C26.2915 177.175 26.6026 176.849 26.9949 176.827L27.0388 176.825H35.384Z" fill="#164E63"/>
<path fill-rule="evenodd" clip-rule="evenodd" d="M35.384 199.644C35.7968 199.644 36.1314 199.979 36.1314 200.391C36.1314 200.789 35.8202 201.115 35.4279 201.137L35.384 201.139H27.0388C26.6261 201.139 26.2915 200.804 26.2915 200.391C26.2915 199.993 26.6026 199.668 26.9949 199.645L27.0388 199.644H35.384Z" fill="#164E63"/>
<path fill-rule="evenodd" clip-rule="evenodd" d="M35.384 203.356C35.7968 203.356 36.1314 203.69 36.1314 204.103C36.1314 204.501 35.8202 204.826 35.4279 204.849L35.384 204.85H27.0388C26.6261 204.85 26.2915 204.516 26.2915 204.103C26.2915 203.705 26.6026 203.38 26.9949 203.357L27.0388 203.356H35.384Z" fill="#164E63"/>
<path fill-rule="evenodd" clip-rule="evenodd" d="M53.0068 135.507C53.1334 135.879 52.9491 136.29 52.5804 136.44C52.2116 136.59 51.7931 136.424 51.6244 136.069L51.605 136.024L50.5356 133.388C49.313 130.381 49.1616 128.216 50.0642 127.083C50.9698 125.946 52.5605 126.201 53.7255 127.372L53.7815 127.429C54.3767 128.041 54.7991 128.697 55.2935 129.694L55.4028 129.918C55.557 130.239 55.887 130.939 55.9256 131.02L56.0798 131.339C56.2552 131.697 56.4175 132.013 56.592 132.332C57.1717 133.392 57.8386 134.391 58.7094 135.452C59.6488 136.614 60.3392 137.862 60.8004 139.159C60.9387 139.548 60.7355 139.975 60.3466 140.113C59.9577 140.252 59.5304 140.049 59.3921 139.66C58.9866 138.519 58.3785 137.42 57.5507 136.396C56.6225 135.266 55.9038 134.189 55.2806 133.049C55.0681 132.661 54.874 132.28 54.6589 131.835L54.0123 130.476C53.5541 129.537 53.1981 128.973 52.7063 128.467C52.0807 127.815 51.4754 127.71 51.2332 128.014C50.7725 128.593 50.8782 130.218 51.8706 132.702L52.9915 135.466L53.0068 135.507Z" fill="#164E63"/>
<path fill-rule="evenodd" clip-rule="evenodd" d="M47.2742 134.527C49.4509 134.548 51.979 134.905 54.5214 135.775C58.2132 137.039 61.31 139.196 63.4816 142.431C63.7117 142.773 63.6204 143.237 63.2778 143.468C62.9351 143.698 62.4708 143.606 62.2407 143.264C60.2663 140.323 57.4394 138.354 54.0373 137.189C51.6624 136.376 49.2881 136.041 47.2595 136.021C46.8468 136.017 46.5155 135.68 46.5196 135.267C46.5236 134.854 46.8615 134.523 47.2742 134.527Z" fill="#164E63"/>
<path fill-rule="evenodd" clip-rule="evenodd" d="M47.2633 139.973C51.379 139.112 55.5906 139.055 59.3622 140.356C64.6814 142.192 68.2793 146.515 69.5021 153.758C69.5708 154.165 69.2966 154.551 68.8896 154.62C68.4826 154.688 68.097 154.414 68.0283 154.007C66.8957 147.298 63.6721 143.425 58.8746 141.769C55.4038 140.572 51.4449 140.625 47.5695 141.436C47.1655 141.521 46.7695 141.262 46.6849 140.858C46.6004 140.454 46.8593 140.058 47.2633 139.973Z" fill="#164E63"/>
<path fill-rule="evenodd" clip-rule="evenodd" d="M24.6841 128.279C25.5049 127.225 27.186 127.56 29.2889 128.99L29.8297 129.365C31.99 130.868 35.8752 133.64 39.3601 136.164C39.6944 136.406 39.7691 136.873 39.527 137.207C39.285 137.541 38.8177 137.616 38.4834 137.374L36.4601 135.913C33.43 133.732 30.4044 131.581 28.7035 130.402L28.5323 130.284C27.6463 129.671 26.9088 129.314 26.3699 129.201C26.1691 129.158 26.0173 129.155 25.9189 129.178L25.886 129.186C25.8701 129.192 25.865 129.195 25.8632 129.197C25.6988 129.408 25.9924 130.31 26.8695 131.284L26.9858 131.409C27.8731 132.349 30.2882 134.604 33.8046 137.799L35.637 139.459L36.8455 140.55C38.2047 141.774 39.6144 143.038 41.0326 144.306L44.5048 147.4L44.5824 147.4C45.0033 147.401 45.5096 147.428 46.0776 147.494L46.2209 147.511C47.3882 147.657 48.5441 147.938 49.632 148.388C51.3676 149.107 52.7914 150.202 53.7742 151.734C54.6994 153.171 55.5877 155.46 56.4057 158.337C56.5186 158.734 56.2883 159.147 55.8912 159.26C55.4942 159.373 55.0809 159.142 54.968 158.745L54.868 158.398C54.1154 155.816 53.309 153.772 52.517 152.542C51.711 151.286 50.5304 150.378 49.0599 149.769C48.1064 149.374 47.0784 149.124 46.0358 148.994C45.3888 148.913 44.8295 148.889 44.4072 148.896L44.2671 148.899C44.0888 148.909 43.9138 148.854 43.7731 148.746L43.7156 148.698L40.889 146.181L39.611 145.04C38.0517 143.645 36.5077 142.259 35.0349 140.93L32.9117 139.008C29.1184 135.563 26.5926 133.2 25.7615 132.287C24.4535 130.835 23.9345 129.241 24.6841 128.279Z" fill="#164E63"/>
<path fill-rule="evenodd" clip-rule="evenodd" d="M34.4947 122.37C35.6553 121.781 37.0483 122.854 38.4755 125.143L39.0909 126.145C40.3295 128.169 41.9002 130.768 43.2751 133.073C43.4866 133.427 43.3706 133.886 43.0161 134.097C42.6617 134.309 42.2029 134.193 41.9915 133.838L41.0686 132.296C39.7258 130.058 38.3125 127.729 37.2635 126.025C36.6534 125.032 36.0882 124.343 35.6166 123.972C35.4547 123.845 35.318 123.767 35.2156 123.733L35.1827 123.723L35.1719 123.72L35.1606 123.745C35.1171 123.842 35.0858 123.993 35.0771 124.188C35.0567 124.648 35.1633 125.257 35.3986 125.937L35.439 126.051C35.8509 127.186 37.0831 130.089 38.9105 134.266L39.964 136.665L40.8491 138.67C41.3737 139.856 41.9112 141.067 42.4526 142.283L44.6602 147.224C44.8293 147.601 44.6612 148.043 44.2847 148.212C43.9081 148.381 43.4658 148.213 43.2968 147.837L41.9236 144.767L40.813 142.275C40.2235 140.949 39.6406 139.634 39.0757 138.355L37.74 135.319C35.7869 130.862 34.476 127.779 34.034 126.561C33.3299 124.621 33.4053 122.923 34.4947 122.37Z" fill="#164E63"/>
<path fill-rule="evenodd" clip-rule="evenodd" d="M44.0001 122.941C45.5462 122.685 46.578 124.595 46.9749 127.925L46.9883 128.041C47.032 128.428 47.0772 128.851 47.1237 129.307L47.1638 129.706C47.2587 130.661 47.3578 131.74 47.46 132.921C47.5919 134.444 47.7228 136.065 47.848 137.695L47.9885 139.561L48.0623 140.577C48.0915 140.989 47.7813 141.346 47.3696 141.376C46.9726 141.404 46.6261 141.116 46.5758 140.727L46.5702 140.666L46.4262 138.709L46.3202 137.323C46.2194 136.024 46.1152 134.737 46.0103 133.508L45.906 132.309C45.8415 131.583 45.7784 130.9 45.7171 130.268L45.6367 129.459C45.5908 129.008 45.5462 128.59 45.5031 128.209C45.3355 126.734 45.0488 125.636 44.6941 124.967C44.5569 124.708 44.4218 124.538 44.3079 124.455L44.274 124.431C44.2524 124.417 44.2458 124.415 44.244 124.415C44.2186 124.42 44.1622 124.454 44.0821 124.543C43.9594 124.678 43.8346 124.889 43.7232 125.167C43.4598 125.822 43.3062 126.747 43.3062 127.826L43.3079 128.121C43.3192 129.234 43.3875 131.485 43.4999 134.593L43.5903 137.027L43.6295 138.051C43.6649 138.97 43.7016 139.904 43.7389 140.84L43.9532 146.079C43.9706 146.491 43.6505 146.84 43.2381 146.857C42.8405 146.874 42.5023 146.577 42.463 146.186L42.4526 145.969L42.3586 143.701C42.308 142.465 42.2574 141.209 42.2083 139.964L42.0967 137.084L41.9589 133.313C41.8643 130.593 41.8115 128.688 41.8115 127.826C41.8115 125.185 42.6219 123.169 44.0001 122.941Z" fill="#164E63"/>
<path fill-rule="evenodd" clip-rule="evenodd" d="M280.97 127.429C282.145 126.22 283.768 125.943 284.686 127.091C285.576 128.203 285.443 130.315 284.271 133.251L283.298 135.646C283.219 135.839 283.144 136.022 283.068 136.206C282.911 136.588 282.474 136.77 282.093 136.613C281.711 136.456 281.529 136.019 281.686 135.637L282.423 133.832L282.831 132.825C283.869 130.271 283.986 128.608 283.519 128.025C283.277 127.722 282.668 127.826 282.041 128.471C281.573 128.952 281.227 129.49 280.795 130.36L280.671 130.615C280.514 130.945 280.214 131.581 280.174 131.665C279.925 132.185 279.709 132.612 279.47 133.049C278.847 134.189 278.129 135.266 277.195 136.402C276.317 137.448 275.699 138.614 275.264 139.92C275.134 140.311 274.71 140.523 274.319 140.392C273.927 140.262 273.716 139.838 273.846 139.447C274.338 137.972 275.043 136.641 276.045 135.447C276.912 134.391 277.579 133.392 278.159 132.332C278.334 132.013 278.496 131.697 278.671 131.339L279.395 129.821C279.917 128.751 280.35 128.067 280.97 127.429Z" fill="#164E63"/>
<path fill-rule="evenodd" clip-rule="evenodd" d="M287.683 134.527C288.096 134.527 288.43 134.861 288.43 135.274C288.43 135.687 288.096 136.022 287.683 136.022C285.743 136.022 283.438 136.31 281.073 137.066C277.613 138.173 274.717 140.093 272.676 143.002C272.438 143.34 271.972 143.422 271.634 143.185C271.297 142.948 271.215 142.482 271.452 142.144C273.698 138.944 276.867 136.843 280.617 135.643C283.147 134.833 285.6 134.527 287.683 134.527Z" fill="#164E63"/>
<path fill-rule="evenodd" clip-rule="evenodd" d="M275.342 140.363C279.104 139.049 283.314 139.093 287.436 139.948C287.841 140.032 288.1 140.427 288.016 140.831C287.933 141.236 287.537 141.495 287.133 141.411C283.252 140.607 279.296 140.565 275.835 141.774C271.064 143.442 267.856 147.316 266.723 154.007C266.654 154.414 266.268 154.688 265.861 154.619C265.454 154.55 265.18 154.165 265.249 153.758C266.472 146.535 270.052 142.212 275.342 140.363Z" fill="#164E63"/>
<path fill-rule="evenodd" clip-rule="evenodd" d="M305.554 128.928C307.614 127.551 309.258 127.241 310.067 128.279C310.816 129.241 310.297 130.835 308.987 132.29L308.865 132.421C307.917 133.427 305.404 135.772 301.711 139.124L300.116 140.568L298.906 141.66C297.409 143.008 295.851 144.405 294.288 145.801L291.019 148.712C290.885 148.831 290.714 148.897 290.537 148.9L290.426 148.897C289.995 148.885 289.405 148.908 288.715 148.994C287.672 149.124 286.644 149.374 285.691 149.769C284.22 150.378 283.04 151.286 282.237 152.537C281.504 153.701 280.743 155.622 279.978 158.136C279.858 158.531 279.44 158.753 279.046 158.633C278.651 158.513 278.428 158.096 278.548 157.701L278.66 157.337C279.424 154.882 280.189 152.984 280.976 151.735C281.959 150.202 283.383 149.107 285.119 148.388C286.207 147.938 287.362 147.657 288.53 147.511C289.108 147.439 289.626 147.407 290.061 147.401L290.246 147.4L292.867 145.066L294.143 143.926C295.276 142.912 296.401 141.904 297.496 140.918L299.778 138.858C304.106 134.941 307.026 132.224 307.879 131.286C308.758 130.31 309.052 129.408 308.888 129.197C308.885 129.194 308.875 129.188 308.832 129.178C308.733 129.155 308.582 129.158 308.381 129.201C307.863 129.309 307.161 129.644 306.318 130.216L305.276 130.937C304.399 131.55 303.272 132.348 301.768 133.421L295.965 137.576C295.63 137.816 295.163 137.739 294.922 137.403C294.682 137.068 294.759 136.601 295.095 136.361L301.346 131.887C302.994 130.712 304.16 129.889 305.039 129.281L305.554 128.928Z" fill="#164E63"/>
<path fill-rule="evenodd" clip-rule="evenodd" d="M296.214 125.242C297.664 122.882 299.074 121.771 300.248 122.371C301.313 122.914 301.406 124.56 300.75 126.467L300.717 126.561C300.249 127.851 298.807 131.231 296.66 136.119L296.155 137.267L295.432 138.905C294.699 140.562 293.94 142.273 293.177 143.983L291.454 147.836C291.285 148.213 290.843 148.381 290.466 148.212C290.09 148.043 289.922 147.601 290.091 147.224L291.462 144.158L292.824 141.101C293.327 139.968 293.824 138.847 294.308 137.751L295.831 134.286C297.664 130.099 298.899 127.189 299.31 126.056C299.569 125.328 299.686 124.675 299.663 124.19C299.655 124.016 299.629 123.876 299.593 123.779L299.568 123.721L299.562 123.722C299.469 123.747 299.34 123.815 299.185 123.931L299.132 123.971C298.68 124.328 298.14 124.981 297.554 125.918L296.868 127.029C295.819 128.739 294.393 131.099 292.659 133.99C292.446 134.343 291.987 134.458 291.633 134.246C291.28 134.034 291.165 133.574 291.377 133.221L293.422 129.822C294.293 128.379 295.044 127.143 295.661 126.138L296.214 125.242Z" fill="#164E63"/>
<path fill-rule="evenodd" clip-rule="evenodd" d="M287.738 128.04L287.765 127.811C288.172 124.551 289.198 122.688 290.726 122.941C292.085 123.166 292.892 125.128 292.914 127.715L292.914 128.036C292.908 129.202 292.851 131.411 292.765 133.683C292.749 134.096 292.402 134.417 291.99 134.402C291.577 134.386 291.255 134.039 291.271 133.627L291.322 132.204C291.383 130.345 291.42 128.684 291.42 127.826C291.42 126.747 291.267 125.822 291.003 125.167C290.892 124.889 290.767 124.678 290.644 124.543C290.564 124.454 290.508 124.42 290.482 124.415L290.477 124.417C290.47 124.42 290.454 124.429 290.418 124.455C290.305 124.538 290.169 124.708 290.032 124.967C289.689 125.614 289.409 126.663 289.24 128.067L289.223 128.209C289.18 128.59 289.136 129.008 289.09 129.459L289.009 130.268C288.927 131.111 288.843 132.043 288.755 133.05C288.637 134.416 288.52 135.862 288.406 137.323L288.256 139.298L288.155 140.683C288.126 141.095 287.768 141.405 287.357 141.376C286.945 141.346 286.635 140.989 286.664 140.577L286.795 138.797L286.841 138.184C286.965 136.553 287.095 134.922 287.227 133.381L287.353 131.935C287.418 131.214 287.481 130.538 287.542 129.913L287.603 129.307C287.649 128.851 287.694 128.428 287.738 128.04Z" fill="#164E63"/>
<path fill-rule="evenodd" clip-rule="evenodd" d="M292.042 132.908C292.454 132.921 292.778 133.266 292.765 133.679L292.702 135.575L292.604 138.284L292.532 140.176C292.504 140.925 292.474 141.676 292.444 142.421L292.291 146.142C292.274 146.555 291.925 146.875 291.513 146.857C291.115 146.84 290.803 146.515 290.797 146.122L290.805 145.921L290.891 143.84L290.98 141.616C291 141.117 291.02 140.617 291.039 140.118L291.125 137.837L291.208 135.523C291.231 134.861 291.252 134.229 291.271 133.631C291.284 133.233 291.605 132.918 291.998 132.908L292.042 132.908Z" fill="#164E63"/>
<path fill-rule="evenodd" clip-rule="evenodd" d="M133.2 119.734C133.569 119.549 134.018 119.699 134.202 120.068C134.387 120.437 134.237 120.886 133.868 121.07C122.643 126.683 117.953 135.542 119.304 146.241C119.358 146.672 119.035 147.055 118.607 147.08L118.562 147.082L118.384 147.082L118.337 147.083C118.264 147.086 118.178 147.09 118.08 147.097C117.801 147.116 117.479 147.153 117.117 147.21C116.086 147.374 114.938 147.672 113.703 148.14C110.176 149.476 106.645 151.899 103.334 155.692C99.5654 160.01 96.3265 165.845 93.7868 173.402C93.5678 174.053 92.6592 174.089 92.3905 173.456L91.5669 171.524C88.8563 165.193 86.8213 160.723 85.9125 159.202C84.992 157.682 83.2211 156.959 79.7863 156.408L78.9915 156.286L78.0152 156.143C76.3886 155.903 75.5522 155.747 74.6845 155.491C73.4272 155.12 72.513 154.609 71.9123 153.843L71.3798 153.161C70.8335 152.464 70.3564 151.862 69.9443 151.348L69.3764 150.645L69.2874 150.536L69.2852 150.538C69.1479 150.682 69.0005 150.833 68.8433 150.989L68.7236 151.107C67.8003 152.013 66.7473 152.918 65.5809 153.763C62.0116 156.35 58.1852 157.835 54.2514 157.652L54.1173 157.645L54.1169 157.648C53.9652 158.662 53.9268 160.078 54.0755 161.939L54.09 162.115C54.2245 163.698 53.7601 164.713 52.5415 166.204L52.2196 166.592C50.8191 168.279 50.416 169.27 50.7928 171.165L50.8141 171.27C51.2105 173.203 54.0439 181.547 58.5344 194.19L59.4424 196.742L60.5443 199.828C61.845 203.462 63.1946 207.211 64.5529 210.966L66.6749 216.819L68.1456 220.857C68.3138 221.31 69.9708 227.044 70.7217 229.032C72.8373 234.632 75.5665 237.775 79.4917 237.983C79.6763 237.993 79.8475 238.07 79.9755 238.196L79.9844 238.205L82.8048 238.2C89.2949 238.193 103.6 238.195 124.266 238.206L212.91 238.268L255.981 238.305L255.993 238.271C256.073 238.055 256.25 237.883 256.479 237.814L256.522 237.803C259.753 237.039 262.103 234.058 263.979 229.171L264.088 228.885C264.842 226.84 266.391 221.524 266.616 220.872L268.541 215.58L269.932 211.737C271.389 207.71 272.839 203.681 274.233 199.784L275.501 196.23L276.651 192.992C280.897 181.012 283.569 173.126 283.962 171.245C284.349 169.356 283.998 168.36 282.7 166.754L282.308 166.278C281.035 164.734 280.549 163.708 280.686 162.09C280.847 160.201 280.818 158.759 280.673 157.719L280.658 157.62L280.525 157.627C276.645 157.808 272.869 156.366 269.342 153.844L269.195 153.738C268.029 152.893 266.976 151.988 266.052 151.082C265.89 150.923 265.738 150.77 265.596 150.622L265.484 150.506L265.325 150.7C264.699 151.465 263.886 152.491 262.864 153.818C262.26 154.594 261.505 155.068 260.579 155.316C259.999 155.472 259.513 155.527 258.587 155.562L257.637 155.593C257.538 155.596 257.454 155.6 257.368 155.605L257.281 155.61C255.403 155.719 254.336 156.212 253.422 157.707C251.758 160.456 247.23 171.132 240.92 186.574C240.658 187.215 239.74 187.186 239.52 186.53C230.855 160.762 219.836 148.38 202.404 145.226C202.093 145.17 201.851 144.924 201.8 144.611C200.407 136.075 196.663 128.984 189.761 123.867C189.43 123.621 189.36 123.153 189.606 122.822C189.852 122.49 190.32 122.421 190.652 122.666C197.68 127.877 201.587 135.035 203.139 143.579L203.187 143.852L203.21 143.856C220.416 147.176 231.515 159.315 240.135 183.729L240.289 184.168L241.511 181.189C246.789 168.355 250.515 159.68 252.093 157.018L252.145 156.93C253.333 154.987 254.822 154.276 257.081 154.124L257.334 154.11C257.441 154.104 257.549 154.1 257.683 154.095L258.323 154.075C260.265 154.006 260.995 153.785 261.682 152.903L262.315 152.085C263.021 151.178 263.613 150.434 264.099 149.838L264.475 149.382C264.549 149.293 264.617 149.212 264.679 149.138L264.893 148.89C264.898 148.884 264.902 148.88 264.906 148.875C265.198 148.548 265.705 148.544 266.003 148.857L266.171 149.049C266.21 149.093 266.254 149.14 266.301 149.192C266.528 149.439 266.794 149.716 267.099 150.015C267.972 150.871 268.97 151.729 270.072 152.528C273.614 155.096 277.384 156.478 281.178 156.079C281.528 156.042 281.857 156.255 281.966 156.589L281.987 156.655C282.032 156.811 282.086 157.058 282.137 157.402C282.301 158.496 282.345 159.965 282.205 161.847L282.175 162.216C282.084 163.296 282.383 163.988 283.317 165.149L283.868 165.82C284.553 166.663 284.915 167.214 285.206 167.955C285.621 169.008 285.707 170.173 285.426 171.548L285.396 171.684C284.88 173.941 282.086 182.154 277.65 194.649L276.743 197.198L275.64 200.287C274.246 204.186 272.795 208.216 271.338 212.246L269.189 218.175L268.02 221.385C267.815 221.985 266.199 227.53 265.438 229.542C263.515 234.619 261.063 237.925 257.552 239.065L257.415 239.108L257.409 239.159C257.358 239.513 257.065 239.779 256.713 239.799L256.413 239.8L153.27 239.718C111.423 239.69 84.8253 239.682 79.751 239.701C79.504 239.701 79.2884 239.62 79.113 239.48L79.0789 239.451L79.0082 239.445C76.6923 239.217 74.7213 238.103 73.0601 236.232L72.9646 236.123C71.5196 234.459 70.3496 232.276 69.3235 229.56L69.225 229.293C68.4732 227.21 67.1025 222.509 66.7953 221.533L66.7286 221.334L64.3744 214.863L63.1473 211.475C61.4002 206.645 59.6674 201.825 58.0346 197.244L57.1203 194.675C52.6313 182.036 49.8265 173.781 49.3644 171.639L49.3506 171.573C49.0618 170.198 49.1455 169.031 49.5606 167.975C49.8633 167.205 50.243 166.64 50.9857 165.739L51.3077 165.351L51.45 165.177C52.3682 164.04 52.6774 163.355 52.6067 162.319L52.5712 161.872C52.4309 159.99 52.475 158.521 52.6387 157.427L52.6626 157.275C52.7145 156.961 52.7673 156.743 52.8096 156.614C52.9193 156.279 53.2476 156.067 53.5978 156.104C57.3923 156.502 61.1616 155.121 64.7037 152.553C65.8064 151.754 66.8038 150.896 67.6769 150.04C67.9435 149.778 68.1812 149.534 68.3884 149.311L68.4753 149.217C68.5224 149.165 68.5657 149.117 68.6049 149.073L68.7409 148.918C69.0363 148.566 69.5763 148.562 69.8776 148.908L70.0518 149.114C70.1532 149.235 70.2727 149.38 70.4113 149.549L70.738 149.95C71.3488 150.705 72.1271 151.687 73.0897 152.923C73.7642 153.782 75.0189 154.179 78.0904 154.643L79.719 154.884L80.056 154.937C81.7076 155.201 82.8673 155.472 83.9258 155.885C85.3978 156.46 86.4926 157.275 87.1933 158.432L87.2824 158.584C88.1927 160.164 89.953 164.003 92.2896 169.42L93.0099 171.097L93.0693 170.934C95.524 164.242 98.562 158.937 102.062 154.878L102.208 154.709C105.682 150.729 109.42 148.164 113.173 146.742C114.507 146.237 115.753 145.913 116.883 145.734C117.136 145.694 117.374 145.663 117.595 145.639L117.73 145.626L117.71 145.414C116.709 134.649 121.655 125.642 132.848 119.912L133.2 119.734Z" fill="#164E63"/>
<path fill-rule="evenodd" clip-rule="evenodd" d="M281.032 161.63C281.655 157.644 281.331 156.099 281.331 156.099C273.335 157.843 265.936 148.726 265.936 148.726C265.936 148.726 265.089 149.772 262.698 153.135C261.726 154.48 260.755 154.879 259.758 155.153C263.071 165.964 277.545 167.359 282.975 167.484C282.577 165.142 280.559 164.644 281.032 161.63Z" fill="#164E63"/>
<path fill-rule="evenodd" clip-rule="evenodd" d="M53.2455 161.605C52.6228 157.619 53.4199 156.099 53.4199 156.099C61.4164 157.843 68.8149 148.726 68.8149 148.726C68.8149 148.726 70.0107 148.85 72.427 152.213C73.3986 153.559 75.0427 154.704 76.0391 154.978C72.726 165.79 56.0854 167.26 50.6548 167.384C51.0534 165.043 53.7188 164.619 53.2455 161.605Z" fill="#164E63"/>
<path fill-rule="evenodd" clip-rule="evenodd" d="M119.161 145.836C114.303 146.833 108.573 149.05 104.114 154.007C108.274 160.011 123.445 180.786 150.175 185.146C150.175 185.021 150.125 184.822 150.05 184.598C135.253 178.495 120.73 161.58 119.161 145.836Z" fill="#164E63"/>
<path fill-rule="evenodd" clip-rule="evenodd" d="M201.541 143.071C202.463 148.601 202.213 153.584 202.089 156.523C201.665 166.213 198.128 172.914 195.388 177.747L194.865 181.235C206.174 178.569 215.541 160.559 217.06 150.245C213.05 148.053 211.356 145.064 201.541 143.071Z" fill="#164E63"/>
<path fill-rule="evenodd" clip-rule="evenodd" d="M149.376 177.308C149.837 177.042 150.423 177.185 150.71 177.626L150.774 177.734L150.975 178.088C151.061 178.24 151.156 178.409 151.26 178.595L151.624 179.253C151.905 179.765 152.204 180.318 152.518 180.908L152.623 181.106C154.033 183.765 155.443 186.603 156.759 189.506C158.027 192.303 159.143 195.017 160.063 197.596C161.512 201.656 162.434 205.258 162.725 208.293C162.778 208.84 162.376 209.327 161.828 209.38C161.281 209.432 160.794 209.031 160.741 208.483C160.468 205.637 159.584 202.184 158.186 198.266C157.286 195.743 156.191 193.079 154.944 190.329C153.727 187.646 152.428 185.015 151.124 182.534L150.863 182.04C150.376 181.122 149.924 180.292 149.519 179.565L149.24 179.069L149.013 178.67C148.737 178.194 148.9 177.584 149.376 177.308Z" fill="#164E63"/>
<path fill-rule="evenodd" clip-rule="evenodd" d="M193.636 176.73C194.153 176.859 194.474 177.37 194.373 177.888L194.254 178.387L194.147 178.841C194.068 179.181 193.984 179.552 193.895 179.952L193.818 180.302C193.408 182.171 192.998 184.217 192.615 186.374C191.932 190.222 191.413 193.991 191.123 197.517C190.81 201.325 190.779 204.697 191.073 207.512C191.13 208.059 190.733 208.549 190.185 208.607C189.638 208.664 189.148 208.266 189.091 207.719C188.782 204.765 188.815 201.275 189.137 197.354C189.432 193.759 189.96 189.931 190.653 186.026C191.018 183.97 191.407 182.013 191.798 180.211L191.95 179.52C192.053 179.055 192.15 178.629 192.24 178.243L192.428 177.457C192.561 176.923 193.101 176.598 193.636 176.73Z" fill="#164E63"/>
<path fill-rule="evenodd" clip-rule="evenodd" d="M92.5108 171.505C92.8768 171.349 93.2982 171.507 93.4731 171.859L93.4915 171.899L105.125 199.151C105.287 199.531 105.111 199.97 104.731 200.132C104.365 200.288 103.944 200.13 103.769 199.778L103.75 199.738L92.1168 172.486C91.9548 172.106 92.1312 171.667 92.5108 171.505Z" fill="#164E63"/>
<path fill-rule="evenodd" clip-rule="evenodd" d="M239.936 185.254C240.124 184.886 240.574 184.741 240.942 184.929C241.295 185.11 241.444 185.534 241.286 185.893L241.267 185.934L233.345 201.429C233.157 201.797 232.707 201.942 232.339 201.754C231.986 201.573 231.837 201.149 231.995 200.79L232.014 200.749L239.936 185.254Z" fill="#164E63"/>
<path fill-rule="evenodd" clip-rule="evenodd" d="M127.666 218.577C128.079 218.598 128.397 218.948 128.376 219.36L128.362 219.596L128.337 219.943C128.33 220.037 128.321 220.136 128.312 220.239C128.253 220.928 128.17 221.695 128.058 222.52C127.738 224.879 127.255 227.24 126.573 229.45C125.664 232.398 124.47 234.853 122.936 236.654C121.066 238.85 118.747 239.998 115.988 239.875C115.576 239.856 115.256 239.507 115.275 239.095C115.293 238.682 115.642 238.363 116.055 238.381C120.304 238.571 123.271 235.087 125.145 229.01C125.8 226.886 126.267 224.603 126.577 222.319C126.675 221.592 126.751 220.912 126.807 220.294L126.823 220.111C126.833 219.995 126.842 219.885 126.85 219.783L126.883 219.304C126.883 219.298 126.883 219.292 126.883 219.287C126.903 218.89 127.23 218.58 127.623 218.576L127.666 218.577Z" fill="#164E63"/>
<path fill-rule="evenodd" clip-rule="evenodd" d="M186.943 185.943C192.648 169.078 190.431 147.879 186.57 144.815C185.797 144.192 183.456 143.744 180.242 143.37C178.897 143.221 177.826 144.192 177.826 144.192L182.609 144.939C180.466 165.391 171.349 171.843 171.349 171.843C156.477 154.63 139.837 143.121 139.837 143.121L141.032 142.299C140.484 142.299 140.185 142.299 140.185 142.299L132.538 144.939C132.538 144.939 161.659 171.993 170.278 221.342C171.623 229.089 172.545 235.167 173.143 239.925L187.89 239.053C185.673 221.989 183.331 196.655 186.943 185.943Z" fill="#06D0B6"/>
<path fill-rule="evenodd" clip-rule="evenodd" d="M146.561 131.463L146.605 131.464C147.002 131.486 147.309 131.816 147.31 132.208L147.308 132.252L146.935 138.829C146.922 139.043 146.819 139.24 146.653 139.372L146.613 139.402L141.138 143.181L141.529 143.465C141.822 143.679 142.137 143.911 142.47 144.16L142.62 144.271C144.488 145.665 146.568 147.286 148.807 149.118C155.205 154.349 161.602 160.217 167.575 166.59C168.879 167.981 170.15 169.384 171.386 170.798L171.436 170.855L171.448 170.844C171.774 170.554 172.133 170.202 172.518 169.787L172.624 169.672C173.952 168.215 175.287 166.334 176.536 163.988C179.067 159.234 180.909 153.222 181.767 145.809L181.788 145.618L177.71 144.98C177.317 144.919 177.044 144.561 177.082 144.17L177.087 144.127C177.149 143.733 177.506 143.46 177.897 143.498L177.941 143.504L182.724 144.251C183.117 144.312 183.393 144.671 183.352 145.066C182.522 153.082 180.579 159.574 177.855 164.69C176.547 167.148 175.14 169.131 173.728 170.679C173.229 171.226 172.763 171.681 172.343 172.048L172.228 172.147C172.026 172.319 171.874 172.437 171.78 172.504C171.466 172.725 171.035 172.673 170.783 172.382C169.396 170.778 167.961 169.188 166.484 167.612C160.56 161.292 154.21 155.467 147.861 150.275L147.331 149.843C145.31 148.202 143.428 146.74 141.726 145.469L141.15 145.041C140.826 144.802 140.524 144.581 140.245 144.38L139.737 144.016L139.41 143.785C138.995 143.497 138.982 142.892 139.373 142.585L139.412 142.556L145.463 138.379L145.816 132.168C145.838 131.785 146.144 131.486 146.517 131.464L146.561 131.463Z" fill="#164E63"/>
<path fill-rule="evenodd" clip-rule="evenodd" d="M138.114 107.875C138.511 107.763 138.924 107.994 139.036 108.392C139.148 108.789 138.916 109.202 138.519 109.314C136.833 109.788 135.295 110.587 134.24 111.752C132.827 113.312 132.41 115.392 133.299 118.183C134.061 120.582 135.431 121.809 137.326 122.145C138.86 122.417 140.683 122.094 142.577 121.35C142.962 121.2 143.395 121.389 143.546 121.773C143.697 122.157 143.507 122.591 143.123 122.742C140.995 123.577 138.917 123.945 137.065 123.617C134.617 123.182 132.803 121.558 131.875 118.636C130.827 115.347 131.356 112.71 133.132 110.749C134.408 109.341 136.182 108.419 138.114 107.875Z" fill="#164E63"/>
<path fill-rule="evenodd" clip-rule="evenodd" d="M186.843 84.4304C189.309 94.4197 190.032 105.356 190.007 113.801Z" fill="#F1F5F9"/>
<path fill-rule="evenodd" clip-rule="evenodd" d="M186.664 83.7051C187.065 83.6061 187.47 83.8508 187.569 84.2515C189.779 93.2036 190.784 103.631 190.754 113.803C190.753 114.216 190.417 114.549 190.005 114.548C189.592 114.547 189.258 114.211 189.26 113.799C189.289 103.74 188.295 93.43 186.118 84.6097C186.019 84.209 186.263 83.804 186.664 83.7051Z" fill="#164E63"/>
<path fill-rule="evenodd" clip-rule="evenodd" d="M143.47 105.421L137.841 106.592C137.417 106.68 137.16 107.106 137.271 107.517L137.379 107.846L138.303 110.596L139.025 112.731C139.833 115.115 140.644 117.481 141.423 119.73L142.179 121.9C143.792 126.503 145.037 129.899 145.79 131.689L145.85 131.83C148.353 137.7 150.201 139.75 157.058 143.598C160.979 145.799 166.669 146.922 171.983 146.462C178.061 145.937 183.095 143.457 185.973 139.072C187.675 136.469 188.905 133.189 189.73 129.388C190.805 124.437 191.097 119.268 190.951 114.826L190.941 114.544C190.934 114.354 190.927 114.182 190.919 114.03L190.902 113.725C190.879 113.385 190.629 113.104 190.294 113.041C189.063 112.811 187.222 112.742 184.912 112.798C183.619 112.829 182.239 112.897 180.838 112.993L180.168 113.04C179.804 113.067 179.453 113.095 179.121 113.123L178.177 113.206L178.151 113.209C172.901 113.905 167.889 114.985 163.183 116.346C160.272 117.188 157.646 118.089 155.341 118.992L154.91 119.162L154.567 119.3C154.005 119.528 153.497 119.742 153.042 119.942L152.876 120.015L152.843 119.934C150.939 115.323 145.956 107.078 144.092 105.572C143.918 105.431 143.69 105.376 143.47 105.421ZM143.402 106.962L143.439 106.999C145.412 109.022 150.341 117.352 151.763 121.279C151.909 121.682 152.361 121.877 152.751 121.716L153.107 121.55C153.228 121.495 153.363 121.434 153.513 121.368L153.778 121.252C154.32 121.015 154.941 120.757 155.636 120.482C157.959 119.562 160.627 118.642 163.599 117.782L164.034 117.657C168.399 116.416 173.027 115.421 177.863 114.756L178.339 114.692L178.951 114.637L179.05 114.629C179.628 114.579 180.265 114.53 180.94 114.484C182.32 114.39 183.679 114.322 184.948 114.292L185.117 114.288C186.857 114.251 188.307 114.289 189.364 114.413L189.441 114.422L189.448 114.599C189.611 118.99 189.336 124.158 188.269 129.071C187.48 132.708 186.312 135.822 184.723 138.253C182.124 142.211 177.512 144.484 171.854 144.973C166.83 145.408 161.44 144.344 157.789 142.295C151.35 138.681 149.665 136.881 147.366 131.573L147.225 131.244C146.477 129.49 145.166 125.915 143.457 121.024L143.029 119.799L142.64 118.676C141.922 116.601 141.181 114.433 140.44 112.251L139.204 108.587L138.968 107.884L143.402 106.962Z" fill="#164E63"/>
<path fill-rule="evenodd" clip-rule="evenodd" d="M139.612 110.039C139.612 110.039 134.181 103.288 131.541 95.9394C129.075 89.0142 131.466 81.1921 137.594 77.2562C142.701 73.9679 146.961 75.5871 146.961 75.5871C146.961 75.5871 140.085 66.2953 147.733 56.5053C150.423 53.0426 154.434 50.8505 158.744 50.4768C169.306 49.5551 173.591 58.249 173.591 58.249C173.591 58.249 182.509 35.8789 207.021 45.6441C209.487 46.6405 212.527 49.8291 214.046 52.0462C223.288 65.4732 200.021 85.3273 187.067 88.1921C172.843 91.3309 164.149 89.8861 159.117 86.8469C162.804 88.5907 161.384 110.936 139.612 110.039Z" fill="#164E63"/>
<path fill-rule="evenodd" clip-rule="evenodd" d="M176.731 103.014C177.25 102.895 177.768 103.206 177.912 103.713L177.925 103.763L181.039 117.339C181.158 117.859 180.847 118.377 180.34 118.521L180.291 118.533L176.28 119.455C175.744 119.578 175.209 119.243 175.086 118.707C174.966 118.187 175.277 117.669 175.784 117.526L175.834 117.513L178.873 116.814L175.982 104.208C175.863 103.689 176.174 103.171 176.681 103.027L176.731 103.014Z" fill="#164E63"/>
<path fill-rule="evenodd" clip-rule="evenodd" d="M182.281 109.42C183.046 109.335 183.558 108.29 183.424 107.087C183.289 105.884 182.559 104.978 181.794 105.063C181.028 105.149 180.516 106.194 180.651 107.397C180.785 108.6 181.515 109.506 182.281 109.42Z" fill="#164E63"/>
<path fill-rule="evenodd" clip-rule="evenodd" d="M169.004 110.317C169.77 110.232 170.282 109.187 170.147 107.984C170.013 106.78 169.283 105.874 168.517 105.96C167.752 106.046 167.24 107.09 167.374 108.294C167.509 109.497 168.239 110.403 169.004 110.317Z" fill="#164E63"/>
<path fill-rule="evenodd" clip-rule="evenodd" d="M169.411 99.4521C169.961 99.4412 170.416 99.8785 170.427 100.429C170.469 102.589 169.119 104.039 166.993 104.874C166.31 105.142 165.59 105.33 164.87 105.454L164.702 105.482C164.349 105.538 164.068 105.567 163.887 105.578C163.337 105.612 162.865 105.194 162.831 104.645C162.798 104.112 163.19 103.651 163.715 103.593L163.85 103.582C163.88 103.579 163.916 103.576 163.959 103.571C164.131 103.552 164.324 103.526 164.533 103.49C165.127 103.387 165.72 103.233 166.264 103.019C167.667 102.468 168.425 101.674 168.435 100.541L168.434 100.468C168.423 99.9178 168.861 99.463 169.411 99.4521Z" fill="#164E63"/>
<path fill-rule="evenodd" clip-rule="evenodd" d="M180.531 93.8755C181.386 93.6652 182.274 93.5968 183.137 93.7635C184.486 94.0239 185.562 94.8352 186.165 96.2454C186.381 96.7514 186.147 97.337 185.641 97.5533C185.135 97.7696 184.549 97.5347 184.333 97.0286C184 96.2509 183.481 95.8596 182.759 95.7202C182.22 95.6161 181.606 95.6634 181.007 95.8107C180.903 95.8363 180.807 95.8631 180.721 95.89L180.632 95.9187L180.557 95.9451C180.045 96.1465 179.466 95.8947 179.265 95.3825C179.063 94.8704 179.315 94.2919 179.827 94.0905C179.977 94.0315 180.219 93.9524 180.531 93.8755Z" fill="#164E63"/>
<path fill-rule="evenodd" clip-rule="evenodd" d="M175.562 123.805C173.684 124.18 171.679 124.283 169.69 124.189C167.962 124.12 166.477 125.338 167.163 126.756C168.185 128.917 170.341 130.136 173.776 129.739C177.182 129.34 178.753 127.795 178.748 125.668L178.747 125.594C178.747 124.28 177.144 123.522 175.632 123.791L175.562 123.805ZM176.962 125.378C177.174 125.476 177.253 125.571 177.253 125.609C177.279 126.974 176.322 127.935 173.603 128.254C170.851 128.572 169.309 127.728 168.545 126.18L168.512 126.111C168.492 126.07 168.5 126.045 168.612 125.953C168.825 125.779 169.201 125.666 169.625 125.683C171.722 125.781 173.844 125.672 175.855 125.27C176.244 125.192 176.658 125.238 176.962 125.378Z" fill="#164E63"/>
<path fill-rule="evenodd" clip-rule="evenodd" d="M208.964 208.238C207.495 208.238 206.299 209.434 206.299 210.904C206.299 212.374 207.495 213.569 208.964 213.569C210.434 213.569 211.63 212.374 211.63 210.904C211.63 209.434 210.434 208.238 208.964 208.238Z" fill="#164E63"/>
<path fill-rule="evenodd" clip-rule="evenodd" d="M200.395 226.947V226.947C199.673 226.947 199 227.221 198.502 227.744C198.004 228.242 197.729 228.915 197.729 229.637C197.729 230.359 198.004 231.007 198.527 231.505C199.025 232.003 199.697 232.277 200.395 232.277C200.395 232.277 200.395 232.277 200.42 232.277C201.142 232.277 201.79 232.003 202.288 231.48C202.786 230.957 203.06 230.31 203.06 229.587C203.06 228.142 201.865 226.947 200.395 226.947Z" fill="#164E63"/>
<path fill-rule="evenodd" clip-rule="evenodd" d="M268.801 202.534H196.559V220.619L183.281 220.843L183.356 238.929L259.933 238.555L259.858 220.619H268.801V202.534V202.534ZM203.36 232.527C202.587 233.324 201.541 233.747 200.42 233.747H200.395C198.103 233.747 196.26 231.904 196.235 229.612C196.235 228.491 196.658 227.445 197.431 226.672C198.203 225.875 199.249 225.452 200.37 225.452H200.395C202.687 225.452 204.53 227.295 204.555 229.587C204.555 230.708 204.132 231.754 203.36 232.527ZM208.965 215.039C206.673 215.039 204.804 213.171 204.804 210.879C204.804 208.587 206.673 206.719 208.965 206.719C211.256 206.719 213.125 208.587 213.125 210.879C213.125 213.196 211.256 215.039 208.965 215.039ZM220.548 234.121L220.498 224.406L223.637 224.381L223.687 234.096L220.548 234.121ZM224.459 206.221H227.598V215.936H224.459V206.221ZM225.107 234.096L225.057 224.381L258.687 224.231L258.737 233.947L225.107 234.096ZM262.648 215.936H229.018V206.221H262.648V215.936Z" fill="#164E63"/>
<path fill-rule="evenodd" clip-rule="evenodd" d="M250.685 224.904C251.083 224.901 251.411 225.21 251.436 225.602L251.438 225.646L251.487 232.845C251.49 233.258 251.158 233.595 250.745 233.598C250.347 233.6 250.02 233.292 249.994 232.9L249.993 232.856L249.943 225.656C249.94 225.244 250.272 224.907 250.685 224.904Z" fill="#06D0B6"/>
<path fill-rule="evenodd" clip-rule="evenodd" d="M247.001 224.904C247.399 224.902 247.725 225.212 247.75 225.605L247.751 225.649L247.776 232.873C247.777 233.285 247.444 233.621 247.031 233.623C246.633 233.624 246.307 233.314 246.283 232.922L246.281 232.878L246.256 225.654C246.255 225.241 246.588 224.905 247.001 224.904Z" fill="#06D0B6"/>
<path fill-rule="evenodd" clip-rule="evenodd" d="M243.289 224.929C243.687 224.927 244.014 225.237 244.038 225.63L244.039 225.673L244.064 232.898C244.065 233.31 243.732 233.646 243.319 233.648C242.921 233.649 242.595 233.339 242.571 232.947L242.569 232.903L242.544 225.679C242.543 225.266 242.876 224.93 243.289 224.929Z" fill="#06D0B6"/>
<path fill-rule="evenodd" clip-rule="evenodd" d="M239.231 206.744C239.629 206.744 239.955 207.055 239.977 207.447L239.979 207.491V214.715C239.979 215.128 239.644 215.463 239.231 215.463C238.833 215.463 238.508 215.151 238.485 214.759L238.484 214.715V207.491C238.484 207.078 238.818 206.744 239.231 206.744Z" fill="#06D0B6"/>
<path fill-rule="evenodd" clip-rule="evenodd" d="M258.338 206.744C258.736 206.744 259.061 207.055 259.084 207.447L259.085 207.491V214.715C259.085 215.128 258.751 215.463 258.338 215.463C257.94 215.463 257.615 215.151 257.592 214.759L257.591 214.715V207.491C257.591 207.078 257.925 206.744 258.338 206.744Z" fill="#06D0B6"/>
<path fill-rule="evenodd" clip-rule="evenodd" d="M235.52 206.744C235.918 206.744 236.243 207.055 236.266 207.447L236.267 207.491V214.715C236.267 215.128 235.933 215.463 235.52 215.463C235.122 215.463 234.796 215.151 234.774 214.759L234.772 214.715V207.491C234.772 207.078 235.107 206.744 235.52 206.744Z" fill="#06D0B6"/>
<path fill-rule="evenodd" clip-rule="evenodd" d="M231.833 206.744C232.231 206.744 232.556 207.055 232.579 207.447L232.58 207.491V214.715C232.58 215.128 232.246 215.463 231.833 215.463C231.435 215.463 231.109 215.151 231.087 214.759L231.085 214.715V207.491C231.085 207.078 231.42 206.744 231.833 206.744Z" fill="#06D0B6"/>
<rect x="255.125" y="176.153" width="89.4555" height="63.0996" fill="#06D0B6"/>
<path fill-rule="evenodd" clip-rule="evenodd" d="M305.32 175.555C305.718 175.555 306.043 175.866 306.066 176.259L306.067 176.303V239.626C306.067 240.039 305.733 240.374 305.32 240.374C304.922 240.374 304.597 240.063 304.574 239.67L304.573 239.626V176.303C304.573 175.89 304.907 175.555 305.32 175.555Z" fill="#164E63"/>
<path fill-rule="evenodd" clip-rule="evenodd" d="M333.769 182.406C334.182 182.406 334.516 182.74 334.516 183.153C334.516 183.551 334.205 183.876 333.813 183.899L333.769 183.9H293.288C292.876 183.9 292.541 183.566 292.541 183.153C292.541 182.755 292.852 182.43 293.244 182.407L293.288 182.406H333.769Z" fill="#164E63"/>
<path fill-rule="evenodd" clip-rule="evenodd" d="M343.783 205.075C344.195 205.075 344.53 205.409 344.53 205.822C344.53 206.22 344.219 206.545 343.827 206.568L343.783 206.569H317.776C317.363 206.569 317.028 206.235 317.028 205.822C317.028 205.424 317.339 205.099 317.732 205.076L317.776 205.075H343.783Z" fill="#164E63"/>
<path fill-rule="evenodd" clip-rule="evenodd" d="M339.947 226.224C340.359 226.224 340.694 226.559 340.694 226.971C340.694 227.369 340.383 227.695 339.991 227.718L339.947 227.719H289.228C288.815 227.719 288.48 227.384 288.48 226.971C288.48 226.573 288.792 226.248 289.184 226.225L289.228 226.224H339.947Z" fill="#164E63"/>
<path fill-rule="evenodd" clip-rule="evenodd" d="M296.327 199.395C296.74 199.395 297.075 199.73 297.075 200.142C297.075 200.54 296.763 200.866 296.371 200.888L296.327 200.89H270.121C269.708 200.89 269.374 200.555 269.374 200.142C269.374 199.744 269.685 199.419 270.077 199.396L270.121 199.395H296.327Z" fill="#164E63"/>
<path fill-rule="evenodd" clip-rule="evenodd" d="M271.118 189.48C271.53 189.48 271.865 189.815 271.865 190.228C271.865 190.626 271.554 190.951 271.162 190.974L271.118 190.975H255.224C254.812 190.975 254.477 190.641 254.477 190.228C254.477 189.83 254.788 189.504 255.18 189.482L255.224 189.48H271.118Z" fill="#164E63"/>
<path fill-rule="evenodd" clip-rule="evenodd" d="M286.213 218.626C286.626 218.626 286.961 218.961 286.961 219.374C286.961 219.772 286.649 220.097 286.257 220.12L286.213 220.121H255.124C254.712 220.121 254.377 219.787 254.377 219.374C254.377 218.976 254.688 218.65 255.08 218.628L255.124 218.626H286.213Z" fill="#164E63"/>
<path fill-rule="evenodd" clip-rule="evenodd" d="M255 190.327C248.324 192.968 255.199 197.352 255.199 197.352C255.199 197.352 256.918 192.37 265.737 190.327C264.591 190.352 255 190.327 255 190.327Z" fill="#06D0B6"/>
<path fill-rule="evenodd" clip-rule="evenodd" d="M254.725 189.633C252.747 190.415 251.639 191.447 251.389 192.72C251.123 194.067 251.832 195.375 253.12 196.631C253.485 196.988 253.875 197.315 254.264 197.607L254.377 197.691C254.559 197.824 254.704 197.923 254.797 197.982C255.192 198.234 255.714 198.064 255.89 197.638L255.917 197.566C255.934 197.522 255.968 197.447 256.018 197.343C256.135 197.106 256.292 196.837 256.493 196.544C257.08 195.688 257.907 194.826 259.018 194.014C260.762 192.741 263.033 191.721 265.905 191.056C266.781 190.853 266.619 189.561 265.72 189.58L264.431 189.589L260.078 189.59L255.002 189.58C254.907 189.58 254.813 189.598 254.725 189.633ZM255.077 191.103L255.144 191.075L260.076 191.084L261.108 191.085L261.086 191.096C259.986 191.6 259.005 192.173 258.137 192.807C256.887 193.72 255.941 194.705 255.26 195.698L255.181 195.815C255.104 195.931 255.032 196.045 254.966 196.155L254.923 196.227L254.869 196.185C254.627 195.99 254.389 195.781 254.163 195.561C253.203 194.625 252.715 193.723 252.855 193.008C252.985 192.348 253.661 191.695 255.077 191.103Z" fill="#164E63"/>
<path fill-rule="evenodd" clip-rule="evenodd" d="M344.854 205.722C351.53 208.363 344.655 212.747 344.655 212.747C344.655 212.747 342.936 207.765 334.117 205.722C335.288 205.722 344.854 205.722 344.854 205.722Z" fill="#06D0B6"/>
<path fill-rule="evenodd" clip-rule="evenodd" d="M344.854 204.975H334.117C333.228 204.975 333.083 206.25 333.949 206.45C336.821 207.116 339.092 208.136 340.836 209.409C341.947 210.221 342.774 211.083 343.361 211.939C343.562 212.232 343.719 212.501 343.836 212.738L343.875 212.82C343.91 212.895 343.932 212.948 343.944 212.978L343.948 212.991C344.106 213.448 344.649 213.637 345.057 213.377L345.154 213.313C345.265 213.239 345.414 213.134 345.59 213.002C345.979 212.71 346.369 212.383 346.734 212.026C348.022 210.77 348.731 209.462 348.465 208.115C348.215 206.842 347.107 205.81 345.129 205.027C345.041 204.993 344.948 204.975 344.854 204.975ZM344.709 206.47L344.777 206.498C346.193 207.09 346.869 207.743 346.999 208.403C347.139 209.118 346.651 210.02 345.691 210.956L345.554 211.087C345.37 211.259 345.178 211.424 344.985 211.58L344.93 211.622L344.888 211.55C344.799 211.403 344.701 211.25 344.594 211.093C343.913 210.1 342.967 209.115 341.717 208.202L341.586 208.108C340.751 207.511 339.813 206.969 338.768 206.491L338.722 206.47H344.709Z" fill="#164E63"/>
<path fill-rule="evenodd" clip-rule="evenodd" d="M278.616 219.424C278.616 219.424 263.121 222.338 263.495 231.481C263.495 231.481 251.064 226.922 255.249 219.424H278.616Z" fill="#06D0B6"/>
<path fill-rule="evenodd" clip-rule="evenodd" d="M278.616 218.676H255.249C254.978 218.676 254.729 218.823 254.597 219.059C253.361 221.273 253.353 223.433 254.393 225.442C255.217 227.033 256.652 228.454 258.522 229.721C259.553 230.42 260.654 231.029 261.754 231.546C262.091 231.705 262.407 231.845 262.697 231.966L262.819 232.017C263.015 232.098 263.158 232.153 263.238 232.182C263.738 232.366 264.263 231.982 264.242 231.45C264.092 227.78 266.751 224.859 271.376 222.631C272.989 221.854 274.723 221.222 276.458 220.726C276.998 220.571 277.503 220.44 277.963 220.331L278.302 220.253C278.356 220.241 278.408 220.23 278.457 220.219L278.754 220.158C279.646 219.99 279.524 218.676 278.616 218.676ZM273.353 220.171L273.187 220.233C272.35 220.549 271.526 220.899 270.728 221.284L270.575 221.358C266.066 223.565 263.19 226.484 262.789 230.228L262.775 230.371L262.656 230.317C262.569 230.278 262.481 230.237 262.39 230.194C261.356 229.707 260.322 229.135 259.361 228.484L259.248 228.407C255.736 225.992 254.256 223.291 255.657 220.268L255.702 220.171H273.353Z" fill="#164E63"/>
<path fill-rule="evenodd" clip-rule="evenodd" d="M394.776 238.181C395.326 238.181 395.772 238.628 395.772 239.178C395.772 239.711 395.353 240.147 394.825 240.173L394.776 240.174H-24.9752C-25.5256 240.174 -25.9717 239.728 -25.9717 239.178C-25.9717 238.644 -25.5522 238.209 -25.025 238.183L-24.9752 238.181H394.776Z" fill="#164E63"/>
</g>
<defs>
<clipPath id="clip0_138_956">
<rect width="370" height="320" fill="white"/>
</clipPath>
</defs>
</svg>
