<svg width="370" height="320" viewBox="0 0 370 320" fill="none" xmlns="http://www.w3.org/2000/svg">
<g clip-path="url(#clip0_138_955)">
<rect width="370" height="320" fill="white"/>
<path fill-rule="evenodd" clip-rule="evenodd" d="M54.3845 198.774C54.6365 198.516 55.0506 198.51 55.3092 198.762C55.5575 199.004 55.5724 199.395 55.3502 199.655L55.3212 199.687L17.168 238.838L76.2486 239.095C76.5968 239.097 76.8803 239.37 76.8987 239.714L76.8997 239.752C76.8982 240.101 76.6247 240.384 76.2813 240.402L76.2429 240.403L15.6216 240.14C15.057 240.137 14.7661 239.472 15.1308 239.057L15.1561 239.029L54.3845 198.774Z" fill="#164E63"/>
<path fill-rule="evenodd" clip-rule="evenodd" d="M55.4147 201.937C55.5105 201.588 55.8704 201.384 56.2187 201.48C56.5669 201.575 56.7715 201.935 56.6757 202.284C56.3657 203.411 56.1146 204.608 55.9331 205.818L55.8853 206.148C55.4327 209.398 55.4871 212.699 56.2522 214.937L56.315 215.12L56.4427 215.489L56.5732 215.858C56.5951 215.92 56.6172 215.982 56.6393 216.044L56.7736 216.415L56.9102 216.787C56.9331 216.849 56.9562 216.911 56.9793 216.973L57.1193 217.346L57.2614 217.719L57.4054 218.092L57.5513 218.464L57.6989 218.836L57.8482 219.206L57.999 219.576L58.1511 219.944L58.3046 220.311L58.4591 220.676L58.6148 221.038L58.7713 221.398L58.9286 221.756L59.0866 222.11C59.113 222.169 59.1394 222.227 59.1658 222.286L59.3246 222.636L59.4838 222.981L59.6433 223.324L59.8029 223.662L59.9625 223.995L60.1221 224.324L60.2814 224.648C60.308 224.702 60.3345 224.755 60.361 224.808L60.5198 225.125L60.6781 225.436C60.7045 225.487 60.7308 225.538 60.7571 225.589L60.9144 225.891L61.071 226.187L61.2266 226.476L61.3812 226.759C61.4069 226.806 61.4325 226.852 61.4581 226.898L61.611 227.17C61.6363 227.215 61.6616 227.26 61.6869 227.304L61.8377 227.565C61.8627 227.608 61.8877 227.651 61.9126 227.693L62.0611 227.943C62.1103 228.024 62.1593 228.105 62.2079 228.184L62.353 228.417L62.4961 228.642C62.6856 228.936 62.8697 229.206 63.0471 229.45L63.1789 229.628C63.3311 229.829 63.478 230.01 63.6187 230.169C63.8006 230.374 64.0891 230.644 64.4603 230.962L64.6527 231.125L64.8582 231.296L65.0762 231.473L65.3059 231.658C65.3451 231.689 65.3848 231.721 65.4249 231.753L65.6711 231.946L65.9273 232.145C65.9708 232.179 66.0147 232.213 66.059 232.247L66.3292 232.453L66.6078 232.664L66.8942 232.879L67.1877 233.097L67.6399 233.429L67.9482 233.654L68.2614 233.88L68.7387 234.222L69.2229 234.565L69.5486 234.794L70.0395 235.136L70.3676 235.362L70.6954 235.587L71.1852 235.92L71.6708 236.246L72.15 236.565L72.4647 236.772L72.7749 236.974L73.0799 237.171L73.3789 237.363L73.6715 237.548L73.9568 237.727L74.2343 237.898L74.5032 238.063C74.5473 238.089 74.591 238.116 74.6343 238.142L74.8891 238.294C74.9308 238.318 74.972 238.343 75.0128 238.366L75.2521 238.505L75.4802 238.635C75.5913 238.697 75.698 238.755 75.7998 238.81L75.997 238.914C76.1875 239.012 76.3577 239.094 76.5046 239.158C76.8363 239.301 76.9892 239.685 76.8463 240.017C76.7033 240.349 76.3185 240.502 75.9869 240.359C75.7251 240.246 75.3987 240.081 75.0215 239.874L74.7893 239.744C74.7496 239.722 74.7094 239.699 74.6688 239.676L74.4195 239.532C74.3771 239.507 74.3342 239.482 74.2909 239.457L74.0261 239.3L73.7518 239.134C73.7053 239.106 73.6585 239.077 73.6113 239.048L73.324 238.871L73.0289 238.687L72.7266 238.496L72.4177 238.299L72.1031 238.096C72.0502 238.062 71.9971 238.028 71.9438 237.993L71.6216 237.782L71.2953 237.567L70.9654 237.348L70.6327 237.125L70.2979 236.898L69.9615 236.67L69.6243 236.438L69.287 236.205L68.7821 235.853L68.2805 235.5L67.9492 235.265L67.621 235.029L67.2966 234.795L66.9767 234.563L66.662 234.332L66.3531 234.104L65.9022 233.767L65.6108 233.546L65.3276 233.33L65.0532 233.118L64.7883 232.911L64.5336 232.71C64.492 232.677 64.4509 232.644 64.4102 232.611L64.172 232.419C64.1333 232.387 64.095 232.356 64.0573 232.325L63.8371 232.142L63.6297 231.967C63.1948 231.595 62.8549 231.278 62.6407 231.037C62.2309 230.576 61.7786 229.95 61.3001 229.195L61.1481 228.953L60.9945 228.702L60.8394 228.443C60.7874 228.356 60.7353 228.267 60.6829 228.177L60.5251 227.903C60.4987 227.857 60.4722 227.81 60.4457 227.763L60.2862 227.478L60.1257 227.187C60.072 227.088 60.0182 226.989 59.9643 226.888L59.8021 226.584L59.6393 226.273L59.4759 225.956C59.4486 225.903 59.4213 225.85 59.394 225.796L59.23 225.471C59.2027 225.416 59.1753 225.361 59.1479 225.306L58.9836 224.974C58.9562 224.918 58.9288 224.862 58.9014 224.805L58.737 224.466L58.5727 224.121L58.4085 223.772C58.3812 223.714 58.3539 223.655 58.3266 223.597L58.1629 223.242L57.9998 222.884L57.8373 222.523L57.6754 222.158C57.6485 222.097 57.6216 222.036 57.5948 221.975L57.4343 221.606C57.4076 221.545 57.3809 221.483 57.3544 221.421L57.1953 221.049C57.1689 220.987 57.1426 220.924 57.1163 220.862L56.9591 220.487L56.8032 220.11L56.6488 219.731L56.4959 219.352L56.3447 218.971L56.1954 218.59L56.0479 218.209L55.9025 217.827L55.7592 217.445L55.6181 217.064L55.4795 216.683C55.4566 216.62 55.4338 216.557 55.4111 216.493L55.2762 216.114L55.1439 215.736C55.1003 215.61 55.0571 215.485 55.0144 215.359C53.8779 212.036 54.1592 206.804 55.2875 202.415L55.3715 202.095C55.3858 202.042 55.4002 201.989 55.4147 201.937Z" fill="#164E63"/>
<path fill-rule="evenodd" clip-rule="evenodd" d="M54.3542 208.58C54.507 208.253 54.8961 208.111 55.2234 208.264C55.5507 208.417 55.6922 208.806 55.5394 209.133C54.393 211.59 53.0001 214.065 51.6784 215.865C50.9246 216.889 49.7877 218.212 48.388 219.714L48.0169 220.109C47.3261 220.842 46.5775 221.612 45.7843 222.408L45.3474 222.844C45.2738 222.917 45.2 222.991 45.1257 223.064L44.6764 223.507C44.6009 223.581 44.525 223.655 44.4488 223.73L43.9882 224.178L43.5206 224.629C43.4421 224.705 43.3634 224.78 43.2844 224.856L42.8073 225.311C42.6473 225.463 42.4863 225.615 42.3244 225.768L41.8363 226.226L41.3433 226.685L40.8461 227.145C40.6796 227.298 40.5126 227.451 40.3449 227.604L39.8404 228.063L39.333 228.521C39.2482 228.597 39.1633 228.673 39.0784 228.749L38.5675 229.204C38.3969 229.356 38.226 229.507 38.0549 229.657L37.541 230.108C37.4553 230.182 37.3695 230.257 37.2838 230.331L36.7689 230.777C36.5115 230.999 36.254 231.219 35.9967 231.437L35.4826 231.872C35.2258 232.088 34.9694 232.302 34.7137 232.514L34.2033 232.935C32.7603 234.119 31.345 235.227 30.0062 236.209C29.7151 236.423 29.3058 236.36 29.0921 236.069C28.8784 235.778 28.9413 235.368 29.2324 235.155C30.9428 233.899 32.7814 232.435 34.6431 230.869L35.1514 230.439C35.3209 230.295 35.4906 230.15 35.6603 230.005L36.1694 229.567C36.5087 229.273 36.8479 228.977 37.1862 228.679L37.6931 228.231C37.7774 228.157 37.8617 228.082 37.9459 228.007L38.45 227.556L38.9517 227.103L39.4504 226.65L39.9459 226.196L40.4375 225.742L40.9248 225.288C41.0864 225.137 41.2473 224.986 41.4073 224.835L41.8845 224.384L42.356 223.935C42.4341 223.86 42.5119 223.785 42.5894 223.711L43.0515 223.265L43.5065 222.823L43.9542 222.384L44.3941 221.949L44.8255 221.518C45.0391 221.304 45.2494 221.092 45.4561 220.882L45.8646 220.465C46.201 220.12 46.5269 219.781 46.8412 219.45L47.2127 219.057C48.6755 217.499 49.8584 216.131 50.6247 215.09C51.8882 213.369 53.2412 210.965 54.3542 208.58Z" fill="#164E63"/>
<path fill-rule="evenodd" clip-rule="evenodd" d="M50.1663 232.724L51.3563 232.653L52.2391 232.604L52.8825 232.571L53.5101 232.541L54.1221 232.514L54.7185 232.49L55.2997 232.469L55.8656 232.451L56.4164 232.437L56.9524 232.426L57.4736 232.418L57.8129 232.415L58.1458 232.413L58.6331 232.413L58.95 232.415L59.2606 232.418L59.565 232.423L59.8631 232.43L60.1551 232.438L60.441 232.447L60.7208 232.459C60.7669 232.461 60.8128 232.463 60.8584 232.465L61.1291 232.478C63.6189 232.613 66.2062 233.021 67.8936 233.64C68.2326 233.764 68.4066 234.14 68.2822 234.479C68.1578 234.818 67.7821 234.992 67.4431 234.868C66.9292 234.679 66.312 234.51 65.6296 234.364L65.3533 234.307C64.9805 234.232 64.5906 234.164 64.1893 234.103L63.8864 234.058L63.5797 234.016C63.4256 233.996 63.2702 233.977 63.114 233.959L62.8005 233.924C62.224 233.863 61.6384 233.816 61.0588 233.784L60.7944 233.771L60.5239 233.759L60.2471 233.749L59.9642 233.741L59.6749 233.734L59.3794 233.728L59.0775 233.724L58.7693 233.721L58.2948 233.72L57.9704 233.722L57.4716 233.726L56.958 233.734L56.6074 233.741L56.2501 233.749L55.886 233.759L55.3274 233.777L54.7534 233.797L54.1641 233.821L53.5592 233.848L52.9386 233.878L52.3023 233.91L51.65 233.946L50.6289 234.006L49.9123 234.051L48.987 234.111L47.8143 234.191L41.0678 234.68L40.09 234.745L39.3833 234.789L39.0586 234.807L38.654 234.828L38.1919 234.849L37.8555 234.861L37.6216 234.868L37.3334 234.873L37.1342 234.875C37.1128 234.875 37.0917 234.875 37.0708 234.875C36.7567 234.877 36.4111 234.898 36.035 234.938L35.8269 234.962L35.6128 234.99C35.3957 235.019 35.1697 235.054 34.935 235.095L34.6974 235.137C34.6573 235.144 34.617 235.152 34.5764 235.159L34.3301 235.207L34.0782 235.258L33.8205 235.313C33.7771 235.323 33.7335 235.332 33.6896 235.342L33.4235 235.402L33.1519 235.466L32.8748 235.533L32.5922 235.604L32.3041 235.678C32.2556 235.69 32.207 235.703 32.1581 235.716L31.8619 235.795L31.5605 235.878L31.2537 235.964L30.9418 236.053L30.6246 236.145L30.3022 236.241L29.9748 236.34L29.6423 236.442L29.3047 236.547L28.9621 236.656C28.1341 236.92 27.2717 237.208 26.3687 237.522L25.9158 237.68L25.4898 237.832L24.5748 238.163L19.3321 240.089L18.8168 240.275L18.5919 240.352L18.5447 240.367C18.1985 240.47 17.8344 240.273 17.7314 239.927C17.6321 239.593 17.8119 239.243 18.1353 239.126L18.2405 239.091L18.592 238.967L23.5226 237.154L24.89 236.657L25.6342 236.393C26.5561 236.07 27.4371 235.773 28.2838 235.5L28.7454 235.352L29.1027 235.24L29.4547 235.131L29.8014 235.025L30.1428 234.923L30.4788 234.825L30.8094 234.73L31.1346 234.638L31.4544 234.55L31.7687 234.466L32.0775 234.385L32.3809 234.308C32.4309 234.295 32.4808 234.283 32.5304 234.27L32.8255 234.199L33.115 234.131L33.3988 234.066C33.4457 234.056 33.4923 234.046 33.5387 234.036L33.8142 233.977C33.905 233.958 33.995 233.94 34.084 233.922L34.3481 233.871C34.4788 233.847 34.6073 233.824 34.7337 233.802L34.9836 233.761C35.7247 233.642 36.3882 233.577 36.9713 233.568L37.2544 233.566L37.5261 233.562L37.8251 233.553L38.0681 233.545L38.5102 233.525L39.105 233.494L39.8927 233.447L41.0871 233.368L46.4565 232.976L48.2009 232.853L49.0094 232.798L50.1663 232.724Z" fill="#164E63"/>
<path fill-rule="evenodd" clip-rule="evenodd" d="M202.637 142.108C207.053 142.105 211.074 144.638 212.982 148.612L213.039 148.733L220.932 165.66C221.085 165.987 220.943 166.376 220.616 166.529C220.301 166.676 219.928 166.55 219.765 166.248L219.747 166.212L211.854 149.286C210.201 145.739 206.662 143.46 202.756 143.417L202.637 143.416L38.9318 143.416C36.9004 143.417 35.0101 144.456 33.9196 146.169C32.8476 147.854 32.6944 149.963 33.5064 151.783L33.5492 151.876L37.5231 160.397C37.6748 160.723 37.5355 161.107 37.217 161.262L37.1808 161.278L35.8925 161.812C35.4358 162.001 35.2114 162.515 35.3756 162.975L35.3921 163.018L38.6613 170.936C38.8513 171.394 39.3655 171.618 39.8265 171.454L39.8696 171.437L41.6352 170.707C41.9462 170.579 42.3015 170.707 42.4598 170.999L42.4779 171.035L72.4966 235.413C73.5638 237.707 75.8635 239.174 78.3936 239.176C78.7547 239.177 79.0473 239.47 79.047 239.831C79.0468 240.192 78.7538 240.484 78.3926 240.484C75.3879 240.482 72.6537 238.758 71.3543 236.056L71.311 235.965L41.5569 172.155L40.3689 172.646C39.2495 173.108 37.9703 172.594 37.4777 171.494L37.4529 171.437L34.1831 163.517C33.7213 162.398 34.2361 161.119 35.3344 160.628L35.3917 160.604L36.0491 160.331L32.3641 152.43C31.3313 150.219 31.4808 147.639 32.7556 145.564L32.8162 145.467C34.1273 143.407 36.3861 142.146 38.8238 142.109L38.9315 142.108L202.637 142.108Z" fill="#164E63"/>
<path fill-rule="evenodd" clip-rule="evenodd" d="M200.222 149.511C200.462 149.511 200.681 149.642 200.796 149.851L200.815 149.888L220.71 192.552C220.863 192.879 220.721 193.268 220.394 193.421C220.079 193.568 219.706 193.442 219.543 193.14L219.525 193.105L199.805 150.818H59.4281L97.1746 231.767H191.337C191.685 231.767 191.97 232.039 191.99 232.382L191.991 232.421C191.991 232.769 191.719 233.054 191.375 233.074L191.337 233.075H96.7582C96.5182 233.075 96.2987 232.943 96.1846 232.735L96.1655 232.697L57.8091 150.441C57.6123 150.019 57.9071 149.537 58.3644 149.512L58.4018 149.511H200.222Z" fill="#164E63"/>
<path fill-rule="evenodd" clip-rule="evenodd" d="M149.548 164.6C149.863 164.453 150.236 164.579 150.399 164.881L150.417 164.916L179.091 226.405C179.243 226.732 179.102 227.122 178.774 227.274C178.459 227.421 178.087 227.295 177.923 226.993L177.905 226.958L149.232 165.469C149.079 165.142 149.221 164.753 149.548 164.6Z" fill="#06D0B6"/>
<path fill-rule="evenodd" clip-rule="evenodd" d="M205.475 173.342L205.747 173.336L205.743 173.338L205.733 173.345L205.715 173.355L205.68 173.37C206.015 173.236 206.396 173.399 206.53 173.734C206.664 174.07 206.501 174.45 206.165 174.584L206.147 174.591L206.126 174.597L206.074 174.609L206.025 174.616L205.944 174.625L205.87 174.631L205.719 174.64L205.569 174.645L205.237 174.652L204.872 174.656L204.504 174.657L203.217 174.653L195.283 174.584L182.664 174.46L176.419 174.408L172.408 174.381L168.562 174.362L165.348 174.355L163.946 174.355L162.505 174.357L161.275 174.362L159.408 174.376L158.311 174.389L157.333 174.405L156.784 174.417L156.281 174.43L155.788 174.446L155.332 174.464L155.015 174.48L154.741 174.496L154.62 174.505L154.41 174.524L154.287 174.538L154.247 174.543L154.232 174.552L154.196 174.57C153.869 174.723 153.48 174.581 153.328 174.253C153.222 174.027 153.253 173.771 153.392 173.578C153.467 173.474 153.553 173.41 153.648 173.362C153.73 173.32 153.81 173.296 153.906 173.276C153.973 173.262 154.052 173.249 154.145 173.237L154.264 173.224C154.285 173.222 154.306 173.22 154.328 173.218L154.457 173.206L154.657 173.191L154.884 173.177L155.137 173.164L155.32 173.155L155.617 173.143L155.94 173.132L156.75 173.109L157.659 173.091L158.825 173.074L160.141 173.061L161.605 173.053L163.066 173.048L164.244 173.047L167.233 173.05L170.676 173.063L174.505 173.086L178.732 173.118L185.351 173.177L200.64 173.326L203.014 173.342L204.355 173.347L204.903 173.346L205.417 173.343C205.437 173.342 205.457 173.342 205.475 173.342Z" fill="#06D0B6"/>
<path fill-rule="evenodd" clip-rule="evenodd" d="M215.855 195.383L216.027 195.379C216.024 195.379 216.023 195.379 216.021 195.38L216.01 195.388L215.991 195.398L215.955 195.414C216.29 195.278 216.671 195.44 216.807 195.774C216.942 196.109 216.781 196.49 216.446 196.626L216.417 196.636L216.382 196.645L216.354 196.651L216.304 196.659L216.223 196.668L216.12 196.676L215.959 196.684L215.662 196.693L215.331 196.697L214.843 196.7L213.49 196.696L205.69 196.629L193.181 196.506L186.978 196.453L182.685 196.424L179.994 196.41L177.726 196.402L175.626 196.398L173.929 196.398L171.891 196.403L170.434 196.412L169.124 196.425L168.087 196.439L167.063 196.46L166.658 196.47L166.374 196.478L165.877 196.495L165.611 196.507L165.37 196.518L165.152 196.531L164.959 196.543L164.791 196.557L164.646 196.571L164.567 196.58L164.527 196.586L164.514 196.594L164.478 196.612C164.151 196.765 163.762 196.624 163.608 196.297C163.503 196.072 163.533 195.815 163.671 195.622C163.747 195.517 163.833 195.453 163.928 195.404C164.01 195.363 164.09 195.339 164.186 195.318C164.253 195.304 164.332 195.292 164.425 195.28L164.544 195.267L164.676 195.254L164.868 195.239L165.085 195.224L165.329 195.211L165.696 195.194L166.001 195.182L166.523 195.165L167.469 195.143L168.438 195.126L169.527 195.112L170.892 195.101L172.23 195.094L173.061 195.092L174.523 195.09L177.294 195.093L180.711 195.105L184.515 195.128L189.307 195.164L211.055 195.37L213.17 195.385L214.375 195.389L215.24 195.389L215.752 195.385L215.855 195.383Z" fill="#06D0B6"/>
<path fill-rule="evenodd" clip-rule="evenodd" d="M182.242 213.7L184.937 213.7L188.226 213.71L192.153 213.73L196.814 213.763L204.046 213.827L213.56 213.921C213.92 213.924 214.21 214.22 214.206 214.581C214.203 214.929 213.927 215.211 213.584 215.228L199.116 215.09L194.002 215.05L189.885 215.025L186.206 215.011L183.726 215.007L182.245 215.008L181.171 215.011L179.902 215.016L178.364 215.028L177.267 215.041L176.176 215.059L175.533 215.074L174.844 215.094L174.554 215.104L174.204 215.119L173.97 215.131L173.697 215.147L173.576 215.156L173.467 215.165L173.366 215.174L173.28 215.184L173.201 215.194L173.189 215.201L173.154 215.219C172.827 215.372 172.438 215.231 172.284 214.904C172.178 214.677 172.209 214.418 172.35 214.225C172.426 214.121 172.512 214.058 172.607 214.01C172.688 213.97 172.768 213.946 172.863 213.926C172.917 213.915 172.978 213.904 173.048 213.895L173.16 213.881L173.285 213.868L173.414 213.857L173.614 213.842L173.841 213.828L174.093 213.815L174.373 213.802L174.896 213.783L175.498 213.766L176.033 213.754L176.987 213.737L178.203 213.722L179.569 213.71L181.167 213.703L182.242 213.7Z" fill="#06D0B6"/>
<path fill-rule="evenodd" clip-rule="evenodd" d="M182.662 178.725C183.023 178.725 183.316 179.018 183.316 179.379C183.316 179.727 183.043 180.012 182.7 180.032L182.662 180.033H161.053C160.692 180.033 160.399 179.74 160.399 179.379C160.399 179.031 160.671 178.746 161.014 178.726L161.053 178.725H182.662Z" fill="#06D0B6"/>
<path fill-rule="evenodd" clip-rule="evenodd" d="M197.552 183.248C197.913 183.248 198.206 183.541 198.206 183.902C198.206 184.25 197.934 184.535 197.59 184.555L197.552 184.556H163.161C162.8 184.556 162.507 184.263 162.507 183.902C162.507 183.554 162.779 183.269 163.122 183.249L163.161 183.248H197.552Z" fill="#06D0B6"/>
<path fill-rule="evenodd" clip-rule="evenodd" d="M187.021 186.851C187.382 186.851 187.675 187.144 187.675 187.505C187.675 187.854 187.403 188.138 187.06 188.158L187.021 188.159H164.841C164.48 188.159 164.188 187.866 164.188 187.505C164.188 187.157 164.46 186.872 164.803 186.852L164.841 186.851H187.021Z" fill="#06D0B6"/>
<path fill-rule="evenodd" clip-rule="evenodd" d="M174.382 190.453C174.744 190.453 175.036 190.745 175.036 191.107C175.036 191.455 174.764 191.74 174.421 191.759L174.382 191.761H166.52C166.159 191.761 165.866 191.468 165.866 191.107C165.866 190.758 166.138 190.474 166.481 190.454L166.52 190.453H174.382Z" fill="#06D0B6"/>
<path fill-rule="evenodd" clip-rule="evenodd" d="M205.375 200.026C205.736 200.026 206.029 200.319 206.029 200.68C206.029 201.029 205.757 201.313 205.414 201.333L205.375 201.334H170.984C170.623 201.334 170.33 201.041 170.33 200.68C170.33 200.332 170.602 200.047 170.946 200.027L170.984 200.026H205.375Z" fill="#06D0B6"/>
<path fill-rule="evenodd" clip-rule="evenodd" d="M194.845 203.627C195.206 203.627 195.498 203.92 195.498 204.281C195.498 204.63 195.226 204.914 194.883 204.934L194.845 204.935H172.665C172.304 204.935 172.011 204.643 172.011 204.281C172.011 203.933 172.283 203.648 172.626 203.629L172.665 203.627H194.845Z" fill="#06D0B6"/>
<path fill-rule="evenodd" clip-rule="evenodd" d="M182.206 207.229C182.567 207.229 182.86 207.521 182.86 207.882C182.86 208.231 182.587 208.515 182.244 208.535L182.206 208.536H174.343C173.982 208.536 173.689 208.244 173.689 207.882C173.689 207.534 173.961 207.25 174.304 207.23L174.343 207.229H182.206Z" fill="#06D0B6"/>
<path fill-rule="evenodd" clip-rule="evenodd" d="M213.552 217.563C213.913 217.563 214.206 217.856 214.206 218.217C214.206 218.565 213.934 218.85 213.59 218.87L213.552 218.871H179.163C178.802 218.871 178.509 218.578 178.509 218.217C178.509 217.869 178.781 217.584 179.124 217.564L179.163 217.563H213.552Z" fill="#06D0B6"/>
<path fill-rule="evenodd" clip-rule="evenodd" d="M203.021 221.164C203.382 221.164 203.675 221.457 203.675 221.818C203.675 222.167 203.403 222.451 203.06 222.471L203.021 222.472H180.841C180.48 222.472 180.188 222.179 180.188 221.818C180.188 221.47 180.46 221.185 180.803 221.165L180.841 221.164H203.021Z" fill="#06D0B6"/>
<path fill-rule="evenodd" clip-rule="evenodd" d="M132.061 173.347C132.422 173.347 132.715 173.64 132.715 174.001C132.715 174.35 132.442 174.634 132.099 174.654L132.061 174.655H81.5954C81.2342 174.655 80.9414 174.363 80.9414 174.001C80.9414 173.653 81.2137 173.368 81.5569 173.349L81.5954 173.347H132.061Z" fill="#06D0B6"/>
<path fill-rule="evenodd" clip-rule="evenodd" d="M133.953 177.408C134.314 177.408 134.607 177.701 134.607 178.062C134.607 178.411 134.335 178.695 133.992 178.715L133.953 178.716H83.4899C83.1287 178.716 82.8359 178.424 82.8359 178.062C82.8359 177.714 83.1082 177.429 83.4515 177.41L83.4899 177.408H133.953Z" fill="#06D0B6"/>
<path fill-rule="evenodd" clip-rule="evenodd" d="M154.086 220.58C154.447 220.58 154.74 220.873 154.74 221.234C154.74 221.582 154.468 221.867 154.124 221.887L154.086 221.888H103.623C103.262 221.888 102.969 221.595 102.969 221.234C102.969 220.886 103.241 220.601 103.584 220.581L103.623 220.58H154.086Z" fill="#06D0B6"/>
<path fill-rule="evenodd" clip-rule="evenodd" d="M127.191 183.248C127.552 183.248 127.845 183.541 127.845 183.902C127.845 184.25 127.573 184.535 127.23 184.555L127.191 184.556H92.4054C92.0442 184.556 91.7515 184.263 91.7515 183.902C91.7515 183.554 92.0237 183.269 92.367 183.249L92.4054 183.248H127.191Z" fill="#06D0B6"/>
<path fill-rule="evenodd" clip-rule="evenodd" d="M124.063 187.42C124.424 187.42 124.717 187.713 124.717 188.074C124.717 188.423 124.445 188.707 124.101 188.727L124.063 188.728H94.3517C93.9905 188.728 93.6978 188.436 93.6978 188.074C93.6978 187.726 93.97 187.441 94.3133 187.422L94.3517 187.42H124.063Z" fill="#06D0B6"/>
<path fill-rule="evenodd" clip-rule="evenodd" d="M103.46 192.955L142.087 193.284C142.448 193.287 142.738 193.583 142.735 193.944C142.732 194.292 142.458 194.574 142.114 194.591L142.076 194.592L103.449 194.263C103.088 194.26 102.798 193.965 102.801 193.603C102.804 193.255 103.078 192.973 103.422 192.956L103.46 192.955Z" fill="#06D0B6"/>
<path fill-rule="evenodd" clip-rule="evenodd" d="M105.287 196.872L143.914 197.201C144.275 197.204 144.565 197.5 144.562 197.861C144.559 198.209 144.284 198.491 143.941 198.508L143.903 198.509L105.276 198.18C104.915 198.177 104.624 197.882 104.627 197.52C104.63 197.172 104.905 196.89 105.249 196.873L105.287 196.872Z" fill="#06D0B6"/>
<path fill-rule="evenodd" clip-rule="evenodd" d="M110.985 209.092L149.612 209.421C149.973 209.425 150.263 209.72 150.26 210.081C150.257 210.429 149.983 210.712 149.639 210.729L149.601 210.729L110.974 210.4C110.613 210.397 110.323 210.102 110.326 209.741C110.329 209.392 110.603 209.11 110.947 209.093L110.985 209.092Z" fill="#06D0B6"/>
<path fill-rule="evenodd" clip-rule="evenodd" d="M112.572 212.497L151.201 212.826C151.562 212.83 151.852 213.125 151.849 213.486C151.846 213.834 151.572 214.117 151.228 214.134L151.19 214.134L112.561 213.805C112.2 213.802 111.91 213.507 111.913 213.146C111.916 212.797 112.19 212.515 112.534 212.498L112.572 212.497Z" fill="#06D0B6"/>
<path fill-rule="evenodd" clip-rule="evenodd" d="M122.725 201.5C123.086 201.5 123.379 201.793 123.379 202.154C123.379 202.502 123.107 202.787 122.763 202.807L122.725 202.808H100.325C99.9637 202.808 99.6709 202.515 99.6709 202.154C99.6709 201.806 99.9431 201.521 100.286 201.501L100.325 201.5H122.725Z" fill="#06D0B6"/>
<path fill-rule="evenodd" clip-rule="evenodd" d="M124.494 205.297C124.856 205.297 125.148 205.59 125.148 205.951C125.148 206.299 124.876 206.584 124.533 206.604L124.494 206.605H102.094C101.733 206.605 101.44 206.312 101.44 205.951C101.44 205.603 101.713 205.318 102.056 205.298L102.094 205.297H124.494Z" fill="#06D0B6"/>
<path fill-rule="evenodd" clip-rule="evenodd" d="M120.638 217.419C120.999 217.419 121.292 217.712 121.292 218.073C121.292 218.421 121.02 218.706 120.677 218.726L120.638 218.727H107.747C107.386 218.727 107.093 218.434 107.093 218.073C107.093 217.725 107.365 217.44 107.708 217.42L107.747 217.419H120.638Z" fill="#06D0B6"/>
<path fill-rule="evenodd" clip-rule="evenodd" d="M201.826 164.539C202.066 164.539 202.286 164.67 202.4 164.879L202.419 164.916L218.598 199.61C218.751 199.938 218.609 200.327 218.282 200.479C217.966 200.626 217.594 200.501 217.43 200.199L217.413 200.163L201.41 165.846H72.8495L100.913 226.027H209.092C209.44 226.027 209.725 226.3 209.745 226.643L209.746 226.681C209.746 227.03 209.474 227.314 209.13 227.334L209.092 227.335H100.497C100.257 227.335 100.037 227.204 99.9231 226.995L99.9041 226.958L71.2305 165.469C71.0337 165.047 71.3285 164.565 71.7858 164.54L71.8232 164.539H201.826Z" fill="#06D0B6"/>
<path fill-rule="evenodd" clip-rule="evenodd" d="M81.1029 160.279C81.4641 160.279 81.7569 160.572 81.7569 160.933C81.7569 161.282 81.4846 161.566 81.1414 161.586L81.1029 161.587H74.4479C74.0867 161.587 73.7939 161.294 73.7939 160.933C73.7939 160.585 74.0662 160.3 74.4095 160.28L74.4479 160.279H81.1029Z" fill="#06D0B6"/>
<path fill-rule="evenodd" clip-rule="evenodd" d="M108.883 160.279C109.244 160.279 109.537 160.572 109.537 160.933C109.537 161.282 109.264 161.566 108.921 161.586L108.883 161.587H103.501C103.139 161.587 102.847 161.294 102.847 160.933C102.847 160.585 103.119 160.3 103.462 160.28L103.501 160.279H108.883Z" fill="#06D0B6"/>
<path fill-rule="evenodd" clip-rule="evenodd" d="M119.202 160.279C119.563 160.279 119.856 160.572 119.856 160.933C119.856 161.282 119.583 161.566 119.24 161.586L119.202 161.587H114.986C114.625 161.587 114.332 161.294 114.332 160.933C114.332 160.585 114.604 160.3 114.948 160.28L114.986 160.279H119.202Z" fill="#06D0B6"/>
<path fill-rule="evenodd" clip-rule="evenodd" d="M195.856 160.279C196.217 160.279 196.51 160.572 196.51 160.933C196.51 161.282 196.238 161.566 195.895 161.586L195.856 161.587H191.64C191.279 161.587 190.986 161.294 190.986 160.933C190.986 160.585 191.259 160.3 191.602 160.28L191.64 160.279H195.856Z" fill="#06D0B6"/>
<path fill-rule="evenodd" clip-rule="evenodd" d="M188.645 160.279C189.006 160.279 189.299 160.572 189.299 160.933C189.299 161.282 189.027 161.566 188.684 161.586L188.645 161.587H184.429C184.068 161.587 183.775 161.294 183.775 160.933C183.775 160.585 184.048 160.3 184.391 160.28L184.429 160.279H188.645Z" fill="#06D0B6"/>
<path fill-rule="evenodd" clip-rule="evenodd" d="M96.9788 160.279C97.34 160.279 97.6328 160.572 97.6328 160.933C97.6328 161.282 97.3605 161.566 97.0172 161.586L96.9788 161.587H87.3483C86.9871 161.587 86.6943 161.294 86.6943 160.933C86.6943 160.585 86.9666 160.3 87.3099 160.28L87.3483 160.279H96.9788Z" fill="#06D0B6"/>
<path fill-rule="evenodd" clip-rule="evenodd" d="M197.986 156.299H67.9824C67.504 156.299 67.1876 156.796 67.3896 157.229L71.2305 165.469C71.3379 165.699 71.5691 165.847 71.8232 165.847H201.826C202.305 165.847 202.621 165.35 202.419 164.916L198.578 156.676C198.471 156.446 198.24 156.299 197.986 156.299ZM197.569 157.607L200.8 164.538H72.2398L69.0086 157.607H197.569Z" fill="#06D0B6"/>
<path fill-rule="evenodd" clip-rule="evenodd" d="M65.9978 220.759C67.8009 220.709 69.3458 221.557 70.082 223.677C70.6235 225.235 70.293 226.566 69.3559 227.6C69.1134 227.868 68.6998 227.888 68.4322 227.645C68.1646 227.403 68.1443 226.989 68.3868 226.722C69.0159 226.027 69.2236 225.191 68.8465 224.106C68.3175 222.582 67.3122 222.031 66.0337 222.066C65.6727 222.076 65.372 221.792 65.3621 221.431C65.3521 221.07 65.6368 220.769 65.9978 220.759Z" fill="#164E63"/>
<path fill-rule="evenodd" clip-rule="evenodd" d="M38.1751 159.39C39.5849 158.805 41.1817 159.335 41.7589 160.626L41.7852 160.688L44.8024 167.98C45.3446 169.294 44.6203 170.808 43.2311 171.421L43.1655 171.449L42.6161 171.677C42.2828 171.816 41.8999 171.659 41.761 171.325C41.627 171.004 41.7688 170.636 42.0781 170.486L42.1131 170.47L42.6638 170.241C43.4435 169.918 43.8359 169.147 43.6103 168.522L43.5936 168.479L40.5769 161.188C40.3208 160.57 39.5092 160.281 38.7288 160.577L38.6756 160.598L37.553 161.062C37.2192 161.2 36.8368 161.042 36.6987 160.708C36.5656 160.386 36.7084 160.019 37.018 159.869L37.0531 159.854L38.1751 159.39Z" fill="#164E63"/>
<path fill-rule="evenodd" clip-rule="evenodd" d="M39.4134 142.169C39.7286 142.022 40.1011 142.148 40.2645 142.45L40.2824 142.486L85.405 239.249C85.5577 239.576 85.4161 239.965 85.0887 240.118C84.7735 240.265 84.4011 240.139 84.2376 239.837L84.2197 239.801L39.0971 143.038C38.9444 142.711 39.086 142.322 39.4134 142.169Z" fill="#164E63"/>
<path fill-rule="evenodd" clip-rule="evenodd" d="M69.3926 187.804C67.5542 187.804 66.064 189.294 66.064 191.133C66.064 192.971 67.5542 194.461 69.3926 194.461C71.2309 194.461 72.7212 192.971 72.7212 191.133C72.7212 189.294 71.2309 187.804 69.3926 187.804ZM69.3926 189.112C70.5086 189.112 71.4133 190.017 71.4133 191.133C71.4133 192.249 70.5086 193.153 69.3926 193.153C68.2766 193.153 67.3719 192.249 67.3719 191.133C67.3719 190.017 68.2766 189.112 69.3926 189.112Z" fill="#164E63"/>
<path fill-rule="evenodd" clip-rule="evenodd" d="M71.4523 194.474C70.4868 194.474 69.7041 195.257 69.7041 196.223C69.7041 197.188 70.4868 197.971 71.4523 197.971C72.4179 197.971 73.2006 197.188 73.2006 196.223C73.2006 195.257 72.4179 194.474 71.4523 194.474ZM71.4523 195.782C71.6955 195.782 71.8927 195.979 71.8927 196.223C71.8927 196.466 71.6955 196.663 71.4523 196.663C71.2091 196.663 71.012 196.466 71.012 196.223C71.012 195.979 71.2091 195.782 71.4523 195.782Z" fill="#164E63"/>
<path fill-rule="evenodd" clip-rule="evenodd" d="M210.773 223.408C210.947 223.092 211.344 222.976 211.661 223.15C211.977 223.325 212.092 223.722 211.918 224.039C210.624 226.391 208.013 228.671 203.709 230.6C203.644 230.629 203.575 230.647 203.505 230.654L201.639 230.839L201.011 230.905L200.342 230.978L199.865 231.035L199.457 231.087L199.147 231.128L198.662 231.197C191.817 232.178 188.24 234.178 188.046 238.201L188.041 238.324V239.604C188.041 239.965 187.748 240.257 187.387 240.257C187.039 240.257 186.754 239.985 186.734 239.642L186.733 239.604L186.733 238.304C186.817 235.587 188.193 233.574 190.651 232.18C192.34 231.221 194.471 230.574 197.173 230.107L197.537 230.046L197.907 229.987C197.97 229.977 198.032 229.967 198.095 229.958L198.476 229.902L198.766 229.861L199.044 229.822L199.336 229.784L199.736 229.733L200.215 229.676L201.112 229.579L203.271 229.363L203.329 229.337C207.239 227.559 209.575 225.527 210.728 223.489L210.773 223.408Z" fill="#164E63"/>
<path fill-rule="evenodd" clip-rule="evenodd" d="M209.963 219.01C210.263 218.387 211.053 217.72 211.751 217.861L211.79 217.871L215.075 217.87C215.424 217.87 215.708 218.143 215.728 218.486L215.729 218.524C215.729 218.873 215.457 219.157 215.114 219.177L215.075 219.178H211.686C211.653 219.178 211.62 219.176 211.588 219.171L211.563 219.166L211.551 219.173C211.529 219.186 211.503 219.204 211.476 219.224L211.448 219.246C211.319 219.349 211.191 219.494 211.151 219.56L211.143 219.574L209.762 222.481L209.766 222.486C209.783 222.506 209.807 222.531 209.839 222.558L209.865 222.578C210.063 222.729 210.374 222.835 210.7 222.848L210.766 222.849H212.669C213.03 222.849 213.323 223.142 213.323 223.503C213.323 223.851 213.051 224.136 212.707 224.156L212.669 224.157H210.766C210.391 224.157 210.023 224.086 209.693 223.961L209.595 223.922C208.742 223.561 208.183 222.829 208.531 222.028L208.551 221.982L209.963 219.01Z" fill="#164E63"/>
<path fill-rule="evenodd" clip-rule="evenodd" d="M214.864 223.717C215.01 223.387 215.395 223.236 215.726 223.382C216.057 223.527 216.207 223.913 216.062 224.243C214.708 227.327 211.981 230.145 207.478 232.163C207.413 232.192 207.344 232.21 207.274 232.217L207.035 232.24L206.669 232.272L206.286 232.304L205.881 232.335L205.447 232.365L204.412 232.433L203.719 232.478L202.905 232.534L202.524 232.562L201.924 232.609L201.585 232.639L201.26 232.669L200.949 232.7L200.748 232.721L200.458 232.754L200.272 232.776L200.09 232.799L199.827 232.835L199.658 232.86L199.493 232.885L199.253 232.925L199.098 232.952L198.947 232.981L198.727 233.025L198.514 233.071L198.376 233.104L198.24 233.137L198.107 233.172L197.976 233.207L197.848 233.244L197.721 233.282L197.597 233.322L197.473 233.363L197.352 233.405L197.231 233.448L197.111 233.493L196.992 233.54L196.874 233.588C196.854 233.596 196.834 233.604 196.814 233.613C194.839 234.444 193.818 235.852 193.717 238.217L193.713 238.324V239.603C193.713 239.964 193.42 240.257 193.059 240.257C192.71 240.257 192.426 239.985 192.406 239.642L192.405 239.603L192.405 238.303C192.497 235.334 193.837 233.447 196.307 232.407L196.5 232.328L196.629 232.277L196.758 232.228L196.953 232.157L197.084 232.112L197.217 232.069L197.35 232.027C197.372 232.02 197.395 232.013 197.417 232.006L197.553 231.966L197.69 231.927L197.83 231.89L197.971 231.854L198.115 231.819L198.262 231.785L198.411 231.752L198.563 231.721C198.589 231.716 198.615 231.71 198.641 231.705L198.878 231.661L199.04 231.632L199.206 231.604L199.376 231.578L199.55 231.552L199.729 231.526L199.912 231.502L200.196 231.466L200.392 231.444L200.695 231.41L200.904 231.389L201.229 231.357L201.567 231.327L201.919 231.297L202.287 231.268L202.67 231.239L203.207 231.201L205.206 231.071L205.502 231.051L206.05 231.01L206.432 230.98L206.795 230.948L207.04 230.925L207.092 230.902C211.154 229.048 213.594 226.538 214.82 223.817L214.864 223.717Z" fill="#164E63"/>
<path fill-rule="evenodd" clip-rule="evenodd" d="M216.694 217.19L225.385 217.349C225.746 217.356 226.033 217.654 226.026 218.015C226.02 218.363 225.743 218.643 225.399 218.657L225.361 218.657L216.652 218.497C216.401 218.486 216.16 218.59 215.996 218.779L215.975 218.804L213.297 222.882C213.185 223.053 213.409 223.332 213.934 223.35L213.987 223.35H220.527C220.888 223.35 221.181 223.643 221.181 224.004C221.181 224.353 220.908 224.637 220.565 224.657L220.527 224.658H213.987C212.527 224.658 211.446 223.385 212.177 222.207L212.205 222.163L214.899 218.061L214.927 218.022C215.336 217.488 215.972 217.18 216.626 217.188L216.694 217.19Z" fill="#164E63"/>
<path fill-rule="evenodd" clip-rule="evenodd" d="M294.792 178.947C295.167 181.297 295.01 182.947 294.12 183.536C287.631 187.824 273.699 183.619 263.905 178.457C261.024 178.581 259.079 178.655 259.079 178.655L258.486 177.099V177.099C256.1 177.192 253.449 177.007 252.753 177.099L246.957 175.545C244.328 178.047 242.598 176.879 243.084 176.316C243.38 175.976 244.629 175.034 245.573 174.341V174.341L245.309 174.189C244.904 174.424 244.381 174.742 243.707 175.176C241.059 176.885 240.001 175.534 240.418 175.069C240.658 174.806 242.181 173.881 243.47 173.125L243.252 172.998L241.094 173.99C241.019 174.027 240.947 174.058 240.876 174.086C236.204 179.682 228.261 194.66 218.423 216.421C218.275 216.75 217.887 216.896 217.558 216.748C217.229 216.599 217.082 216.212 217.231 215.882C222.779 203.597 232.734 182.481 239.169 174.125C238.757 173.936 238.558 173.6 238.733 173.297C238.866 173.079 239.694 172.576 240.771 172.004C238.454 171.634 236.13 171.606 233.957 172.129L230.497 175.259C230.497 175.259 226.896 176.183 225.593 177.833C224.132 179.686 222.796 182.091 221.669 185.306C219.315 191.98 211.354 218.221 211.354 218.221H225.972L226.68 207.381C226.68 207.381 238.122 207.71 243.138 207.577C247.439 203.2 251.877 197.903 254.386 192.676C254.373 192.562 254.391 192.447 254.436 192.342C255.308 190.352 255.91 188.637 256.156 187.364C256.205 187.112 256.396 186.912 256.645 186.851C256.894 186.791 257.156 186.882 257.314 187.085C258.454 188.539 265.161 191.828 271.35 193.596C271.638 193.68 271.832 193.949 271.82 194.25C280.758 192.493 295.52 189.552 295.474 188.968C296.76 186.618 296.845 183.374 294.792 178.947Z" fill="#164E63"/>
<path fill-rule="evenodd" clip-rule="evenodd" d="M255.625 192.866V192.879C258.654 194.255 261.876 195.162 265.179 195.569C265.323 195.518 267.26 195.133 270.092 194.583C265.035 193.036 259.513 190.507 257.174 188.717C256.754 190.134 256.236 191.52 255.625 192.866H255.625Z" fill="#164E63"/>
<path fill-rule="evenodd" clip-rule="evenodd" d="M254.36 127.63C254.684 127.501 255.049 127.649 255.195 127.96L255.21 127.996L257.731 134.327L262.865 133.782C263.272 133.739 263.614 134.075 263.586 134.478L263.58 134.533L263.559 134.681L263.538 134.815L263.5 135.041L263.486 135.123C263.403 135.594 263.295 136.118 263.159 136.682C262.771 138.294 262.237 139.907 261.532 141.418C259.979 144.745 257.822 147.114 254.942 148.063C250.421 149.555 247.379 146.908 246.389 142.163C246.316 141.809 246.542 141.463 246.896 141.389C247.25 141.316 247.596 141.542 247.67 141.896C248.518 145.965 250.885 148.025 254.533 146.821C257.013 146.004 258.932 143.896 260.347 140.865C261.011 139.441 261.519 137.909 261.888 136.376C261.974 136.018 262.048 135.678 262.112 135.358L262.147 135.174L257.377 135.68C257.098 135.71 256.834 135.559 256.716 135.308L256.7 135.272L253.995 128.48C253.861 128.144 254.025 127.764 254.36 127.63Z" fill="#164E63"/>
<path fill-rule="evenodd" clip-rule="evenodd" d="M230.751 141.479L230.812 141.492C232.917 141.872 234.974 139.697 235.602 136.728C235.914 135.247 235.215 132.96 234.287 131.69L234.259 131.655L233.169 130.362C233.075 130.251 232.946 130.174 232.804 130.144C231.373 129.842 230.058 130.841 229.161 132.531L229.084 132.68C228.932 132.981 228.793 133.302 228.669 133.64L228.608 133.811C228.568 133.925 228.53 134.042 228.493 134.16L228.44 134.339C228.422 134.399 228.405 134.459 228.389 134.52L228.34 134.703C228.317 134.796 228.295 134.889 228.273 134.983L228.232 135.172C227.597 138.18 228.635 141.033 230.751 141.479ZM232.334 131.402L233.242 132.478L233.231 132.462C233.958 133.457 234.548 135.387 234.322 136.458C233.822 138.821 232.299 140.431 231.056 140.207L231.014 140.198C229.991 139.982 229.292 138.518 229.359 136.672L229.366 136.513C229.387 136.167 229.434 135.808 229.511 135.442C230.011 133.072 231.214 131.437 232.286 131.402L232.334 131.402Z" fill="#06D0B6"/>
<path fill-rule="evenodd" clip-rule="evenodd" d="M240.635 112.513C246.567 111.297 252.274 116.497 253.459 124.026C254.216 128.907 252.929 133.737 250.115 136.82C249.872 137.087 249.458 137.106 249.191 136.863C248.925 136.619 248.906 136.206 249.149 135.939C251.685 133.16 252.865 128.73 252.166 124.228C251.088 117.371 246.011 112.746 240.898 113.794C235.758 114.847 232.385 121.243 233.467 128.116C234.111 132.189 236.206 135.618 239.026 137.405C239.331 137.599 239.422 138.003 239.229 138.308C239.035 138.613 238.631 138.703 238.326 138.51C235.175 136.512 232.875 132.75 232.175 128.32C230.994 120.814 234.734 113.722 240.635 112.513Z" fill="#164E63"/>
<path fill-rule="evenodd" clip-rule="evenodd" d="M238.411 125.537C238.758 125.507 239.065 125.754 239.115 126.094L239.119 126.133L239.492 130.475L240.194 130.084C240.498 129.915 240.878 130.013 241.063 130.303L241.083 130.337C241.253 130.641 241.154 131.021 240.865 131.206L240.83 131.226L239.246 132.109C238.842 132.334 238.344 132.081 238.28 131.632L238.276 131.594L237.816 126.245C237.785 125.885 238.052 125.568 238.411 125.537Z" fill="#164E63"/>
<path fill-rule="evenodd" clip-rule="evenodd" d="M241.882 121.398C242.459 121.283 243.051 121.34 243.621 121.502L243.745 121.539C243.804 121.557 243.858 121.575 243.907 121.593L243.999 121.627L244.076 121.658C244.088 121.663 244.099 121.668 244.109 121.673C244.439 121.821 244.585 122.209 244.437 122.538C244.294 122.855 243.929 123.003 243.608 122.88L243.536 122.85L243.486 122.831L243.423 122.809C243.412 122.805 243.4 122.801 243.388 122.797L243.308 122.773C243.294 122.769 243.28 122.764 243.265 122.76C242.877 122.65 242.482 122.612 242.137 122.68C241.759 122.756 241.465 122.954 241.243 123.33C241.06 123.641 240.659 123.744 240.348 123.561C240.037 123.377 239.933 122.976 240.117 122.665C240.533 121.958 241.149 121.543 241.882 121.398Z" fill="#164E63"/>
<path fill-rule="evenodd" clip-rule="evenodd" d="M235.904 123.72L235.98 123.721C236.341 123.735 236.623 124.038 236.61 124.399C236.597 124.747 236.314 125.021 235.971 125.029L235.931 125.028C235.908 125.028 235.882 125.028 235.853 125.029L235.759 125.032C235.692 125.036 235.615 125.042 235.531 125.052C235.273 125.083 235.02 125.141 234.79 125.229C234.282 125.425 233.964 125.733 233.853 126.209L233.841 126.267C233.772 126.622 233.429 126.853 233.074 126.785C232.719 126.716 232.488 126.373 232.557 126.018C232.75 125.019 233.403 124.361 234.32 124.009C234.661 123.878 235.018 123.796 235.376 123.754C235.583 123.729 235.762 123.72 235.904 123.72Z" fill="#164E63"/>
<ellipse cx="0.797819" cy="1.19019" rx="0.797819" ry="1.19019" transform="matrix(0.9427 -0.333643 0.333642 0.9427 241.371 125.85)" fill="#164E63"/>
<ellipse cx="236.179" cy="128.84" rx="0.793459" ry="1.19455" transform="rotate(-13.48 236.179 128.84)" fill="#164E63"/>
<path fill-rule="evenodd" clip-rule="evenodd" d="M243.198 132.142C243.277 131.79 243.627 131.569 243.979 131.648C244.332 131.727 244.553 132.077 244.474 132.429L244.458 132.494L244.437 132.572L244.411 132.661C244.406 132.677 244.401 132.693 244.396 132.71L244.361 132.815C244.355 132.834 244.349 132.852 244.342 132.871C244.23 133.188 244.086 133.505 243.904 133.805C243.054 135.202 241.675 135.762 239.909 134.883C239.585 134.722 239.454 134.33 239.615 134.006C239.775 133.683 240.168 133.551 240.491 133.712C241.59 134.259 242.263 133.986 242.786 133.125C242.918 132.909 243.025 132.673 243.108 132.437L243.138 132.349L243.162 132.273L243.181 132.21L243.193 132.161C243.195 132.154 243.197 132.148 243.198 132.142Z" fill="#164E63"/>
<path fill-rule="evenodd" clip-rule="evenodd" d="M249.282 130.239C249.375 129.913 249.484 129.598 249.609 129.297L249.678 129.134C249.961 128.487 250.314 127.906 250.713 127.415L250.814 127.294C251.849 126.083 253.178 125.462 254.448 125.818C254.795 125.916 254.998 126.277 254.901 126.625C254.807 126.96 254.467 127.161 254.132 127.087L254.094 127.078C252.865 126.733 251.21 128.238 250.54 130.596C249.882 132.913 250.491 135.043 251.684 135.425L251.727 135.438L251.784 135.454C252.133 135.548 252.339 135.906 252.245 136.255C252.155 136.591 251.818 136.796 251.481 136.725L251.444 136.717L251.38 136.699C249.654 136.212 248.77 134.118 248.999 131.731L249.018 131.558C249.069 131.124 249.156 130.682 249.282 130.239Z" fill="#06D0B6"/>
<path fill-rule="evenodd" clip-rule="evenodd" d="M265.074 123.521C263.675 112.645 256.305 105.234 245.852 109.622C244.525 109.515 243.19 109.544 241.868 109.707L241.835 109.683C218.293 111.593 226.618 125.428 226.618 125.428L230.373 124.286C230.578 126.505 231.463 128.266 232.972 129.051C232.915 128.776 232.536 125.062 232.725 123.573L243.045 120.436C242.201 118.867 243.559 115.754 244.545 113.873C244.708 116.076 245.774 124.475 252.392 122.221C252.433 122.365 252.686 122.003 252.994 121.349C254.455 120.557 256.269 120.868 257.382 122.104C258.67 123.588 258.452 125.89 256.889 127.246C256.11 127.929 255.088 128.268 254.055 128.183C255.958 132 257.294 135.039 257.294 135.039C257.294 135.039 264.848 134.187 266.58 134.256L265.074 123.521Z" fill="#164E63"/>
<path fill-rule="evenodd" clip-rule="evenodd" d="M255.697 127.622C256.038 127.5 256.412 127.678 256.533 128.018C256.964 129.231 256.971 130.762 256.546 132.28C255.724 135.201 253.529 137.234 251.464 136.72C251.114 136.632 250.9 136.277 250.988 135.927C251.072 135.589 251.405 135.379 251.743 135.442L251.781 135.451C253.007 135.756 254.633 134.251 255.287 131.926C255.642 130.658 255.637 129.401 255.301 128.457C255.179 128.117 255.357 127.743 255.697 127.622Z" fill="#06D0B6"/>
<path fill-rule="evenodd" clip-rule="evenodd" d="M251.793 121.359C253.614 119.778 256.349 119.905 257.878 121.666C259.408 123.429 259.148 126.143 257.325 127.726C256.17 128.751 254.565 129.1 253.09 128.647C252.744 128.541 252.55 128.176 252.656 127.83C252.762 127.485 253.128 127.291 253.473 127.397C254.513 127.715 255.643 127.47 256.462 126.743C257.756 125.62 257.937 123.73 256.89 122.524C255.844 121.319 253.937 121.231 252.65 122.347C252.378 122.584 251.965 122.554 251.728 122.282C251.491 122.009 251.52 121.596 251.793 121.359Z" fill="#164E63"/>
<path fill-rule="evenodd" clip-rule="evenodd" d="M261.786 133.603C264.696 133.474 267.77 133.555 270.337 133.905L270.541 133.934L270.659 133.938C271.713 133.986 272.751 134.2 273.728 134.571L273.874 134.628C274.235 134.764 274.587 134.922 274.928 135.101L275.012 135.146L275.023 135.149C275.066 135.164 275.106 135.184 275.145 135.208L275.162 135.219L275.255 135.271C277.922 136.785 280.437 139.647 282.994 143.826L283.223 144.204C283.643 144.903 284.065 145.638 284.489 146.408L284.72 146.831C284.759 146.902 284.797 146.974 284.836 147.046L285.068 147.48L285.301 147.921L285.534 148.369C285.611 148.519 285.689 148.671 285.767 148.824L286.002 149.285L286.236 149.754C286.315 149.912 286.393 150.07 286.472 150.23L286.708 150.713C286.748 150.794 286.787 150.876 286.827 150.957L286.948 151.208C287.031 151.382 287.113 151.553 287.194 151.723L287.493 152.354L287.839 153.092L288.271 154.031L288.727 155.04L289.279 156.277L290.032 157.985L291.216 160.686L291.673 161.718L292.028 162.513L292.308 163.13L292.561 163.678L292.766 164.11L292.985 164.564L293.144 164.884L293.325 165.24L293.376 165.339C294.854 168.194 294.992 170.722 294.005 172.864L293.953 172.974L294.047 173.27L294.158 173.625L294.264 173.974L294.367 174.317L294.467 174.656C294.483 174.711 294.499 174.767 294.515 174.823L294.608 175.152C294.623 175.207 294.638 175.261 294.653 175.315L294.741 175.637L294.825 175.953L294.905 176.264C294.918 176.315 294.93 176.366 294.943 176.417L295.017 176.719C295.041 176.819 295.064 176.918 295.087 177.016L295.153 177.307L295.214 177.592L295.272 177.872L295.326 178.147C295.911 181.223 295.702 183.216 294.535 184.044L294.481 184.081C292.05 185.691 288.599 186.237 284.389 185.845L284.068 185.813C283.692 185.774 283.309 185.728 282.921 185.675L282.587 185.627L282.251 185.576C282.194 185.567 282.138 185.558 282.081 185.549L281.74 185.492C281.626 185.473 281.512 185.453 281.397 185.432L281.05 185.369C276.101 184.439 270.494 182.458 265.291 179.896C264.967 179.736 264.833 179.344 264.993 179.02C265.153 178.696 265.545 178.563 265.869 178.723C277.184 184.295 288.562 186.432 293.759 182.991C294.165 182.722 294.357 182.012 294.332 180.915L294.327 180.743C294.325 180.685 294.322 180.626 294.318 180.565L294.306 180.381L294.29 180.191C294.287 180.159 294.284 180.127 294.281 180.094L294.26 179.895L294.236 179.69L294.209 179.48C294.179 179.266 294.145 179.044 294.105 178.813L294.064 178.579C294.057 178.54 294.05 178.5 294.042 178.46L293.996 178.218L293.946 177.971L293.892 177.718L293.836 177.459L293.776 177.195L293.712 176.926L293.645 176.651C293.633 176.604 293.622 176.558 293.61 176.511L293.538 176.229C293.526 176.181 293.513 176.133 293.5 176.085L293.423 175.795C293.41 175.746 293.397 175.697 293.383 175.647L293.301 175.349C293.286 175.299 293.272 175.248 293.258 175.198L293.17 174.892L293.079 174.581L292.984 174.264L292.886 173.943L292.785 173.617L292.626 173.119C292.572 172.951 292.588 172.767 292.671 172.611C293.626 170.814 293.586 168.653 292.274 166.057L292.214 165.94C292.156 165.828 292.098 165.715 292.041 165.601L291.901 165.324L291.681 164.874L291.418 164.322L291.165 163.774L290.885 163.159L290.572 162.461L289.766 160.638L288.248 157.181L287.829 156.235L287.306 155.071L287.04 154.485L286.74 153.831L286.486 153.286L286.222 152.725L286.014 152.286L285.769 151.775L285.534 151.289L285.3 150.811C285.261 150.732 285.222 150.653 285.183 150.574L284.95 150.107L284.718 149.646L284.486 149.192C284.448 149.117 284.409 149.043 284.371 148.968L284.14 148.525C284.102 148.452 284.063 148.379 284.025 148.306L283.795 147.874C283.68 147.66 283.566 147.448 283.451 147.239L283.223 146.825C283.147 146.688 283.071 146.552 282.995 146.418L282.768 146.018C280.005 141.194 277.349 137.966 274.615 136.411L274.553 136.377L274.51 136.359L274.468 136.338C274.176 136.178 273.875 136.035 273.56 135.909L273.401 135.847C272.465 135.475 271.47 135.269 270.463 135.239C270.438 135.238 270.413 135.236 270.388 135.233C267.867 134.868 264.77 134.779 261.844 134.91C261.483 134.926 261.178 134.646 261.162 134.285C261.146 133.925 261.425 133.619 261.786 133.603Z" fill="#164E63"/>
<path fill-rule="evenodd" clip-rule="evenodd" d="M245.429 160.888C245.697 160.646 246.111 160.667 246.353 160.935C246.586 161.193 246.575 161.585 246.336 161.83L246.306 161.859L233.669 173.268C233.401 173.51 232.988 173.489 232.746 173.221C232.513 172.963 232.524 172.571 232.763 172.326L232.793 172.297L245.429 160.888Z" fill="#164E63"/>
<path fill-rule="evenodd" clip-rule="evenodd" d="M243.959 150.907C244.317 150.861 244.645 151.113 244.692 151.471L244.767 152.07L244.844 152.753L245.026 154.448L245.072 154.853L245.118 155.239L245.148 155.485L245.179 155.723L245.226 156.065L245.257 156.283L245.289 156.494L245.322 156.699L245.355 156.896L245.389 157.088L245.424 157.273C245.43 157.303 245.436 157.333 245.442 157.363L245.478 157.54L245.515 157.711L245.553 157.877C245.56 157.905 245.566 157.932 245.573 157.959L245.613 158.118L245.655 158.273C245.662 158.298 245.669 158.323 245.676 158.349L245.72 158.498L245.765 158.643L245.812 158.785C245.82 158.809 245.828 158.832 245.836 158.855L245.885 158.993L245.936 159.128L245.99 159.262L246.045 159.393C246.054 159.414 246.064 159.436 246.073 159.458L246.132 159.586L246.192 159.714C246.202 159.735 246.213 159.756 246.223 159.777L246.287 159.904C246.309 159.946 246.331 159.988 246.354 160.03C247.279 161.745 248.871 162.943 251.554 163.761C251.751 163.821 251.907 163.97 251.977 164.161L251.991 164.203L253.502 169.387C253.603 169.734 253.403 170.097 253.057 170.198C252.722 170.295 252.373 170.113 252.258 169.789L252.246 169.753L250.833 164.904L250.758 164.88C248.048 163.98 246.308 162.637 245.255 160.746L245.203 160.65L245.165 160.58L245.091 160.438C245.079 160.414 245.067 160.391 245.055 160.367L244.986 160.225L244.919 160.082C244.908 160.058 244.897 160.034 244.886 160.01L244.823 159.866C244.803 159.818 244.782 159.769 244.762 159.721L244.704 159.574C244.694 159.549 244.685 159.524 244.676 159.499L244.62 159.349L244.567 159.196C244.559 159.171 244.55 159.145 244.541 159.119L244.491 158.962C244.483 158.936 244.475 158.909 244.467 158.882L244.419 158.72C244.411 158.693 244.404 158.666 244.396 158.638L244.351 158.471L244.307 158.299C244.3 158.27 244.293 158.241 244.286 158.212L244.245 158.033L244.205 157.85L244.166 157.662L244.128 157.468L244.091 157.268L244.055 157.063L244.02 156.85L243.986 156.632L243.953 156.406L243.919 156.172L243.887 155.932L243.855 155.683L243.823 155.426L243.791 155.16L243.743 154.745L243.695 154.309L243.521 152.686L243.461 152.162L243.395 151.64C243.348 151.282 243.601 150.954 243.959 150.907Z" fill="#164E63"/>
<path fill-rule="evenodd" clip-rule="evenodd" d="M266.61 146.073C266.958 145.977 267.318 146.182 267.414 146.53C267.73 147.68 268.124 148.899 268.597 150.184L268.742 150.572C268.84 150.831 268.94 151.094 269.045 151.359L269.203 151.758C269.257 151.892 269.311 152.027 269.366 152.162L269.534 152.569C269.761 153.115 270.001 153.671 270.253 154.237L270.444 154.664C270.541 154.878 270.64 155.094 270.74 155.311L270.943 155.747L271.151 156.187L271.364 156.631C271.4 156.705 271.436 156.78 271.472 156.854L271.692 157.304C271.729 157.379 271.766 157.454 271.804 157.53L272.031 157.985C272.069 158.061 272.107 158.137 272.146 158.213L272.38 158.674L272.618 159.138L272.862 159.606C272.903 159.684 272.944 159.763 272.985 159.841L273.236 160.315L273.491 160.792L273.751 161.272C273.795 161.352 273.839 161.433 273.883 161.514L274.15 162C274.239 162.162 274.33 162.325 274.421 162.489C274.637 162.875 274.415 163.36 273.981 163.448L273.795 163.488L273.639 163.524L273.471 163.564L273.162 163.64L272.672 163.768L272.441 163.83L271.857 163.991L271.305 164.147L270.393 164.411L269.615 164.641L268.655 164.929L267.354 165.325L266.235 165.669L265.049 166.038L263.856 166.412L262.74 166.765L261.61 167.123L260.471 167.487L258.754 168.038L256.063 168.909L259.877 178.759L262.758 178.555L264.513 178.429L266.305 178.298L268.676 178.121L269.85 178.032L271.013 177.943L272.162 177.854L274.192 177.693L275.826 177.561L277.079 177.457L279.145 177.281L280.845 177.13L282.253 176.999L283.403 176.887L284.329 176.793L285.162 176.703L285.724 176.639L286.31 176.568L286.681 176.52L287.012 176.474L287.302 176.43L287.456 176.405L287.638 176.372L287.757 176.349L287.86 176.327L287.921 176.313L287.974 176.299L288.02 176.285C289.666 175.77 291.498 174.541 292.489 172.929C292.678 172.621 293.081 172.525 293.388 172.714C293.696 172.903 293.792 173.306 293.603 173.614C292.448 175.492 290.41 176.881 288.516 177.5L288.384 177.541L288.326 177.558L288.227 177.583L288.113 177.608L287.985 177.635L287.842 177.662L287.63 177.699L287.392 177.737L287.059 177.786L286.841 177.816L286.362 177.878L285.921 177.932L285.341 177.999L284.706 178.068L283.777 178.165L282.753 178.266L281.781 178.358L280.27 178.495L278.789 178.625L277.188 178.761L275.933 178.864L274.296 178.997L272.834 179.113L271.113 179.247L269.363 179.38L266.997 179.558L265.804 179.646L262.627 179.876L259.486 180.097C259.214 180.115 258.961 179.963 258.848 179.718L258.832 179.68L254.594 168.738C254.463 168.4 254.632 168.024 254.964 167.893L255.199 167.815L256.816 167.289L258.354 166.793L259.5 166.424L260.644 166.058L261.781 165.696L262.906 165.34L264.015 164.991L265.691 164.469L266.832 164.117L267.903 163.79L268.901 163.489L269.825 163.214L270.672 162.968L271.228 162.809L271.841 162.638L272.305 162.512L272.725 162.402L272.859 162.368L272.733 162.137C272.593 161.881 272.455 161.626 272.319 161.373L272.049 160.868L271.784 160.367L271.525 159.87C271.439 159.705 271.354 159.541 271.27 159.377L271.021 158.888L270.777 158.403L270.539 157.922L270.305 157.445C269.959 156.732 269.63 156.033 269.318 155.348L269.113 154.893C268.978 154.591 268.847 154.292 268.719 153.996L268.529 153.554C267.532 151.206 266.757 149.035 266.202 147.054L266.153 146.876C266.057 146.528 266.262 146.168 266.61 146.073Z" fill="#164E63"/>
<path fill-rule="evenodd" clip-rule="evenodd" d="M274.835 161.626C276.608 160.952 278.462 160.765 280.224 161.379C280.636 161.523 281.036 161.711 281.421 161.943C281.73 162.129 281.83 162.531 281.643 162.841C281.456 163.15 281.054 163.249 280.745 163.063C280.438 162.878 280.121 162.729 279.793 162.614C278.367 162.117 276.811 162.274 275.3 162.848C274.994 162.964 274.717 163.089 274.474 163.212L274.379 163.262L274.256 163.329L274.192 163.366C273.884 163.554 273.481 163.457 273.293 163.149C273.104 162.841 273.201 162.439 273.509 162.25L273.588 162.203L273.696 162.144L273.782 162.098L273.881 162.047C274.164 161.903 274.484 161.759 274.835 161.626Z" fill="#164E63"/>
<path fill-rule="evenodd" clip-rule="evenodd" d="M247.181 169.382C247.2 169.743 246.923 170.051 246.563 170.07L246.457 170.077L246.281 170.09L246.088 170.107L245.949 170.12L245.652 170.151L245.33 170.189L244.988 170.231L244.536 170.29L244.064 170.356L243.677 170.412L243.089 170.501L242.795 170.547L242.406 170.609L241.837 170.704L241.383 170.784L241.038 170.846L240.561 170.937L240.343 170.981L240.078 171.038L239.9 171.078L239.741 171.116L239.647 171.14L239.563 171.163L239.489 171.185L239.425 171.206C239.367 171.226 239.326 171.244 239.303 171.26C239.286 171.272 239.281 171.297 239.292 171.316C239.307 171.341 239.343 171.37 239.419 171.395C239.547 171.438 239.734 171.449 239.972 171.413L240.033 171.403L240.865 171.248C241.22 171.182 241.562 171.417 241.628 171.772C241.691 172.114 241.476 172.444 241.142 172.526L241.104 172.534L240.266 172.69C239.304 172.86 238.527 172.601 238.162 171.975C237.809 171.369 237.978 170.593 238.551 170.19C238.606 170.151 238.694 170.11 238.811 170.066L238.904 170.033C238.921 170.027 238.938 170.021 238.955 170.016L239.063 169.981L239.181 169.946L239.308 169.911L239.443 169.875L239.587 169.838L239.738 169.801L239.979 169.745L240.234 169.689L240.503 169.632L240.783 169.575L241.074 169.519L241.373 169.462L241.679 169.407L242.097 169.334L242.414 169.28L242.839 169.211L243.159 169.161L243.477 169.113L243.895 169.052L244.204 169.009L244.702 168.943L244.989 168.908L245.265 168.875L245.529 168.846L245.779 168.82L246.089 168.792L246.232 168.781L246.367 168.772L246.493 168.764C246.854 168.745 247.162 169.022 247.181 169.382Z" fill="#164E63"/>
<path fill-rule="evenodd" clip-rule="evenodd" d="M255.495 168.593L255.75 169.875L252.362 170.549C252.301 170.561 252.239 170.564 252.177 170.559L251.791 170.523L250.524 170.385L248.956 170.209L248.238 170.133L247.779 170.088L247.462 170.06L247.235 170.042L247.035 170.028L246.918 170.022L246.77 170.017L246.694 170.015L246.63 170.016L246.586 170.017L246.507 170.045L246.359 170.1L246.189 170.167L246 170.243L245.793 170.33L245.492 170.458L245.249 170.564L244.906 170.717L244.544 170.881L244.167 171.054L243.681 171.281L243.186 171.517L242.687 171.759L242.362 171.92L242.101 172.051L241.722 172.243L241.48 172.368L241.132 172.549L240.912 172.667L240.601 172.836L240.408 172.944L240.225 173.047L240.076 173.134L239.87 173.257L239.747 173.334L239.635 173.405L239.535 173.472L239.43 173.546L239.439 173.55L239.471 173.563C239.789 173.692 240.254 173.669 240.751 173.438L240.816 173.407L245.036 171.469C245.783 171.126 246.34 172.184 245.667 172.611L245.608 172.646L244.868 173.072L244.376 173.359L243.89 173.644L243.415 173.925L242.892 174.237L242.566 174.435L242.262 174.62L241.896 174.848L241.73 174.953L241.575 175.052L241.44 175.14L241.26 175.26C241.241 175.272 241.224 175.284 241.207 175.296L241.146 175.338L241.152 175.34C241.583 175.463 242.314 175.292 243.274 174.688L243.353 174.638L243.634 174.457L243.9 174.288L244.152 174.13L244.39 173.983L244.541 173.891L244.686 173.804L244.959 173.642L245.149 173.533L245.27 173.466L245.44 173.372L245.548 173.315L245.65 173.262L245.748 173.213L245.841 173.168L245.929 173.126L246.013 173.089L246.093 173.055L246.169 173.024L246.241 172.997L246.308 172.974L246.372 172.954L246.432 172.937L246.489 172.923C246.498 172.921 246.507 172.919 246.516 172.917L246.568 172.908C246.576 172.907 246.584 172.906 246.592 172.905L246.639 172.9L246.683 172.899C246.69 172.899 246.697 172.899 246.704 172.899L246.743 172.901L246.776 172.906L246.825 172.915C247.362 173.038 247.51 173.724 247.089 174.061L247.044 174.094L246.579 174.429L246.49 174.493C246.348 174.596 246.206 174.7 246.065 174.803L245.647 175.111C245.578 175.162 245.509 175.213 245.442 175.263L245.091 175.526L244.753 175.784L244.521 175.963L244.244 176.18L244.121 176.279L244.009 176.371L243.925 176.44L243.942 176.441C244.57 176.464 245.446 176.069 246.434 175.15L246.506 175.082C246.66 174.935 246.875 174.873 247.082 174.914L247.127 174.924L252.803 176.446L252.935 176.436L253.027 176.432L253.189 176.429L253.354 176.428L253.691 176.431L254.727 176.451L255.502 176.467L256.181 176.478L256.588 176.482L256.971 176.483L257.157 176.483L257.48 176.48L257.618 176.478C257.853 176.475 258.08 176.47 258.298 176.462L258.461 176.456L258.512 177.763C258.232 177.774 257.941 177.782 257.637 177.786L257.354 177.789L256.975 177.791L256.584 177.79L255.95 177.783L255.227 177.77L253.875 177.742L253.375 177.737L253.15 177.738L253.005 177.743L252.922 177.749L252.852 177.756C252.848 177.757 252.843 177.757 252.839 177.758C252.771 177.767 252.702 177.765 252.634 177.753L252.584 177.741L247.134 176.28L247.073 176.334C245.93 177.323 244.819 177.788 243.874 177.747L243.805 177.743C243.317 177.708 242.895 177.532 242.627 177.234C242.46 177.049 242.364 176.826 242.349 176.601L242.346 176.547L242.323 176.554C241.738 176.714 241.211 176.724 240.761 176.588L240.703 176.57C239.947 176.317 239.491 175.598 239.723 174.98L239.738 174.943L239.702 174.941C239.473 174.923 239.254 174.877 239.05 174.803L238.983 174.777C238.194 174.46 237.75 173.709 238.165 172.982C238.229 172.869 238.351 172.741 238.528 172.597L238.607 172.535C238.621 172.524 238.635 172.513 238.649 172.502L238.739 172.437L238.835 172.369C238.852 172.358 238.869 172.346 238.886 172.335L238.992 172.264L239.105 172.192L239.225 172.117L239.351 172.04L239.484 171.962L239.624 171.881L239.846 171.755L240.082 171.625L240.248 171.535L240.508 171.397L240.879 171.204L241.274 171.002L241.695 170.791L241.915 170.682L242.308 170.489L242.8 170.252L243.288 170.021L243.67 169.843L244.134 169.63L244.489 169.471L244.744 169.358L244.988 169.252L245.22 169.153L245.437 169.062L245.704 168.953L245.884 168.883L245.994 168.841L246.096 168.804L246.188 168.771C246.203 168.766 246.217 168.762 246.231 168.757L246.265 168.748L246.301 168.739L246.359 168.728L246.402 168.722L246.448 168.717L246.523 168.711L246.577 168.708L246.635 168.707L246.73 168.706L246.834 168.707L246.99 168.713L247.119 168.72L247.261 168.729L247.525 168.75L247.892 168.783L248.477 168.842L249.688 168.974L251.594 169.187L251.944 169.224L252.199 169.248L255.495 168.593Z" fill="#164E63"/>
<path fill-rule="evenodd" clip-rule="evenodd" d="M248.922 135.654C249.427 135.658 249.836 135.697 250.154 135.781C250.653 135.913 251.011 136.17 251.083 136.648C251.169 137.218 250.822 137.657 250.067 138.128L249.945 138.203C249.924 138.216 249.902 138.228 249.881 138.241L249.748 138.316C249.725 138.329 249.702 138.342 249.679 138.355L249.536 138.432L249.387 138.51L249.15 138.63L248.984 138.711C248.086 139.148 246.947 139.605 245.821 140.006C245.48 140.127 245.106 139.949 244.985 139.609C244.864 139.269 245.042 138.895 245.382 138.774C246.467 138.388 247.565 137.947 248.412 137.535L248.597 137.444L248.772 137.354C248.997 137.236 249.193 137.123 249.356 137.019L249.411 136.983L249.351 136.978L249.215 136.97C249.144 136.966 249.069 136.964 248.99 136.963L248.91 136.962L248.736 136.962L248.553 136.965L248.36 136.97C248.327 136.972 248.294 136.973 248.26 136.974L248.054 136.985L247.839 136.997C247.803 137 247.766 137.002 247.728 137.005L247.501 137.022C247.462 137.025 247.423 137.028 247.383 137.032L247.143 137.053L246.894 137.076L246.637 137.103L246.373 137.132L246.1 137.163L245.819 137.197C245.691 137.213 245.562 137.229 245.43 137.247L245.03 137.3C244.962 137.309 244.894 137.319 244.825 137.328L244.407 137.388L244.045 137.441L243.441 137.533L242.961 137.609L241.73 137.806L241.631 137.823C241.614 137.826 241.596 137.83 241.579 137.833L241.469 137.857C241.45 137.862 241.431 137.866 241.412 137.871L241.292 137.901L241.166 137.935L241.033 137.973L240.894 138.016L240.748 138.062L240.597 138.112L240.44 138.166L240.277 138.223L240.109 138.284L239.846 138.383C239.816 138.394 239.786 138.406 239.756 138.417L239.477 138.526L239.188 138.642L238.887 138.766L238.576 138.896L238.364 138.987L238.037 139.129L237.701 139.277L237.357 139.431C237.318 139.448 237.279 139.466 237.24 139.484C235.245 140.392 233.714 142.086 233.011 144.163L232.978 144.266L232.947 144.368C232.942 144.385 232.937 144.402 232.932 144.42L232.903 144.528C232.898 144.546 232.893 144.565 232.888 144.585L232.858 144.707L232.771 145.086L232.72 145.301C232.551 145.994 232.389 146.444 232.028 147.152C231.865 147.474 231.471 147.602 231.149 147.439C230.827 147.275 230.699 146.881 230.863 146.559L230.951 146.383C231.2 145.874 231.32 145.524 231.453 144.976L231.498 144.785L231.552 144.547L231.589 144.391L231.623 144.25L231.658 144.12L231.693 143.995L231.731 143.871C231.744 143.83 231.758 143.788 231.772 143.745C232.591 141.325 234.374 139.352 236.699 138.293L236.954 138.178L237.329 138.011L237.573 137.904L237.929 137.75L238.161 137.651L238.5 137.51L238.827 137.376L239.039 137.292L239.246 137.211L239.545 137.098L239.738 137.027L239.925 136.96L240.106 136.897L240.282 136.838L240.452 136.784L240.615 136.733C240.642 136.725 240.669 136.718 240.695 136.71L240.849 136.666L240.998 136.626C241.046 136.614 241.093 136.602 241.139 136.591L241.275 136.561C241.297 136.556 241.319 136.552 241.34 136.547L241.466 136.524L242.588 136.344L243.083 136.265L243.55 136.193L244.003 136.125L244.434 136.063L244.854 136.004L245.262 135.95L245.659 135.899L245.962 135.862L246.257 135.829L246.543 135.798L246.821 135.769L247.09 135.744L247.35 135.722L247.602 135.703C247.684 135.697 247.765 135.691 247.844 135.687L248.078 135.674C248.193 135.668 248.304 135.663 248.412 135.66L248.623 135.655C248.691 135.654 248.759 135.653 248.824 135.653L248.922 135.654Z" fill="#164E63"/>
<path fill-rule="evenodd" clip-rule="evenodd" d="M241.987 145.17C242.286 144.967 242.693 145.045 242.895 145.344C243.098 145.643 243.02 146.05 242.721 146.253L242.603 146.333L242.484 146.418L242.362 146.506L242.236 146.6L242.103 146.701L241.962 146.81L241.734 146.99L240.702 147.815L240.5 147.973L240.341 148.093L240.205 148.191L240.106 148.259L239.915 148.384C239.475 148.672 239.075 148.87 238.689 148.967L238.667 148.973L238.611 149.213L238.542 149.495L238.469 149.789L238.391 150.094L238.307 150.409C238.293 150.463 238.278 150.517 238.263 150.571L238.172 150.902C238.156 150.958 238.14 151.014 238.124 151.071C238.025 151.419 237.664 151.62 237.316 151.522C236.969 151.423 236.767 151.062 236.866 150.714L236.957 150.387C236.972 150.334 236.987 150.281 237.001 150.228L237.085 149.916C237.098 149.865 237.112 149.814 237.125 149.764L237.201 149.469L237.272 149.184L237.338 148.91L237.4 148.648L237.476 148.305L237.486 148.254C237.546 147.959 237.799 147.744 238.096 147.73L238.183 147.729L238.231 147.727L238.279 147.722L238.327 147.715L238.377 147.705L238.428 147.692L238.48 147.677C238.488 147.674 238.497 147.671 238.506 147.668L238.561 147.649L238.617 147.626L238.676 147.599L238.737 147.57L238.801 147.536L238.867 147.499L238.937 147.459L239.01 147.414L239.086 147.365L239.209 147.283L239.295 147.223L239.434 147.124L239.532 147.053L239.689 146.936L239.857 146.807L240.103 146.617L240.373 146.404L240.669 146.167L240.924 145.963L241.088 145.834L241.242 145.714L241.387 145.602L241.527 145.497L241.661 145.399L241.792 145.305L241.922 145.214C241.944 145.199 241.965 145.184 241.987 145.17Z" fill="#164E63"/>
<path fill-rule="evenodd" clip-rule="evenodd" d="M241.658 138.115L241.908 138.126L242.107 138.138L242.32 138.153C242.394 138.158 242.469 138.165 242.545 138.171C243.206 138.228 243.867 138.315 244.489 138.439C244.684 138.478 244.871 138.519 245.05 138.563L245.227 138.608C246.532 138.954 247.391 139.466 247.662 140.294C248.008 141.354 247.732 142.174 247.045 142.641C246.888 142.748 246.722 142.826 246.556 142.882C246.453 142.917 246.367 142.937 246.304 142.947C245.948 143.006 245.612 142.764 245.553 142.408C245.497 142.064 245.72 141.739 246.055 141.664L246.093 141.657C246.127 141.651 246.222 141.619 246.31 141.559C246.513 141.421 246.584 141.209 246.418 140.7C246.365 140.537 246.152 140.364 245.807 140.2L245.704 140.153C245.616 140.115 245.521 140.077 245.418 140.04L245.292 139.996C245.27 139.989 245.249 139.982 245.226 139.975L245.09 139.932C245.021 139.911 244.949 139.891 244.875 139.871L244.723 139.831L244.566 139.793L244.402 139.757C244.347 139.745 244.291 139.733 244.233 139.722C243.664 139.608 243.049 139.527 242.433 139.474L242.326 139.465L242.121 139.45L241.928 139.437L241.619 139.422C241.258 139.411 240.974 139.11 240.985 138.749C240.995 138.388 241.297 138.104 241.658 138.115Z" fill="#164E63"/>
<path fill-rule="evenodd" clip-rule="evenodd" d="M241.035 140.647C241.076 140.288 241.4 140.031 241.759 140.072L241.899 140.09L241.981 140.101C242.151 140.126 242.34 140.156 242.544 140.192C243.126 140.296 243.709 140.429 244.258 140.597L244.35 140.625L244.529 140.683C245.916 141.143 246.828 141.756 247.056 142.682C247.316 143.737 247.006 144.525 246.315 144.952C246.143 145.059 245.962 145.133 245.781 145.182C245.669 145.212 245.576 145.227 245.509 145.233C245.149 145.266 244.831 145.002 244.798 144.642C244.766 144.295 245.011 143.987 245.351 143.936L245.389 143.931C245.428 143.927 245.531 143.9 245.627 143.84C245.829 143.715 245.912 143.505 245.786 142.995C245.733 142.781 245.479 142.547 245.06 142.321L244.947 142.262C244.695 142.136 244.39 142.013 244.041 141.899L243.877 141.848C243.383 141.697 242.849 141.575 242.314 141.479C242.164 141.453 242.023 141.43 241.893 141.41L241.625 141.373C241.619 141.372 241.614 141.372 241.61 141.371C241.251 141.33 240.993 141.006 241.035 140.647Z" fill="#164E63"/>
<path fill-rule="evenodd" clip-rule="evenodd" d="M240.981 143.049C241.028 142.691 241.357 142.439 241.715 142.486L241.829 142.503L241.895 142.513L242.066 142.541L242.251 142.574C242.282 142.58 242.314 142.586 242.347 142.593C242.815 142.683 243.284 142.796 243.726 142.935C244.568 143.199 245.219 143.523 245.63 143.957C246.255 144.618 246.242 145.469 245.548 146.245L245.474 146.327L245.328 146.486C245.182 146.641 245.04 146.786 244.901 146.919L244.763 147.049C243.738 147.998 242.901 148.363 242.29 148.348L242.22 148.344L242.209 148.343C242.13 148.335 242.052 148.312 241.98 148.276C241.858 148.213 241.707 148.11 241.556 147.953C240.763 147.132 241.001 145.969 242.524 144.821C242.813 144.603 243.223 144.661 243.44 144.949C243.657 145.238 243.6 145.648 243.312 145.865C243.251 145.911 243.193 145.956 243.139 146L243.036 146.086C242.656 146.411 242.473 146.673 242.435 146.858C242.423 146.916 242.43 146.957 242.46 147.001L242.464 147.006C242.54 146.984 242.625 146.951 242.721 146.906L242.78 146.878C243.28 146.629 243.88 146.149 244.573 145.374L244.603 145.339L244.656 145.277C244.822 145.071 244.808 144.991 244.68 144.857C244.46 144.624 243.98 144.385 243.334 144.182C242.945 144.06 242.522 143.958 242.1 143.877L241.927 143.845L241.766 143.817L241.544 143.783C241.186 143.736 240.934 143.407 240.981 143.049Z" fill="#164E63"/>
<path fill-rule="evenodd" clip-rule="evenodd" d="M228.198 145.891L227.565 147.22L227.109 148.181L226.525 149.418L225.967 150.605L225.566 151.464L225.18 152.297L224.931 152.838L224.568 153.629L224.219 154.395L223.994 154.893L223.667 155.621L223.354 156.327L223.152 156.785L222.956 157.234L222.765 157.674L222.579 158.105L222.399 158.527L222.225 158.94L222.055 159.346L221.89 159.743L221.731 160.133L221.576 160.515L221.426 160.889L221.281 161.257C221.258 161.317 221.234 161.378 221.211 161.438L221.073 161.795L220.939 162.145L220.81 162.489L220.685 162.827C220.665 162.883 220.645 162.939 220.625 162.994L220.507 163.323C220.487 163.377 220.468 163.431 220.449 163.485L220.337 163.806L220.229 164.121L220.125 164.431C220.108 164.482 220.091 164.534 220.075 164.584L219.976 164.887C219.96 164.937 219.944 164.987 219.929 165.037L219.836 165.333L219.747 165.625L219.662 165.913C219.648 165.961 219.634 166.008 219.621 166.056L219.54 166.338C219.514 166.432 219.489 166.525 219.464 166.617L219.39 166.893C219.378 166.938 219.366 166.984 219.354 167.029L219.286 167.3C217.923 172.768 218.857 176.01 222.539 177.329L222.567 177.338C225.876 178.355 228.894 177.417 231.488 175.259C232.131 174.723 232.699 174.151 233.186 173.577L233.24 173.513L233.39 173.331L233.48 173.219L233.561 173.115L233.633 173.02L233.697 172.934L233.751 172.857L233.797 172.79C233.833 172.738 233.861 172.68 233.88 172.619L240.114 152.565C240.204 152.273 240.081 151.958 239.817 151.805L229.116 145.608C228.786 145.416 228.363 145.547 228.198 145.891ZM229.073 147.094L238.71 152.675L232.661 172.133L232.587 172.233L232.538 172.298L232.432 172.435C232.358 172.528 232.277 172.627 232.189 172.73C231.748 173.249 231.233 173.769 230.651 174.253L230.562 174.327C228.329 176.15 225.811 176.926 223.061 176.121L222.966 176.092L222.98 176.097C220.155 175.085 219.38 172.662 220.45 168.051L220.519 167.763L220.555 167.617C220.576 167.531 220.598 167.445 220.62 167.358L220.689 167.096L220.761 166.831L220.836 166.563L220.914 166.291C220.928 166.245 220.941 166.2 220.955 166.154L221.038 165.876L221.125 165.594C221.14 165.547 221.154 165.5 221.17 165.452L221.262 165.164L221.358 164.871L221.457 164.573L221.56 164.271L221.668 163.963L221.779 163.65L221.894 163.332L222.013 163.007L222.137 162.677L222.265 162.341L222.397 161.998L222.603 161.471L222.82 160.929C222.845 160.868 222.869 160.806 222.894 160.745L223.047 160.371L223.204 159.989L223.367 159.6L223.534 159.203L223.706 158.798L223.973 158.175L224.253 157.533L224.544 156.87L224.847 156.187L225.056 155.72L225.271 155.244L225.604 154.51L225.95 153.753L226.309 152.973L226.937 151.619L227.468 150.485L227.883 149.604L228.607 148.075L229.073 147.094Z" fill="#164E63"/>
<path fill-rule="evenodd" clip-rule="evenodd" d="M351.551 225.276C351.908 225.222 352.241 225.468 352.295 225.825C352.741 228.775 352.741 231.775 352.295 234.724C352.241 235.082 351.908 235.327 351.551 235.273C351.194 235.219 350.948 234.886 351.002 234.529C351.428 231.709 351.428 228.841 351.002 226.02C350.948 225.663 351.194 225.33 351.551 225.276Z" fill="#164E63"/>
<path fill-rule="evenodd" clip-rule="evenodd" d="M355.681 219.675H220.802C220.441 219.675 220.148 219.968 220.148 220.329V239.824C220.148 240.185 220.441 240.477 220.802 240.477H355.681C357.553 240.477 359.091 239.055 359.091 237.275L359.09 237.208C359.052 235.459 357.532 234.073 355.681 234.073H226.962V226.08H355.681C357.554 226.08 359.091 224.658 359.091 222.877C359.091 221.095 357.557 219.675 355.681 219.675ZM221.456 239.17V220.983L355.681 220.983C356.856 220.983 357.783 221.841 357.783 222.877C357.783 223.912 356.853 224.772 355.681 224.772H226.308C225.947 224.772 225.654 225.065 225.654 225.426V234.727C225.654 235.088 225.947 235.381 226.308 235.381H355.681C356.855 235.381 357.783 236.24 357.783 237.275C357.783 238.309 356.852 239.17 355.681 239.17H221.456Z" fill="#164E63"/>
<path fill-rule="evenodd" clip-rule="evenodd" d="M353.517 206.725C354.059 206.725 354.498 207.164 354.498 207.706C354.498 208.232 354.083 208.662 353.563 208.686L353.517 208.687H227.335V217.764H353.517C354.043 217.764 354.473 218.178 354.497 218.698L354.498 218.744C354.498 219.271 354.083 219.7 353.563 219.724L353.517 219.725H226.354C225.828 219.725 225.398 219.311 225.374 218.791L225.373 218.744V207.706C225.373 207.18 225.787 206.75 226.308 206.726L226.354 206.725H353.517Z" fill="#06D0B6"/>
<path fill-rule="evenodd" clip-rule="evenodd" d="M352.192 207.052H226.354C225.993 207.052 225.7 207.345 225.7 207.706V218.744C225.7 219.106 225.993 219.398 226.354 219.398H352.192C352.76 219.398 353.053 218.727 352.682 218.311L352.567 218.191L352.474 218.088L352.365 217.962C352.188 217.753 352.005 217.516 351.823 217.254C351.325 216.535 350.918 215.747 350.659 214.913C349.945 212.611 350.448 210.347 352.651 208.171C353.067 207.76 352.776 207.052 352.192 207.052ZM227.008 208.36H350.736L350.723 208.376C349.021 210.589 348.681 212.951 349.41 215.3L349.462 215.462C349.764 216.373 350.211 217.223 350.748 217.999L350.813 218.09H227.008V208.36Z" fill="#06D0B6"/>
<path fill-rule="evenodd" clip-rule="evenodd" d="M233.646 207.052C233.994 207.052 234.279 207.324 234.298 207.667L234.3 207.706V218.744C234.3 219.106 234.007 219.398 233.646 219.398C233.297 219.398 233.013 219.126 232.993 218.783L232.992 218.744V207.706C232.992 207.345 233.284 207.052 233.646 207.052Z" fill="#06D0B6"/>
<path fill-rule="evenodd" clip-rule="evenodd" d="M241.639 214.086C241.639 214.086 252.987 213.267 252.987 222.112V232.924L256.911 229.301L261.225 232.924V222.112C261.225 222.112 261.258 214.067 252.046 214.067C242.834 214.067 241.639 214.086 241.639 214.086Z" fill="#06D0B6"/>
<path fill-rule="evenodd" clip-rule="evenodd" d="M264.22 213.639C264.581 213.639 264.874 213.932 264.874 214.293C264.874 214.642 264.601 214.926 264.258 214.946L264.22 214.947H241.639C241.278 214.947 240.985 214.655 240.985 214.293C240.985 213.945 241.257 213.66 241.6 213.641L241.639 213.639H264.22Z" fill="#06D0B6"/>
<path fill-rule="evenodd" clip-rule="evenodd" d="M342.917 177.964C343.27 177.886 343.619 178.109 343.697 178.462C343.772 178.802 343.568 179.138 343.237 179.232L343.199 179.241L265.567 196.399V205.619L345.818 205.62C346.166 205.62 346.451 205.892 346.471 206.235L346.472 206.274C346.472 206.622 346.2 206.907 345.856 206.927L345.818 206.928H264.913C264.565 206.928 264.28 206.655 264.26 206.312L264.259 206.274V195.874C264.259 195.58 264.454 195.325 264.734 195.245L264.772 195.235L342.917 177.964Z" fill="#164E63"/>
<path fill-rule="evenodd" clip-rule="evenodd" d="M264.568 197.44C266.28 196.385 268.503 196.717 269.832 198.228C271.16 199.738 271.206 201.986 269.94 203.549C268.675 205.112 266.466 205.536 264.713 204.551C264.398 204.374 264.286 203.975 264.463 203.66C264.64 203.345 265.038 203.233 265.353 203.41C266.551 204.083 268.059 203.794 268.924 202.726C269.788 201.658 269.757 200.123 268.85 199.091C267.942 198.06 266.424 197.833 265.254 198.554C264.947 198.743 264.544 198.647 264.354 198.34C264.165 198.033 264.26 197.63 264.568 197.44Z" fill="#164E63"/>
<path fill-rule="evenodd" clip-rule="evenodd" d="M272.495 194.915C269.422 194.915 266.932 197.405 266.932 200.477C266.932 203.55 269.422 206.04 272.495 206.04C275.567 206.04 278.058 203.55 278.058 200.477C278.058 197.405 275.567 194.915 272.495 194.915ZM272.495 196.222C274.845 196.222 276.75 198.127 276.75 200.477C276.75 202.827 274.845 204.733 272.495 204.733C270.145 204.733 268.24 202.827 268.24 200.477C268.24 198.127 270.145 196.222 272.495 196.222Z" fill="#164E63"/>
<path fill-rule="evenodd" clip-rule="evenodd" d="M341.732 181.357C342.085 181.282 342.432 181.508 342.507 181.861C342.58 182.202 342.373 182.537 342.041 182.627L342.004 182.637L273.897 197.111C273.544 197.186 273.196 196.96 273.121 196.607C273.049 196.266 273.256 195.931 273.588 195.84L273.625 195.831L341.732 181.357Z" fill="#164E63"/>
<path fill-rule="evenodd" clip-rule="evenodd" d="M345.708 185.35C346.064 185.289 346.402 185.528 346.462 185.884C346.521 186.228 346.301 186.554 345.966 186.632L345.928 186.639L274.739 198.807C274.383 198.868 274.045 198.629 273.984 198.273C273.925 197.929 274.146 197.603 274.481 197.525L274.518 197.518L345.708 185.35Z" fill="#164E63"/>
<path fill-rule="evenodd" clip-rule="evenodd" d="M347.641 191.429C348 191.388 348.323 191.646 348.364 192.005C348.403 192.351 348.164 192.665 347.826 192.723L347.787 192.728L276.008 200.829C275.649 200.869 275.325 200.611 275.284 200.252C275.245 199.906 275.484 199.593 275.823 199.534L275.861 199.529L347.641 191.429Z" fill="#164E63"/>
<path fill-rule="evenodd" clip-rule="evenodd" d="M345.808 202.402C346.169 202.397 346.466 202.685 346.472 203.047C346.477 203.395 346.209 203.684 345.866 203.708L345.828 203.71L274.237 204.77C273.876 204.775 273.579 204.487 273.574 204.125C273.569 203.777 273.837 203.488 274.18 203.463L274.218 203.462L345.808 202.402Z" fill="#164E63"/>
<path fill-rule="evenodd" clip-rule="evenodd" d="M347.117 197.202C347.477 197.18 347.787 197.455 347.809 197.815C347.83 198.163 347.576 198.464 347.234 198.504L347.196 198.508L275.717 202.854C275.357 202.876 275.047 202.602 275.025 202.241C275.004 201.894 275.258 201.593 275.599 201.552L275.638 201.549L347.117 197.202Z" fill="#164E63"/>
<path fill-rule="evenodd" clip-rule="evenodd" d="M384.935 239.213C385.296 239.213 385.589 239.506 385.589 239.867C385.589 240.215 385.316 240.5 384.973 240.52L384.935 240.521H-14.9999C-15.361 240.521 -15.6538 240.228 -15.6538 239.867C-15.6538 239.519 -15.3816 239.234 -15.0383 239.214L-14.9999 239.213H384.935Z" fill="#164E63"/>
</g>
<defs>
<clipPath id="clip0_138_955">
<rect width="370" height="320" fill="white"/>
</clipPath>
</defs>
</svg>
