<svg width="370" height="320" viewBox="0 0 370 320" fill="none" xmlns="http://www.w3.org/2000/svg">
<rect width="370" height="320" fill="white"/>
<path fill-rule="evenodd" clip-rule="evenodd" d="M96.4508 119.2C96.8543 119.2 97.1813 119.525 97.1813 119.925C97.1813 120.31 96.8772 120.626 96.4937 120.648L96.4508 120.649H69.9335C51.8191 120.649 37.0902 135.074 36.7975 152.968L36.793 153.511V239.276C36.793 239.676 36.466 240 36.0625 240C35.6735 240 35.3555 239.699 35.3333 239.318L35.332 239.276V153.511C35.332 134.757 50.5208 119.508 69.3615 119.205L69.9335 119.2H96.4508Z" fill="#164E63"/>
<path fill-rule="evenodd" clip-rule="evenodd" d="M134.348 163.557C134.858 163.388 135.41 163.661 135.58 164.167L135.727 164.609L135.959 165.322C136.008 165.475 136.058 165.634 136.11 165.797C136.507 167.046 136.904 168.351 137.274 169.652C137.441 170.239 137.6 170.813 137.748 171.37L137.835 171.702C138.417 173.927 138.802 175.771 138.937 177.127C138.99 177.658 138.599 178.13 138.064 178.183C137.528 178.235 137.052 177.848 136.999 177.317C136.879 176.118 136.529 174.42 135.996 172.364L135.95 172.187C135.781 171.541 135.597 170.869 135.399 170.177C135.08 169.057 134.741 167.931 134.399 166.842L134.252 166.378C134.167 166.109 134.085 165.854 134.008 165.617L133.733 164.779C133.562 164.273 133.837 163.726 134.348 163.557Z" fill="#164E63"/>
<path fill-rule="evenodd" clip-rule="evenodd" d="M170.289 160.394C170.81 160.424 171.211 160.855 171.206 161.367L171.182 161.839C171.167 162.151 171.152 162.508 171.138 162.905L171.133 163.056C170.981 167.511 171.042 172.542 171.47 177.477C171.516 178.008 171.119 178.476 170.583 178.522C170.047 178.568 169.575 178.174 169.529 177.642C169.107 172.773 169.036 167.826 169.173 163.404L169.197 162.687C169.206 162.44 169.215 162.21 169.225 161.996L169.259 161.301C169.29 160.785 169.724 160.387 170.24 160.392L170.289 160.394Z" fill="#164E63"/>
<path fill-rule="evenodd" clip-rule="evenodd" d="M196.945 133.579C197.234 133.3 197.696 133.305 197.978 133.592C198.141 133.757 198.25 133.968 198.353 134.259L198.389 134.366C198.462 134.588 198.535 134.861 198.62 135.222L198.724 135.681C198.819 136.113 199.012 137.007 199.056 137.208C199.423 138.87 199.758 140.145 200.193 141.403C201.793 146.026 204.202 148.572 207.939 148.513C208.342 148.506 208.674 148.825 208.681 149.225C208.687 149.625 208.366 149.955 207.962 149.961C203.442 150.033 200.593 147.022 198.811 141.873C198.373 140.607 198.036 139.34 197.676 137.73L197.26 135.825L197.201 135.565C197.111 135.186 197.04 134.924 196.975 134.741C196.955 134.684 196.937 134.639 196.921 134.605L196.91 134.582C196.905 134.574 196.91 134.58 196.933 134.604C196.651 134.318 196.657 133.859 196.945 133.579Z" fill="#164E63"/>
<path fill-rule="evenodd" clip-rule="evenodd" d="M99.0316 138.492C95.0382 140.231 89.2916 143.635 84.665 150.662C91.1909 148.006 113.617 167.902 129.518 163.386C122.14 162.614 106.288 151.072 99.0316 138.492Z" fill="#164E63"/>
<path fill-rule="evenodd" clip-rule="evenodd" d="M111.672 106.087C112.036 105.915 112.472 106.069 112.645 106.43C112.819 106.791 112.664 107.224 112.299 107.395C103.337 111.62 98.1939 116.803 96.489 122.708C94.9964 127.877 96.1633 133.568 99.6136 139.431C99.873 139.872 99.6037 140.433 99.0953 140.512C97.0577 140.827 94.0898 142.556 90.0941 146.211L89.774 146.506C84.5212 151.381 78.0243 159.094 70.1638 170.107C57.2382 188.196 51.6754 205.018 54.8346 217.302C58.2413 230.55 71.5843 238.13 94.7827 238.527C95.1861 238.534 95.5074 238.864 95.5005 239.264C95.4935 239.664 95.1609 239.983 94.7575 239.976C70.9677 239.569 57.0143 231.642 53.4188 217.66C50.1321 204.879 55.8229 187.671 68.9714 169.27L69.4543 168.595C77.2324 157.754 83.6853 150.138 88.9412 145.295L89.1034 145.146C92.6775 141.877 95.5346 140.038 97.7703 139.341L97.8664 139.311L97.8244 139.236C94.6328 133.438 93.5725 127.744 95.0368 122.477L95.0844 122.309C96.9173 115.961 102.36 110.477 111.672 106.087Z" fill="#164E63"/>
<path fill-rule="evenodd" clip-rule="evenodd" d="M215.976 80.6906C216.327 80.3958 216.858 80.4936 217.082 80.8834L217.108 80.9315L217.252 81.2167C217.367 81.4426 217.507 81.7133 217.673 82.0303L217.992 82.6356C218.492 83.581 219.097 84.7045 219.814 86.0104C219.924 86.2073 220.03 86.2642 220.494 86.3524L220.554 86.3636C221.523 86.542 221.963 86.6823 222.611 87.1473C223.466 87.7617 224.231 88.7862 224.954 90.3598L224.973 90.4046L224.988 90.4505L240.256 140.552L240.267 140.594L240.406 141.173C242.143 148.465 243.045 153.956 243.156 158.993L243.16 159.192C243.275 165.629 242.008 170.908 239.053 175.155C232.259 184.921 216.706 188.887 189.898 186.469L189.533 186.435L189.509 186.45C189.415 186.502 189.308 186.534 189.195 186.541L189.152 186.542C188.763 186.542 188.445 186.24 188.422 185.86L188.421 185.817V185.673C188.421 185.245 188.792 184.911 189.221 184.951C216.057 187.48 231.365 183.656 237.85 174.332C240.612 170.363 241.81 165.376 241.699 159.218C241.611 154.315 240.744 148.942 239.05 141.786L238.851 140.951L223.604 90.9182L223.567 90.8379C222.98 89.5884 222.399 88.8077 221.81 88.3625L221.753 88.3204C221.364 88.0406 221.099 87.9443 220.456 87.8198L220.287 87.7879C219.383 87.6214 218.92 87.397 218.534 86.7084L217.967 85.672C217.426 84.6769 216.959 83.8051 216.563 83.0524L216.268 82.49L216.2 82.3584L216.155 82.3912C213.997 83.9432 211.249 84.9419 208.045 85.4718L207.848 85.5037C204.312 86.0643 200.553 86.0275 196.999 85.6303C196.681 85.5948 196.381 85.5579 196.099 85.5203L195.695 85.4642L195.674 85.8514C195.656 86.2163 195.637 86.6306 195.619 87.0971L195.581 88.146L195.549 89.2144C195.543 89.4384 195.537 89.6686 195.531 89.9051C195.491 91.5338 194.957 92.4445 193.623 93.7138L193.26 94.0532C191.774 95.4352 191.299 96.3391 191.476 98.3549L191.483 98.4311L198.173 133.965C198.266 134.459 197.837 134.89 197.344 134.814L197.303 134.806L178.699 130.871C178.41 130.809 178.187 130.581 178.133 130.293C177.43 126.492 176.303 122.672 174.709 119.14C172.725 114.745 170.127 111.043 166.858 108.256C166.552 107.995 166.517 107.538 166.78 107.235C167.043 106.931 167.504 106.897 167.81 107.157C171.257 110.095 173.976 113.971 176.042 118.548C177.592 121.98 178.709 125.662 179.438 129.341L179.479 129.554L196.536 133.163L190.038 98.6486L190.032 98.601C189.892 97.167 190.083 96.0191 190.579 95.0463C190.945 94.3285 191.369 93.8328 192.167 93.084L192.454 92.8173C193.627 91.7271 194.023 91.1157 194.068 89.9501L194.095 88.9515C194.101 88.7302 194.108 88.5151 194.114 88.3061L194.147 87.3578C194.176 86.5583 194.207 85.8959 194.238 85.3593L194.268 84.881L194.293 84.5569C194.331 84.1467 194.705 83.8537 195.112 83.905L195.428 83.958C195.505 83.9704 195.589 83.9835 195.68 83.9973C196.114 84.0631 196.611 84.129 197.162 84.1906C200.596 84.5745 204.231 84.61 207.617 84.0731C211.058 83.5276 213.908 82.4271 215.976 80.6906Z" fill="#164E63"/>
<path fill-rule="evenodd" clip-rule="evenodd" d="M191.551 217.738C191.94 217.732 192.263 218.029 192.291 218.409L192.293 218.451L192.61 239.096C192.616 239.496 192.294 239.825 191.89 239.831C191.501 239.837 191.179 239.54 191.151 239.16L191.149 239.118L190.832 218.473C190.826 218.073 191.148 217.744 191.551 217.738Z" fill="#164E63"/>
<path fill-rule="evenodd" clip-rule="evenodd" d="M187.521 131.997C184.574 130.79 180.678 130.331 178.097 129.921C178.657 132.915 178.803 135.522 178.73 137.285C178.17 150.01 173.154 154.96 171.961 159.644C187.399 154.018 188.592 139.096 187.521 131.997Z" fill="#164E63"/>
<path fill-rule="evenodd" clip-rule="evenodd" d="M164.412 206.341C164.095 209.021 163.462 210.156 157.131 213.392C155.5 214.213 152.091 215.999 147.537 218.269C148.487 229.883 149.022 238.431 149.022 238.431L168.04 238.696C168.04 238.696 167.504 219.283 167.115 199.556C165.994 201.705 164.607 204.724 164.412 206.341Z" fill="#06D0B6"/>
<path fill-rule="evenodd" clip-rule="evenodd" d="M166.628 161.455C166.871 151.048 162.853 140.834 158.957 134.025C158.324 143.515 156.303 154.525 154.112 158.123C143.885 151.096 136.214 147.064 130.078 143.853C126.206 137.671 122.943 132.142 121.531 128.134C121.555 127.53 121.58 126.902 121.58 126.299C121.336 126.323 121.117 126.347 120.922 126.371C122.627 131.949 126.304 139.869 133.925 150.493C135.386 152.183 136.823 154.09 138.187 156.191V156.191V156.191C140.013 159.016 141.669 167.008 143.105 176.956C151.579 175.797 158.129 175.556 159.322 177.342L166.676 178.743C166.408 164.835 166.506 167.153 166.628 161.455Z" fill="#06D0B6"/>
<path fill-rule="evenodd" clip-rule="evenodd" d="M176.27 195.973C176.666 195.893 177.052 196.146 177.132 196.538C177.21 196.916 176.976 197.285 176.605 197.383L176.563 197.393L165.265 199.686C164.87 199.767 164.484 199.514 164.403 199.122C164.325 198.744 164.559 198.375 164.93 198.277L164.972 198.267L176.27 195.973Z" fill="#164E63"/>
<path fill-rule="evenodd" clip-rule="evenodd" d="M167.701 177.745C174.733 175.434 180.73 176.863 185.597 181.096C189.037 184.087 191.648 188.31 192.933 191.928L193.014 192.16C194.211 195.645 195.752 202.403 195.938 204.831L196.095 206.923C196.137 207.488 196.174 208.001 196.209 208.522L196.254 209.185C196.354 210.715 196.43 212.133 196.481 213.484L196.496 213.919C196.583 216.501 196.561 218.638 196.407 220.255L196.385 220.476C196.15 222.718 195.676 223.94 194.529 224.014C193.299 224.09 192.364 222.588 191.251 219.692C190.516 217.779 189.777 215.36 189.151 212.97C189.049 212.583 189.284 212.188 189.674 212.087C190.064 211.986 190.463 212.219 190.565 212.606C191.179 214.949 191.903 217.321 192.616 219.176L192.725 219.454C193.121 220.457 193.5 221.259 193.849 221.82C194.024 222.102 194.186 222.313 194.325 222.447L194.373 222.491L194.409 222.521L194.427 222.493C194.468 222.426 194.511 222.336 194.554 222.224L194.575 222.166C194.739 221.711 194.867 221.017 194.952 220.119C195.108 218.488 195.122 216.257 195.021 213.538L194.998 212.961C194.949 211.797 194.881 210.579 194.796 209.278L194.752 208.621C194.725 208.232 194.698 207.847 194.668 207.442L194.474 204.856C194.265 202.436 192.709 195.664 191.555 192.409C190.347 189.009 187.865 184.995 184.634 182.185C180.096 178.24 174.569 176.95 167.959 179.187L167.928 179.197L167.897 179.205L156.817 181.885C156.425 181.98 156.03 181.742 155.935 181.353C155.842 180.979 156.062 180.601 156.43 180.489L156.471 180.478L167.52 177.805L167.701 177.745Z" fill="#164E63"/>
<path fill-rule="evenodd" clip-rule="evenodd" d="M176.299 193.763C176.338 193.365 176.695 193.074 177.097 193.113C177.499 193.152 177.792 193.506 177.753 193.904L177.738 194.042C177.718 194.229 177.691 194.434 177.655 194.674L177.568 195.241C177.513 195.587 177.41 196.223 177.381 196.405L177.327 196.756C177.109 198.189 176.999 199.267 176.991 200.342C176.977 202.052 177.247 203.46 177.861 204.568C178.055 204.918 177.926 205.359 177.572 205.551C177.219 205.744 176.775 205.616 176.58 205.265C175.829 203.909 175.514 202.267 175.53 200.331C175.54 199.129 175.663 197.949 175.909 196.366L176.153 194.839L176.209 194.473C176.25 194.191 176.279 193.964 176.299 193.763Z" fill="#164E63"/>
<path fill-rule="evenodd" clip-rule="evenodd" d="M191.964 203.98C192.35 204.025 192.631 204.361 192.608 204.741L192.602 204.8L192.588 204.914C192.575 205.017 192.559 205.136 192.539 205.27L192.496 205.563C192.451 205.863 192.399 206.187 192.339 206.528C192.111 207.831 191.823 209.134 191.47 210.355L191.392 210.621C190.433 213.822 189.199 215.872 187.44 216.271C185.494 216.712 184.14 216.163 183.417 214.965C183.231 214.656 183.104 214.331 183.024 214.006C182.975 213.807 182.951 213.645 182.944 213.537C182.917 213.138 183.221 212.793 183.624 212.766C184.012 212.739 184.349 213.019 184.398 213.397L184.402 213.439C184.404 213.469 184.415 213.549 184.443 213.661C184.491 213.854 184.565 214.046 184.671 214.221C185.064 214.873 185.777 215.162 187.114 214.859C188.187 214.615 189.242 212.804 190.065 209.956C190.403 208.79 190.679 207.535 190.899 206.28L190.955 205.957C190.999 205.692 191.038 205.441 191.073 205.206L191.113 204.921L191.153 204.615C191.2 204.218 191.563 203.933 191.964 203.98Z" fill="#164E63"/>
<path fill-rule="evenodd" clip-rule="evenodd" d="M187.934 203.627C188.329 203.707 188.584 204.09 188.504 204.482L188.479 204.596C188.46 204.686 188.436 204.79 188.409 204.906C188.332 205.237 188.24 205.604 188.133 206C187.827 207.131 187.463 208.263 187.038 209.325L186.935 209.58C185.769 212.404 184.388 214.197 182.616 214.47C180.697 214.764 179.397 214.167 178.737 212.977C178.552 212.643 178.434 212.29 178.369 211.939C178.33 211.725 178.316 211.552 178.316 211.436C178.316 211.036 178.643 210.711 179.046 210.711C179.435 210.711 179.753 211.013 179.776 211.393L179.778 211.466C179.781 211.51 179.789 211.583 179.806 211.678C179.845 211.885 179.913 212.092 180.017 212.279C180.375 212.923 181.068 213.241 182.392 213.038C183.512 212.866 184.676 211.302 185.68 208.791C186.082 207.787 186.43 206.706 186.722 205.625L186.796 205.346C186.856 205.118 186.909 204.902 186.958 204.699L187.015 204.454L187.072 204.192C187.153 203.8 187.539 203.547 187.934 203.627Z" fill="#164E63"/>
<path fill-rule="evenodd" clip-rule="evenodd" d="M173.047 203.307C174.575 202.029 176.56 202.565 178.521 205.667C178.735 206.006 178.632 206.453 178.29 206.665C177.948 206.878 177.497 206.775 177.283 206.436C176.404 205.046 175.624 204.347 174.984 204.174C174.602 204.071 174.284 204.168 173.99 204.415C173.934 204.461 173.886 204.507 173.846 204.549L173.826 204.57L173.828 204.598C173.831 204.642 173.837 204.692 173.845 204.749L173.853 204.807C173.9 205.099 174.001 205.446 174.17 205.848C174.65 206.991 175.578 208.352 177.071 209.926C177.841 210.738 178.39 210.789 179.016 210.284C179.655 209.768 180.294 208.714 180.877 207.297C181.204 206.501 181.492 205.643 181.738 204.784L181.809 204.532C181.854 204.368 181.896 204.211 181.933 204.064L181.991 203.832L182.035 203.649C182.122 203.258 182.512 203.012 182.906 203.099C183.286 203.183 183.53 203.545 183.469 203.921L183.458 203.975L183.411 204.172C183.401 204.214 183.39 204.258 183.379 204.304L183.319 204.538C183.266 204.739 183.208 204.954 183.143 205.18C182.884 206.086 182.579 206.993 182.23 207.843C181.562 209.468 180.814 210.7 179.938 211.407C178.705 212.403 177.291 212.273 176.006 210.918C174.4 209.223 173.373 207.719 172.821 206.405C172.454 205.53 172.334 204.84 172.368 204.347L172.372 204.29C172.376 204.246 172.382 204.21 172.387 204.181C172.404 204.091 172.438 204.005 172.487 203.928C172.595 203.756 172.78 203.531 173.047 203.307Z" fill="#164E63"/>
<path fill-rule="evenodd" clip-rule="evenodd" d="M164.558 204.651C155.938 197.721 153.04 180.288 156.668 176.473C156.814 175.266 159.615 177.294 161.295 177.487C165.361 177.946 167.114 178.067 167.114 178.067C165.459 183.089 167.309 189.174 169.184 193.496C170.28 196.079 171.424 198.107 171.985 199.049C171.668 199.218 170.353 199.846 167.236 201.198C165.459 201.995 165.093 203.323 164.558 204.651Z" fill="#164E63"/>
<path fill-rule="evenodd" clip-rule="evenodd" d="M96.2204 177.766C98.832 176.903 102.3 176.395 105.347 176.669C109.572 177.049 112.752 178.846 114.288 182.341C114.449 182.708 114.28 183.134 113.91 183.294C113.54 183.454 113.11 183.286 112.949 182.92C111.653 179.973 108.955 178.448 105.215 178.112C102.386 177.858 99.115 178.336 96.6824 179.14C96.2997 179.267 95.886 179.062 95.7584 178.682C95.6308 178.303 95.8377 177.892 96.2204 177.766Z" fill="#164E63"/>
<path fill-rule="evenodd" clip-rule="evenodd" d="M127.843 178.822C146.7 175.127 158.027 174.078 159.933 176.944C159.948 176.966 159.961 176.988 159.973 177.012L159.99 177.047L168.951 196.943C169.038 197.136 169.035 197.356 168.946 197.546L168.918 197.598L168.759 197.889L168.642 198.106C168.541 198.292 168.433 198.495 168.319 198.711C167.865 199.574 167.41 200.475 166.986 201.368C166.772 201.82 166.57 202.258 166.385 202.68C165.681 204.281 165.233 205.569 165.122 206.383L165.114 206.45C164.738 209.631 163.557 210.908 157.799 213.876L157.225 214.172C155.935 214.848 150.381 217.81 148.017 219.044C142.48 221.932 137.166 224.572 131.745 227.072C125.504 229.952 119.519 232.458 113.842 234.519C106.473 237.194 99.8044 239.053 93.9597 239.967C93.5612 240.029 93.1871 239.76 93.1243 239.364C93.0614 238.969 93.3335 238.598 93.732 238.536C99.4715 237.638 106.053 235.804 113.339 233.159C118.975 231.113 124.922 228.622 131.129 225.759C136.291 223.377 141.359 220.868 146.619 218.136L147.92 217.456C150.714 215.99 156.153 213.088 156.773 212.772L157.271 212.516C162.397 209.869 163.321 208.902 163.643 206.439L163.662 206.282C163.779 205.289 164.267 203.871 165.045 202.101C165.237 201.666 165.444 201.215 165.664 200.751C166.097 199.838 166.561 198.92 167.024 198.04L167.226 197.659L167.47 197.207L158.685 177.702L158.672 177.685C157.944 176.789 154.462 176.512 148.903 177.003L148.559 177.034C143.286 177.522 136.338 178.634 128.126 180.243C125.312 180.795 122.385 181.398 119.371 182.044C114.288 183.135 109.187 184.298 104.287 185.467L102.773 185.829C101.293 186.186 99.9265 186.519 98.6928 186.825L97.8645 187.031L96.6331 187.34C96.2423 187.44 95.8442 187.206 95.7438 186.819C95.647 186.445 95.8624 186.065 96.2283 185.949L96.2844 185.933L98.0932 185.48L99.6191 185.104C100.589 184.866 101.628 184.614 102.727 184.35L103.028 184.278C108.217 183.034 113.649 181.789 119.063 180.628C122.084 179.98 125.02 179.375 127.843 178.822Z" fill="#164E63"/>
<path fill-rule="evenodd" clip-rule="evenodd" d="M121.975 113.961L122.018 113.961C122.421 113.974 122.738 114.308 122.725 114.708L122.308 127.482L122.291 128.021L122.321 128.105C123.548 131.486 126.03 135.957 130.449 143.032L130.619 143.304L131.782 143.915C140.16 148.327 145.745 151.564 153.098 156.537L153.879 157.067L153.935 156.95C155.769 153.047 157.564 143.578 158.214 134.548L158.253 133.978C158.28 133.578 158.628 133.276 159.031 133.303C159.433 133.329 159.738 133.674 159.711 134.073C159.036 144.188 156.936 154.929 154.762 158.497C154.544 158.855 154.068 158.956 153.721 158.718L153.144 158.323C145.014 152.78 139.192 149.428 129.762 144.493C129.647 144.433 129.551 144.344 129.483 144.235L128.787 143.12C124.483 136.198 122.075 131.802 120.867 128.373C120.837 128.289 120.823 128.2 120.826 128.111L121.264 114.662C121.277 114.276 121.591 113.971 121.975 113.961Z" fill="#164E63"/>
<path fill-rule="evenodd" clip-rule="evenodd" d="M118.81 96.2649C119.211 96.2277 119.567 96.5205 119.605 96.9188C119.642 97.3171 119.347 97.6702 118.945 97.7074C117.373 97.8529 115.74 98.2957 114.44 99.1751C112.581 100.433 111.769 102.374 112.362 105.296C112.831 107.638 114.036 108.908 115.869 109.381C117.337 109.76 119.137 109.609 121.045 109.085C121.433 108.978 121.836 109.204 121.943 109.59C122.051 109.975 121.823 110.375 121.434 110.481C119.301 111.067 117.263 111.238 115.501 110.783C113.125 110.17 111.506 108.465 110.929 105.58C110.22 102.086 111.275 99.5626 113.617 97.9783C115.162 96.9332 117.013 96.4312 118.81 96.2649Z" fill="#164E63"/>
<path fill-rule="evenodd" clip-rule="evenodd" d="M167.093 82.7947C167.493 82.7431 167.86 83.0228 167.912 83.4195C169.068 92.2183 168.832 102.369 167.596 111.856C167.544 112.253 167.178 112.533 166.778 112.482C166.377 112.43 166.095 112.067 166.147 111.67C167.368 102.298 167.601 92.2685 166.463 83.6066C166.411 83.2099 166.693 82.8464 167.093 82.7947Z" fill="#164E63"/>
<path fill-rule="evenodd" clip-rule="evenodd" d="M166.147 111.645C166.199 111.248 166.566 110.969 166.966 111.021C167.366 111.073 167.648 111.437 167.595 111.833L167.493 112.589C167.092 115.502 166.643 118.1 166.197 120.127C166.111 120.518 165.721 120.766 165.327 120.68C164.933 120.595 164.683 120.209 164.769 119.818L164.845 119.472C165.295 117.361 165.748 114.658 166.147 111.645Z" fill="#164E63"/>
<path fill-rule="evenodd" clip-rule="evenodd" d="M124.205 98.0024L118.848 98.3887C118.42 98.4196 118.115 98.8062 118.179 99.2207L118.202 99.3322L118.801 102.089L119.014 103.061C119.557 105.531 120.107 108 120.64 110.346L120.958 111.736L121.347 113.423C122.295 117.504 123.047 120.537 123.542 122.208L123.608 122.428C125.328 128.106 126.823 130.173 132.817 134.445C136.247 136.889 141.445 138.535 146.461 138.688C152.197 138.864 157.165 137.137 160.319 133.43C162.314 131.079 163.885 127.97 165.091 124.288C166.063 121.32 166.745 118.148 167.19 114.977C167.345 113.868 167.46 112.837 167.54 111.911L167.56 111.675C167.57 111.56 167.578 111.45 167.586 111.345L167.611 110.984L167.625 110.734C167.64 110.402 167.425 110.102 167.104 110.007C165.664 109.582 163.292 109.283 160.317 109.08C159.422 109.018 158.522 108.969 157.648 108.931L157.213 108.913C156.902 108.901 156.611 108.891 156.344 108.882L155.759 108.866L155.732 108.866C149.471 108.959 143.553 109.642 138.143 110.722C136.188 111.112 134.431 111.529 132.892 111.948L132.523 112.05C132.225 112.132 131.948 112.212 131.692 112.288L131.437 112.364L131.421 112.31C130.114 107.874 126.348 99.7972 124.779 98.2167C124.628 98.0653 124.419 97.987 124.205 98.0024ZM123.949 99.4734L123.974 99.5056C125.585 101.562 129.292 109.705 130.221 113.457C130.32 113.857 130.732 114.091 131.126 113.983L131.487 113.866L131.645 113.817C132.047 113.692 132.522 113.554 133.065 113.404L133.496 113.286C134.951 112.896 136.603 112.507 138.432 112.142L138.796 112.07C143.902 111.072 149.462 110.434 155.334 110.322L155.737 110.315L156.169 110.326C156.466 110.335 156.797 110.347 157.155 110.361C158.151 110.401 159.188 110.454 160.217 110.525L160.751 110.563C162.927 110.725 164.74 110.943 165.992 111.219L166.128 111.25L166.104 111.558C166.098 111.632 166.092 111.709 166.085 111.787L166.047 112.211C165.972 113 165.872 113.861 165.743 114.777C165.31 117.87 164.645 120.962 163.702 123.841C162.549 127.36 161.059 130.308 159.202 132.497C156.369 135.826 151.831 137.404 146.507 137.24C141.772 137.095 136.856 135.539 133.67 133.268L133.331 133.026C127.995 129.189 126.656 127.35 125.104 122.328L124.964 121.869C124.453 120.155 123.634 116.839 122.597 112.347L122.31 111.099L122.066 110.027C121.656 108.225 121.237 106.35 120.818 104.459L120.178 101.547L119.792 99.7733L123.949 99.4734Z" fill="#164E63"/>
<path fill-rule="evenodd" clip-rule="evenodd" d="M151.726 122.267C151.726 122.267 155.695 121.47 157.326 123.063Z" fill="#F1F5F9"/>
<path fill-rule="evenodd" clip-rule="evenodd" d="M152.28 121.448C153.163 121.338 154.078 121.304 154.946 121.394C156.158 121.52 157.151 121.875 157.839 122.547C158.126 122.828 158.13 123.287 157.847 123.572C157.564 123.857 157.101 123.86 156.814 123.579C156.404 123.179 155.707 122.929 154.794 122.835C154.053 122.758 153.244 122.788 152.463 122.885C152.332 122.902 152.211 122.919 152.101 122.937L151.903 122.97C151.889 122.973 151.879 122.975 151.871 122.976C151.475 123.056 151.09 122.802 151.01 122.41C150.93 122.018 151.185 121.636 151.581 121.556L151.739 121.527C151.877 121.503 152.06 121.476 152.28 121.448Z" fill="#164E63"/>
<path fill-rule="evenodd" clip-rule="evenodd" d="M156.708 103.22C157.095 103.177 157.445 103.441 157.51 103.816L157.516 103.859L158.977 116.656C159.033 117.146 158.59 117.543 158.11 117.448L158.069 117.439L153.54 116.28C153.149 116.18 152.914 115.785 153.015 115.397C153.112 115.024 153.486 114.794 153.863 114.867L153.905 114.877L157.406 115.773L156.065 104.021C156.021 103.638 156.287 103.291 156.666 103.226L156.708 103.22Z" fill="#164E63"/>
<path fill-rule="evenodd" clip-rule="evenodd" d="M161.539 107.417C162.265 107.417 162.854 106.509 162.854 105.389C162.854 104.269 162.265 103.361 161.539 103.361C160.813 103.361 160.224 104.269 160.224 105.389C160.224 106.509 160.813 107.417 161.539 107.417Z" fill="#164E63"/>
<path fill-rule="evenodd" clip-rule="evenodd" d="M148.829 107.176C149.555 107.176 150.143 106.268 150.143 105.147C150.143 104.027 149.555 103.119 148.829 103.119C148.102 103.119 147.514 104.027 147.514 105.147C147.514 106.268 148.102 107.176 148.829 107.176Z" fill="#164E63"/>
<path fill-rule="evenodd" clip-rule="evenodd" d="M143.88 92.8281C145.269 91.8191 146.966 91.318 148.936 91.6097C149.335 91.6688 149.61 92.0375 149.55 92.4331C149.491 92.8288 149.119 93.1016 148.72 93.0425C147.158 92.8113 145.839 93.2007 144.743 93.9968C144.434 94.2212 144.168 94.4614 143.947 94.7L143.876 94.7783C143.81 94.8518 143.761 94.911 143.73 94.9518L143.705 94.9864C143.474 95.3144 143.018 95.3946 142.687 95.1656C142.357 94.9365 142.276 94.4849 142.507 94.1569C142.576 94.0589 142.697 93.9069 142.872 93.7188C143.155 93.414 143.491 93.1108 143.88 92.8281Z" fill="#164E63"/>
<path fill-rule="evenodd" clip-rule="evenodd" d="M161.208 91.3465C161.958 91.23 162.756 91.2262 163.525 91.4146C164.822 91.7325 165.797 92.5562 166.231 93.9474C166.35 94.3297 166.134 94.7353 165.748 94.8533C165.363 94.9714 164.954 94.7573 164.835 94.3751C164.562 93.4986 163.998 93.0231 163.174 92.821C162.621 92.6856 162.009 92.6885 161.434 92.7778L161.343 92.7926C161.273 92.8048 161.217 92.816 161.178 92.8248L161.139 92.8341C160.748 92.9348 160.349 92.7025 160.248 92.3153C160.146 91.9281 160.381 91.5326 160.771 91.432C160.862 91.4085 161.011 91.377 161.208 91.3465Z" fill="#164E63"/>
<path fill-rule="evenodd" clip-rule="evenodd" d="M175.589 81.4365C175.272 80.4948 175.637 79.36 176.295 78.2251L176.124 78.032L175.296 80.3258C175.296 80.3258 172.715 81.4365 171.863 78.1527C171.595 77.1386 172.204 75.9313 173.154 74.724L173.129 74.6999C169.55 75.5208 162.513 76.873 161.88 75.4725C160.979 73.4926 173.641 68.2289 177.512 66.5629C179.485 65.6936 186.327 63.8344 190.028 63.3032C191.538 63.0859 194.265 62.8927 197.382 63.2066C197.65 61.0335 197.285 58.8363 196.116 56.7115C194.923 54.5142 192.415 51.2788 190.199 50.0956C168.211 38.5299 157.497 58.0636 157.497 58.0636C157.497 58.0636 154.404 49.661 144.372 49.3713C140.281 49.2505 136.288 50.8441 133.39 53.7174C125.184 61.8786 130.663 71.1022 130.663 71.1022C130.663 71.1022 126.84 69.1706 121.678 71.6334C115.517 74.5792 112.424 81.5089 114.032 88.1006C115.736 95.1028 118.877 101.767 118.877 101.767C138.893 104.833 144.007 85.3481 141.06 82.8369C145.492 86.0966 153.479 88.2697 166.993 86.9175C170.086 86.6036 173.884 85.3963 177.756 83.5613C176.977 83.4889 176.124 83.0059 175.589 81.4365Z" fill="#164E63"/>
<path fill-rule="evenodd" clip-rule="evenodd" d="M194.162 78.8742C194.54 78.781 194.922 78.9974 195.036 79.361L195.047 79.402L198.053 91.3678L215.389 86.2711C215.762 86.1615 216.153 86.3609 216.283 86.7192L216.297 86.7597C216.407 87.1295 216.206 87.5176 215.845 87.6468L215.804 87.6601L197.736 92.9721C197.351 93.0853 196.949 92.8689 196.831 92.4935L196.82 92.4527L193.63 79.7521C193.532 79.3639 193.771 78.9709 194.162 78.8742Z" fill="#164E63"/>
<path fill-rule="evenodd" clip-rule="evenodd" d="M189.922 62.5864C193.814 62.0182 199.034 62.2458 203.511 63.7203C209.954 65.8424 214.257 70.2463 215.431 77.3197L215.459 77.4946L218.03 87.0198C218.129 87.385 217.927 87.7613 217.573 87.8881L217.532 87.9017L200.341 92.9481C199.954 93.0616 199.547 92.8427 199.433 92.4591C199.322 92.0892 199.524 91.7013 199.885 91.5722L199.926 91.5589L216.435 86.7126L214.038 77.8328C214.034 77.8201 214.031 77.8074 214.029 77.7946L214.021 77.756C212.99 71.1318 209.068 67.0772 203.05 65.0951C198.884 63.7228 193.981 63.4895 190.315 63.9941L190.133 64.0199C186.737 64.5073 180.005 66.2831 177.872 67.1974L175.436 68.2424C175.177 68.3544 174.926 68.4633 174.672 68.5736L174.082 68.8318C172.817 69.3866 171.65 69.9131 170.538 70.4338C169.535 70.9032 168.608 71.3542 167.76 71.7866L167.442 71.95C165.82 72.7885 164.546 73.5356 163.682 74.17C163.204 74.5204 162.866 74.827 162.682 75.07C162.665 75.0932 162.649 75.115 162.636 75.1353L162.608 75.1785L162.651 75.1956C162.831 75.2615 163.103 75.3104 163.453 75.3354C164.159 75.3857 165.131 75.3372 166.314 75.1996C168.257 74.9739 170.66 74.5225 172.964 73.994C173.357 73.9038 173.75 74.1467 173.841 74.5365C173.932 74.9263 173.687 75.3153 173.294 75.4055C171.028 75.925 168.671 76.3713 166.709 76.6117L166.484 76.6385C163.446 76.9915 161.71 76.8678 161.213 75.7703C160.551 74.3144 162.564 72.8171 166.958 70.5667L167.092 70.4983C167.955 70.0579 168.897 69.5998 169.914 69.1238L170.436 68.8805C171.49 68.3929 172.595 67.898 173.786 67.3778L175.01 66.8463L177.364 65.8369C179.697 64.8604 186.444 63.0856 189.922 62.5864Z" fill="#164E63"/>
<path fill-rule="evenodd" clip-rule="evenodd" d="M198.807 76.5325C199.145 76.3133 199.598 76.407 199.819 76.7417C200.04 77.0764 199.945 77.5254 199.608 77.7445C198.406 78.5245 195.849 79.78 193.386 80.7596C190.239 82.0115 187.516 82.7386 185.65 82.6917C185.247 82.6816 184.929 82.3492 184.939 81.9493C184.949 81.5494 185.284 81.2334 185.687 81.2435C187.3 81.284 189.868 80.5982 192.842 79.415L193.247 79.2518C195.498 78.3323 197.76 77.2127 198.807 76.5325Z" fill="#164E63"/>
<path fill-rule="evenodd" clip-rule="evenodd" d="M179.869 68.9076C180.096 69.2382 180.01 69.6888 179.677 69.9141L179.468 70.0583L179.369 70.1284C179.119 70.3051 178.84 70.5078 178.54 70.7332C177.681 71.377 176.823 72.0716 176.024 72.789C175.029 73.6826 174.199 74.5471 173.593 75.3504C172.755 76.4615 172.409 77.3754 172.57 77.9951C172.823 78.9642 173.228 79.4749 173.729 79.6849C174.075 79.8296 174.468 79.8292 174.841 79.735C174.877 79.7258 174.911 79.7163 174.941 79.7069L175.011 79.6832C175.382 79.5269 175.811 79.6987 175.969 80.0669C176.126 80.4352 175.953 80.8604 175.582 81.0168C175.498 81.0521 175.369 81.0966 175.201 81.1389C174.546 81.3044 173.843 81.305 173.161 81.0195C172.215 80.6235 171.518 79.7425 171.155 78.3574C170.856 77.204 171.345 75.9119 172.423 74.4827C173.093 73.5947 173.984 72.6663 175.043 71.7152C175.877 70.9663 176.768 70.2455 177.659 69.5776L177.888 69.4067C178.038 69.2957 178.182 69.1907 178.32 69.0921L178.625 68.875L178.854 68.7169C179.187 68.4916 179.642 68.577 179.869 68.9076Z" fill="#164E63"/>
<path fill-rule="evenodd" clip-rule="evenodd" d="M181.974 72.1892C182.22 72.4871 182.186 72.9205 181.906 73.1784L181.864 73.2142L181.726 73.3288L181.629 73.4107C181.431 73.5785 181.21 73.7712 180.972 73.9857C180.292 74.5987 179.612 75.2611 178.979 75.9466C178.158 76.8348 177.481 77.6943 176.997 78.4919C176.305 79.6329 176.061 80.5635 176.28 81.2027C176.577 82.0646 176.972 82.5411 177.428 82.7481C177.798 82.916 178.217 82.9063 178.623 82.7798L178.698 82.7551C178.754 82.7353 178.796 82.718 178.82 82.707L178.832 82.7012C179.19 82.5167 179.631 82.655 179.817 83.01C180.003 83.3649 179.863 83.8023 179.505 83.9867C179.408 84.0368 179.257 84.1007 179.061 84.1619C178.341 84.3864 177.567 84.4043 176.82 84.0654C175.974 83.6816 175.316 82.8886 174.897 81.6702C174.507 80.534 174.852 79.2159 175.745 77.7448C176.286 76.854 177.02 75.922 177.901 74.9683C178.567 74.2472 179.278 73.5544 179.99 72.9135L180.199 72.7267C180.335 72.6059 180.465 72.4927 180.588 72.3876L180.732 72.265L180.946 72.0865C181.259 71.8334 181.719 71.8794 181.974 72.1892Z" fill="#164E63"/>
<path fill-rule="evenodd" clip-rule="evenodd" d="M183.689 76.1502C183.997 75.8924 184.458 75.9314 184.718 76.2373C184.978 76.5432 184.939 77.0002 184.63 77.258L184.505 77.3657L184.441 77.4214C184.285 77.5576 184.111 77.714 183.923 77.8878C183.386 78.3846 182.849 78.9199 182.35 79.4715C181.749 80.1357 181.246 80.7773 180.873 81.3728L180.785 81.516C179.833 83.093 179.969 83.9156 181.409 84.3122C184.249 85.0945 186.152 85.1297 187.291 84.753C187.366 84.7281 187.431 84.7031 187.487 84.6787L187.515 84.6663L187.524 84.6439C187.624 84.3679 187.645 84.0921 187.553 83.8513L187.532 83.8003C187.263 83.2132 186.304 82.7432 184.323 82.5935C183.921 82.5631 183.62 82.2151 183.65 81.8162C183.681 81.4173 184.032 81.1186 184.434 81.149C186.891 81.3347 188.331 82.0398 188.862 83.202C189.159 83.85 189.123 84.5168 188.898 85.1359C188.832 85.3168 188.763 85.4565 188.709 85.548C188.664 85.623 188.606 85.6894 188.537 85.744C188.388 85.8628 188.131 86.0021 187.753 86.1272C186.315 86.6032 184.12 86.5626 181.018 85.7081C178.374 84.9798 178.143 82.9851 179.632 80.6083C180.055 79.9322 180.609 79.2265 181.263 78.504C181.793 77.9177 182.36 77.3528 182.926 76.8287L183.119 76.6513C183.182 76.5942 183.243 76.5393 183.303 76.4865L183.576 76.2466C183.625 76.2039 183.663 76.1715 183.689 76.1502Z" fill="#164E63"/>
<path fill-rule="evenodd" clip-rule="evenodd" d="M192.585 93.6539C196.043 98.1933 219.443 94.7646 223.29 88.8973C221.44 86.3861 219.979 87.8107 219.151 86.3378C217.203 82.7885 216.424 81.219 216.424 81.219C212.357 84.6477 205.978 85.2513 201.229 85.1547C198.405 85.1306 196.067 84.8408 194.971 84.6959C194.947 85.0581 194.85 86.5069 194.752 89.8631C194.728 91.8189 193.632 92.6881 192.585 93.6539Z" fill="#164E63"/>
<path fill-rule="evenodd" clip-rule="evenodd" d="M320.35 171.837H225.676C224.434 171.837 223.363 172.682 223.071 173.89L209.897 229.135H175.588C175.588 229.135 173.689 238.865 184.768 238.865H305.642C306.884 238.865 307.955 238.02 308.248 236.813L322.955 175.097C323.345 173.431 322.078 171.837 320.35 171.837Z" fill="#164E63"/>
<path fill-rule="evenodd" clip-rule="evenodd" d="M312.533 195.307C306.543 195.307 301.844 190.236 302.331 184.321C302.696 179.95 302.745 177.246 303.207 175.218C303.84 172.417 309.271 168.578 315.626 163.942C318.962 161.527 321.275 159.258 322.566 157.157C323.856 155.056 324.514 152.473 324.514 149.382C324.514 145.567 323.296 142.549 320.837 140.352C318.402 138.154 315.431 137.068 311.949 137.068C305.034 137.068 300.407 140.69 298.021 147.957C296.438 152.787 291.544 155.732 286.479 155.032V155.032C279.734 154.09 275.716 147.136 278.224 140.859C280.489 135.184 283.727 130.549 287.94 126.927C294.928 120.939 303.5 117.945 313.58 117.945C323.881 117.945 332.525 120.89 339.489 126.758C346.453 132.649 349.96 140.11 349.96 149.141C349.96 160.344 344.164 169.713 332.549 177.246C327.509 180.554 324.441 183.137 323.369 184.997C323.004 185.624 322.712 186.421 322.468 187.411C321.397 192.023 317.306 195.307 312.533 195.307V195.307ZM313.921 225.561H312.996C306.495 225.561 301.211 220.322 301.211 213.875V213.875C301.211 207.428 306.495 202.188 312.996 202.188H313.921C320.423 202.188 325.707 207.428 325.707 213.875V213.875C325.707 220.346 320.447 225.561 313.921 225.561Z" fill="#06D0B6"/>
<path fill-rule="evenodd" clip-rule="evenodd" d="M72.0523 96.4308C70.713 97.0103 69.179 96.3342 68.7163 94.958C68.3754 93.9438 68.1319 93.3402 68.0345 92.8573C67.9128 92.1812 68.7407 90.8049 69.6903 89.163C70.2017 88.3179 70.4939 87.5936 70.5669 86.9899C70.6643 86.4104 70.5426 85.7585 70.2504 85.0824C69.8851 84.2374 69.3251 83.682 68.5702 83.4405C67.8154 83.1749 67.0605 83.2232 66.2813 83.5613C64.7473 84.2132 64.0655 85.4688 64.2359 87.3038C64.3577 88.5352 63.5541 89.6459 62.3609 89.984V89.984C60.7782 90.4186 59.1954 89.2596 59.1467 87.6177C59.098 86.1448 59.3659 84.7927 59.9503 83.5854C60.9243 81.5813 62.5314 80.1085 64.7716 79.1427C67.0605 78.1527 69.252 77.9837 71.3948 78.6356C73.5133 79.2875 75.023 80.5914 75.8996 82.5955C76.9954 85.0824 76.6058 87.7143 74.7552 90.491C73.9516 91.6983 73.5377 92.5675 73.4646 93.0746C73.4403 93.2436 73.4646 93.4609 73.489 93.7024C73.7081 94.8614 73.1237 95.9721 72.0523 96.4308V96.4308ZM75.2906 103.023L75.0715 103.119C73.6348 103.747 71.9546 103.071 71.3215 101.646V101.646C70.6884 100.222 71.3702 98.5557 72.8069 97.9279L73.026 97.8313C74.4627 97.2035 76.1429 97.8796 76.776 99.3042V99.3042C77.4091 100.729 76.7516 102.395 75.2906 103.023Z" fill="#06D0B6"/>
<path fill-rule="evenodd" clip-rule="evenodd" d="M85.0059 65.5246C83.0335 65.4281 81.5725 63.6654 81.8404 61.7338C82.0352 60.3092 82.1082 59.4158 82.303 58.7398C82.5709 57.8222 84.4215 56.6632 86.613 55.2387C87.7574 54.4901 88.561 53.7899 89.0236 53.138C89.4863 52.4619 89.7541 51.641 89.8028 50.6027C89.8759 49.3472 89.535 48.333 88.7558 47.5604C88.0009 46.7877 87.0269 46.3773 85.8825 46.3048C83.5936 46.1841 82.0108 47.2948 81.0855 49.6369C80.4767 51.2064 78.7966 52.0756 77.1408 51.7617V51.7617C74.9493 51.3271 73.7318 48.9608 74.6814 46.9326C75.5337 45.0975 76.6781 43.6247 78.1391 42.514C80.5498 40.6789 83.4231 39.8338 86.7591 40.027C90.1437 40.2202 92.944 41.3308 95.1355 43.4074C97.327 45.4839 98.3497 47.995 98.1793 50.9649C97.9845 54.6592 95.8904 57.6291 91.9213 59.9229C90.1924 60.9128 89.1454 61.7097 88.7558 62.3133C88.634 62.5065 88.5123 62.7721 88.4149 63.0859C88.0009 64.6071 86.5886 65.5971 85.0059 65.5246V65.5246ZM84.9088 75.5207L84.5922 75.4965C82.4494 75.3758 80.7936 73.5649 80.9153 71.4401V71.4401C81.0371 69.3153 82.8633 67.6734 85.0062 67.7941L85.3227 67.8182C87.4655 67.939 89.1213 69.7499 88.9996 71.8747V71.8747C88.9022 73.9995 87.0516 75.6414 84.9088 75.5207Z" fill="#06D0B6"/>
<path fill-rule="evenodd" clip-rule="evenodd" d="M369.27 238.503C369.673 238.503 370 238.827 370 239.227C370 239.613 369.696 239.928 369.312 239.95L369.27 239.952H0.730503C0.327058 239.952 0 239.627 0 239.227C0 238.842 0.304113 238.526 0.687581 238.504L0.730503 238.503H369.27Z" fill="#164E63"/>
</svg>
